<?xml version="1.0" encoding="utf-8"?>
<!-- Generator: Adobe Illustrator 21.1.0, SVG Export Plug-In . SVG Version: 6.00 Build 0)  -->
<svg version="1.1" id="Слой_1" xmlns="http://www.w3.org/2000/svg" xmlns:xlink="http://www.w3.org/1999/xlink" x="0px" y="0px"
	 viewBox="0 0 37.1 42.9" style="enable-background:new 0 0 37.1 42.9;" xml:space="preserve">
<style type="text/css">
	.st0{clip-path:url(#SVGID_2_);fill:#543F3F;}
	.st1{clip-path:url(#SVGID_2_);fill:none;stroke:#543F3F;stroke-width:0.75;stroke-miterlimit:10;}
</style>
<g>
	<defs>
		<rect id="SVGID_1_" y="0" width="37.1" height="42.9"/>
	</defs>
	<clipPath id="SVGID_2_">
		<use xlink:href="#SVGID_1_"  style="overflow:visible;"/>
	</clipPath>
	<path class="st0" d="M30.5,29.4v-0.6l6.1-6.1c0.2-0.2,0.2-0.7,0-0.9c-1.9-1.9-2.7-4.4-2.4-6.9v0c0.2-1.8,1-3.5,2.4-4.9
		c0.2-0.2,0.2-0.7,0-0.9l-8.1-8.1c-0.7-0.7-2-0.7-2.7,0L14.2,12.5h-0.6c-0.2,0-0.3,0.1-0.5,0.2L0.9,24.9c-0.7,0.7-0.7,2,0,2.7
		L15.4,42c0.7,0.7,2,0.7,2.7,0l12.2-12.2C30.4,29.7,30.5,29.5,30.5,29.4 M32.9,16.4c0.1,2.1,0.9,4.1,2.4,5.8l-1.8,1.8l-4.1-4.1
		L32.9,16.4z M28.5,20.8l4.1,4.1l-2.1,2.1v-0.3c0-0.4-0.3-0.6-0.6-0.6h-2.1v-2.1c0-0.4-0.3-0.6-0.6-0.6h-1.2L28.5,20.8z M32.1,6.4
		l3.2,3.2c-0.9,1-1.6,2.2-1.9,3.5l-3.9-3.9L32.1,6.4z M28.5,10L28.5,10l4.5,4.5L28.5,19l-4.5-4.5L28.5,10z M27.6,19.9L25,22.4v-1.2
		c0-0.4-0.3-0.6-0.6-0.6h-2.1v-2.1c0-0.4-0.3-0.6-0.6-0.6h-1.2l2.5-2.5L27.6,19.9z M26.7,1.8c0.2-0.2,0.7-0.2,0.9,0l3.6,3.6
		l-2.7,2.7l-4.1-4.1L26.7,1.8z M23.5,5l4.1,4.1L23,13.6L19,9.5L23.5,5z M18.1,10.4l4.1,4.1L19.6,17v-1.2c0-0.4-0.3-0.6-0.6-0.6h-2.1
		v-2.1c0-0.4-0.3-0.6-0.6-0.6H16L18.1,10.4z M17.2,41.1c-0.2,0.2-0.7,0.2-0.9,0L1.8,26.7c-0.2-0.2-0.2-0.7,0-0.9l12-12h0.6h1.2v2.1
		c0,0.4,0.3,0.6,0.6,0.6h2.1v2.1c0,0,0,0,0,0.1c0,0,0,0,0,0c0,0,0,0,0,0c0,0,0,0,0,0c0,0,0,0,0,0c0,0,0,0,0,0c0,0,0,0,0,0
		c0,0,0,0,0,0c0,0,0,0,0,0c0,0,0,0,0,0c0,0,0,0,0,0c0,0,0,0,0,0c0,0,0,0,0,0c0,0,0.1,0.1,0.1,0.1c0,0,0,0,0,0c0,0,0,0,0,0
		c0,0,0,0,0,0c0,0,0,0,0,0c0,0,0,0,0,0c0,0,0,0,0,0c0,0,0,0,0,0c0,0,0,0,0,0c0,0,0,0,0,0c0,0,0,0,0,0c0,0,0,0,0,0c0,0,0,0,0,0
		c0,0,0,0,0.1,0h2.1v2.1c0,0.4,0.3,0.6,0.6,0.6h2.1v2.1c0,0.1,0,0.1,0,0.2c0,0,0,0,0,0c0,0,0,0,0,0.1c0,0,0,0,0,0c0,0,0,0,0,0.1
		c0,0,0,0,0,0c0,0,0,0,0,0.1c0,0,0,0,0,0c0,0.1,0.1,0.1,0.2,0.2l0,0c0,0,0,0,0.1,0c0,0,0,0,0,0c0,0,0,0,0.1,0c0,0,0,0,0,0
		c0,0,0,0,0.1,0c0,0,0,0,0,0c0.1,0,0.1,0,0.2,0h2.1v2.1c0,0.4,0.3,0.6,0.6,0.6h2.1v1.2v0.6L17.2,41.1z"/>
	<path class="st1" d="M30.5,29.4v-0.6l6.1-6.1c0.2-0.2,0.2-0.7,0-0.9c-1.9-1.9-2.7-4.4-2.4-6.9v0c0.2-1.8,1-3.5,2.4-4.9
		c0.2-0.2,0.2-0.7,0-0.9l-8.1-8.1c-0.7-0.7-2-0.7-2.7,0L14.2,12.5h-0.6c-0.2,0-0.3,0.1-0.5,0.2L0.9,24.9c-0.7,0.7-0.7,2,0,2.7
		L15.4,42c0.7,0.7,2,0.7,2.7,0l12.2-12.2C30.4,29.7,30.5,29.5,30.5,29.4z M32.9,16.4c0.1,2.1,0.9,4.1,2.4,5.8l-1.8,1.8l-4.1-4.1
		L32.9,16.4z M28.5,20.8l4.1,4.1l-2.1,2.1v-0.3c0-0.4-0.3-0.6-0.6-0.6h-2.1v-2.1c0-0.4-0.3-0.6-0.6-0.6h-1.2L28.5,20.8z M32.1,6.4
		l3.2,3.2c-0.9,1-1.6,2.2-1.9,3.5l-3.9-3.9L32.1,6.4z M28.5,10L28.5,10l4.5,4.5L28.5,19l-4.5-4.5L28.5,10z M27.6,19.9L25,22.4v-1.2
		c0-0.4-0.3-0.6-0.6-0.6h-2.1v-2.1c0-0.4-0.3-0.6-0.6-0.6h-1.2l2.5-2.5L27.6,19.9z M26.7,1.8c0.2-0.2,0.7-0.2,0.9,0l3.6,3.6
		l-2.7,2.7l-4.1-4.1L26.7,1.8z M23.5,5l4.1,4.1L23,13.6L19,9.5L23.5,5z M18.1,10.4l4.1,4.1L19.6,17v-1.2c0-0.4-0.3-0.6-0.6-0.6h-2.1
		v-2.1c0-0.4-0.3-0.6-0.6-0.6H16L18.1,10.4z M17.2,41.1c-0.2,0.2-0.7,0.2-0.9,0L1.8,26.7c-0.2-0.2-0.2-0.7,0-0.9l12-12h0.6h1.2v2.1
		c0,0.4,0.3,0.6,0.6,0.6h2.1v2.1c0,0,0,0,0,0.1c0,0,0,0,0,0c0,0,0,0,0,0c0,0,0,0,0,0c0,0,0,0,0,0c0,0,0,0,0,0c0,0,0,0,0,0
		c0,0,0,0,0,0c0,0,0,0,0,0c0,0,0,0,0,0c0,0,0,0,0,0c0,0,0,0,0,0c0,0,0,0,0,0c0,0,0.1,0.1,0.1,0.1c0,0,0,0,0,0c0,0,0,0,0,0
		c0,0,0,0,0,0c0,0,0,0,0,0c0,0,0,0,0,0c0,0,0,0,0,0c0,0,0,0,0,0c0,0,0,0,0,0c0,0,0,0,0,0c0,0,0,0,0,0c0,0,0,0,0,0c0,0,0,0,0,0
		c0,0,0,0,0.1,0h2.1v2.1c0,0.4,0.3,0.6,0.6,0.6h2.1v2.1c0,0.1,0,0.1,0,0.2c0,0,0,0,0,0c0,0,0,0,0,0.1c0,0,0,0,0,0c0,0,0,0,0,0.1
		c0,0,0,0,0,0c0,0,0,0,0,0.1c0,0,0,0,0,0c0,0.1,0.1,0.1,0.2,0.2l0,0c0,0,0,0,0.1,0c0,0,0,0,0,0c0,0,0,0,0.1,0c0,0,0,0,0,0
		c0,0,0,0,0.1,0c0,0,0,0,0,0c0.1,0,0.1,0,0.2,0h2.1v2.1c0,0.4,0.3,0.6,0.6,0.6h2.1v1.2v0.6L17.2,41.1z"/>
</g>
</svg>
