<?xml version="1.0" encoding="utf-8"?>
<!-- Generator: Adobe Illustrator 21.1.0, SVG Export Plug-In . SVG Version: 6.00 Build 0)  -->
<svg version="1.1" id="Слой_1" xmlns="http://www.w3.org/2000/svg" xmlns:xlink="http://www.w3.org/1999/xlink" x="0px" y="0px"
	 viewBox="0 0 109.5 144" style="enable-background:new 0 0 109.5 144;" xml:space="preserve">
<style type="text/css">
	.st0{clip-path:url(#SVGID_2_);fill-rule:evenodd;clip-rule:evenodd;fill:#FFFFFF;}
</style>
<g>
	<defs>
		<rect id="SVGID_1_" x="0" width="6385.6" height="144"/>
	</defs>
	<clipPath id="SVGID_2_">
		<use xlink:href="#SVGID_1_"  style="overflow:visible;"/>
	</clipPath>
	<path class="st0" d="M109.5,72c0,39.8-24.5,72-54.8,72S0,111.8,0,72S24.5,0,54.8,0S109.5,32.2,109.5,72"/>
	<path class="st0" d="M243,72c0,39.8-24.5,72-54.8,72s-54.8-32.2-54.8-72S158,0,188.3,0S243,32.2,243,72"/>
	<path class="st0" d="M376.5,72c0,39.8-24.5,72-54.8,72S267,111.8,267,72s24.5-72,54.8-72S376.5,32.2,376.5,72"/>
	<path class="st0" d="M510,72c0,39.8-24.5,72-54.8,72s-54.8-32.2-54.8-72S425,0,455.3,0S510,32.2,510,72"/>
	<path class="st0" d="M643.5,72c0,39.8-24.5,72-54.8,72c-30.3,0-54.8-32.2-54.8-72s24.5-72,54.8-72C619,0,643.5,32.2,643.5,72"/>
	<path class="st0" d="M777,72c0,39.8-24.5,72-54.8,72c-30.3,0-54.8-32.2-54.8-72S692,0,722.2,0C752.5,0,777,32.2,777,72"/>
	<path class="st0" d="M910.5,72c0,39.8-24.5,72-54.8,72c-30.3,0-54.8-32.2-54.8-72s24.5-72,54.8-72C886,0,910.5,32.2,910.5,72"/>
	<path class="st0" d="M1044,72c0,39.8-24.5,72-54.8,72c-30.3,0-54.8-32.2-54.8-72S959,0,989.2,0C1019.5,0,1044,32.2,1044,72"/>
	<path class="st0" d="M1177.5,72c0,39.8-24.5,72-54.8,72s-54.8-32.2-54.8-72s24.5-72,54.8-72S1177.5,32.2,1177.5,72"/>
	<path class="st0" d="M1311,72c0,39.8-24.5,72-54.8,72s-54.8-32.2-54.8-72s24.5-72,54.8-72S1311,32.2,1311,72"/>
	<path class="st0" d="M1444.5,72c0,39.8-24.5,72-54.8,72s-54.8-32.2-54.8-72s24.5-72,54.8-72S1444.5,32.2,1444.5,72"/>
	<path class="st0" d="M1578,72c0,39.8-24.5,72-54.8,72c-30.2,0-54.8-32.2-54.8-72s24.5-72,54.8-72C1553.5,0,1578,32.2,1578,72"/>
	<path class="st0" d="M1711.5,72c0,39.8-24.5,72-54.8,72s-54.8-32.2-54.8-72s24.5-72,54.8-72S1711.5,32.2,1711.5,72"/>
	<path class="st0" d="M1845,72c0,39.8-24.5,72-54.8,72s-54.8-32.2-54.8-72s24.5-72,54.8-72S1845,32.2,1845,72"/>
	<path class="st0" d="M1978.5,72c0,39.8-24.5,72-54.8,72s-54.8-32.2-54.8-72s24.5-72,54.8-72S1978.5,32.2,1978.5,72"/>
	<path class="st0" d="M2111.9,72c0,39.8-24.5,72-54.8,72s-54.8-32.2-54.8-72s24.5-72,54.8-72S2111.9,32.2,2111.9,72"/>
	<path class="st0" d="M2245.4,72c0,39.8-24.5,72-54.8,72s-54.8-32.2-54.8-72s24.5-72,54.8-72S2245.4,32.2,2245.4,72"/>
	<path class="st0" d="M2378.9,72c0,39.8-24.5,72-54.8,72c-30.2,0-54.8-32.2-54.8-72s24.5-72,54.8-72C2354.4,0,2378.9,32.2,2378.9,72
		"/>
	<path class="st0" d="M2512.4,72c0,39.8-24.5,72-54.8,72s-54.8-32.2-54.8-72s24.5-72,54.8-72S2512.4,32.2,2512.4,72"/>
	<path class="st0" d="M2645.9,72c0,39.8-24.5,72-54.8,72s-54.8-32.2-54.8-72s24.5-72,54.8-72S2645.9,32.2,2645.9,72"/>
	<path class="st0" d="M2779.4,72c0,39.8-24.5,72-54.8,72s-54.8-32.2-54.8-72s24.5-72,54.8-72S2779.4,32.2,2779.4,72"/>
	<path class="st0" d="M2912.9,72c0,39.8-24.5,72-54.8,72s-54.8-32.2-54.8-72s24.5-72,54.8-72S2912.9,32.2,2912.9,72"/>
	<path class="st0" d="M3046.4,72c0,39.8-24.5,72-54.8,72s-54.8-32.2-54.8-72s24.5-72,54.8-72S3046.4,32.2,3046.4,72"/>
	<path class="st0" d="M3179.9,72c0,39.8-24.5,72-54.8,72c-30.2,0-54.8-32.2-54.8-72s24.5-72,54.8-72C3155.4,0,3179.9,32.2,3179.9,72
		"/>
	<path class="st0" d="M3315.3,72c0,39.8-24.5,72-54.8,72s-54.8-32.2-54.8-72s24.5-72,54.8-72S3315.3,32.2,3315.3,72"/>
	<path class="st0" d="M3448.8,72c0,39.8-24.5,72-54.8,72s-54.8-32.2-54.8-72s24.5-72,54.8-72S3448.8,32.2,3448.8,72"/>
	<path class="st0" d="M3582.3,72c0,39.8-24.5,72-54.8,72s-54.8-32.2-54.8-72s24.5-72,54.8-72S3582.3,32.2,3582.3,72"/>
	<path class="st0" d="M3715.8,72c0,39.8-24.5,72-54.8,72s-54.8-32.2-54.8-72s24.5-72,54.8-72S3715.8,32.2,3715.8,72"/>
	<path class="st0" d="M3849.3,72c0,39.8-24.5,72-54.8,72c-30.2,0-54.8-32.2-54.8-72s24.5-72,54.8-72C3824.7,0,3849.3,32.2,3849.3,72
		"/>
	<path class="st0" d="M3982.7,72c0,39.8-24.5,72-54.8,72s-54.8-32.2-54.8-72s24.5-72,54.8-72S3982.7,32.2,3982.7,72"/>
	<path class="st0" d="M4116.2,72c0,39.8-24.5,72-54.8,72s-54.8-32.2-54.8-72s24.5-72,54.8-72S4116.2,32.2,4116.2,72"/>
	<path class="st0" d="M4249.7,72c0,39.8-24.5,72-54.8,72s-54.8-32.2-54.8-72s24.5-72,54.8-72S4249.7,32.2,4249.7,72"/>
	<path class="st0" d="M4383.2,72c0,39.8-24.5,72-54.8,72s-54.8-32.2-54.8-72s24.5-72,54.8-72S4383.2,32.2,4383.2,72"/>
	<path class="st0" d="M4516.7,72c0,39.8-24.5,72-54.8,72s-54.8-32.2-54.8-72s24.5-72,54.8-72S4516.7,32.2,4516.7,72"/>
	<path class="st0" d="M4650.2,72c0,39.8-24.5,72-54.8,72c-30.2,0-54.8-32.2-54.8-72s24.5-72,54.8-72C4625.7,0,4650.2,32.2,4650.2,72
		"/>
	<path class="st0" d="M4783.7,72c0,39.8-24.5,72-54.8,72s-54.8-32.2-54.8-72s24.5-72,54.8-72S4783.7,32.2,4783.7,72"/>
	<path class="st0" d="M4917.2,72c0,39.8-24.5,72-54.8,72s-54.8-32.2-54.8-72s24.5-72,54.8-72S4917.2,32.2,4917.2,72"/>
	<path class="st0" d="M5050.7,72c0,39.8-24.5,72-54.8,72s-54.8-32.2-54.8-72s24.5-72,54.8-72S5050.7,32.2,5050.7,72"/>
	<path class="st0" d="M5184.2,72c0,39.8-24.5,72-54.8,72s-54.8-32.2-54.8-72s24.5-72,54.8-72S5184.2,32.2,5184.2,72"/>
	<path class="st0" d="M5317.7,72c0,39.8-24.5,72-54.8,72s-54.8-32.2-54.8-72s24.5-72,54.8-72S5317.7,32.2,5317.7,72"/>
	<path class="st0" d="M5451.2,72c0,39.8-24.5,72-54.8,72c-30.2,0-54.8-32.2-54.8-72s24.5-72,54.8-72C5426.6,0,5451.2,32.2,5451.2,72
		"/>
	<path class="st0" d="M5584.7,72c0,39.8-24.5,72-54.8,72s-54.8-32.2-54.8-72s24.5-72,54.8-72S5584.7,32.2,5584.7,72"/>
	<path class="st0" d="M5718.2,72c0,39.8-24.5,72-54.8,72s-54.8-32.2-54.8-72s24.5-72,54.8-72S5718.2,32.2,5718.2,72"/>
	<path class="st0" d="M5851.7,72c0,39.8-24.5,72-54.8,72s-54.8-32.2-54.8-72s24.5-72,54.8-72S5851.7,32.2,5851.7,72"/>
	<path class="st0" d="M5985.1,72c0,39.8-24.5,72-54.8,72s-54.8-32.2-54.8-72s24.5-72,54.8-72S5985.1,32.2,5985.1,72"/>
	<path class="st0" d="M6118.6,72c0,39.8-24.5,72-54.8,72s-54.8-32.2-54.8-72s24.5-72,54.8-72S6118.6,32.2,6118.6,72"/>
	<path class="st0" d="M6252.1,72c0,39.8-24.5,72-54.8,72c-30.2,0-54.8-32.2-54.8-72s24.5-72,54.8-72C6227.6,0,6252.1,32.2,6252.1,72
		"/>
	<path class="st0" d="M6385.6,72c0,39.8-24.5,72-54.8,72s-54.8-32.2-54.8-72s24.5-72,54.8-72S6385.6,32.2,6385.6,72"/>
</g>
</svg>
