<svg id="Слой_1" xmlns="http://www.w3.org/2000/svg" viewBox="0 0 424.5 27.3">
    <style>
        .st0,.st1{fill:#426c66;stroke:#426c66;stroke-width:.5;stroke-miterlimit:10}.st1{fill:#d65970;stroke:#d65970}
    </style>
    <path class="st0" d="M129 26.7H2.4c-1.1 0-2-.9-2-2V2c0-1.1.9-2 2-2H129c1.1 0 2 .9 2 2v22.6c0 1.1-.9 2.1-2 2.1zM2.4 1c-.6 0-1 .5-1 1v22.6c0 .6.5 1 1 1H129c.6 0 1-.5 1-1V2c0-.6-.5-1-1-1H2.4z"/>
    <path class="st0" d="M20.8 9.1c.2 0 .3.1.3.3v7.9c0 .2-.1.3-.3.3h-.5c-.2 0-.3-.1-.3-.3v-6.8l-2.2 1.2c-.2.1-.4.1-.5-.1l-.2-.4c-.1-.2 0-.3.1-.4l2.7-1.5c.1-.1.3-.1.4-.1h.5z"/>
    <path class="st0" d="M23.8 11.8C23.8 10 25 9 27 9s3.1 1.1 3.1 2.9V15c0 1.8-1.2 2.9-3.1 2.9-2 0-3.1-1.1-3.1-2.9v-3.2zm5.1 0c0-1.1-.7-1.8-2-1.8s-2 .7-2 1.8V15c0 1.1.7 1.8 2 1.8 1.2 0 2-.7 2-1.8v-3.2z"/>
    <path class="st0" d="M32.6 11.8c0-1.8 1.2-2.9 3.1-2.9 2 0 3.1 1.1 3.1 2.9V15c0 1.8-1.2 2.9-3.1 2.9-2 0-3.1-1.1-3.1-2.9v-3.2zm5.1 0c0-1.1-.7-1.8-2-1.8s-2 .7-2 1.8V15c0 1.1.7 1.8 2 1.8 1.2 0 2-.7 2-1.8v-3.2z"/>
    <path class="st0" d="M41.2 10.7c0-1.1.7-1.8 2-1.8s2 .7 2 1.8v.9c0 1.1-.7 1.8-2 1.8s-2-.7-2-1.8v-.9zm3 .1c0-.6-.4-1-1-1-.7 0-1 .3-1 1v.8c0 .6.4 1 1 1 .7 0 1-.3 1-1v-.8zM49 9.1c.2 0 .3.1.1.3l-5.9 8c-.2.3-.2.3-.6.3h-.4c-.2 0-.3-.1-.2-.3l5.9-8c.2-.2.2-.3.6-.3h.5zm-2.7 6.1c0-1.1.7-1.8 2-1.8s2 .7 2 1.8v.9c0 1.1-.7 1.8-2 1.8s-2-.7-2-1.8v-.9zm3 .1c0-.6-.4-1-1-1-.7 0-1 .3-1 1v.8c0 .6.4 1 1 1 .7 0 1-.3 1-1v-.8z"/>
    <path class="st0" d="M56.4 12c0-1.9 1.2-3.1 3.4-3.1s3.4 1.2 3.4 3.1v2.7c0 1.9-1.2 3.1-3.4 3.1s-3.4-1.2-3.4-3.1V12zm5.6 0c0-1.3-.8-2-2.2-2-1.4 0-2.2.7-2.2 2v2.7c0 1.3.8 2 2.2 2 1.4 0 2.2-.7 2.2-2V12z"/>
    <path class="st0" d="M69.6 9.1c1.6 0 2.6.9 2.6 2.6 0 1.3-.7 2.1-1.8 2.4.2.1.4.3.6.7l1.3 2.6c.1.2.1.3-.2.3h-.5c-.4 0-.5 0-.6-.3l-1.1-2.2c-.3-.7-.7-1-1.6-1H67v3.1c0 .2-.1.3-.3.3h-.5c-.2 0-.3-.1-.3-.3V9.5c0-.2.1-.3.3-.3h3.4zm-.1 1.1h-2.4v3h2.4c1 0 1.5-.5 1.5-1.5 0-.9-.6-1.5-1.5-1.5z"/>
    <path class="st0" d="M81.1 13.1c.2 0 .3.1.3.3V15c0 1.7-1.2 2.9-3.4 2.9s-3.4-1.2-3.4-3.1V12c0-1.9 1.2-3.1 3.4-3.1 1.7 0 2.8.7 3.2 2 .1.2 0 .3-.2.4l-.5.2c-.2.1-.3 0-.4-.2-.2-.8-.9-1.3-2.1-1.3-1.4 0-2.2.7-2.2 2v2.8c0 1.3.8 2 2.2 2 1.4 0 2.2-.7 2.2-1.8v-.8h-2.1c-.2 0-.3-.1-.3-.3v-.5c0-.2.1-.3.3-.3h3z"/>
    <path class="st0" d="M90.8 17.4c.1.2 0 .3-.2.3h-.5c-.4 0-.5 0-.6-.3l-.7-2h-3.6l-.7 2c-.1.2-.2.3-.6.3h-.4c-.2 0-.3-.1-.2-.3l3.1-8c.1-.2.2-.3.4-.3h.5c.2 0 .3.1.4.3l3.1 8zm-3.6-6.1c-.1-.4-.2-.8-.2-1.1h-.1v.2c0 .2-.1.6-.2 1l-1.2 3.2h2.9l-1.2-3.3z"/>
    <path class="st0" d="M99.1 9.1c.2 0 .3.1.3.3v7.9c0 .2-.1.3-.3.3h-.5c-.1 0-.3 0-.3-.2l-3.4-5c-.2-.3-.4-.7-.6-1.1l-.4-.7h-.1s0 .3.1.8.1 1 .1 1.4v4.5c0 .2-.1.3-.3.3h-.5c-.2 0-.3-.1-.3-.3V9.5c0-.2.1-.3.3-.3h.5c.1 0 .3 0 .3.2l3.4 4.9c.2.3.4.7.7 1.2.2.5.3.7.4.7h.1s0-.3-.1-.9c-.1-.5-.1-1-.1-1.5V9.5c0-.2.1-.3.3-.3h.4z"/>
    <path class="st0" d="M102.5 9.5c0-.2.1-.3.3-.3h.5c.2 0 .3.1.3.3v7.9c0 .2-.1.3-.3.3h-.5c-.2 0-.3-.1-.3-.3V9.5z"/>
    <path class="st0" d="M106.4 12c0-1.9 1.2-3.1 3.4-3.1 1.7 0 2.8.7 3.2 2 .1.2 0 .3-.2.4l-.5.2c-.2.1-.3 0-.4-.2-.3-.9-.9-1.4-2.1-1.4-1.4 0-2.2.7-2.2 2v2.8c0 1.3.8 2 2.2 2 1.2 0 1.8-.4 2.1-1.4.1-.2.2-.3.4-.2l.5.2c.2.1.3.2.2.4-.4 1.4-1.5 2.1-3.3 2.1-2.2 0-3.4-1.2-3.4-3.1V12z"/>
    <path class="st0" d="M209 26.7h-71.2c-.9 0-1.6-.7-1.6-1.6V1.6c0-.9.7-1.6 1.6-1.6H209c.9 0 1.6.7 1.6 1.6V25c0 .9-.7 1.7-1.6 1.7zM137.8 1c-.4 0-.6.3-.6.6V25c0 .4.3.6.6.6H209c.4 0 .6-.3.6-.6V1.6c0-.4-.3-.6-.6-.6h-71.2z"/>
    <path class="st0" d="M159.7 9.7c.2 0 .3.1.2.3l-3 8c-.1.2-.2.3-.4.3h-.5c-.2 0-.3-.1-.4-.3l-3-8c-.1-.2 0-.3.2-.3h.5c.4 0 .5 0 .6.3l2.1 5.8c.1.4.3 1.1.3 1.1s.2-.7.3-1.1l2.1-5.8c.1-.2.2-.3.6-.3h.4z"/>
    <path class="st0" d="M166.9 9.7c.2 0 .3.1.3.3v.5c0 .2-.1.3-.3.3h-4v2.6h3.4c.2 0 .3.1.3.3v.4c0 .2-.1.3-.3.3h-3.4v2.7h4.1c.2 0 .3.1.3.3v.6c0 .2-.1.3-.3.3h-5c-.2 0-.3-.1-.3-.3v-8c0-.2.1-.3.3-.3h4.9z"/>
    <path class="st0" d="M175.7 13.7c.2 0 .3.1.3.3v1.5c0 1.7-1.2 2.9-3.4 2.9s-3.4-1.2-3.4-3.1v-2.7c0-1.9 1.2-3.1 3.4-3.1 1.7 0 2.8.7 3.2 2 .1.2 0 .3-.2.4l-.5.2c-.2.1-.3 0-.4-.2-.3-.9-.9-1.4-2.1-1.4-1.4 0-2.2.7-2.2 2v2.8c0 1.3.8 2 2.2 2 1.4 0 2.2-.7 2.2-1.8v-.8h-2.1c-.2 0-.3-.1-.3-.3V14c0-.2.1-.3.3-.3h3z"/>
    <path class="st0" d="M185.1 18c.1.2 0 .3-.2.3h-.5c-.4 0-.5 0-.6-.3l-.7-2h-3.6l-.7 2c-.1.2-.2.3-.6.3h-.4c-.2 0-.3-.1-.2-.3l3.1-8c.1-.2.2-.3.4-.3h.5c.2 0 .3.1.4.3l3.1 8zm-3.5-6.1c-.1-.4-.2-.8-.2-1.1h-.1v.2c0 .2-.1.6-.2 1l-1.2 3.2h2.9l-1.2-3.3z"/>
    <path class="st0" d="M193.2 9.7c.2 0 .3.1.3.3v8c0 .2-.1.3-.3.3h-.5c-.1 0-.3 0-.3-.2l-3.4-5c-.2-.3-.4-.7-.6-1.1l-.4-.7h-.1s0 .3.1.8.1 1 .1 1.4V18c0 .2-.1.3-.3.3h-.5c-.2 0-.3-.1-.3-.3v-8c0-.2.1-.3.3-.3h.5c.1 0 .3 0 .3.2l3.4 4.9c.2.3.4.7.7 1.2.2.5.3.7.4.7h.1s0-.3-.1-.9c-.1-.5-.1-1-.1-1.5V10c0-.2.1-.3.3-.3h.4z"/>
    <g>
        <path class="st1" d="M339.4 14c.2 0 .3.1.3.3v1.4c0 1.5-1.1 2.5-3 2.5s-3-1-3-2.7v-2.4c0-1.7 1.1-2.7 3-2.7 1.5 0 2.5.6 2.8 1.8.1.2 0 .3-.2.4l-.4.1c-.2.1-.3 0-.4-.2-.3-.8-.8-1.2-1.9-1.2-1.3 0-1.9.6-1.9 1.7v2.4c0 1.1.7 1.8 1.9 1.8s1.9-.6 1.9-1.6V15h-1.8c-.2 0-.3-.1-.3-.3v-.4c0-.2.1-.3.3-.3h2.7z"/>
        <path class="st1" d="M348.5 10.5c.2 0 .3.1.3.3v7c0 .2-.1.3-.3.3h-.5c-.2 0-.3-.1-.3-.3V14c0-.6.1-1.2.2-2h-.1c-.2.5-.5 1.1-.8 1.8l-1.3 2.4c-.1.1-.2.2-.3.2h-.3c-.1 0-.3-.1-.3-.2l-1.4-2.4c-.3-.5-.6-1.1-.8-1.8h-.1c.1.7.2 1.3.2 2v3.8c0 .2-.1.3-.3.3h-.4c-.2 0-.3-.1-.3-.3v-7c0-.2.1-.3.3-.3h.4c.2 0 .3 0 .4.2l2.4 4.3 2.4-4.3c.1-.2.2-.2.4-.2h.5z"/>
        <path class="st1" d="M350.9 13.1c0-1.7 1.1-2.7 3-2.7s3 1 3 2.7v2.4c0 1.7-1.1 2.7-3 2.7s-3-1-3-2.7v-2.4zm4.9 0c0-1.1-.7-1.8-1.9-1.8s-1.9.6-1.9 1.8v2.4c0 1.1.7 1.8 1.9 1.8s1.9-.6 1.9-1.8v-2.4z"/>
    </g>
    <g>
        <path class="st1" d="M362.6 1.3L328 26.5"/>
        <path class="st1" d="M328.1 26.7l-.3-.4 34.7-25.2.3.4z"/>
    </g>
    <path class="st1" d="M361.8 26.7H328c-.6 0-1-.5-1-1V1.3c0-.6.5-1 1-1h33.8c.6 0 1 .5 1 1v24.3c.1.7-.4 1.1-1 1.1zM328 .8c-.3 0-.5.2-.5.5v24.3c0 .3.2.5.5.5h33.8c.3 0 .5-.2.5-.5V1.3c0-.3-.2-.5-.5-.5H328z"/>
    <g>
        <path class="st1" d="M321.5 1.2l-34.8 25.4"/>
        <path class="st1" d="M286.8 26.8l-.3-.4L321.4 1l.3.4z"/>
    </g>
    <path class="st1" d="M320.7 26.8h-34.1c-.6 0-1.1-.5-1.1-1.1V1.3c0-.6.5-1.1 1.1-1.1h34.1c.6 0 1.1.5 1.1 1.1v24.5c0 .6-.5 1-1.1 1zM286.7.7c-.3 0-.5.2-.5.5v24.5c0 .3.2.5.5.5h34.1c.3 0 .5-.2.5-.5V1.3c0-.3-.2-.5-.5-.5h-34.1z"/>
    <g>
        <path class="st1" d="M423.9 1.3l-53.6 25.2"/>
        <path transform="rotate(-25.163 397.135 13.892)" class="st1" d="M367.5 13.6h59.1v.5h-59.1z"/>
    </g>
    <path class="st1" d="M422.9 26.7h-52.8c-.7 0-1.2-.6-1.2-1.2v-24c0-.7.6-1.2 1.2-1.2h52.8c.7 0 1.2.6 1.2 1.2v23.9c0 .8-.5 1.3-1.2 1.3zM370.1.8c-.4 0-.7.3-.7.7v23.9c0 .4.3.7.7.7h52.8c.4 0 .7-.3.7-.7V1.5c0-.4-.3-.7-.7-.7h-52.8z"/>
    <g>
        <path class="st1" d="M296.7 10.5c2 0 3.1 1.1 3.1 2.8v1.9c0 1.7-1.1 2.8-3.1 2.8h-2.3c-.2 0-.3-.1-.3-.3v-7c0-.2.1-.3.3-.3h2.3zm2.1 2.8c0-1.2-.7-1.8-2.1-1.8h-1.6v5.6h1.6c1.3 0 2.1-.7 2.1-1.8v-2z"/>
        <path class="st1" d="M307.2 10.5c.2 0 .3.1.1.3l-2.7 4.3v2.7c0 .2-.1.3-.3.3h-.5c-.2 0-.3-.1-.3-.3V15l-2.7-4.2c-.1-.1-.1-.3.1-.3h.6c.3 0 .4 0 .5.2l2 3.2 2-3.2c.1-.2.2-.2.5-.2h.7z"/>
        <path class="st1" d="M313.7 10.5c.2 0 .3.1.3.3v.4c0 .2-.1.3-.3.3h-3.5v2.3h3c.2 0 .3.1.3.3v.4c0 .2-.1.3-.3.3h-3v2.4h3.7c.2 0 .3.1.3.3v.4c0 .2-.1.3-.3.3h-4.4c-.2 0-.3-.1-.3-.3v-7c0-.2.1-.3.3-.3h4.2z"/>
    </g>
    <g>
        <path class="st1" d="M381.4 14c.2 0 .3.1.3.3v1.4c0 1.5-1.1 2.5-3 2.5s-3-1-3-2.7v-2.4c0-1.7 1.1-2.7 3-2.7 1.5 0 2.5.6 2.8 1.8.1.2 0 .3-.2.4l-.4.1c-.2.1-.3 0-.4-.2-.3-.8-.8-1.2-1.9-1.2-1.3 0-1.9.6-1.9 1.7v2.4c0 1.1.7 1.8 1.9 1.8s1.9-.6 1.9-1.6V15h-1.8c-.2 0-.3-.1-.3-.3v-.4c0-.2.1-.3.3-.3h2.7z"/>
        <path class="st1" d="M384.5 10.5c.2 0 .3.1.3.3v6.3h3.3c.2 0 .3.1.3.3v.4c0 .2-.1.3-.3.3H384c-.2 0-.3-.1-.3-.3v-7c0-.2.1-.3.3-.3h.5z"/>
        <path class="st1" d="M390.8 15.5c0 1.1.6 1.8 1.9 1.8 1.2 0 1.9-.7 1.9-1.8v-4.7c0-.2.1-.3.3-.3h.5c.2 0 .3.1.3.3v4.7c0 1.7-1 2.7-2.9 2.7s-2.9-1-2.9-2.7v-4.7c0-.2.1-.3.3-.3h.5c.2 0 .3.1.3.3v4.7z"/>
        <path class="st1" d="M402.6 10.5c.2 0 .3.1.3.3v.4c0 .2-.1.3-.3.3h-2v6.3c0 .2-.1.3-.3.3h-.5c-.2 0-.3-.1-.3-.3v-6.3h-2c-.2 0-.3-.1-.3-.3v-.4c0-.2.1-.3.3-.3h5.1z"/>
        <path class="st1" d="M409.1 10.5c.2 0 .3.1.3.3v.4c0 .2-.1.3-.3.3h-3.5v2.3h3c.2 0 .3.1.3.3v.4c0 .2-.1.3-.3.3h-3v2.4h3.6c.2 0 .3.1.3.3v.4c0 .2-.1.3-.3.3h-4.4c-.2 0-.3-.1-.3-.3v-7c0-.2.1-.3.3-.3h4.3z"/>
        <path class="st1" d="M417 10.5c.2 0 .3.1.3.3v7c0 .2-.1.3-.3.3h-.5c-.1 0-.2 0-.3-.1l-3-4.4c-.2-.3-.3-.6-.5-1l-.3-.6h-.1s0 .3.1.7c.1.5.1.9.1 1.2v3.9c0 .2-.1.3-.3.3h-.4c-.2 0-.3-.1-.3-.3v-7c0-.2.1-.3.3-.3h.5c.1 0 .2 0 .3.1l3 4.3c.2.3.4.6.6 1 .2.4.3.6.3.7h.1s0-.3-.1-.8-.1-.9-.1-1.3v-3.8c0-.2.1-.3.3-.3h.3z"/>
    </g>
    <g>
        <path class="st1" d="M238.8 9.2c1.4 0 2.2.5 2.8 1.6.1.2 0 .3-.1.4l-.4.2c-.2.1-.3.1-.4-.1-.4-.7-.9-1.1-1.8-1.1-1.2 0-1.8.4-1.8 1.2 0 .6.3.8.9 1 .4.1.7.2 1.2.2.6.1 1 .1 1.5.3.3.1.5.2.6.4.3.3.6.8.6 1.4 0 1.4-1.1 2.3-2.9 2.3-1.6 0-2.4-.6-2.9-1.8-.1-.2 0-.3.2-.4l.4-.2c.2-.1.3 0 .4.2.3.8 1 1.2 1.9 1.2 1.3 0 1.9-.4 1.9-1.3 0-.4-.2-.7-.6-.9-.4-.2-.7-.2-1.3-.3-.5-.1-.8-.1-1.3-.2-.3-.1-.5-.1-.6-.2-.5-.3-1-.8-.9-1.7-.2-1.3.8-2.2 2.6-2.2z"/>
        <path class="st1" d="M244.6 14.3c0 1.1.6 1.8 1.9 1.8 1.2 0 1.9-.7 1.9-1.8V9.7c0-.2.1-.3.3-.3h.5c.2 0 .3.1.3.3v4.7c0 1.7-1 2.7-2.9 2.7s-2.9-1-2.9-2.7V9.7c0-.2.1-.3.3-.3h.5c.2 0 .3.1.3.3v4.6z"/>
        <path class="st1" d="M257.1 12.9c.2 0 .3.1.3.3v1.4c0 1.5-1.1 2.5-3 2.5s-3-1-3-2.7V12c0-1.7 1.1-2.7 3-2.7 1.5 0 2.5.6 2.8 1.8.1.2 0 .3-.2.4l-.4.1c-.2.1-.3 0-.4-.2-.3-.8-.8-1.2-1.9-1.2-1.3 0-1.9.6-1.9 1.7v2.4c0 1.1.7 1.8 1.9 1.8s1.9-.6 1.9-1.6v-.7h-1.8c-.2 0-.3-.1-.3-.3v-.4c0-.2.1-.3.3-.3h2.7z"/>
        <path class="st1" d="M265.4 16.6c.1.2 0 .3-.2.3h-.4c-.3 0-.4 0-.5-.2l-.7-1.7h-3.1l-.7 1.7c-.1.2-.2.2-.5.2h-.4c-.2 0-.3-.1-.2-.3l2.7-7c.1-.2.2-.2.3-.2h.4c.2 0 .3.1.3.2l3 7zm-3.1-5.3c-.1-.4-.2-.7-.2-1h-.1v.1c0 .2-.1.5-.2.8l-1.1 2.8h2.6l-1-2.7z"/>
        <path class="st1" d="M270.2 9.4c1.4 0 2.3.8 2.3 2.3 0 1.1-.6 1.9-1.6 2.1.2.1.4.3.5.6l1.2 2.3c.1.2.1.3-.1.3h-.5c-.3 0-.5 0-.5-.2l-1-1.9c-.3-.6-.6-.8-1.4-.8H268v2.7c0 .2-.1.3-.3.3h-.5c-.2 0-.3-.1-.3-.3v-7c0-.2.1-.3.3-.3h3zm-.1.9H268v2.6h2.1c.8 0 1.3-.5 1.3-1.3s-.4-1.3-1.3-1.3z"/>
    </g>
    <g>
        <path class="st1" d="M279.4 1.4l-49.9 24.9"/>
        <path class="st1" d="M229.6 26.6l-.2-.5 49.9-24.9.2.5z"/>
    </g>
    <path class="st1" d="M278.4 26.8h-48.2c-.7 0-1.2-.5-1.2-1.2V1.4c0-.7.5-1.2 1.2-1.2h48.2c.7 0 1.2.5 1.2 1.2v24.2c0 .7-.5 1.2-1.2 1.2zM230.2.7c-.4 0-.7.3-.7.7v24.2c0 .4.3.7.7.7h48.2c.4 0 .7-.3.7-.7V1.4c0-.4-.3-.7-.7-.7h-48.2z"/>
</svg>
