<svg id="Слой_1" xmlns="http://www.w3.org/2000/svg" viewBox="0 0 3914.5 2076.8">
    <style>
        .st0{fill-rule:evenodd;clip-rule:evenodd;fill:#ccc}
    </style>
    <path class="st0" d="M545.3 94.2c-8.9 11.3 2.5 24.5 18.7 31.1 7.5 9-2.3 19.3-2.4 28.9-9.4 2.6-18.9 5.2-29.6 8.2 40 18.4 38.1 29.4-5.8 59.7-1.5 1.1-2.9 2.2-4 3.3h-68.7v69.5c-15.1 5.9-17.5 18.9-20.1 32.1-4.4 4.3-8.7 8.5-13 12.7-12.8 3.9-21.2 11.4-29.3 19.1-14.6-7.2-8.7-19.8-9.6-30.6 7.2-4.3 20.7-6.2 17-13.3-4-7.4-11-1.1-14.4 3.9-1.9 2.8-2.1 6-3.2 9.6-23.1 12-18.5 26.4-14.7 40.6-21.5 14.8-30 33.5-39.9 51.9-3.6 10.8-7.2 21.7-10.9 32.5-5.6 7.1-11.2 14.2-16.7 21.3-17.7 10-25.7 21.6-18.8 35.7-14 9.8-33.9 17.1-31.1 33.7-5.1 18.7-36.4 32.8-29 53.7-1.4 2.7-2.6 5.5-3.9 8.2-5.5 7.5-11 14.9-16.3 22.4-4.8 8.9-9.8 17.8-14.6 26.7-4.1 4.1-8.2 8.3-12.3 12.4-16.5.8-25.8 7.7-29.6 19.2-12.1 12.3-9.1 28.6-26.7 39.5 2.3 23.8-32.5 50.2-5.9 72.2 1.6 1.7 3.2 3.4 4.7 5.2-4.2 15.6-19.2 30.9-12.1 46.8.9 4.7-2.8 12.1 6.9 12.3 13 .3 12.1-7.5 13.2-13.6l.2-.3c7.6-5.4 15.1-10.8 22.8-16.2-.2 6.5-.4 12.9-.6 19.4-12.7 10.3-6.2 21.7-10.9 32.6-2 15.5-17.3 36.9 23.4 33.6 6.2 4.1 12.5 8.3 18.7 12.4 4.2-4.1 8.5-8.1 12.8-12.3 4 .5 8.1 1.1 12.2 1.6 3.3 5.6 6.7 11.3 10.1 17l-.5-1.7 2.4-.9c.1.7.2 1.4.4 2.1-.8.2-1.5.4-2.3.6-2.5 2.8-3.3 5.2-3.2 7.4-7.9 2.4-12.1 7.6-12.3 14.3-.3 8.6 8.7 3.3 14.5 1.8.8 1.9 1.5 3.8 2.2 5.8-18.4 12.8-15.5 27.1-14.2 41.3.9 1.8 1.5 3.7 1.7 5.6-15.6 6.7-1 30.4-32.4 28.2-17.2 11.2-15.8 25.3-16.5 37.9-1.1 22.2-7.3 45.1.5 66.2-1.4 3.1-2.8 6.2-4.2 9.2-16.6 7.7-22.6 18.2-20.4 30.7 2.3 3.5 4.6 6.8 7 10.3 4.4 7.2 9 14.3 13.6 21.5-1.1 1.7-1.2 3.2-.3 4.7-7.8 10.8-3.9 20.5-1.3 30.3-1.7 7.7-3.4 15.5-5.1 23.3-2.4 1.1-4.7 2.2-7.1 3.2-9.4 1.9-22.3-1.5-24.6 10.7-16 6.8-12.7 17-14.3 26.3 1.9 10.8 7.8 20 17.6 27.6-.9 3-1.8 6-2.9 9-16.6.4-16.1-12-27.7-18.9-5 18.7 12.5 30.2 12.6 45.6 10.7 16.4 21.3 32.7 32.2 49 14.2 21.5 28.7 42.9 42.8 64.5 5.9 9.1 10.9 18.9 30.1 15.9 3.4-5.9 6.7-11.8 10.1-17.6 2.8-1.4 5.7-2.8 8.5-4.2 4.8 2.7 9.6 5.4 14.3 8.1 5.3 16.3 29.1 26.3 22.7 46.7-3.1 24.1 8.4 42.1 34.8 53.7h-.1c16 19.5 16.2 48.2 55.6 54 19.8 15 3.1 44.9 34.1 55.3 7.2 15.6 28.9 25.1 28.7 43.9-7.1 11.7-3.5 20.3 9.9 26 17.1 10.1-3.8 31 14.2 40.9.6 3 1.2 6 1.7 9.1 6.3.3 12.6.5 18.9.8v109.1h370.1c3.4 1.9 16.3 2.4 26.9 3.1 22 1.4 41.3 3.4 68.2 3.6 2.2.3 4.5.7 6.6 1-3.2 2.5 3.5 3.8 17.7 4.2l15.2-.3c10.3-.2 20.7-.3 31.1-.5 1 .2 2.5.3 4.7.3 5.8 1.6 18.3 1.6 30.2 1.8 6.8.6 13.6 1.3 20.5 1.9-.5.4-.9.7-1.5 1.1-4.4 1.3-16.6 2.7-5.6 3.6-3.8 2.3 8.8 2.5 17.3 3.2 12.4.4 25.8.1 40.1-.6 2.4.3 4.9.6 7.3.9-10.8 2.1-23.1 1.3-37.9 2.4 15.8 1.7 39.3.1 55.2 1 24-.4 47.8-.8 71.8-1.2 31.6-.6 63.2-1.2 94.8-1.7 13.3-.2 26.6-.3 36.5-2.8-3.7-.7-7.5-1.5-11.3-2.2.5-.4 1-.9 1.5-1.3 6-.4 12-.9 17.9-1.3 20.3.3 46.5-2.1 63.1-.2 22.6 1.7 48.8 1.3 78.4-1.3h-.1c30.7-.9 60.2.7 92.7-3.9 28.6-1.6 48 2.1 79.5-1.1 20.9 0 45.2-2.2 64.2-1.1 7.3 1.5 18.5 1.6 33.3.2 21.8-1.5 29.2 2.2 51.4.5 27.2.7 52.7 1.9 83.5 1.4h.4c1.7 0 3.4-.1 5-.1 22.6-.3 38 2.1 63.5.7 20.2 2.9 52.7 1.9 82.1 1.9 14.6.3 27 1.5 45.4.4l38 .6c27.4.7 54.9 1.4 82.4 2.1 23.2 0 44 1.1 69.6.1 7.8.3 15.6.5 23.4.8 12.4 1.1 25.3 2.1 45.2.4 12.2 1.2 29.2.6 45.1.4 7.8 1 12.5 2.9 30.5.7l51.8 1.5c10.1 1.9 25.4.3 40.1-.8 6.1 1.5 17.8 1 34.7.2-12.9-.6-22.6-1-32.1-1.4h-.6c8.1-1.5 17.1-1.4 25.9-1.6 8.7-.5 17.3-1.1 25.9-1.6 2 .4 4 .7 6.1 1 5.6-.2 13-1.5 16.1-.2h-.1c3.5 1.3 13.5.8 21.8.8 6.2 2.6 20.1 2.4 36.2-.1 8.6-1.3 13.4-1.3 19.9-1 9.8-.8 21.8.9 29.8-2.1 8-2.9-4.1-2.9-17.3-3-4.3 0-7.1-.6-10.7-.9 3.3-.4 6.6-.8 9.9-1.3l8.4-.3c8.2 1.5 22.9 1.4 35.6 1.8 5.7 3 27.1 1.7 44.4 1.5l5.7 1.2c11.8 5.7 50 3.2 84.2 1.9 2.3-.1 4.1 0 5.5.2-2.6 1.4-22.3.8-17.4 2.6 3.6 1.3 9.5 3.4 28.2.6 4.2-.6 8.3-1.1 10.9-1.8 5.6 0 11-.2 16.4-.9.9 0 1.9 0 2.8-.1-2.3 1.6-15.5 1.6-21.2 2.7 24.7 1.4 53.6 1.5 81.3 1.9 3 1.3 12.9.9 21.4.9 2.8-.1 5.5-.1 8.3-.1l23.1.3c26.9 1.6 56.8 2.2 91.5 1 12.8 2.9 39.3-1.8 55.6-.8-.7-.1-1.4-.1-2.1-.2.8 0 1.5.1 2.1.2 8.8-.5 14.7-1.5 19.9-2.6 25 1.3 50.4-2.9 75.6-3.7 28-.3 55.3.5 84.9-3.6 17.7-.5 33.2-1.4 36.8-4.7-3-1.4-6.1-2.7-9.1-4.1 3.3-.5 6.3-1 9.8-1.4 2.6-.3 5-.5 7.3-.8h326.8V1880c1.6.1 3.3.3 4.9.5 1.2 2.6-4.3 7 3.1 8.1 7.2 1.1 5.1 6.1 4.7 10.2-1.4 1.9-1.9 3.4-1.7 4.7 1.4 1.3 2.8 2.7 4.1 4.1.7.3 1.4.6 2.1.8 3.7 3.4 9.8 6.1 11.9 1 1.9-4.8-3.4-9.8-9.7-12.1-3.6-3.5-1.2-7.8-2.1-11.7 3-1.3 6.1-2.6 9.5-4-15.9-6.4-16.4-10.9-4.1-24.2.4-.5.8-.9 1.1-1.4l24-1.7-7.2-28c4.7-2.8 4.2-8 3.7-13.4 1.1-1.8 2.2-3.6 3.2-5.4 4.1-1.9 6.2-5.1 8.3-8.4 5.8 2.5 5.1 7.8 6.5 12.1-2.1 1.9-6.6 3-4.6 5.8 2.2 2.9 4 .2 4.6-1.9.4-1.2.1-2.5.1-3.9 6.8-5.4 3.7-11.1.9-16.7 6-6.5 7-14.3 8.6-21.9.1-4.4.3-8.9.5-13.4 1.2-3 2.5-6 3.6-9 5.2-4.5 6.8-9.3 2.9-14.8 3.9-4.3 10.1-7.7 7.4-14.4-.2-7.7 9.3-14.1 4.6-22.4.2-1.1.4-2.3.5-3.4 1.1-3.1 2.3-6.3 3.4-9.4l2.4-11.1c1-1.8 2-3.5 3-5.3 5.7-.7 8.2-3.7 8.4-8.5 3-5.3.2-11.7 5.3-16.6-3.3-9.5 6.2-21-5.4-29.3-.7-.7-1.5-1.3-2.2-2-.1-6.4 3.5-12.9-.6-19.2-.8-1.9-.3-4.9-3.7-4.8-4.6.2-3.5 3.3-3.2 5.8v.1c-2.1 2.4-4.2 4.7-6.3 7.1l-1.8-7.8c3.4-4.5-.1-8.9.4-13.4-.9-6.3 2.3-15.3-11.6-13l-7.8-4.5c-1.1 1.7-2.1 3.5-3.2 5.3-1.5-.1-2.9-.2-4.4-.3-1.7-2.2-3.5-4.4-5.3-6.6l.3.7-.7.4c-.1-.3-.2-.6-.4-.8.2-.1.5-.2.7-.3.6-1.2.6-2.2.3-3.1 2.5-1.2 3.5-3.4 2.8-6.1-.8-3.5-3.4-1.1-5.3-.4-.5-.7-.9-1.5-1.4-2.3 5.1-5.6 2.6-11.3.7-17-.5-.7-.9-1.4-1.2-2.2 4.8-3.1-2.8-12.3 8.4-12.1 4.9-4.9 2.9-10.6 1.9-15.7-1.9-9-2.1-18.4-7-26.7.2-1.3.3-2.6.5-3.8 5-3.5 6-7.9 4-12.9-1.1-1.3-2.3-2.6-3.5-4-2.3-2.8-4.6-5.5-7-8.3.2-.7.1-1.3-.4-1.9 1.6-4.5-.7-8.3-2.7-12.3-.2-3.2-.4-6.4-.6-9.5l2.1-1.5c3.1-1 8 .1 7.5-4.9 4.9-3.1 2.7-7.2 2.3-11-1.8-4.3-4.8-7.9-9-10.7 0-1.2 0-2.4.1-3.7 5.8-.6 6.9 4.5 11.6 6.9-.2-7.7-7.5-11.9-9.1-18.1-5.4-6.3-10.8-12.6-16.3-19l-21.6-24.9c-3-3.5-5.7-7.3-12.2-5.7-.6 2.4-1.1 4.9-1.7 7.4l-2.4 1.8v-104.3c.5-1.2.9-2.4 1.3-3.7.5.2.9.4 1.4.6 1.7 1.6 3.4 6.2 4.8 2.1 3.1 1.4 3.5-3.3 4.5-6.4.6-4.6.4-9.6-.5-14.9l1.2-2.7c2.7 4 1.6 8.6 2.8 14.1 2.4-5.9.5-14.7 1.8-20.6-.3-8.9-.7-17.8-1-26.8-.5-11.8-1-23.6-1.4-35.3-.2-5-.1-9.9-3.5-13.6-1 1.4-2.1 2.8-3.1 4.2-.6-.2-1.1-.4-1.7-.6-.5-2.2-1.1-4.5-1.6-6.7.5-7.6-2.4-17.3.3-23.5 2.5-8.4 2.2-18.1-1-29.2-.9-11.5 1.5-22.4-4.4-34.6 0-.2 0-.3-.1-.5v-9.9c.6-5.3 1.6-10.3 0-16.7v-30.5c.1-1.1.1-2.2 0-3.5v-15.6c.6-2.3 1-4.8.2-8.3 1.2-10.1 3.1-19.6 2.7-31.1v-.1c0-.6 0-1.3-.1-1.8-.2-8.4 3.2-14.1 1.6-23.6 4-7.5 3-19.6 3.3-30.5.6-5.4 2.2-10.1 1-16.9.4-4.7.8-9.4 1.1-14.2 1.2-10.2 2.3-20.4 3.5-30.7.2-8.6 1.9-16.4.7-25.9l1.2-8.7c1.6-4.6 3-9.4 1-16.8 1.7-4.5 1.1-10.9 1-16.8 1.4-2.9 4-4.6 1.2-11.3.8-6.4 1.7-12.9 2.5-19.3 2.6-3.7.7-9.5-.7-14.9 2.1-2.3 1.5-6.6.5-12.9-.9 4.8-1.5 8.4-2.1 11.9v.2c-2-3-1.8-6.4-2-9.7-.6-3.2-1.3-6.5-1.9-9.7.5-.7 1-1.5 1.5-2.2-.2-2.1-1.9-4.9-.2-6 1.8-1.3 1.2-5 1.3-8.1 3.5-2.3 3.4-7.5.2-13.5-1.7-3.2-1.7-5-1.1-7.4-1-3.7 1.4-8.1-2.5-11.1s-4 1.5-4.1 6.4c0 1.6-.9 2.7-1.3 4-.5-1.2-1.1-2.5-1.6-3.7-.1-1-.2-2.1-.3-3.1 2.1-3 2.1-8.5 2.7-13.2 4.1-2.1 2.6-10.1 2.5-16.5.6-.7 1.1-1.4 1.6-2.1 7.8-4.4 4.7-18.6 3.3-31.3-.1-.9 0-1.5.3-2 1.9 1 .8 8.3 3.4 6.5 1.8-1.3 4.7-3.5 1-10.5-.7-1.6-1.4-3.1-2.3-4.1.1-2.1-.2-4.1-1.1-6.1 0-.3 0-.7-.1-1.1 2.1.9 2 5.8 3.5 7.9 2.1-9.2 2.5-19.9 3.4-30.3 1.8-1.1 1.4-4.8 1.4-7.9 0-1-.1-2.1-.1-3.1.2-2.9.4-5.7.6-8.6 2.4-10 3.4-21.1 2.1-34.1 4.1-4.8-2.1-14.7-.5-20.7-.1.3-.2.5-.3.8.1-.3.2-.5.3-.8-.6-3.3-1.9-5.5-3.4-7.4 2-9.3-3.5-18.8-4.3-28.2-.2-10.4 1.1-20.6-4-31.7-.4-4.5-1-8.6-2.7-11.2 2.2-.6 4.4-1.2 6.7-1.8 8-1.1 14.2-2.2 5.7-3.1-2.7-.3-6.9-1-10.7.1-7.1 2 3.9 1.9 5 3-2.8.1-5.3.3-7.6.6-.6-.6-1.4-1.1-2.3-1.4-1.4.8-2.7 1.6-4.1 2.5-.6.1-1.2.3-1.7.5-.6-1.1-1.1-2.1-1.6-3.2-.4-1-.7-1.9-1-2.7v-1.9c21.7-2.3 1.2-2.8 4.1-4.4-.7-.4-2.1-.6-4-.7l2.8-114.8h-5.3v-17H3393l-1.8-.6c-3.9-.9-7.9-1.8-11.8-2.8-1-.6-2.1-1.3-3.1-1.9 6.7-2 6.1-3.4-.1-4.3-3.1-1.9-15.5-2.2-15.2-4.7-17.2-.6-20-5.8-46.7-3.5-1.9.1-3.7.2-5.6.4-8.8-1.1-12.7-3.5-26.6-3.2-3.6-.1-7-.8-11.4.3-5.9 1.5-.2 1.7 3.4 2.1h.1c.4 1.1.7 2.2 1 3.3-4.3-.3-8.7-.5-13-.8-1.4-1.9-12.1-1.6-17.5-2.5-9.7-.8-17.6-3.5-33.2 1.5-5.5.6-11.1 1.2-16.6 1.7.9.7 1.8 1.3 2.8 2-2.1.5-4.3.9-6.4 1.4-5.3.2-10.7.4-16 .5h1.4l-.4.3h-1.6l.6-.3c-.8-.4-2.1-.6-3.7-.7 1.8-1 .1-1.7-4.4-2-5.7-.4-6.1.9-7.6 1.6h-4.9c-.7-2.7-11.7-2.9-21.9-3.3h-4.6c2.3-2.1-20.3-1.3-5-4.9-.1-2.5-10.4-2.8-18.6-3.4-14.6-1-27.5-2.6-45.4-2.5-1.5-.3-3-.6-4.5-.8 2-2.3-2.5-3.4-11.9-3.6-3.4.1-6.7.3-10 .4-6.8.3-13.7.5-20.6.8-.6-.2-1.7-.3-3.1-.2-4-1.3-12.2-1.3-20.1-1.3-4.6-.5-9.1-1-13.7-1.5.3-.3.6-.6.9-1 2.8-1.2 10.8-2.6 3.5-3.3 2.4-2.2-6-2.2-11.7-2.7-8.2-.2-17.1.2-26.5 1-1.6-.2-3.3-.4-4.9-.7 7-2 15.3-1.4 25-2.6-10.5-1.3-26.1.3-36.6-.3-15.9.6-31.6 1.3-47.5 1.9-20.9.9-41.8 1.7-62.7 2.6-8.8.4-17.6.6-24 3 2.5.6 5.1 1.3 7.6 1.9l-.9 1.2c-3.9.5-7.9.9-11.8 1.4-13.5 0-30.7 2.4-41.8.9-15.1-1.3-32.4-.6-51.9 2.1-20.3 1.1-39.9.1-61.2 4.5-18.9 1.8-31.9-1.4-52.6 1.9-13.8.3-29.8 2.5-42.5 1.7-4.9-1.3-12.3-1.2-22.1.2-14.4 1.6-19.5-1.6-34.1.1-18-.3-35-1.1-55.4-.4h-.3c-1.1 0-2.2.1-3.3.2-15 .5-25.3-1.5-42.1.1-13.5-2.3-35-1.1-54.5-.8-9.7-.1-18-1-30.1.1-8.4 0-16.8-.1-25.2-.1-18.2-.3-36.4-.6-54.7-.9-15.4.2-29.2-.5-46.2.7-5.2-.1-10.3-.3-15.5-.4-8.3-.9-16.9-1.6-30 .1-8.1-1-19.4-.2-29.9.1-5.2-.8-8.5-2.5-20.2-.3-11.5-.3-22.9-.5-34.4-.8-6.8-1.6-16.9 0-26.5 1.2-4.1-1.3-11.8-.7-23 .2 8.6.3 15 .6 21.3.9h.4c-5.3 1.5-11.3 1.5-17.1 1.8-5.7.6-11.4 1.2-17.1 1.7-1.3-.3-2.7-.6-4.1-.9-3.7.3-8.5 1.5-10.6.4-2.4-1.1-9-.6-14.5-.5-4.3-2.2-13.5-1.9-24 .5-5.7 1.3-8.8 1.3-13.1 1.1-6.5.8-14.5-.6-19.6 2.2-5.2 2.7 2.9 2.6 11.6 2.5 2.8 0 4.8.4 7.1.7-2.1.4-4.3.8-6.5 1.2-1.9.1-3.7.2-5.5.3-5.5-1.2-15.2-1-23.7-1.2-4-2.7-18.1-1.2-29.5-.9-1.3-.3-2.6-.7-3.8-1-8.2-5-33.3-2.3-55.9-.7-1.5.1-2.7.1-3.7-.1 1.6-1.3 14.7-.9 11.4-2.5-2.5-1.1-6.5-3-18.7-.2-2.7.5-5.4 1.1-7.1 1.7-3.7.1-7.3.3-10.8 1-.6 0-1.2.1-1.9.1 1.4-1.4 10.2-1.6 13.9-2.7-16.4-1-35.6-.7-54-.8-2.1-1.2-8.6-.7-14.2-.6-1.9.1-3.7.1-5.5.2h-15.3c-17.9-1.2-37.8-1.3-60.7.2-8.7-2.5-25.9 2.1-36.8 1.3.5.1.9.1 1.4.2-.5 0-1-.1-1.4-.2-5.8.5-9.7 1.5-13 2.6-16.6-.9-33.2 3.2-49.9 4.2-18.5.6-36.7.2-56.1 4.2-9.2.5-17.6 1.3-21.7 3h-122.6c-9-1-18.4-1.8-28.7-2.3h-.3c-1.1-.1-2.2-.1-3.3-.1-14.9-.8-24.5-3.6-41.5-3.6-12.6-3.5-34.2-4.2-53.5-5.6-9.5-1-17.4-2.6-29.7-2.5-8.3-.8-16.5-1.5-24.9-2.3-17.9-1.9-35.7-3.8-53.6-5.7-15.2-1.1-28.6-3-45.7-3.3-5.1-.6-10.1-1.2-15.2-1.8-7.9-1.6-16.1-3-29.6-2.5-7.7-1.7-19-1.9-29.6-2.5-4.9-1.2-7.6-3.2-19.9-2-11.2-1.3-22.5-2.5-33.7-3.8-6.2-2.2-16.6-1.5-26.5-1.2-3.7-1.6-11.5-1.7-22.8-1.8 8.4 1.1 14.6 1.9 20.8 2.7h.4c-5.6 1-11.6.5-17.4.2-5.8.1-11.6.1-17.4.2-1.2-.4-2.5-.8-3.7-1.2-3.7-.1-8.9.8-10.6-.5-2-1.3-8.7-1.4-14.1-1.8-3.5-2.6-12.7-3-23.8-1.6-6 .8-9.1.6-13.3-.1-6.6.2-14.1-1.8-20 .4-6 2.2 2 2.8 10.7 3.5 2.8.2 4.6.9 6.8 1.3-2.2.2-4.5.4-6.8.7-1.9-.1-3.7-.1-5.6-.2-4.5-1.5-12.9-2.2-20.5-3h-.1c-4.8-4.2-9.7-8.5-14.5-12.7-31.9-3-59.7-10.8-83.1-21.6-.9-.4-1.8-.9-2.7-1.3 0 1.1.3 2.4.9 3.8-4.2 4.2-8.4 8.4-12.6 12.7-13.9 8.7-26.9 4.9-40.1 3-1.5-6.6 17.1-16.2-2.9-20.2-19.5-3.8-10.1-15.6-5.8-25.7 5.2-4.3 7.7-8 8.1-11.1-3.1-3.4-6-7-8.6-10.8-1.6-.8-3.5-1.6-5.4-2.4-7.1-9.2-22.4-16.6-31.8-4.7zm556.2 1858.9h.1c-.1 0-.2 0-.3.1l.2-.1c-.3.1-.6.1-.9.2-.1-.1-.3-.2-.4-.4.4.1.9.2 1.3.2zm37-3.4c-.5 0-.9.1-1.3.1.1-.1.2-.1.4-.2.3 0 .6.1.9.1zm1277.3-2.9c0-.1.1-.2.1-.2.1 0 .3 0 .4-.1-.1.2-.3.3-.5.3zm708.3 2.7c-4.1.3-8.2.7-12.3 1.3-1.7-.6-4.9-1-9.3-1.1 4.7-.2 9.4-.5 11.7-1.2 2.5.5 6 .8 9.9 1zm-94.1-1.7c-.5.1-1 .1-1.5.2-.1 0-.2.1-.3.1-.1 0-.1 0-.2-.1h.5l1.1-.2h.4zm88.8-2.7c-.2 0-.5.1-.7.1-.3-.1-.5-.2-.8-.3h1.1c.2 0 .3.1.4.2zm-809.2-3.5c-.3-.1-.6-.2-.9-.2h2.3c-.5 0-.9.1-1.4.2zm-999.3-3.2c-.5 0-.9-.1-.9-.2.3.1.6.2.9.2zm2439.1-202.5c-.2.1-.3.1-.5.2v-.2h.5zm50.6-127.8c.8 2.3 1.8 4.6 4.1 6.2-2.7-.5-5.3-.5-7.8.7-.1.1-.2.1-.3.2-2.8.1-4.9 1.8-7.2 3.2-.9-1.4-1.8-2.7-2.7-4.1.2-1.3.3-2.6.5-3.9h-.2c0-.5 0-1 .1-1.5 0 .5-.1 1-.1 1.5.6-.3 1.1-.7 1.4-1.1.4.1.8.2 1.2.2 2.1-.3 3.7-1.2 5-2.7l.3-.6c1.8 1.5 3.6 2.7 5.7 1.9zm-55.1-207.4c0-.2 0-.5.1-.7h.2-.1.5c-.4.2-.5.4-.7.7zm-12.8-5.3c-.1.1-.3.2-.4.3v-.5c.1.1.3.1.4.2zM320.6 1254.5c2.8-.3 5.8.5 9.1 2.8-.2.2-.5.3-.7.5-4.1-.9-6.7-2-8.4-3.3zm128.3 43.5c.5-2.7.8-5.3.9-7.7 1.2.6 2.3 1.1 3.4 1.6v5.2c-1.1.5-2.2 1-3.4 1.5-.2-.2-.6-.4-.9-.6zm-311.4 35.5h.3-1.4l2.1-1.8c-.2.6-.4 1.2-.7 1.8l.1.1c-.1 0-.2 0-.4-.1zm33.2 13.3c.5-.2.9-.4 1.4-.6l-.3 1.2c-.4-.2-.8-.4-1.1-.6zm130.8 82.3c-.4.5-.7 1-1 1.6-.2-.4.3-1.1 1-1.6zM3176 1934.9l-1.5.3c-.1-.1-.2-.2-.3-.4h.1c.6 0 1.1 0 1.7.1zm531.9-723.9s.1.1.2.3c-.2 0-.3.1-.5.1.1-.2.1-.3.3-.4l-.1-.1c.1 0 .1.1.1.1zm-4.2-13.4c-.1 0-.2-.1-.3-.1.1-.1.1-.2.2-.4 0 .2.1.3.1.5zm-3379.8-50.8c-1.5-1.7-2.8-3.4-4-5.1 2.4 1.5 4.6 3 4 5.1zM176.4 803.9c-1.4 3.1-2.7 6.2-4.1 9.4l.5-.1c-.4 1.2-.8 2.5-1.3 3.7.4-1.2.9-2.4 1.3-3.7-1.9.6-3.5 1.5-4.9 2.5-1.1-.3-2.2-.5-3.3-.7-6.1.4-11.3 2.4-15.9 5.7-.5.5-.9 1-1.3 1.5-3.8-3.8-7.9-7-14.5-5.5-.7-5.8-1.9-11.5-7.1-15.9 7.1 1.8 14.4 2.2 22.5-.4.3-.1.5-.3.8-.4 7.9.4 15.1-3.6 22.6-6.5 1.5 3.5 3.1 6.9 4.7 10.4zm3527.1-43.1l-.3.3v-.9c0 .3.2.5.3.6zm8-39.5h-.3c0-.1 0-.1-.1-.2.2.1.3.2.4.2zm-3343.4-207c-.4-.1-.9-.1-1.3-.2.5-.1 1-.3 1.4-.4 0 .2-.1.4-.1.6zm3350.6-21.2l.1.1s-.1 0-.1.1v-.2l-.3-.4.1-.1c0 .2.1.4.2.5zm-3.4-33.5c.1-.1.2-.1.3-.1 0 .1.1.2.1.3-.1.1-.3.2-.4.3v-.5zm8 2.5c-.8.6-1.3 1.8-1.6 3.4-.3-1.7-.5-3.5-1.5-4.4.7-.9 1.1-2.2 1.5-3.7.3 1.7.8 3.2 1.6 4.7zm-20.6-23.4c-.2 0-.3.1-.5.1.1-.2.1-.4.2-.6.1.1.2.3.3.5zm-765.1-248.4h.2-.2c.3-.1.5-.1.7-.2l.3.3c-.3 0-.6 0-1-.1.1 0 0 0 0 0zm-24.2 3.5c.3 0 .6-.1.9-.1-.1.1-.2.1-.2.2-.3 0-.5 0-.7-.1zm-113.2 12.1c.3 0 .6.1.6.2-.2-.1-.4-.2-.6-.2zm-733 4.8v.2c-.1 0-.2 0-.3.1l.3-.3zm70.7 3.5c.2.1.4.1.6.2h-1.5c.3 0 .6-.1.9-.2zm1139.5.3l-.2.1c-.7-.1-1.3-.2-1.9-.3.6.1 1.3.2 1.9.3.4-.2.5-.5.4-.7.7-.1 1.3-.2 2-.4 2.4-.7 3.3-1.4 3.1-2.1-.1-.1-.3-.1-.4-.2 4.3-.3 8.3-.7 10.1-1.5 4.3.1 8.7.2 14-.2-4.3.8-7.8 1.6-9.6 2.7l-.1.1c-3.7.9-4.2 1.9-5.5 2.9-3.1 0-6.1.1-9.2.2-1.6-.4-3.1-.7-4.6-.9zm-371.8 1.4c2.3-.4 4.3-.7 5.9-.9-1.1.3-2.9.7-5.9 1v-.1zm-370.1.3c-.2 0-.3.1-.5.1-.1 0-.2 0-.3.1-.1 0-.1 0-.2.1-.9.3-1.8.5-2.6.8.9-.4 2.1-.7 3.6-1.1zm-874 .3h-.3l-.7.2c-.1 0-.2 0-.2-.1.3-.1.7-.1 1-.2.1 0 .1 0 .2-.1-.1.2 0 .2 0 .2zm-63.7-.3c2.7-.3 5.4-.8 8.1-1.3 1.2.5 3.3.8 6.2.9-3.1.3-6.2.5-7.7 1.2-1.7-.4-4-.6-6.6-.8zm651.1 3.1c.2 0 .4-.1.6-.1l-.1.1h-.5zm734.6.3c1.8-.1 3.5-.2 5.2-.3-2 .2-4.1.4-5.2.3zm-1382 .6c.2 0 .3-.1.4-.1.2.1.4.2.5.3h-.8c.1-.1 0-.2-.1-.2zm-489.5.3c-.1 0-.3 0-.4-.1h.6c-.1.1-.2.1-.2.1zm-245.6-1.1c-.1-.1-.2-.1-.3-.2h1.3c-.4 0-.6.1-1 .2zm137.8-13.4c-.5 0-1-.1-1.5-.1.3-.1.7-.1 1-.2.1.1.3.2.5.3zm-69.2-9.7h-.3c.1-.1.2-.2.4-.2 0 .1 0 .1-.1.2z"/>
    <path class="st0" d="M.1 561H0c.1.1.1.1.1 0 .1.1.2 0 .3 0H.1z"/>
    <path class="st0" d="M-133.3 606.8v.1c.1 0 .2-.1.4-.1h-.4z"/>
    <path class="st0" d="M16.9 427.6l.1-.1c-.1 0-.3.1-.4.1h.3c-.1 0-.1 0 0 0-.1 0 0 0 0 0z"/>
    <path class="st0" d="M166.3 456.7c-.2 0-.4.1-.6.1.2 0 .4 0 .6-.1z"/>
    <path class="st0" d="M3726.2 317.8c.2-.1.3-.2.5-.2-.2.1-.4.1-.6.2h.1z"/>
    <path class="st0" d="M3872.7 1707.9z"/>
    <path class="st0" d="M3914.7 1686.2c0-.1 0-.1 0 0h-.1.1z"/>
    <path class="st0" d="M3880.6 1762.1h0c.1 0 .1 0 0 0z"/>
    <path class="st0" d="M3825.4 1754.1c.1 0 .1 0 .2-.1-.1 0-.1 0-.2.1z"/>
</svg>
