<svg id="Objects" xmlns="http://www.w3.org/2000/svg" xmlns:xlink="http://www.w3.org/1999/xlink" viewBox="0 0 687.6 341.9">
    <style>
        .st0{fill:#f36}.st1{fill:none;stroke:#f36;stroke-linecap:round;stroke-miterlimit:10}
    </style>
    <title>
        icon_1
    </title>
    <path class="st0" d="M467.9 168.5l-86-149c-3.8-6.7-12.4-9-19-5.1-2.1 1.2-3.9 3-5.1 5.1l-86.1 149.1c-3.8 6.7-1.5 15.3 5.2 19.1 2.1 1.2 4.4 1.8 6.8 1.8h172.1c7.7-.1 14-6.4 13.9-14.1.1-2.4-.6-4.8-1.8-6.9zm-182.8 5L369.8 27l83 146.6-167.7-.1z"/>
    <path class="st0" d="M362.3 75.8h15v58.1h-15z"/>
    <circle class="st0" cx="369.8" cy="149" r="9.2"/>
    <path class="st1" d="M469.8 155.4c54-.6 110.7 47.3 117.5 99"/>
    <path class="st1" d="M589.5 243.8l-1.8 12.2-7.2-9.8"/>
    <path class="st1" d="M442.4 219.5c33.1-.5 120.8-1.7 178.2 16.6 45.7 14.6 43.4 32.4 42.9 35.2-4.7 25-79.5 51.5-185.3 55.3-111.9 4-193.9-19.7-221.1-40.7-5.5-4.3-32.9-25.4 8.4-43.9 46-20.6 141.5-22 176.9-22.5z"/>
    <path class="st1" d="M449.2 221.2c33.1 1.8 120.7 6.4 176.6 28.4 44.7 17.6 41.1 35.2 40.4 38-6.3 24.7-82.7 46.1-188.5 42.8-111.9-3.5-192.2-32.6-217.9-55.4-5.2-4.6-31.1-27.6 11.3-43.2 47.4-17.4 142.8-12.4 178.1-10.6z"/>
    <g id="_5K25ts.tif">
        <image width="529" height="34" id="Слой_1" xlink:href="52FD44A1B4F59871.png" transform="matrix(.9981 0 0 1 68.26 195.369)" overflow="visible"/>
    </g>
</svg>
