<?xml version="1.0" encoding="iso-8859-1"?>
<!-- Generator: Adobe Illustrator 19.0.0, SVG Export Plug-In . SVG Version: 6.00 Build 0)  -->
<svg version="1.1" id="Layer_1" xmlns="http://www.w3.org/2000/svg" xmlns:xlink="http://www.w3.org/1999/xlink" x="0px" y="0px"
	 viewBox="0 0 512 512" style="enable-background:new 0 0 512 512;" xml:space="preserve">
<g>
	<g>
		<g>
			<path d="M502,173.698c5.522,0,10-4.477,10-10V36.741c0-5.523-4.478-10-10-10H340.872V10.002c0-0.094-0.012-0.185-0.014-0.279
				c-0.006-0.18-0.013-0.36-0.027-0.54c-0.013-0.157-0.03-0.311-0.051-0.466c-0.022-0.167-0.046-0.333-0.076-0.499
				c-0.029-0.161-0.063-0.32-0.099-0.479c-0.036-0.157-0.076-0.313-0.121-0.469c-0.045-0.159-0.094-0.316-0.147-0.472
				c-0.051-0.152-0.106-0.304-0.166-0.454c-0.06-0.152-0.122-0.302-0.19-0.45c-0.066-0.149-0.138-0.296-0.213-0.442
				c-0.074-0.145-0.151-0.287-0.232-0.428c-0.081-0.141-0.165-0.279-0.253-0.416c-0.091-0.143-0.187-0.281-0.284-0.418
				c-0.091-0.127-0.184-0.252-0.281-0.376c-0.111-0.141-0.228-0.276-0.346-0.411c-0.063-0.071-0.117-0.146-0.182-0.216
				c-0.04-0.043-0.085-0.079-0.125-0.122c-0.122-0.127-0.25-0.248-0.379-0.368c-0.116-0.109-0.232-0.219-0.353-0.321
				c-0.12-0.102-0.246-0.198-0.372-0.295c-0.136-0.105-0.271-0.211-0.412-0.308c-0.121-0.084-0.248-0.16-0.373-0.239
				c-0.15-0.094-0.299-0.189-0.453-0.275c-0.132-0.073-0.269-0.138-0.404-0.206c-0.152-0.076-0.304-0.153-0.459-0.221
				c-0.149-0.065-0.304-0.12-0.456-0.178c-0.148-0.056-0.295-0.114-0.444-0.162c-0.161-0.053-0.327-0.095-0.492-0.139
				c-0.149-0.04-0.298-0.083-0.448-0.115c-0.16-0.035-0.324-0.061-0.487-0.088c-0.163-0.027-0.325-0.056-0.489-0.075
				c-0.151-0.018-0.305-0.027-0.457-0.038c-0.182-0.013-0.363-0.024-0.546-0.028c-0.057-0.001-0.111-0.008-0.168-0.008H181.134
				c-0.059,0-0.115,0.008-0.174,0.009c-0.177,0.003-0.353,0.014-0.528,0.027c-0.158,0.011-0.317,0.021-0.474,0.039
				c-0.158,0.019-0.316,0.046-0.473,0.072c-0.169,0.028-0.337,0.055-0.503,0.091c-0.145,0.032-0.289,0.073-0.434,0.112
				c-0.17,0.045-0.34,0.088-0.505,0.142c-0.146,0.047-0.288,0.104-0.432,0.158c-0.157,0.06-0.315,0.116-0.47,0.184
				c-0.15,0.065-0.298,0.142-0.446,0.215c-0.14,0.069-0.28,0.136-0.417,0.212c-0.15,0.084-0.296,0.177-0.442,0.269
				c-0.129,0.081-0.259,0.159-0.383,0.245c-0.138,0.096-0.271,0.2-0.405,0.303c-0.128,0.098-0.256,0.196-0.379,0.3
				c-0.119,0.101-0.233,0.209-0.349,0.317c-0.13,0.121-0.259,0.243-0.382,0.371c-0.041,0.042-0.085,0.078-0.125,0.121
				c-0.064,0.069-0.119,0.145-0.182,0.216c-0.118,0.135-0.234,0.271-0.346,0.411c-0.098,0.124-0.19,0.249-0.281,0.376
				c-0.098,0.137-0.193,0.275-0.284,0.418c-0.088,0.137-0.172,0.275-0.253,0.416s-0.158,0.283-0.232,0.428
				c-0.075,0.146-0.146,0.293-0.213,0.442c-0.067,0.148-0.13,0.298-0.189,0.45c-0.06,0.15-0.115,0.302-0.166,0.454
				c-0.053,0.156-0.102,0.313-0.146,0.472c-0.045,0.156-0.085,0.312-0.121,0.469c-0.036,0.159-0.069,0.318-0.099,0.479
				c-0.03,0.166-0.055,0.332-0.076,0.499c-0.021,0.154-0.038,0.309-0.051,0.466c-0.015,0.18-0.021,0.36-0.027,0.54
				c-0.002,0.094-0.014,0.185-0.014,0.279v16.739H10.007c-5.522,0-10,4.477-10,10v126.956c0,5.523,4.478,10,10,10h32.781v275.518H10
				c-5.523,0-10,4.477-10,10v42.783c0,5.523,4.477,10,10,10h491.996c5.522,0,10-4.477,10-10v-42.783c0-5.523-4.478-10-10-10h-32.779
				V173.698H502z M191.134,32.975l58.055,54.047c1.919,1.787,4.366,2.681,6.814,2.681c2.447,0,4.895-0.894,6.813-2.681
				l58.056-54.047v73.983H191.134V32.975z M305.454,20.002L256.003,66.04l-49.452-46.038H305.454z M491.996,469.216v22.783H20
				v-22.783H491.996z M408.183,214.501h41.035v20.806H62.787v-61.609h386.43v20.804h-41.035c-5.522,0-10,4.477-10,10
				C398.183,210.024,402.661,214.501,408.183,214.501z M340.87,342.262v-86.955h108.348v86.955H340.87z M449.218,362.262v86.953
				H340.87v-86.953H449.218z M191.131,352.224v-96.919H320.87v193.91H191.131v-96.914c0-0.013,0.002-0.025,0.002-0.039
				C191.133,352.248,191.131,352.237,191.131,352.224z M171.131,255.307v86.955H62.787v-86.955H171.131z M171.131,362.262v86.953
				H62.787v-86.953H171.131z M20.007,153.697V46.741h151.127v70.216c0,5.523,4.478,10,10,10h149.739c5.522,0,10-4.477,10-10V46.741
				H492v106.956H20.007z"/>
			<path d="M223.913,373.65c5.89,0,10.695-4.804,10.695-10.695c0-5.889-4.805-10.695-10.695-10.695
				c-5.892,0-10.698,4.805-10.698,10.695C213.215,368.847,218.021,373.65,223.913,373.65z"/>
			<path d="M130.007,66.744h-0.238c-5.522,0-10,4.477-10,10c0,5.523,4.477,10,10,10h0.238c5.523,0,10-4.477,10-10
				S135.53,66.744,130.007,66.744z"/>
			<path d="M101.039,66.74H50.005c-5.523,0-10,4.477-10,10s4.477,10,10,10h51.034c5.523,0,10-4.477,10-10
				S106.561,66.74,101.039,66.74z"/>
			<path d="M379.453,194.506h-0.238c-5.522,0-10,4.477-10,10s4.477,10,10,10h0.238c5.522,0,10-4.477,10-10
				S384.975,194.506,379.453,194.506z"/>
		</g>
	</g>
</g>
<g>
</g>
<g>
</g>
<g>
</g>
<g>
</g>
<g>
</g>
<g>
</g>
<g>
</g>
<g>
</g>
<g>
</g>
<g>
</g>
<g>
</g>
<g>
</g>
<g>
</g>
<g>
</g>
<g>
</g>
</svg>
