<?xml version="1.0" encoding="utf-8"?>
<!-- Generator: Adobe Illustrator 21.1.0, SVG Export Plug-In . SVG Version: 6.00 Build 0)  -->
<svg version="1.1" id="Слой_1" xmlns="http://www.w3.org/2000/svg" xmlns:xlink="http://www.w3.org/1999/xlink" x="0px" y="0px"
	 viewBox="0 0 382.5 157.7" style="enable-background:new 0 0 382.5 157.7;" xml:space="preserve">
<style type="text/css">
	.st0{clip-path:url(#SVGID_2_);fill-rule:evenodd;clip-rule:evenodd;fill:#FFFFFF;}
</style>
<g>
	<defs>
		<rect id="SVGID_1_" width="382.5" height="157.7"/>
	</defs>
	<clipPath id="SVGID_2_">
		<use xlink:href="#SVGID_1_"  style="overflow:visible;"/>
	</clipPath>
	<path class="st0" d="M381.8,138.3h0.6V7.5H133c1-0.3-1.3-0.6-6-1c-0.3-0.1-0.6-0.3-0.8-0.4c9.8,0.8,14.1,0.5,15.5-0.4
		c1.6-0.2,7.3,0.4,6.4-0.3c6.5,0.1,13,0.2,1.5-1.5C145.1,3,139.6,2.5,134,2c-3.2-0.4-6.3-0.8-9.5-1.2c-2.9-0.6-5.9-1.1-7.5-0.6
		c-0.5,0.2-2,0.4,0.8,0.7c5.1,0.6,4.3-0.2,6.8-0.2c1.7,0.7,5.1,1.2,10.3,1.6c2.4,0.5,6.9,0.9,7.6,1.4c-0.6,0.1-1.2,0.1-1.8,0.2
		c-5-0.5-10.3-1.2-13.3-0.8C122,3,117.1,2.5,112.4,1.7l0,0c-6.6-1.7-6.9-0.3-10.6-0.6c-1.8,0-1.7,0.3-1.1,0.6
		C96.3,2,90.9,2.2,92,3.2c-6.1-0.1-7,0.5-6.7,1.2c-0.9,0-1.8-0.1-2.7-0.1c-2.2-0.1-4-0.2-4.4,0.1C77.2,5.1,70.2,5,71.8,6
		c-0.8,0-1.6-0.1-2.5-0.1c-2.5-0.5-5.1-0.9-7.6-1.4c0,0,0,0,0,0c3.2,0.1,7.7,0.3,5-0.4c-2.1-0.5-4.3-0.2-6.6-0.3
		c-2.4,0.3-1.6,1-1.4,1.5c0,0,0,0,0,0c-0.6,0.1-1.3,0.1-1.9,0.2c-1.7-0.1-3.5-0.2-5.2-0.3c-1.1-0.2-2.2-0.3-3.3-0.5
		c-5.1-1.3-5.1-0.2-8.1-0.5c-1.2-0.3-0.2-0.7-3.8-0.9c-2.9-0.2-1.9,0.3-1.5,0.6c-7.9,0.4,4.7,1.6,7.2,2.4l0.2,0c0,0,0,0,0,0
		c-0.1,0-0.1,0-0.2,0c-6.2-0.3-12.4-0.7-18.6-1c-0.9,0-1.7-0.1-2.6-0.2c1.4-0.2,2.7-0.4,4.1-0.5c-1.1-0.1-2.3-0.3-3.3-0.4
		c-5.7-0.4-4.6,0.2-3.5,0.8c-3.2,0.3-2.8,0.9-4.1,1.4c1.5,0.2,3,0.3,4.5,0.5c0.5,0.1,1.2,0.3,2,0.4c0.2,0.1,0.4,0.2,0.5,0.3
		c-0.1,0-0.1,0-0.2,0c-3.4-0.2-5,0-6.4,0.2c-1.1,0.6-7,0.7-3.4,1.8c0,0,0,0,0,0c-0.7,0.1-1.3,0.1-1.9,0.2c-0.2,0.3-1.4,0.5-3.7,0.5
		c0.4,0.2,0.8,0.4,1.1,0.6c-0.2,0-0.4,0-0.6,0.1C5.4,10.8,5.1,10.9,5,11c0.3,0.1,0.5,0.2,0.8,0.4c-5.9,0-0.6,0.8,0.6,1.4
		c1.3,0.3,2.5,0.6,3.7,0.8l0.3,0c0,0,0.1,0,0.1,0.1c-0.1,0-0.3-0.1-0.4-0.1c-2.4,0-6.7-0.7-10.1-1v0.7c1.2,0.2,2.4,0.4,3.6,0.6
		c0.5,0.2,1,0.4,1.5,0.7c-2.6-0.1-4.3,0-3.8,0.4c-0.4,0.1-0.9,0.1-1.3,0.2v135.7c1-0.1,1.9-0.2,2.9-0.4c2.8,0.3,5.5,0.6,8.2,0.9
		c0.1,0,0.2,0,0.2,0c-0.1,0-0.1,0-0.2,0c3.2,0.1,6.4,0.2,9.6,0.4c1.9,0.1,3.4,0.1,1.3-0.3c-0.8-0.1-2.5-0.2-3.8-0.4
		c-0.3-0.1-0.5-0.2-0.6-0.3c0.3-0.1,0.7-0.2,1-0.3c2.6,0.1,1.6-0.3,1.4-0.6c0.6-0.4,1.3-0.8,2-1.2c2.3-0.1,3.1-0.3,3-0.7
		c6-0.4,5.2-1.6,6-2.6c0.5-0.3,1-0.6,1.5-0.9c1.8-0.1,3.7-0.2,5.5-0.3c0.4,0.1,0.9,0.1,1.3,0.2c-0.7,0.1-1.6,0.2-1.6,0.4
		c-1.7,0.9,6.2,1,9,1.4c2.6,0.4,3.8,0.3,4.6,0.2c2,0,4,0,5.9,0.1c4.3,0.3,4.8,0,4.3-0.3c1.9,0.2,3.2,0.4,4,0.7
		c-1,0.2-2.1,0.3-3.1,0.5c-2.6,0-0.7,0.5-0.1,0.8c0,0,0,0,0,0c0.9,0.4,1.3,0.8,4.9,1.2c0.2,0.1,0.3,0.2,0.4,0.3
		c-2.7,0.2,1.2,0.7,2.6,1c-4.4-0.2-7.6-0.1-10.1,0.1c-3.1,0.2-1.1,0.7,4.3,1.1c0.3,0.1,0.6,0.2,0.8,0.4c-8.9-0.7-12.7-0.4-13.7,0.4
		c-1.4,0.2-6.6-0.3-5.6,0.3c-5.8-0.1-11.6-0.1-0.9,1.4c4.3,0.8,9.3,1.2,14.4,1.7c2.9,0.4,5.8,0.7,8.8,1.1c2.8,0.5,5.5,1,6.9,0.5
		c0.4-0.2,1.6-0.4-0.9-0.7c-4.7-0.5-3.7,0.1-6,0.2c-1.7-0.7-4.9-1.1-9.5-1.4c-2.3-0.4-6.3-0.8-7.1-1.3c0.5-0.1,1.1-0.1,1.6-0.2
		c4.6,0.5,9.5,1.1,12,0.7c4.7,0.2,9.2,0.6,13.6,1.3l0,0c6.3,1.5,6.2,0.3,9.6,0.5c1.6,0,1.4-0.3,0.8-0.5c3.9-0.3,8.6-0.4,7.4-1.4
		c5.4,0.1,6-0.5,5.7-1.2c0.8,0,1.6,0.1,2.4,0.1c2,0.1,3.6,0.1,3.9-0.1c0.7-0.6,6.8-0.5,5.2-1.4c0.7,0,1.5,0.1,2.3,0.1
		c2.4,0.4,4.7,0.8,7.1,1.3c0,0,0,0,0,0c-2.9-0.1-7-0.2-4.3,0.4c2,0.5,3.9,0.2,5.9,0.3c2.1-0.3,1.2-0.9,0.8-1.4c0,0,0,0,0,0
		c0.5-0.1,1.1-0.1,1.6-0.2c1.6,0.1,3.2,0.2,4.7,0.2c1,0.2,2.1,0.3,3.1,0.5c4.9,1.2,4.6,0.1,7.3,0.4c1.1,0.3,0.4,0.6,3.6,0.8
		c2.6,0.1,1.6-0.3,1.2-0.6c6.9-0.4-4.6-1.4-7-2.1l-0.2,0c0,0,0,0,0,0c0.1,0,0.1,0,0.2,0c5.6,0.3,11.2,0.6,16.8,0.9
		c0.8,0,1.5,0.1,2.3,0.1c-1.2,0.2-2.3,0.3-3.5,0.5c1,0.1,2.2,0.3,3.1,0.3c5.2,0.3,4-0.2,2.9-0.7c2.7-0.2,2.2-0.9,3.3-1.3
		c-1.4-0.1-2.8-0.3-4.2-0.4c-0.5-0.1-1.1-0.2-1.9-0.3c-0.2-0.1-0.4-0.2-0.6-0.3c0.1,0,0.1,0,0.2,0c3,0.2,4.4,0,5.7-0.2
		c0.9-0.5,6-0.6,2.6-1.6c0,0,0,0,0,0c0.6-0.1,1.1-0.1,1.6-0.2c0.1-0.3,1.2-0.4,3.2-0.4c-0.4-0.2-0.8-0.3-1.2-0.5
		c0.2,0,0.4,0,0.5-0.1c0.4-0.1,0.7-0.2,0.7-0.3c-0.3-0.1-0.5-0.2-0.8-0.3c5.2,0,0.3-0.8-0.9-1.2c-1.2-0.3-2.3-0.5-3.5-0.8l-0.2,0
		c0,0-0.1,0-0.1-0.1c0.1,0,0.2,0,0.4,0.1c4,0,14.9,2.1,13.4,0.5c-2.7,0.2-5.1-0.4-7.7-0.7c-0.5-0.2-1-0.4-1.5-0.6
		c2.4,0.1,3.8,0,3.2-0.4c0.4-0.1,0.9-0.1,1.3-0.2c12.4,1.5,22.6,3.1,30.5,4.7c0.2,0,0.5,0.1,0.7,0.1c0,0,0-0.1-0.1-0.2
		c1.3,0,2.6-0.1,3.9-0.1c4.1,0.1,7.6,0.7,11.2,1.2c0.2,0.3-5.3,0.1,0,0.9c5.2,0.8,2.2,1,0.6,1.2c-1.6,0-2.4,0.1-2.6,0.2
		c0.7,0.2,1.4,0.5,2,0.7c0.4,0.1,0.9,0.2,1.4,0.3c1.8,0.6,5.8,1.4,8.8,1.3c2.9-0.2,0.2-1.1-4-1.9c-1.7-0.6,1.4-0.7,1.8-1.1
		c2.7,0.2,5.4,0.4,8.5,0.7c-10.3-2.1-9.4-2.4,3.9-2.2c3.3,0.1,4.2-0.3,3-0.8c2,0.1,3.6,0.1,4-0.1c1.9,0.1,3.6,0.1,4-0.1
		c2.1,0,1.3-0.6,5.3-0.2c10,1.2,11.5,0.6,13.2,0c1.4,0,2.7-0.1,4.1-0.1c3.7,0.3,6.3,0.2,8.8,0.2c3.7,0.8,1.7,1.1,1.5,1.5
		c-2.2-0.1-5.9-0.4-5.2,0c0.8,0.4,3,0.4,4.1,0.3c0.6-0.1,0.8-0.2,1.2-0.3c6.8,0.3,6.1-0.4,5.6-1.1c6.5,0.1,9.5-0.3,12.9-0.8
		c1.4-0.3,2.8-0.6,4.2-0.9c1.8-0.1,3.6-0.2,5.4-0.3c5.3,0.2,7.9,0,6.5-0.8c4.2,0.1,10,0.4,9.8-0.3c2.1-0.6,11.3-0.1,10-1.2
		c0.5-0.1,0.9-0.1,1.4-0.2c1.8-0.1,3.6-0.2,5.3-0.4c1.7-0.2,3.4-0.4,5-0.6c1.3,0,2.6-0.1,3.9-0.1c4.6,0.5,7.4,0.5,8.9,0.2
		c3.8-0.1,3.6-0.8,8.8-0.7c0.3-1,10.9-0.9,4.3-2.7c-0.4-0.1-0.7-0.2-1.1-0.4C378.4,139.3,383.1,139.2,381.8,138.3 M11.7,36.4
		c-0.6-0.1-1-0.2-0.9-0.3c0.2-0.2,1.2-0.2,2.5-0.1C12.8,36.1,12.3,36.2,11.7,36.4 M103.7,149.8c0.1,0,0.2,0,0.2,0l-0.1,0
		c0,0,0.1,0,0.1,0c0,0,0,0,0,0c0,0,0,0,0,0C103.9,149.9,103.8,149.8,103.7,149.8 M124.1,139.5c0.1,0,0.1,0,0.2,0c0.1,0,0.3,0,0.4,0
		C124.5,139.5,124.3,139.5,124.1,139.5 M148.4,142c0.2,0,0.3,0,0.5,0C148.8,142.1,148.6,142,148.4,142
		C148.4,142,148.4,142,148.4,142 M149,149.5c-0.2,0-0.4-0.1-0.5-0.1c0.2,0,0.4,0,0.6,0C149,149.5,149,149.5,149,149.5 M249.5,143.6
		c0,0-0.1,0-0.1-0.1c0.1,0,0.2,0,0.3,0C249.6,143.6,249.5,143.6,249.5,143.6 M296,143L296,143c0.2,0,0.3,0,0.4,0
		C296.3,143,296.2,143,296,143 M367.4,138.8c-0.1,0-0.2,0-0.2,0c-2-0.3-4-0.3-6.1-0.5h8.8c0.6,0.1,1.4,0.3,2.4,0.3
		c0,0.3,0.1,0.5,1.4,0.9C371.8,139.2,369.8,139,367.4,138.8"/>
</g>
</svg>
