<?xml version="1.0" encoding="utf-8"?>
<!-- Generator: Adobe Illustrator 21.1.0, SVG Export Plug-In . SVG Version: 6.00 Build 0)  -->
<svg version="1.1" id="Слой_1" xmlns="http://www.w3.org/2000/svg" xmlns:xlink="http://www.w3.org/1999/xlink" x="0px" y="0px"
	 viewBox="0 0 354 154.4" style="enable-background:new 0 0 354 154.4;" xml:space="preserve">
<style type="text/css">
	.st0{clip-path:url(#SVGID_2_);fill-rule:evenodd;clip-rule:evenodd;fill:#FFFFFF;}
</style>
<g>
	<defs>
		<rect id="SVGID_1_" width="354" height="154.4"/>
	</defs>
	<clipPath id="SVGID_2_">
		<use xlink:href="#SVGID_1_"  style="overflow:visible;"/>
	</clipPath>
	<path class="st0" d="M0,143.2C0,143.2,0,143.2,0,143.2C0,143.2,0,143.2,0,143.2L0,143.2z"/>
	<path class="st0" d="M354,5.3c-0.1,0-0.2,0-0.3,0l0.1,0c0,0-0.1,0-0.1,0c0,0,0,0,0,0c0,0,0,0,0,0C353.8,5.3,353.9,5.3,354,5.3V1
		c-2-0.1-3.7-0.1-4,0.1c-0.9,0.7-7.9,0.6-6.3,1.6c-0.8,0-1.6-0.1-2.5-0.1c-2.5-0.5-5.1-0.9-7.6-1.4c0,0,0,0,0,0
		c3.2,0.1,7.7,0.3,5-0.4c-2.1-0.5-4.3-0.2-6.6-0.3c-2.4,0.3-1.6,1-1.4,1.5c0,0,0,0,0,0c-0.6,0.1-1.3,0.1-1.9,0.2
		c-1.7-0.1-3.5-0.2-5.2-0.3c-1.1-0.2-2.2-0.3-3.3-0.5c-5.1-1.3-5.1-0.2-8.1-0.5c-1.2-0.3-0.2-0.7-3.8-0.9c-2.9-0.2-1.9,0.3-1.5,0.6
		c-7.9,0.4,4.7,1.6,7.2,2.4l0.2,0c0,0,0,0,0,0c-0.1,0-0.1,0-0.2,0c-6.2-0.3-12.4-0.7-18.6-1c-0.9,0-1.7-0.1-2.6-0.2
		c1.4-0.2,2.7-0.4,4.1-0.5c-1.1-0.1-2.3-0.3-3.3-0.4c-5.7-0.4-4.6,0.2-3.5,0.8c-3.2,0.3-2.8,0.9-4.1,1.4c1.5,0.2,3,0.3,4.5,0.5
		c0.5,0.1,1.2,0.3,2,0.4c0.2,0.1,0.4,0.2,0.5,0.3c-0.1,0-0.1,0-0.2,0c-3.4-0.2-5,0-6.4,0.2c-1.1,0.6-7,0.7-3.4,1.8c0,0,0,0,0,0
		c-0.7,0.1-1.3,0.1-1.9,0.2c-0.2,0.3-1.4,0.5-3.7,0.4c0.4,0.2,0.8,0.4,1.1,0.6c-0.2,0-0.4,0-0.6,0.1c-0.5,0.1-0.8,0.2-0.9,0.3
		c0.1,0,0.2,0.1,0.3,0.1h-32.4c-2.1-0.4-4-0.8-5.8-1.1c-0.2-0.1-0.5-0.1-0.7-0.2c-0.1,0.1,0,0.1,0,0.2c-1.5,0-3,0.1-4.5,0.1
		c-4.6-0.1-8.3-0.8-12.1-1.3c-0.1-0.3,6-0.1,0.3-1c-5.6-0.9-2.2-1.1-0.3-1.3c1.8,0,2.7-0.1,3-0.2c-0.7-0.3-1.4-0.5-2-0.8
		c-0.4-0.1-0.9-0.2-1.5-0.3c-1.8-0.7-6-1.6-9.5-1.4c-3.3,0.2-0.6,1.2,3.9,2c1.8,0.7-1.8,0.8-2.3,1.2c-3-0.2-5.9-0.5-9.3-0.7
		c10.9,2.3,9.8,2.7-5.1,2.4c-3.7-0.1-4.8,0.3-3.7,0.9c-2.2-0.1-4-0.2-4.6,0.1c-2.2-0.1-4-0.2-4.5,0.1c-2.4,0-1.7,0.7-6,0.2
		c-10.8-1.3-12.8-0.7-14.8,0c-1.5,0-3.1,0.1-4.6,0.1c-4.1-0.3-7-0.3-9.8-0.2c-4-0.8-1.5-1.2-1.2-1.7c2.4,0.1,6.5,0.5,5.8,0
		c-0.8-0.5-3.2-0.5-4.5-0.4c-0.7,0.1-1,0.2-1.5,0.3c-7.6-0.3-7,0.5-6.6,1.2c-7.2-0.1-10.8,0.4-14.8,0.8c-1.7,0.3-3.4,0.7-5.1,1
		c-0.5,0-1,0.1-1.5,0.1H0V143c2.3,0.1,4.1,0.1,3-0.4c0.6-0.2,1.1-0.3,1.7-0.5c1.2-0.1,2.3-0.3,3.5-0.4c1.6,0.2,3.2,0.3,4.8,0.5
		c0,0,0.1,0,0.1,0l-0.1,0c1.9,0.1,3.7,0.1,5.6,0.2c1.1,0.1,2,0.1,0.7-0.2c-0.5-0.1-1.5-0.1-2.2-0.2c-0.2-0.1-0.3-0.1-0.4-0.2
		c0.2-0.1,0.4-0.1,0.6-0.2c1.5,0,0.9-0.2,0.8-0.3c0.4-0.2,0.8-0.5,1.2-0.7c1.4,0,1.8-0.2,1.8-0.4c3.2-0.2,3.1-0.8,3.4-1.4h5.3
		c1.3,0.1,3.1,0.2,4.1,0.3c1.5,0.2,2.2,0.2,2.7,0.1c1.1,0,2.3,0,3.4,0.1c2.5,0.2,2.8,0,2.5-0.2c1.1,0.1,1.9,0.2,2.3,0.4
		c-0.6,0.1-1.2,0.2-1.8,0.3c-1.5,0-0.4,0.3-0.1,0.5c0,0,0,0,0,0c0.5,0.2,0.7,0.5,2.8,0.7c0.1,0.1,0.2,0.1,0.3,0.2
		c-1.6,0.1,0.7,0.4,1.5,0.6c-2.6-0.1-4.5-0.1-5.9,0c-1.8,0.1-0.7,0.4,2.5,0.6c0.2,0.1,0.3,0.1,0.5,0.2c-5.2-0.4-7.4-0.2-8,0.2
		c-0.8,0.1-3.9-0.2-3.3,0.2c-3.4,0-6.8-0.1-0.5,0.8c2.5,0.4,5.4,0.7,8.4,1c1.7,0.2,3.4,0.4,5.1,0.6c1.6,0.3,3.2,0.6,4,0.3
		c0.2-0.1,1-0.2-0.5-0.4c-2.8-0.3-2.2,0.1-3.5,0.1c-1-0.4-2.9-0.7-5.6-0.8c-1.3-0.3-3.7-0.5-4.2-0.8c0.3,0,0.6-0.1,0.9-0.1
		c2.7,0.3,5.6,0.6,7,0.4c2.8,0.1,5.4,0.4,8,0.8l0,0c3.7,0.9,3.6,0.2,5.6,0.3c0.9,0,0.8-0.2,0.5-0.3c2.3-0.2,5-0.2,4.3-0.8
		c3.2,0.1,3.5-0.3,3.3-0.7c0.5,0,0.9,0.1,1.4,0.1c1.2,0.1,2.1,0.1,2.3-0.1c0.4-0.4,4-0.3,3-0.9c0.4,0,0.9,0,1.3,0.1
		c1.4,0.2,2.8,0.5,4.2,0.7h0c-1.7,0-4.1-0.1-2.5,0.2c1.2,0.3,2.3,0.1,3.5,0.2c1.2-0.2,0.7-0.5,0.5-0.8c0,0,0,0,0,0
		c0.3,0,0.6-0.1,0.9-0.1c0.9,0,1.9,0.1,2.8,0.1c0.6,0.1,1.2,0.2,1.8,0.3c2.9,0.7,2.7,0.1,4.3,0.2c0.7,0.2,0.2,0.4,2.1,0.5
		c1.5,0.1,1-0.2,0.7-0.3c4-0.2-2.7-0.8-4.1-1.3l-0.1,0h0c0,0,0.1,0,0.1,0c3.3,0.2,6.5,0.4,9.8,0.5c0.5,0,0.9,0.1,1.4,0.1
		c-0.7,0.1-1.4,0.2-2,0.3c0.6,0.1,1.3,0.2,1.8,0.2c3,0.2,2.4-0.1,1.7-0.4c1.6-0.1,1.3-0.5,1.9-0.8c-0.8-0.1-1.6-0.2-2.4-0.3
		c-0.3-0.1-0.7-0.1-1.1-0.2c-0.1-0.1-0.2-0.1-0.3-0.2c0,0,0.1,0,0.1,0c1.8,0.1,2.6,0,3.3-0.1c0.5-0.3,3.5-0.4,1.5-0.9c0,0,0,0,0,0
		c0.3,0,0.6-0.1,1-0.1c0.1-0.2,0.7-0.2,1.9-0.2c-0.2-0.1-0.5-0.2-0.7-0.3c0.1,0,0.2,0,0.3,0c0.3,0,0.4-0.1,0.4-0.2
		c-0.2-0.1-0.3-0.1-0.5-0.2c3.1,0,0.2-0.4-0.5-0.7c-0.3-0.1-0.6-0.1-0.9-0.2h1.8c2.6,0.3,5.5,0.7,4.9,0c-0.5,0-1,0-1.5,0h7
		c3.6,0.5,6.8,1.1,9.5,1.6c0.1,0,0.3,0.1,0.4,0.1c0,0,0-0.1-0.1-0.1c0.8,0,1.5,0,2.3-0.1c2.4,0.1,4.5,0.4,6.5,0.7
		c0.1,0.2-3.1,0,0,0.5c3.1,0.5,1.3,0.6,0.4,0.7c-0.9,0-1.4,0-1.6,0.1c0.4,0.1,0.8,0.3,1.2,0.4c0.2,0.1,0.5,0.1,0.8,0.2
		c1.1,0.4,3.4,0.8,5.2,0.7c1.7-0.1,0.1-0.6-2.3-1.1c-1-0.4,0.8-0.4,1-0.6c1.6,0.1,3.2,0.2,5,0.4c-6.1-1.2-5.5-1.4,2.3-1.3
		c2,0,2.4-0.2,1.8-0.5c1.2,0.1,2.1,0.1,2.4,0c1.1,0.1,2.1,0.1,2.3,0c1.3,0,0.8-0.4,3.1-0.1c5.8,0.7,6.7,0.4,7.7,0c0.2,0,0.3,0,0.5,0
		c1.2,0.2,2.6,0.5,4.2,0.7c2.1,0.8,4.9,1.6,12.1,1.9c2.7-0.1,5.3-0.1,8-0.2c1.2,0.2,2.5,0.3,3.5,0.5c13.6,2.4,15.6,2.5,21.5,1.3
		c2.5,0.5,4.9,0.9,7.4,1.4c1.9,0.5,4.2,1,7.8,1.4c10.9,2,23.6,3,30.5,2.3c-0.1-0.1-0.3-0.2-0.6-0.3c4.1,0.1,7.6,0.1,5.6-0.7
		c1-0.3,1.9-0.5,2.9-0.8c2-0.2,4-0.5,6-0.7c2.8,0.3,5.5,0.6,8.2,0.9c0.1,0,0.2,0,0.2,0c-0.1,0-0.1,0-0.2,0c3.2,0.1,6.4,0.2,9.6,0.4
		c1.9,0.1,3.4,0.1,1.3-0.3c-0.8-0.1-2.5-0.2-3.8-0.4c-0.3-0.1-0.5-0.2-0.6-0.3c0.3-0.1,0.7-0.2,1-0.3c2.6,0.1,1.6-0.3,1.4-0.6
		c0.6-0.4,1.3-0.8,2-1.2c2.3-0.1,3.1-0.3,3-0.7c6-0.4,5.2-1.6,6-2.6c0.5-0.3,1-0.6,1.5-0.9c1.8-0.1,3.7-0.2,5.5-0.3
		c0.4,0.1,0.9,0.1,1.3,0.2c-0.7,0.1-1.6,0.2-1.6,0.4c-1.7,0.9,6.2,1,9,1.4c2.6,0.4,3.8,0.3,4.6,0.2c2,0,4,0,5.9,0.1
		c4.3,0.3,4.8,0,4.3-0.3c1.9,0.2,3.2,0.4,4,0.7c-1,0.2-2.1,0.3-3.1,0.5c-2.6,0-0.7,0.5-0.1,0.8c0,0,0,0,0,0c0.8,0.4,1.3,0.8,4.9,1.2
		c0.2,0.1,0.3,0.2,0.4,0.3c-2.7,0.2,1.2,0.7,2.6,1c-4.4-0.2-7.6-0.1-10.1,0.1c-3.1,0.2-1.1,0.7,4.3,1.1c0.3,0.1,0.6,0.2,0.8,0.4
		c-8.9-0.7-12.7-0.4-13.7,0.4c-1.4,0.2-6.6-0.3-5.6,0.3c-5.8-0.1-11.6-0.1-0.9,1.4c4.3,0.8,9.3,1.2,14.4,1.7
		c2.9,0.4,5.8,0.7,8.8,1.1c2.8,0.5,5.5,1,6.9,0.5c0.4-0.2,1.6-0.4-0.9-0.7c-4.7-0.5-3.7,0.1-6,0.2c-1.7-0.7-4.9-1.1-9.5-1.4
		c-2.3-0.4-6.3-0.8-7.1-1.3c0.5-0.1,1.1-0.1,1.6-0.2c4.6,0.5,9.5,1.1,12,0.7c4.7,0.2,9.2,0.6,13.6,1.3l0,0c1.5,0.4,2.6,0.6,3.5,0.7
		V5.3z M67.2,141.3c0,0,0.1,0,0.1,0l0,0c0,0,0,0,0.1,0c0,0,0,0,0,0c0,0,0,0,0,0C67.4,141.3,67.3,141.3,67.2,141.3 M93.8,141.1
		c-0.1,0-0.2-0.1-0.3-0.1C93.6,141.1,93.7,141.1,93.8,141.1C93.8,141.1,93.8,141.1,93.8,141.1 M302.8,5.6c0.1,0,0.1-0.1,0.2-0.1
		c0.2,0.1,0.4,0.1,0.5,0.2C303.3,5.7,303,5.7,302.8,5.6"/>
</g>
</svg>
