<?xml version="1.0" encoding="utf-8"?>
<!-- Generator: Adobe Illustrator 21.1.0, SVG Export Plug-In . SVG Version: 6.00 Build 0)  -->
<svg version="1.1" id="Слой_1" xmlns="http://www.w3.org/2000/svg" xmlns:xlink="http://www.w3.org/1999/xlink" x="0px" y="0px"
	 viewBox="0 0 413.9 138.7" style="enable-background:new 0 0 413.9 138.7;" xml:space="preserve">
<style type="text/css">
	.st0{clip-path:url(#SVGID_2_);fill-rule:evenodd;clip-rule:evenodd;fill:#FFFFFF;}
</style>
<g>
	<defs>
		<rect id="SVGID_1_" width="413.9" height="138.7"/>
	</defs>
	<clipPath id="SVGID_2_">
		<use xlink:href="#SVGID_1_"  style="overflow:visible;"/>
	</clipPath>
	<path class="st0" d="M413.7,135c0.1,0,0.2,0,0.2,0V0H0v138.6c4,0.1,8.8,0.3,8.7-0.3c2.1-0.6,11.3-0.1,10-1.2
		c0.5-0.1,0.9-0.1,1.4-0.2c1.8-0.1,3.6-0.2,5.3-0.4c1.7-0.2,3.4-0.4,5-0.6c1.3,0,2.6-0.1,3.9-0.1c4.6,0.5,7.4,0.5,8.9,0.2
		c3.8-0.1,3.6-0.8,8.9-0.7c0.3-1,10.9-0.9,4.3-2.7c-0.4-0.1-0.7-0.2-1.1-0.4c1.7-0.5,6.4-0.6,5.1-1.4h221.5c1.1,0.2,2.6,0.4,4.7,0.5
		c1.6,0,3.1-0.1,4.7-0.1c0.7,0.1,1.5,0.2,2.1,0.3c8,1.4,9.1,1.5,12.6,0.7c1.4,0.3,2.9,0.5,4.3,0.8c1.1,0.3,2.4,0.6,4.6,0.8
		c6.4,1.2,13.8,1.7,17.9,1.4c-0.1-0.1-0.2-0.1-0.3-0.2c2.4,0.1,4.4,0.1,3.3-0.4c0.6-0.2,1.1-0.3,1.7-0.5c1.2-0.1,2.3-0.3,3.5-0.4
		c1.6,0.2,3.2,0.3,4.8,0.5c0,0,0.1,0,0.1,0l-0.1,0c1.9,0.1,3.7,0.1,5.6,0.2c1.1,0,2,0.1,0.7-0.2c-0.5-0.1-1.5-0.1-2.2-0.2
		c-0.2-0.1-0.3-0.1-0.4-0.2c0.2-0.1,0.4-0.1,0.6-0.2c1.5,0,0.9-0.2,0.8-0.3c0.4-0.2,0.8-0.5,1.2-0.7c1.3,0,1.8-0.2,1.8-0.4
		c3.2-0.2,3.1-0.8,3.4-1.4h5.3c1.3,0.1,3.1,0.2,4.1,0.3c1.5,0.2,2.2,0.2,2.7,0.1c1.1,0,2.3,0,3.4,0.1c2.5,0.2,2.8,0,2.5-0.2
		c1.1,0.1,1.9,0.2,2.3,0.4c-0.6,0.1-1.2,0.2-1.8,0.3c-1.5,0-0.4,0.3-0.1,0.5c0,0,0,0,0,0c0.5,0.2,0.7,0.5,2.8,0.7
		c0.1,0.1,0.2,0.1,0.3,0.2c-1.6,0.1,0.7,0.4,1.5,0.6c-2.6-0.1-4.5-0.1-5.9,0c-1.8,0.1-0.7,0.4,2.5,0.6c0.2,0.1,0.3,0.1,0.5,0.2
		c-5.2-0.4-7.4-0.2-8,0.2c-0.8,0.1-3.9-0.2-3.3,0.2c-3.4,0-6.8-0.1-0.5,0.8c2.5,0.4,5.4,0.7,8.4,1c1.7,0.2,3.4,0.4,5.1,0.6
		c1.6,0.3,3.2,0.6,4,0.3c0.2-0.1,1-0.2-0.5-0.4c-2.8-0.3-2.2,0.1-3.5,0.1c-1-0.4-2.9-0.7-5.6-0.8c-1.3-0.3-3.7-0.5-4.2-0.8
		c0.3,0,0.6-0.1,0.9-0.1c2.7,0.3,5.6,0.6,7,0.4c2.8,0.1,5.4,0.4,8,0.8l0,0c3.7,0.9,3.6,0.2,5.6,0.3c0.9,0,0.8-0.2,0.5-0.3
		c2.3-0.2,5-0.2,4.3-0.8c3.2,0.1,3.5-0.3,3.3-0.7c0.5,0,0.9,0.1,1.4,0.1c1.2,0.1,2.1,0.1,2.3,0c0.4-0.4,4-0.3,3-0.8
		c0.4,0,0.9,0,1.3,0.1c1.4,0.2,2.8,0.5,4.2,0.7l0,0c-1.7,0-4.1-0.1-2.5,0.2c1.2,0.3,2.3,0.1,3.5,0.2c1.2-0.2,0.7-0.5,0.5-0.8
		c0,0,0,0,0,0C413.1,135.1,413.4,135.1,413.7,135 M46,131.3c-0.1,0-0.2,0-0.2,0c-2-0.3-4-0.3-6.1-0.5h8.8c0.6,0.1,1.4,0.3,2.4,0.3
		c0,0.3,0.1,0.5,1.4,0.9C50.3,131.8,48.3,131.5,46,131.3 M400,133.4c0,0,0.1,0,0.1,0l0,0c0,0,0,0,0.1,0c0,0,0,0,0,0c0,0,0,0,0,0
		C400.1,133.4,400.1,133.4,400,133.4"/>
</g>
</svg>
