<?xml version="1.0" encoding="utf-8"?>
<!-- Generator: Adobe Illustrator 21.1.0, SVG Export Plug-In . SVG Version: 6.00 Build 0)  -->
<svg  version="1.1" id="chart" xmlns="http://www.w3.org/2000/svg" xmlns:xlink="http://www.w3.org/1999/xlink" x="0px" y="0px"
	 viewBox="0 0 894 544" style="enable-background:new 0 0 894 544;" xml:space="preserve">
<style type="text/css">
	.st0{fill:url(#SVGID_1_);}
	.st1{fill:url(#SVGID_2_);}
	.st2{opacity:0.8;}
	.st3{fill:none;stroke:#FFFFFF;stroke-linecap:round;stroke-miterlimit:10;}
	.st4{fill:none;stroke:#FFFFFF;stroke-linecap:round;stroke-miterlimit:10;stroke-dasharray:0.9955,4.9774;}
	.st5{opacity:0.3;}
	.st6{fill:none;stroke:#FFFFFF;stroke-linecap:round;stroke-miterlimit:10;stroke-dasharray:1.005,5.0252;}
	.st7{fill:url(#SVGID_3_);}
	.st8{fill:url(#SVGID_4_);}
	.st9{fill:#FFFFFF;}
	.st10{font-family:'ProximaNova-Regular';}
	.st11{font-size:14px;}
	.st12{font-size:16px;}
	.st13{font-size:10px;}
	.st14{opacity:0.7;fill:url(#SVGID_5_);}
	.st15{opacity:0.7;fill:url(#SVGID_6_);}
	.st16{fill:none;stroke:#F64869;stroke-width:2;stroke-linecap:round;stroke-miterlimit:10;}
	.st17{fill:none;stroke:#66FFCC;stroke-width:2;stroke-linecap:round;stroke-miterlimit:10;}
	.st18{fill:#66FFCC;}
	.st19{fill:#F64869;}
</style>
<g>
	<linearGradient id="SVGID_1_" gradientUnits="userSpaceOnUse" x1="28.7281" y1="136.1197" x2="1279.7936" y2="529.0826">
		<stop  offset="0" style="stop-color:#2D6965"/>
		<stop  offset="0.7077" style="stop-color:#31B6A6"/>
		<stop  offset="1" style="stop-color:#32D6C1"/>
	</linearGradient>
	<linearGradient id="SVGID_2_" gradientUnits="userSpaceOnUse" x1="-314" y1="243" x2="1052" y2="243">
		<stop  offset="0" style="stop-color:#2D6965"/>
		<stop  offset="1" style="stop-color:#32D6C1"/>
	</linearGradient>
	<path class="st1" d="M1051-140v766H-313v-766H1051 M1052-141H-314v768h1366V-141L1052-141z"/>
</g>
<g class="st2">
	<g>
		<line class="st3" x1="44" y1="100.5" x2="44.5" y2="100.5"/>
		<line class="st4" x1="49.5" y1="100.5" x2="704" y2="100.5"/>
		<line class="st3" x1="706.5" y1="100.5" x2="707" y2="100.5"/>
	</g>
</g>
<g class="st5">
	<g>
		<line class="st3" x1="43.5" y1="80.5" x2="44" y2="80.5"/>
		<line class="st4" x1="49" y1="80.5" x2="703.5" y2="80.5"/>
		<line class="st3" x1="706" y1="80.5" x2="706.5" y2="80.5"/>
	</g>
</g>
<g class="st5">
	<g>
		<line class="st3" x1="43.5" y1="60.5" x2="44" y2="60.5"/>
		<line class="st4" x1="49" y1="60.5" x2="703.5" y2="60.5"/>
		<line class="st3" x1="706" y1="60.5" x2="706.5" y2="60.5"/>
	</g>
</g>
<g class="st5">
	<g>
		<line class="st3" x1="43.5" y1="40.5" x2="44" y2="40.5"/>
		<line class="st4" x1="49" y1="40.5" x2="703.5" y2="40.5"/>
		<line class="st3" x1="706" y1="40.5" x2="706.5" y2="40.5"/>
	</g>
</g>
<g class="st5">
	<g>
		<line class="st3" x1="43.5" y1="440.5" x2="44" y2="440.5"/>
		<line class="st4" x1="49" y1="440.5" x2="703.5" y2="440.5"/>
		<line class="st3" x1="706" y1="440.5" x2="706.5" y2="440.5"/>
	</g>
</g>
<g class="st5">
	<g>
		<line class="st3" x1="43.5" y1="460.5" x2="44" y2="460.5"/>
		<line class="st4" x1="49" y1="460.5" x2="703.5" y2="460.5"/>
		<line class="st3" x1="706" y1="460.5" x2="706.5" y2="460.5"/>
	</g>
</g>
<g class="st5">
	<g>
		<line class="st3" x1="43.5" y1="420.5" x2="44" y2="420.5"/>
		<line class="st4" x1="49" y1="420.5" x2="703.5" y2="420.5"/>
		<line class="st3" x1="706" y1="420.5" x2="706.5" y2="420.5"/>
	</g>
</g>
<g class="st5">
	<g>
		<line class="st3" x1="43.5" y1="300.5" x2="44" y2="300.5"/>
		<line class="st4" x1="49" y1="300.5" x2="703.5" y2="300.5"/>
		<line class="st3" x1="706" y1="300.5" x2="706.5" y2="300.5"/>
	</g>
</g>
<g class="st5">
	<g>
		<line class="st3" x1="43.5" y1="280.5" x2="44" y2="280.5"/>
		<line class="st4" x1="49" y1="280.5" x2="703.5" y2="280.5"/>
		<line class="st3" x1="706" y1="280.5" x2="706.5" y2="280.5"/>
	</g>
</g>
<g class="st2">
	<g>
		<line class="st3" x1="43.5" y1="120.5" x2="44" y2="120.5"/>
		<line class="st4" x1="49" y1="120.5" x2="703.5" y2="120.5"/>
		<line class="st3" x1="706" y1="120.5" x2="706.5" y2="120.5"/>
	</g>
</g>
<g class="st2">
	<g>
		<line class="st3" x1="43.5" y1="140.5" x2="44" y2="140.5"/>
		<line class="st4" x1="49" y1="140.5" x2="703.5" y2="140.5"/>
		<line class="st3" x1="706" y1="140.5" x2="706.5" y2="140.5"/>
	</g>
</g>
<g class="st2">
	<g>
		<line class="st3" x1="43.5" y1="400.5" x2="44" y2="400.5"/>
		<line class="st4" x1="49" y1="400.5" x2="703.5" y2="400.5"/>
		<line class="st3" x1="706" y1="400.5" x2="706.5" y2="400.5"/>
	</g>
</g>
<g class="st2">
	<g>
		<line class="st3" x1="191.5" y1="500.5" x2="191.5" y2="500"/>
		<line class="st6" x1="191.5" y1="495" x2="191.5" y2="3"/>
		<line class="st3" x1="191.5" y1="0.5" x2="191.5" y2="0"/>
	</g>
</g>
<g class="st2">
	<g>
		<line class="st3" x1="556.5" y1="500.5" x2="556.5" y2="500"/>
		<line class="st6" x1="556.5" y1="495" x2="556.5" y2="3"/>
		<line class="st3" x1="556.5" y1="0.5" x2="556.5" y2="0"/>
	</g>
</g>
<linearGradient id="SVGID_3_" gradientUnits="userSpaceOnUse" x1="41.5" y1="-2.6474" x2="41.5" y2="343.6289">
	<stop  offset="0" style="stop-color:#F64869"/>
	<stop  offset="1" style="stop-color:#32D6C1"/>
</linearGradient>
<polygon class="st7" points="39,0 39,3 41,3 41,503 44,503 44,3 44,0 "/>
<linearGradient id="SVGID_4_" gradientUnits="userSpaceOnUse" x1="721.3333" y1="502.5" x2="183.9812" y2="502.5">
	<stop  offset="0" style="stop-color:#F64869"/>
	<stop  offset="1" style="stop-color:#32D6C1"/>
</linearGradient>
<polygon class="st8" points="701,500 41,500 41,503 701,503 701,505 704,505 704,500 "/>
<g class="st5">
	<text transform="matrix(1 0 0 1 9.3335 423.667)" class="st9 st10 st11">35</text>
</g>
<g>
	<text transform="matrix(1 0 0 1 9.3335 403.667)" class="st9 st10 st11">40</text>
</g>
<g class="st5">
	<text transform="matrix(1 0 0 1 6.3335 303.667)" class="st9 st10 st12">60</text>
</g>
<g class="st5">
	<text transform="matrix(1 0 0 1 6.3335 284.667)" class="st9 st10 st12">65</text>
</g>
<g>
	<text transform="matrix(1 0 0 1 0.3335 144.667)" class="st9 st10 st12">100</text>
</g>
<g>
	<text transform="matrix(1 0 0 1 5.3335 124.667)" class="st9 st10 st12">110</text>
</g>
<g>
	<text transform="matrix(1 0 0 1 5.3335 104.667)" class="st9 st10 st12">115</text>
</g>
<g class="st5">
	<text transform="matrix(1 0 0 1 1.3335 84.667)" class="st9 st10 st12">120</text>
</g>
<g class="st5">
	<text transform="matrix(1 0 0 1 1.3335 64.667)" class="st9 st10 st12">125</text>
</g>
<g class="st5">
	<text transform="matrix(1 0 0 1 1.3335 43.667)" class="st9 st10 st12">130</text>
</g>
<g class="st5">
	<text transform="matrix(1 0 0 1 9.3335 463.667)" class="st9 st10 st11">25</text>
</g>
<g>
	<text transform="matrix(1 0 0 1 15.3335 502.667)" class="st9 st10 st11">%</text>
</g>
<g>
	<text transform="matrix(1 0 0 1 40.3335 527.667)" class="st9 st10 st11">0</text>
</g>
<g>
	<text transform="matrix(1 0 0 1 172.5879 527.667)"><tspan x="0" y="0" class="st9 st10 st11">20-25 </tspan><tspan x="11.2" y="10" class="st9 st10 st13">лет</tspan></text>
</g>
<g>
	<text transform="matrix(1 0 0 1 537.5596 527.667)"><tspan x="0" y="0" class="st9 st10 st11">50-55 </tspan><tspan x="11.2" y="10" class="st9 st10 st13">лет</tspan></text>
</g>
<g>
	<text transform="matrix(1 0 0 1 765.6763 238.667)" class="st9 st10 st11">Используя AFC</text>
</g>
<g>
	<text transform="matrix(1 0 0 1 765.0376 275.667)" class="st9 st10 st11">Не используя AFC</text>
</g>
<g class="st5">
	<text transform="matrix(1 0 0 1 9.3335 443.667)" class="st9 st10 st11">30</text>
</g>
<linearGradient id="SVGID_5_" gradientUnits="userSpaceOnUse" x1="373.5" y1="164.6667" x2="373.5" y2="537.3351">
	<stop  offset="0.3" style="stop-color:#F64869"/>
	<stop  offset="0.8547" style="stop-color:#A4838E;stop-opacity:0.4082"/>
	<stop  offset="1" style="stop-color:#32D6C1;stop-opacity:0"/>
</linearGradient>
<polygon class="st14" points="191,500 191,140 556,400 556,500 "/>
<linearGradient id="SVGID_6_" gradientUnits="userSpaceOnUse" x1="373.5" y1="69.5556" x2="373.5" y2="291.0457">
	<stop  offset="0.3" style="stop-color:#66FFCC"/>
	<stop  offset="1" style="stop-color:#32D6C1;stop-opacity:0"/>
</linearGradient>
<polygon class="st15" points="191,140 191,100 556,120 556,400 "/>
<line class="st16" x1="191" y1="140" x2="556" y2="400"/>
<line class="st17" x1="191" y1="100" x2="556" y2="120"/>
<g id="green-g">
	<circle class="st18" cx="191" cy="100" r="5"/>
	<path class="st18" d="M191,91c-5,0-9,4-9,9s4,9,9,9s9-4,9-9S196,91,191,91z M191,107c-3.9,0-7-3.1-7-7s3.1-7,7-7s7,3.1,7,7
		S194.9,107,191,107z"/>
</g>
<g id="red-g">
	<circle class="st19" cx="191" cy="140" r="5"/>
	<path class="st19" d="M191,131c-5,0-9,4-9,9s4,9,9,9s9-4,9-9S196,131,191,131z M191,147c-3.9,0-7-3.1-7-7s3.1-7,7-7s7,3.1,7,7
		S194.9,147,191,147z"/>
</g>
<g>
	<circle class="st19" cx="556" cy="400" r="5"/>
	<path class="st19" d="M556,391c-5,0-9,4-9,9s4,9,9,9s9-4,9-9S561,391,556,391z M556,407c-3.9,0-7-3.1-7-7s3.1-7,7-7s7,3.1,7,7
		S559.9,407,556,407z"/>
</g>
<g>
	<circle class="st18" cx="556" cy="120" r="5"/>
	<path class="st18" d="M556,111c-5,0-9,4-9,9s4,9,9,9s9-4,9-9S561,111,556,111z M556,127c-3.9,0-7-3.1-7-7s3.1-7,7-7s7,3.1,7,7
		S559.9,127,556,127z"/>
</g>
<g>
	<circle class="st18" cx="743" cy="234" r="5"/>
	<path class="st18" d="M743,225c-5,0-9,4-9,9s4,9,9,9s9-4,9-9S748,225,743,225z M743,241c-3.9,0-7-3.1-7-7s3.1-7,7-7s7,3.1,7,7
		S746.9,241,743,241z"/>
</g>
<g>
	<circle class="st19" cx="743" cy="272" r="5"/>
	<path class="st19" d="M743,263c-5,0-9,4-9,9s4,9,9,9s9-4,9-9S748,263,743,263z M743,279c-3.9,0-7-3.1-7-7s3.1-7,7-7s7,3.1,7,7
		S746.9,279,743,279z"/>
</g>
</svg>
