<?xml version="1.0" encoding="utf-8"?>
<!-- Generator: Adobe Illustrator 21.1.0, SVG Export Plug-In . SVG Version: 6.00 Build 0)  -->
<svg version="1.1" id="Слой_1" xmlns="http://www.w3.org/2000/svg" xmlns:xlink="http://www.w3.org/1999/xlink" x="0px" y="0px"
	 viewBox="0 0 32.8 37.7" style="enable-background:new 0 0 32.8 37.7;" xml:space="preserve">
<style type="text/css">
	.st0{clip-path:url(#SVGID_2_);fill:#7BC2B0;}
</style>
<g>
	<defs>
		<rect id="SVGID_1_" y="0" width="32.8" height="37.7"/>
	</defs>
	<clipPath id="SVGID_2_">
		<use xlink:href="#SVGID_1_"  style="overflow:visible;"/>
	</clipPath>
	<path class="st0" d="M3.9,0.7C3.6,0.6,3.2,0.8,3,1C0.1,4.5-0.8,9.3,0.8,13.6c0.6,1.7,1.6,3.3,2.9,4.6c0.9,0.9,2,1.7,3.2,2.3
		l0.2,0.1L7,20.8c-0.3,0.5-0.6,1.1-0.9,1.7c-2.1,4.6-2.2,10-0.2,14.6c0.2,0.5,0.8,0.8,1.3,0.5c0.2-0.1,0.4-0.3,0.5-0.6
		c0.1-0.3,0.1-0.5,0-0.8c-0.5-1.2-0.8-2.4-1.1-3.6l-0.1-0.4L7,32.4c1.3,0.3,2.7,0.1,3.9-0.5c1.8-0.9,3.1-2.8,3.2-4.9
		c0-0.4-0.2-0.7-0.5-0.9c-1.7-1.1-4-1.3-5.8-0.3c-0.2,0.1-0.3,0.2-0.5,0.3l-0.5,0.3l0.2-0.6C7.3,25,7.6,24.1,8,23.3
		c0.2-0.4,0.4-0.8,0.6-1.2l0.1-0.2L8.9,22c5.8,1.9,12.2,0.8,17-3c5.1-4,7.7-10.5,6.7-16.9c-0.1-0.4-0.3-0.7-0.6-0.8
		c-6-2.4-12.9-1.4-18,2.6c-0.6,0.5-1.2,1-1.8,1.6L12,5.7l-0.2-0.2C9.9,2.9,7.1,1.2,3.9,0.7 M8.8,27.7c0.9-0.5,2-0.5,3-0.2l0.2,0.1
		L12,27.8c-0.3,1-1,1.9-1.9,2.3c-0.9,0.5-2,0.5-3,0.2l-0.2-0.1L6.9,30C7.2,29,7.9,28.1,8.8,27.7 M15.2,5.5
		c4.3-3.4,10.1-4.4,15.3-2.6L30.7,3l0,0.2c0.5,5.4-1.8,10.9-6.1,14.3c-3.8,3-9,4.2-13.8,3l-0.5-0.1l0.4-0.3c1.4-1.1,2.9-2.3,4.3-3.4
		l0.1,0c3.4-2.7,7-5.5,10.4-8.3c0.2-0.2,0.3-0.4,0.4-0.7c0-0.3,0-0.5-0.2-0.7c-0.4-0.4-1-0.5-1.4-0.1c-3.4,2.8-7,5.6-10.4,8.2
		l-0.2-0.2l0.2,0.2L13.7,15c-1.4,1.1-2.8,2.2-4.2,3.3l-0.4,0.3l0-0.5C9.1,13.3,11.4,8.5,15.2,5.5 M10.5,7.2l0.1,0.1l-0.1,0.1
		c-0.8,1.1-1.5,2.3-2,3.5l-0.2,0.6L8.1,11C7.7,9.8,7.2,8.6,6.9,7.5C6.7,7,6.1,6.7,5.6,6.9C5.3,6.9,5.1,7.1,5,7.4
		C4.9,7.6,4.9,7.9,4.9,8.1c0.4,1.1,0.8,2.4,1.2,3.5c0.4,1.1,0.8,2.2,1.1,3.2l0,0.1c-0.2,0.9-0.3,1.9-0.3,2.8l0,0.5L6.7,18
		c-0.5-0.4-1.1-0.8-1.5-1.3c-1.1-1.1-1.9-2.4-2.5-3.9C1.5,9.5,2,5.8,4,2.9l0.1-0.1l0.2,0C6.8,3.5,9.1,5,10.5,7.2"/>
</g>
</svg>
