<?xml version="1.0" encoding="utf-8"?>
<!-- Generator: Adobe Illustrator 21.1.0, SVG Export Plug-In . SVG Version: 6.00 Build 0)  -->
<svg version="1.1" id="Слой_1" xmlns="http://www.w3.org/2000/svg" xmlns:xlink="http://www.w3.org/1999/xlink" x="0px" y="0px"
	 viewBox="0 0 44.8 38.2" style="enable-background:new 0 0 44.8 38.2;" xml:space="preserve">
<style type="text/css">
	.st0{clip-path:url(#SVGID_2_);fill:#D22937;}
</style>
<g>
	<defs>
		<rect id="SVGID_1_" y="0" width="44.8" height="38.2"/>
	</defs>
	<clipPath id="SVGID_2_">
		<use xlink:href="#SVGID_1_"  style="overflow:visible;"/>
	</clipPath>
	<path class="st0" d="M30.2,20.7c-0.4-0.4-0.9-0.4-1.3,0L28,21.6c-0.4,0.4-0.4,0.9,0,1.3c0.2,0.2,0.4,0.3,0.6,0.3
		c0.2,0,0.5-0.1,0.6-0.3l0.9-0.9C30.6,21.6,30.6,21,30.2,20.7"/>
	<path class="st0" d="M35.9,26.2c-0.4-0.4-0.9-0.4-1.3,0l-0.9,0.9c-0.4,0.4-0.4,0.9,0,1.3c0.2,0.2,0.4,0.3,0.6,0.3s0.5-0.1,0.6-0.3
		l0.9-0.9C36.3,27.1,36.3,26.6,35.9,26.2"/>
	<path class="st0" d="M30.9,25.9c-0.4-0.4-0.9-0.4-1.3,0l-0.9,0.9c-0.4,0.4-0.4,0.9,0,1.3c0.2,0.2,0.4,0.3,0.6,0.3
		c0.2,0,0.5-0.1,0.6-0.3l0.9-0.9C31.2,26.8,31.2,26.3,30.9,25.9"/>
	<path class="st0" d="M12.3,32.6C11,31.9,9.7,30.6,8.6,29c-0.3-0.4-0.9-0.5-1.3-0.2c-0.4,0.3-0.5,0.9-0.2,1.3
		c1.3,1.8,2.8,3.2,4.3,4.1c0.1,0.1,0.3,0.1,0.4,0.1c0.3,0,0.6-0.2,0.8-0.5C12.9,33.4,12.7,32.8,12.3,32.6"/>
	<path class="st0" d="M7.3,27L7.3,27c-0.2-0.5-0.8-0.6-1.2-0.4c-0.4,0.2-0.6,0.8-0.4,1.2l0,0c0.2,0.3,0.5,0.5,0.8,0.5
		c0.1,0,0.3,0,0.4-0.1C7.3,28,7.5,27.4,7.3,27"/>
	<path class="st0" d="M6,20.6c-0.5,0-0.9,0.4-0.9,0.9v1.3c0,0.5,0.4,0.9,0.9,0.9s0.9-0.4,0.9-0.9v-1.3C6.9,21,6.5,20.6,6,20.6"/>
	<path class="st0" d="M14,20.7c-0.5,0-0.9,0.4-0.9,0.9v1.3c0,0.5,0.4,0.9,0.9,0.9c0.5,0,0.9-0.4,0.9-0.9v-1.3
		C14.9,21.1,14.5,20.7,14,20.7"/>
	<path class="st0" d="M21.9,20.6c-0.5,0-0.9,0.4-0.9,0.9v1.3c0,0.5,0.4,0.9,0.9,0.9c0.5,0,0.9-0.4,0.9-0.9v-1.3
		C22.8,21,22.4,20.6,21.9,20.6"/>
	<path class="st0" d="M10.2,23.8c-0.5,0-0.9,0.4-0.9,0.9V26c0,0.5,0.4,0.9,0.9,0.9c0.5,0,0.9-0.4,0.9-0.9v-1.3
		C11.1,24.2,10.7,23.8,10.2,23.8"/>
	<path class="st0" d="M18.1,23.9c-0.5,0-0.9,0.4-0.9,0.9v1.3c0,0.5,0.4,0.9,0.9,0.9c0.5,0,0.9-0.4,0.9-0.9v-1.3
		C19,24.3,18.6,23.9,18.1,23.9"/>
	<path class="st0" d="M14,27.5c-0.5,0-0.9,0.4-0.9,0.9v1.3c0,0.5,0.4,0.9,0.9,0.9c0.5,0,0.9-0.4,0.9-0.9v-1.3
		C14.9,27.9,14.5,27.5,14,27.5"/>
	<path class="st0" d="M43.3,12.1c0.4,0.4,0.9,0.4,1.3,0c0.4-0.4,0.4-0.9,0-1.3c-0.8-0.8-1.9-1.2-3.1-1.1c-0.8,0.1-1.7,0.4-2.4,0.9
		c-1-1-2.2-1.9-3.4-2.5c0,0,0,0,0,0c-0.3-0.1-0.5-0.3-0.8-0.4c-4.6-2.1-9.2-1.6-12.8,1.5c-0.7-0.4-1.5-0.8-2.3-1
		c-1.3-0.5-3-0.8-4.9-0.8c0.4-3.1,2.6-5.5,5.3-5.5c0.5,0,0.9-0.4,0.9-0.9c0-0.5-0.4-0.9-0.9-0.9c-3.7,0-6.7,3.2-7.1,7.3
		c-1.4,0.1-2.9,0.2-4.2,0.6c0,0,0,0,0,0C8.6,8,8.3,8.1,8,8.2c0,0,0,0,0,0C5.6,9,3.6,10.5,2.2,12.3c-1.5,2-2.2,4.4-2.2,7.1
		c0,1,0.1,2.1,0.3,3.3c0,0,0,0,0,0.1C1.1,26.4,2.8,30.1,5,33c2.6,3.3,5.8,5.2,8.9,5.2c2.4,0,4.8-1.1,7-3.1c1.4,0.5,3,0.8,4.6,0.8
		c4.4,0,9.2-1.7,12.7-4c0,0,0,0,0,0c1-0.7,2-1.4,2.7-2.2c1.9-1.9,3.1-4.2,3.4-6.6c0.3-2.3-0.1-4.7-1.2-7c-0.6-1.2-1.5-2.6-2.8-4
		c0.4-0.2,0.8-0.4,1.2-0.4C42.3,11.5,42.9,11.7,43.3,12.1 M9.4,9.7c1.4-0.4,3-0.6,4.5-0.6c0,0,0.1,0,0.1,0c0,0,0.1,0,0.1,0
		c1.7,0,3.4,0.2,4.6,0.6c0,0,0,0,0,0c1.7,0.6,2.8,1.7,3.3,3.1c-1.7-1-3.6-1.6-4.9-1.6c-0.4,0-0.7,0.2-0.9,0.6c-0.1,0.4,0,0.8,0.3,1
		c0.2,0.2,1.1,1,1.7,2.5c-1.1-1-2.2-1.7-3.9-2.4c-0.2-0.1-0.3-0.1-0.5-0.1c-1.4,0.2-2.7,1.3-3.9,2.5c0.7-1.8,1.5-2.7,1.5-2.7
		c0.3-0.3,0.3-0.7,0.2-1c-0.2-0.3-0.5-0.6-0.9-0.5c-0.1,0-2.4,0.1-4.5,0.8C7.4,10.5,9.2,9.7,9.4,9.7 M14,36.4
		c-5.4,0-10.5-7.2-11.8-14c0,0,0,0,0-0.1c-0.2-1.1-0.3-2.1-0.3-3c0-2.2,0.6-4.2,1.8-5.9c0,0,0,0.1,0,0.1c-0.1,0.4,0.1,0.7,0.4,0.9
		c0.3,0.2,0.7,0.2,1-0.1c0.9-0.7,2.5-1.1,3.8-1.3c-0.6,1.1-1.2,2.6-1.4,4.7c0,0.4,0.1,0.7,0.4,0.9c0.3,0.2,0.7,0.2,1,0
		c0.5-0.3,1-0.8,1.7-1.4c1-0.9,2.3-2.2,3.4-2.5c2,0.8,3,1.8,5,3.7l0.1,0.1c0.2,0.2,0.4,0.3,0.6,0.3c0.1,0,0.3,0,0.4-0.1
		c0.3-0.2,0.6-0.5,0.5-0.9c-0.1-1.9-0.6-3.4-1.2-4.4c1.2,0.4,2.5,1.2,3.3,2.1c0.3,0.3,0.7,0.4,1,0.2s0.6-0.5,0.6-0.9
		c0-0.6-0.1-1.3-0.3-1.8c1.3,1.7,2,3.8,2,6.2c0,1-0.1,2-0.3,3.2c0,0,0,0,0,0c-0.7,3.3-2.3,6.8-4.4,9.4C19.1,34.8,16.5,36.4,14,36.4
		 M39.7,28.3c-0.7,0.7-1.5,1.4-2.5,2c0,0,0,0,0,0c-2.4,1.6-5.3,2.8-8.2,3.3c-2.5,0.5-4.8,0.5-6.7,0c0.1-0.2,0.3-0.3,0.4-0.5
		c2.3-2.8,4-6.6,4.7-10.2c0,0,0,0,0,0c0.2-1.2,0.4-2.4,0.4-3.5c0-2.7-0.8-5.1-2.3-7.1c-0.6-0.7-1.2-1.4-2-2c1.3-1,2.8-1.7,4.4-1.9
		c0,0-0.1,0.1-0.1,0.1c-0.3,0.2-0.4,0.6-0.3,1C27.7,9.7,28,10,28.3,10c1.1,0.2,2.5,1,3.6,1.8c-1.2,0.4-2.7,1-4.3,2.3
		c-0.3,0.2-0.4,0.6-0.3,0.9c0.1,0.3,0.4,0.6,0.7,0.7c0.6,0.1,1.3,0.1,2.2,0.1c1.4,0,3.2,0.1,4.2,0.6c0.8,2,0.8,3.4,0.9,6.1l0,0.2
		c0,0.4,0.2,0.7,0.6,0.8c0.4,0.1,0.7,0,1-0.2c1.3-1.4,1.9-2.8,2.3-4c0.5,1.2,0.9,2.6,0.9,3.9c0,0.4,0.2,0.7,0.6,0.9
		c0.1,0,0.2,0.1,0.4,0.1c0.3,0,0.5-0.1,0.7-0.3c0.4-0.5,0.8-1,1.1-1.5C42.4,24.7,41.4,26.6,39.7,28.3 M41.3,16.2
		C41.3,16.2,41.3,16.2,41.3,16.2c0.7,1.6,0.8,3.1,0.2,4.6c-0.5-1.9-1.4-3.6-2.4-4.6c-0.3-0.3-0.7-0.3-1-0.2
		c-0.3,0.2-0.6,0.5-0.5,0.9c0,0.3,0.1,1.5-0.6,3c-0.1-1.5-0.4-2.8-1-4.4c-0.1-0.1-0.2-0.3-0.3-0.4c-1.1-0.8-2.8-1-4.5-1
		c1.7-0.8,3-0.8,3-0.8c0.4,0,0.7-0.2,0.9-0.6c0.1-0.4,0-0.8-0.2-1c-0.1-0.1-1.8-1.6-3.7-2.6c1.8-0.3,3.6,0.5,3.8,0.6
		c1.3,0.7,3.6,2.8,3.6,2.8S40.7,15.1,41.3,16.2"/>
</g>
</svg>
