<svg width="27" height="29" viewBox="0 0 27 29" xmlns="http://www.w3.org/2000/svg">
    <title>
        share
    </title>
    <path d="M21.874 18.63a5.104 5.104 0 0 0-4.056 2.024l-7.868-4.45a5.26 5.26 0 0 0 .285-1.71c0-.602-.101-1.174-.291-1.716l7.862-4.444a5.091 5.091 0 0 0 4.062 2.035c2.819 0 5.12-2.324 5.12-5.184 0-2.86-2.295-5.185-5.12-5.185s-5.12 2.324-5.12 5.185c0 .602.1 1.18.29 1.716l-7.856 4.444A5.074 5.074 0 0 0 5.12 9.309C2.302 9.31 0 11.634 0 14.494c0 2.86 2.302 5.185 5.126 5.185a5.1 5.1 0 0 0 4.068-2.042l7.862 4.45a5.22 5.22 0 0 0-.297 1.728c0 2.855 2.296 5.185 5.12 5.185C24.705 29 27 26.676 27 23.815c0-2.86-2.302-5.184-5.126-5.184zm0-16.998c1.938 0 3.514 1.596 3.514 3.559s-1.576 3.558-3.514 3.558c-1.94 0-3.515-1.595-3.515-3.558 0-1.963 1.582-3.56 3.515-3.56zM5.126 18.052c-1.938 0-3.514-1.595-3.514-3.558 0-1.963 1.576-3.559 3.514-3.559 1.94 0 3.515 1.596 3.515 3.559s-1.582 3.559-3.515 3.559zm16.748 9.316c-1.94 0-3.515-1.596-3.515-3.559s1.576-3.558 3.515-3.558c1.938 0 3.514 1.595 3.514 3.558 0 1.963-1.576 3.56-3.514 3.56z" fill-rule="nonzero" fill="#000"/>
</svg>
