<?xml version="1.0" encoding="utf-8"?>
<!-- Generator: Adobe Illustrator 21.1.0, SVG Export Plug-In . SVG Version: 6.00 Build 0)  -->
<svg version="1.1" id="Слой_1" xmlns="http://www.w3.org/2000/svg" xmlns:xlink="http://www.w3.org/1999/xlink" x="0px" y="0px"
	 viewBox="0 0 344.1 27.7" style="enable-background:new 0 0 344.1 27.7;" xml:space="preserve">
<style type="text/css">
	.st0{fill:#426C66;stroke:#426C66;stroke-width:0.5;stroke-miterlimit:10;}
	.st1{fill:#D65970;stroke:#D65970;stroke-width:0.5;stroke-miterlimit:10;}
</style>
<path class="st0" d="M128.8,27.4H2.3c-1.1,0-2-0.9-2-2V2.8c0-1.1,0.9-2,2-2h126.6c1.1,0,2,0.9,2,2v22.6
	C130.9,26.5,129.9,27.4,128.8,27.4z M2.3,1.8c-0.6,0-1,0.5-1,1v22.6c0,0.6,0.5,1,1,1h126.6c0.6,0,1-0.5,1-1V2.8c0-0.6-0.5-1-1-1H2.3
	z"/>
<g>
	<path class="st0" d="M20.7,9.9c0.2,0,0.3,0.1,0.3,0.3v7.9c0,0.2-0.1,0.3-0.3,0.3h-0.5c-0.2,0-0.3-0.1-0.3-0.3v-6.8l-2.2,1.2
		c-0.2,0.1-0.4,0.1-0.5-0.1L16.9,12c-0.1-0.2,0-0.3,0.1-0.4l2.7-1.5c0.1-0.1,0.3-0.1,0.4-0.1H20.7z"/>
	<path class="st0" d="M23.7,12.6c0-1.8,1.2-2.9,3.1-2.9c2,0,3.1,1.1,3.1,2.9v3.2c0,1.8-1.2,2.9-3.1,2.9c-2,0-3.1-1.1-3.1-2.9V12.6z
		 M28.8,12.6c0-1.1-0.7-1.8-2-1.8c-1.3,0-2,0.7-2,1.8v3.2c0,1.1,0.7,1.8,2,1.8c1.2,0,2-0.7,2-1.8V12.6z"/>
	<path class="st0" d="M32.5,12.6c0-1.8,1.2-2.9,3.1-2.9c2,0,3.1,1.1,3.1,2.9v3.2c0,1.8-1.2,2.9-3.1,2.9c-2,0-3.1-1.1-3.1-2.9V12.6z
		 M37.6,12.6c0-1.1-0.7-1.8-2-1.8c-1.3,0-2,0.7-2,1.8v3.2c0,1.1,0.7,1.8,2,1.8c1.2,0,2-0.7,2-1.8V12.6z"/>
	<path class="st0" d="M41,11.5c0-1.1,0.7-1.8,2-1.8s2,0.7,2,1.8v0.9c0,1.1-0.7,1.8-2,1.8s-2-0.7-2-1.8V11.5z M44,11.6
		c0-0.6-0.4-1-1-1c-0.7,0-1,0.3-1,1v0.8c0,0.6,0.4,1,1,1s1-0.3,1-1V11.6z M48.9,9.9c0.2,0,0.3,0.1,0.1,0.3l-5.9,8
		c-0.2,0.3-0.2,0.3-0.6,0.3h-0.4c-0.2,0-0.3-0.1-0.2-0.3l5.9-8c0.2-0.2,0.2-0.3,0.6-0.3H48.9z M46.1,16c0-1.1,0.7-1.8,2-1.8
		s2,0.7,2,1.8v0.9c0,1.1-0.7,1.8-2,1.8s-2-0.7-2-1.8V16z M49.1,16.1c0-0.6-0.4-1-1-1c-0.7,0-1,0.3-1,1v0.8c0,0.6,0.4,1,1,1
		c0.7,0,1-0.3,1-1V16.1z"/>
	<path class="st0" d="M56.3,12.8c0-1.9,1.2-3.1,3.4-3.1c2.2,0,3.4,1.2,3.4,3.1v2.7c0,1.9-1.2,3.1-3.4,3.1c-2.2,0-3.4-1.2-3.4-3.1
		V12.8z M61.8,12.8c0-1.3-0.8-2-2.2-2s-2.2,0.7-2.2,2v2.7c0,1.3,0.8,2,2.2,2s2.2-0.7,2.2-2V12.8z"/>
	<path class="st0" d="M69.5,9.9c1.6,0,2.6,0.9,2.6,2.6c0,1.3-0.7,2.1-1.8,2.4c0.2,0.1,0.4,0.3,0.6,0.7l1.3,2.6
		c0.1,0.2,0.1,0.3-0.2,0.3h-0.5c-0.4,0-0.5,0-0.6-0.3L69.8,16c-0.3-0.7-0.7-1-1.6-1h-1.3v3.1c0,0.2-0.1,0.3-0.3,0.3h-0.5
		c-0.2,0-0.3-0.1-0.3-0.3v-7.9c0-0.2,0.1-0.3,0.3-0.3H69.5z M69.4,11h-2.4v3h2.4c1,0,1.5-0.5,1.5-1.5C70.8,11.5,70.3,11,69.4,11z"/>
	<path class="st0" d="M80.9,13.9c0.2,0,0.3,0.1,0.3,0.3v1.5c0,1.7-1.2,2.9-3.4,2.9c-2.2,0-3.4-1.2-3.4-3.1v-2.7
		c0-1.9,1.2-3.1,3.4-3.1c1.7,0,2.8,0.7,3.2,2c0.1,0.2,0,0.3-0.2,0.4l-0.5,0.2c-0.2,0.1-0.3,0-0.4-0.2c-0.3-0.9-0.9-1.4-2.1-1.4
		c-1.4,0-2.2,0.7-2.2,2v2.8c0,1.3,0.8,2,2.2,2c1.4,0,2.2-0.7,2.2-1.8V15H78c-0.2,0-0.3-0.1-0.3-0.3v-0.5c0-0.2,0.1-0.3,0.3-0.3H80.9
		z"/>
	<path class="st0" d="M90.6,18.2c0.1,0.2,0,0.3-0.2,0.3h-0.5c-0.4,0-0.5,0-0.6-0.3l-0.7-2H85l-0.7,2c-0.1,0.2-0.2,0.3-0.6,0.3h-0.4
		c-0.2,0-0.3-0.1-0.2-0.3l3.1-8c0.1-0.2,0.2-0.3,0.4-0.3h0.5c0.2,0,0.3,0.1,0.4,0.3L90.6,18.2z M87.1,12.1c-0.1-0.4-0.2-0.8-0.2-1.1
		h-0.1l0,0.2c0,0.2-0.1,0.6-0.2,1l-1.2,3.2h2.9L87.1,12.1z"/>
	<path class="st0" d="M99,9.9c0.2,0,0.3,0.1,0.3,0.3v7.9c0,0.2-0.1,0.3-0.3,0.3h-0.5c-0.1,0-0.3,0-0.3-0.2l-3.4-5
		c-0.2-0.3-0.4-0.7-0.6-1.1l-0.4-0.7h-0.1c0,0,0,0.3,0.1,0.8c0.1,0.5,0.1,1,0.1,1.4v4.5c0,0.2-0.1,0.3-0.3,0.3h-0.5
		c-0.2,0-0.3-0.1-0.3-0.3v-7.9c0-0.2,0.1-0.3,0.3-0.3h0.5c0.1,0,0.3,0,0.3,0.2l3.4,4.9c0.2,0.3,0.4,0.7,0.7,1.2
		c0.2,0.5,0.3,0.7,0.4,0.7h0.1c0,0,0-0.3-0.1-0.9c-0.1-0.5-0.1-1-0.1-1.5v-4.4c0-0.2,0.1-0.3,0.3-0.3H99z"/>
	<path class="st0" d="M102.3,10.2c0-0.2,0.1-0.3,0.3-0.3h0.5c0.2,0,0.3,0.1,0.3,0.3v7.9c0,0.2-0.1,0.3-0.3,0.3h-0.5
		c-0.2,0-0.3-0.1-0.3-0.3V10.2z"/>
	<path class="st0" d="M106.2,12.8c0-1.9,1.2-3.1,3.4-3.1c1.7,0,2.8,0.7,3.2,2c0.1,0.2,0,0.3-0.2,0.4l-0.5,0.2
		c-0.2,0.1-0.3,0-0.4-0.2c-0.3-0.9-0.9-1.4-2.1-1.4c-1.4,0-2.2,0.7-2.2,2v2.8c0,1.3,0.8,2,2.2,2c1.2,0,1.8-0.4,2.1-1.4
		c0.1-0.2,0.2-0.3,0.4-0.2l0.5,0.2c0.2,0.1,0.3,0.2,0.2,0.4c-0.4,1.4-1.5,2.1-3.3,2.1c-2.2,0-3.4-1.2-3.4-3.1V12.8z"/>
</g>
<g>
	<path class="st1" d="M259.2,14.2c0.2,0,0.3,0.1,0.3,0.3v1.4c0,1.5-1.1,2.5-3,2.5c-1.9,0-3-1-3-2.7v-2.4c0-1.7,1.1-2.7,3-2.7
		c1.5,0,2.5,0.6,2.8,1.8c0.1,0.2,0,0.3-0.2,0.4l-0.4,0.1c-0.2,0.1-0.3,0-0.4-0.2c-0.3-0.8-0.8-1.2-1.9-1.2c-1.3,0-1.9,0.6-1.9,1.7
		v2.4c0,1.1,0.7,1.8,1.9,1.8c1.2,0,1.9-0.6,1.9-1.6v-0.7h-1.8c-0.2,0-0.3-0.1-0.3-0.3v-0.4c0-0.2,0.1-0.3,0.3-0.3H259.2z"/>
	<path class="st1" d="M268.2,10.7c0.2,0,0.3,0.1,0.3,0.3v7c0,0.2-0.1,0.3-0.3,0.3h-0.4c-0.2,0-0.3-0.1-0.3-0.3v-3.8
		c0-0.6,0.1-1.2,0.2-2h-0.1c-0.2,0.5-0.5,1.1-0.8,1.8l-1.3,2.4c-0.1,0.1-0.2,0.2-0.3,0.2h-0.3c-0.1,0-0.3-0.1-0.3-0.2l-1.4-2.4
		c-0.3-0.5-0.6-1.1-0.8-1.8h-0.1c0.1,0.7,0.2,1.3,0.2,2v3.8c0,0.2-0.1,0.3-0.3,0.3h-0.4c-0.2,0-0.3-0.1-0.3-0.3v-7
		c0-0.2,0.1-0.3,0.3-0.3h0.4c0.2,0,0.3,0,0.4,0.2l2.4,4.3l2.4-4.3c0.1-0.2,0.2-0.2,0.4-0.2H268.2z"/>
	<path class="st1" d="M270.6,13.2c0-1.7,1.1-2.7,3-2.7c1.9,0,3,1,3,2.7v2.4c0,1.7-1.1,2.7-3,2.7c-1.9,0-3-1-3-2.7V13.2z M275.5,13.2
		c0-1.1-0.7-1.8-1.9-1.8c-1.2,0-1.9,0.6-1.9,1.8v2.4c0,1.1,0.7,1.8,1.9,1.8c1.2,0,1.9-0.6,1.9-1.8V13.2z"/>
</g>
<g>
	<line class="st1" x1="282.3" y1="1.5" x2="247.7" y2="26.6"/>
	<polygon class="st1" points="247.9,26.8 247.6,26.4 282.2,1.3 282.5,1.7 	"/>
</g>
<path class="st1" d="M281.6,26.9h-33.8c-0.6,0-1-0.5-1-1V1.5c0-0.6,0.5-1,1-1h33.8c0.6,0,1,0.5,1,1v24.3
	C282.6,26.4,282.1,26.9,281.6,26.9z M247.7,1c-0.3,0-0.5,0.2-0.5,0.5v24.3c0,0.3,0.2,0.5,0.5,0.5h33.8c0.3,0,0.5-0.2,0.5-0.5V1.5
	c0-0.3-0.2-0.5-0.5-0.5H247.7z"/>
<g>
	<line class="st1" x1="241.3" y1="1.4" x2="206.4" y2="26.7"/>
	<polygon class="st1" points="206.5,26.9 206.2,26.5 241.1,1.2 241.4,1.6 	"/>
</g>
<path class="st1" d="M240.5,27h-34.1c-0.6,0-1.1-0.5-1.1-1.1V1.4c0-0.6,0.5-1.1,1.1-1.1h34.1c0.6,0,1.1,0.5,1.1,1.1v24.5
	C241.5,26.5,241.1,27,240.5,27z M206.4,0.9c-0.3,0-0.5,0.2-0.5,0.5v24.5c0,0.3,0.2,0.5,0.5,0.5h34.1c0.3,0,0.5-0.2,0.5-0.5V1.4
	c0-0.3-0.2-0.5-0.5-0.5H206.4z"/>
<g>
	<line class="st1" x1="343.6" y1="1.5" x2="290.1" y2="26.6"/>
	
		<rect x="287.3" y="13.8" transform="matrix(0.9051 -0.4252 0.4252 0.9051 24.0951 136.0654)" class="st1" width="59.1" height="0.5"/>
</g>
<path class="st1" d="M342.6,26.9h-52.8c-0.7,0-1.2-0.6-1.2-1.2V1.7c0-0.7,0.6-1.2,1.2-1.2h52.8c0.7,0,1.2,0.6,1.2,1.2v23.9
	C343.9,26.3,343.3,26.9,342.6,26.9z M289.8,1c-0.4,0-0.7,0.3-0.7,0.7v23.9c0,0.4,0.3,0.7,0.7,0.7h52.8c0.4,0,0.7-0.3,0.7-0.7V1.7
	c0-0.4-0.3-0.7-0.7-0.7H289.8z"/>
<g>
	<path class="st1" d="M216.4,10.7c2,0,3.1,1.1,3.1,2.8v1.9c0,1.7-1.1,2.8-3.1,2.8h-2.3c-0.2,0-0.3-0.1-0.3-0.3v-7
		c0-0.2,0.1-0.3,0.3-0.3H216.4z M218.5,13.5c0-1.2-0.7-1.8-2.1-1.8h-1.6v5.6h1.6c1.3,0,2.1-0.7,2.1-1.8V13.5z"/>
	<path class="st1" d="M227,10.7c0.2,0,0.3,0.1,0.1,0.3l-2.7,4.3V18c0,0.2-0.1,0.3-0.3,0.3h-0.5c-0.2,0-0.3-0.1-0.3-0.3v-2.8
		l-2.7-4.2c-0.1-0.1-0.1-0.3,0.1-0.3h0.6c0.3,0,0.4,0,0.5,0.2l2,3.2l2-3.2c0.1-0.2,0.2-0.2,0.5-0.2H227z"/>
	<path class="st1" d="M233.4,10.7c0.2,0,0.3,0.1,0.3,0.3v0.4c0,0.2-0.1,0.3-0.3,0.3h-3.5v2.3h3c0.2,0,0.3,0.1,0.3,0.3v0.4
		c0,0.2-0.1,0.3-0.3,0.3h-3v2.4h3.7c0.2,0,0.3,0.1,0.3,0.3V18c0,0.2-0.1,0.3-0.3,0.3h-4.4c-0.2,0-0.3-0.1-0.3-0.3v-7
		c0-0.2,0.1-0.3,0.3-0.3H233.4z"/>
</g>
<g>
	<path class="st1" d="M301.1,14.2c0.2,0,0.3,0.1,0.3,0.3v1.4c0,1.5-1.1,2.5-3,2.5c-1.9,0-3-1-3-2.7v-2.4c0-1.7,1.1-2.7,3-2.7
		c1.5,0,2.5,0.6,2.8,1.8c0.1,0.2,0,0.3-0.2,0.4l-0.4,0.1c-0.2,0.1-0.3,0-0.4-0.2c-0.3-0.8-0.8-1.2-1.9-1.2c-1.3,0-1.9,0.6-1.9,1.7
		v2.4c0,1.1,0.7,1.8,1.9,1.8c1.2,0,1.9-0.6,1.9-1.6v-0.7h-1.8c-0.2,0-0.3-0.1-0.3-0.3v-0.4c0-0.2,0.1-0.3,0.3-0.3H301.1z"/>
	<path class="st1" d="M304.2,10.7c0.2,0,0.3,0.1,0.3,0.3v6.3h3.3c0.2,0,0.3,0.1,0.3,0.3v0.4c0,0.2-0.1,0.3-0.3,0.3h-4.1
		c-0.2,0-0.3-0.1-0.3-0.3v-7c0-0.2,0.1-0.3,0.3-0.3H304.2z"/>
	<path class="st1" d="M310.6,15.6c0,1.1,0.6,1.8,1.9,1.8c1.2,0,1.9-0.7,1.9-1.8V11c0-0.2,0.1-0.3,0.3-0.3h0.5c0.2,0,0.3,0.1,0.3,0.3
		v4.7c0,1.7-1,2.7-2.9,2.7c-1.9,0-2.9-1-2.9-2.7V11c0-0.2,0.1-0.3,0.3-0.3h0.5c0.2,0,0.3,0.1,0.3,0.3V15.6z"/>
	<path class="st1" d="M322.3,10.7c0.2,0,0.3,0.1,0.3,0.3v0.4c0,0.2-0.1,0.3-0.3,0.3h-2v6.3c0,0.2-0.1,0.3-0.3,0.3h-0.5
		c-0.2,0-0.3-0.1-0.3-0.3v-6.3h-2c-0.2,0-0.3-0.1-0.3-0.3V11c0-0.2,0.1-0.3,0.3-0.3H322.3z"/>
	<path class="st1" d="M328.9,10.7c0.2,0,0.3,0.1,0.3,0.3v0.4c0,0.2-0.1,0.3-0.3,0.3h-3.5v2.3h3c0.2,0,0.3,0.1,0.3,0.3v0.4
		c0,0.2-0.1,0.3-0.3,0.3h-3v2.4h3.6c0.2,0,0.3,0.1,0.3,0.3v0.4c0,0.2-0.1,0.3-0.3,0.3h-4.4c-0.2,0-0.3-0.1-0.3-0.3v-7
		c0-0.2,0.1-0.3,0.3-0.3H328.9z"/>
	<path class="st1" d="M336.7,10.7c0.2,0,0.3,0.1,0.3,0.3v7c0,0.2-0.1,0.3-0.3,0.3h-0.5c-0.1,0-0.2,0-0.3-0.1l-3-4.4
		c-0.2-0.3-0.3-0.6-0.5-1l-0.3-0.6H332c0,0,0,0.3,0.1,0.7c0.1,0.5,0.1,0.9,0.1,1.2v3.9c0,0.2-0.1,0.3-0.3,0.3h-0.4
		c-0.2,0-0.3-0.1-0.3-0.3v-7c0-0.2,0.1-0.3,0.3-0.3h0.5c0.1,0,0.2,0,0.3,0.1l3,4.3c0.2,0.3,0.4,0.6,0.6,1c0.2,0.4,0.3,0.6,0.3,0.7
		h0.1c0,0,0-0.3-0.1-0.8c-0.1-0.5-0.1-0.9-0.1-1.3V11c0-0.2,0.1-0.3,0.3-0.3H336.7z"/>
</g>
<g>
	<path class="st1" d="M158.5,9.8c1.4,0,2.2,0.5,2.8,1.6c0.1,0.2,0,0.3-0.1,0.4l-0.4,0.2c-0.2,0.1-0.3,0.1-0.4-0.1
		c-0.4-0.7-0.9-1.1-1.8-1.1c-1.2,0-1.8,0.4-1.8,1.2c0,0.6,0.3,0.8,0.9,1c0.4,0.1,0.7,0.2,1.2,0.2c0.6,0.1,1,0.1,1.5,0.3
		c0.3,0.1,0.5,0.2,0.6,0.4c0.3,0.3,0.6,0.8,0.6,1.4c0,1.4-1.1,2.3-2.9,2.3c-1.6,0-2.4-0.6-2.9-1.8c-0.1-0.2,0-0.3,0.2-0.4l0.4-0.2
		c0.2-0.1,0.3,0,0.4,0.2c0.3,0.8,1,1.2,1.9,1.2c1.3,0,1.9-0.4,1.9-1.3c0-0.4-0.2-0.7-0.6-0.9c-0.4-0.2-0.7-0.2-1.3-0.3
		c-0.5-0.1-0.8-0.1-1.3-0.2c-0.3-0.1-0.5-0.1-0.6-0.2c-0.5-0.3-1-0.8-0.9-1.7C155.7,10.6,156.7,9.8,158.5,9.8z"/>
	<path class="st1" d="M164.3,14.9c0,1.1,0.6,1.8,1.9,1.8c1.2,0,1.9-0.7,1.9-1.8v-4.7c0-0.2,0.1-0.3,0.3-0.3h0.5
		c0.2,0,0.3,0.1,0.3,0.3v4.7c0,1.7-1,2.7-2.9,2.7c-1.9,0-2.9-1-2.9-2.7v-4.7c0-0.2,0.1-0.3,0.3-0.3h0.5c0.2,0,0.3,0.1,0.3,0.3V14.9z
		"/>
	<path class="st1" d="M176.8,13.4c0.2,0,0.3,0.1,0.3,0.3v1.4c0,1.5-1.1,2.5-3,2.5c-1.9,0-3-1-3-2.7v-2.4c0-1.7,1.1-2.7,3-2.7
		c1.5,0,2.5,0.6,2.8,1.8c0.1,0.2,0,0.3-0.2,0.4l-0.4,0.1c-0.2,0.1-0.3,0-0.4-0.2c-0.3-0.8-0.8-1.2-1.9-1.2c-1.3,0-1.9,0.6-1.9,1.7
		v2.4c0,1.1,0.7,1.8,1.9,1.8c1.2,0,1.9-0.6,1.9-1.6v-0.7h-1.8c-0.2,0-0.3-0.1-0.3-0.3v-0.4c0-0.2,0.1-0.3,0.3-0.3H176.8z"/>
	<path class="st1" d="M185.1,17.1c0.1,0.2,0,0.3-0.2,0.3h-0.4c-0.3,0-0.4,0-0.5-0.2l-0.7-1.7h-3.1l-0.7,1.7
		c-0.1,0.2-0.2,0.2-0.5,0.2h-0.4c-0.2,0-0.3-0.1-0.2-0.3l2.7-7c0.1-0.2,0.2-0.2,0.3-0.2h0.4c0.2,0,0.3,0.1,0.3,0.2L185.1,17.1z
		 M182,11.8c-0.1-0.4-0.2-0.7-0.2-1h-0.1l0,0.1c0,0.2-0.1,0.5-0.2,0.8l-1.1,2.8h2.6L182,11.8z"/>
	<path class="st1" d="M189.9,9.9c1.4,0,2.3,0.8,2.3,2.3c0,1.1-0.6,1.9-1.6,2.1c0.2,0.1,0.4,0.3,0.5,0.6l1.2,2.3
		c0.1,0.2,0.1,0.3-0.1,0.3h-0.5c-0.3,0-0.5,0-0.5-0.2l-1-1.9c-0.3-0.6-0.6-0.8-1.4-0.8h-1.1v2.7c0,0.2-0.1,0.3-0.3,0.3H187
		c-0.2,0-0.3-0.1-0.3-0.3v-7c0-0.2,0.1-0.3,0.3-0.3H189.9z M189.8,10.9h-2.1v2.6h2.1c0.8,0,1.3-0.5,1.3-1.3
		C191.2,11.3,190.7,10.9,189.8,10.9z"/>
</g>
<g>
	<line class="st1" x1="199.1" y1="1.6" x2="149.2" y2="26.5"/>
	<polygon class="st1" points="149.4,26.7 149.1,26.3 199,1.4 199.2,1.8 	"/>
</g>
<path class="st1" d="M198.2,27H150c-0.7,0-1.2-0.5-1.2-1.2V1.6c0-0.7,0.5-1.2,1.2-1.2h48.2c0.7,0,1.2,0.5,1.2,1.2v24.2
	C199.4,26.5,198.8,27,198.2,27z M150,0.9c-0.4,0-0.7,0.3-0.7,0.7v24.2c0,0.4,0.3,0.7,0.7,0.7h48.2c0.4,0,0.7-0.3,0.7-0.7V1.6
	c0-0.4-0.3-0.7-0.7-0.7H150z"/>
</svg>
