<?xml version="1.0" encoding="utf-8"?>
<!-- Generator: Adobe Illustrator 21.1.0, SVG Export Plug-In . SVG Version: 6.00 Build 0)  -->
<svg version="1.1" id="Слой_1" xmlns="http://www.w3.org/2000/svg" xmlns:xlink="http://www.w3.org/1999/xlink" x="0px" y="0px"
	 viewBox="0 0 343.6 27.1" style="enable-background:new 0 0 343.6 27.1;" xml:space="preserve">
<style type="text/css">
	.st0{clip-path:url(#SVGID_2_);fill:#426C66;}
	.st1{clip-path:url(#SVGID_2_);fill:#D65970;}
</style>
<g>
	<defs>
		<rect id="SVGID_1_" y="0" width="343.6" height="27.1"/>
	</defs>
	<clipPath id="SVGID_2_">
		<use xlink:href="#SVGID_1_"  style="overflow:visible;"/>
	</clipPath>
	<path class="st0" d="M128.6,27.1H2c-1.1,0-2-0.9-2-2V2.5c0-1.1,0.9-2,2-2h126.6c1.1,0,2,0.9,2,2v22.6
		C130.6,26.2,129.7,27.1,128.6,27.1 M2,1.4c-0.6,0-1,0.5-1,1v22.6c0,0.6,0.5,1,1,1h126.6c0.6,0,1-0.5,1-1V2.5c0-0.6-0.5-1-1-1H2z"/>
	<path class="st0" d="M20.4,9.6c0.2,0,0.3,0.1,0.3,0.3v7.9c0,0.2-0.1,0.3-0.3,0.3h-0.5c-0.2,0-0.3-0.1-0.3-0.3V11l-2.2,1.2
		c-0.2,0.1-0.4,0.1-0.5-0.1l-0.2-0.4c-0.1-0.2,0-0.3,0.1-0.4l2.7-1.5c0.1-0.1,0.3-0.1,0.4-0.1H20.4z"/>
	<path class="st0" d="M23.4,12.3c0-1.8,1.2-2.9,3.1-2.9c2,0,3.1,1.1,3.1,2.9v3.2c0,1.8-1.2,2.9-3.1,2.9c-2,0-3.1-1.1-3.1-2.9V12.3z
		 M28.5,12.3c0-1.1-0.7-1.8-2-1.8c-1.3,0-2,0.7-2,1.8v3.2c0,1.1,0.7,1.8,2,1.8c1.2,0,2-0.7,2-1.8V12.3z"/>
	<path class="st0" d="M32.2,12.3c0-1.8,1.2-2.9,3.1-2.9c2,0,3.1,1.1,3.1,2.9v3.2c0,1.8-1.2,2.9-3.1,2.9c-2,0-3.1-1.1-3.1-2.9V12.3z
		 M37.3,12.3c0-1.1-0.7-1.8-2-1.8c-1.3,0-2,0.7-2,1.8v3.2c0,1.1,0.7,1.8,2,1.8c1.2,0,2-0.7,2-1.8V12.3z"/>
	<path class="st0" d="M40.8,11.2c0-1.1,0.7-1.8,2-1.8c1.3,0,2,0.7,2,1.8V12c0,1.1-0.7,1.8-2,1.8c-1.3,0-2-0.7-2-1.8V11.2z
		 M43.8,11.2c0-0.6-0.4-1-1-1c-0.7,0-1,0.3-1,1V12c0,0.6,0.4,1,1,1c0.7,0,1-0.3,1-1V11.2z M48.7,9.6c0.2,0,0.3,0.1,0.1,0.3l-5.9,8
		c-0.2,0.3-0.2,0.3-0.6,0.3h-0.4c-0.2,0-0.3-0.1-0.2-0.3l5.9-8c0.2-0.2,0.2-0.3,0.6-0.3H48.7z M45.9,15.7c0-1.1,0.7-1.8,2-1.8
		c1.3,0,2,0.7,2,1.8v0.9c0,1.1-0.7,1.8-2,1.8c-1.3,0-2-0.7-2-1.8V15.7z M48.9,15.7c0-0.6-0.4-1-1.1-1c-0.7,0-1,0.4-1,1v0.8
		c0,0.6,0.4,1,1,1c0.7,0,1.1-0.3,1.1-1V15.7z"/>
	<path class="st0" d="M56,12.5c0-1.9,1.2-3.1,3.4-3.1s3.4,1.2,3.4,3.1v2.7c0,1.9-1.2,3.1-3.4,3.1S56,17.2,56,15.2V12.5z M61.6,12.5
		c0-1.3-0.8-2-2.2-2c-1.4,0-2.2,0.7-2.2,2v2.7c0,1.3,0.8,2,2.2,2c1.4,0,2.2-0.7,2.2-2V12.5z"/>
	<path class="st0" d="M69.2,9.6c1.6,0,2.6,0.9,2.6,2.6c0,1.3-0.7,2.1-1.8,2.4c0.2,0.1,0.4,0.3,0.6,0.7l1.3,2.6
		c0.1,0.2,0.1,0.3-0.2,0.3h-0.5c-0.4,0-0.5,0-0.6-0.3l-1.1-2.2c-0.3-0.7-0.7-1-1.6-1h-1.3v3.1c0,0.2-0.1,0.3-0.3,0.3h-0.5
		c-0.2,0-0.3-0.1-0.3-0.3V9.9c0-0.2,0.1-0.3,0.3-0.3H69.2z M69.1,10.7h-2.4v3h2.4c1,0,1.5-0.5,1.5-1.5
		C70.6,11.2,70.1,10.7,69.1,10.7"/>
	<path class="st0" d="M80.7,13.6c0.2,0,0.3,0.1,0.3,0.3v1.5c0,1.7-1.2,2.9-3.4,2.9c-2.2,0-3.4-1.2-3.4-3.1v-2.7
		c0-1.9,1.2-3.1,3.4-3.1c1.7,0,2.8,0.7,3.2,2c0.1,0.2,0,0.3-0.2,0.4L80.2,12c-0.2,0.1-0.3,0-0.4-0.2c-0.3-0.9-0.9-1.4-2.1-1.4
		c-1.4,0-2.2,0.7-2.2,2v2.8c0,1.3,0.8,2,2.2,2c1.4,0,2.2-0.7,2.2-1.8v-0.8h-2.1c-0.2,0-0.3-0.1-0.3-0.3v-0.5c0-0.2,0.1-0.3,0.3-0.3
		H80.7z"/>
	<path class="st0" d="M90.4,17.8c0.1,0.2,0,0.3-0.2,0.3h-0.5c-0.4,0-0.5,0-0.6-0.3l-0.7-2h-3.6l-0.7,2c-0.1,0.2-0.2,0.3-0.6,0.3H83
		c-0.2,0-0.3-0.1-0.2-0.3l3.1-8c0.1-0.2,0.2-0.3,0.4-0.3h0.5c0.2,0,0.3,0.1,0.4,0.3L90.4,17.8z M86.8,11.8c-0.1-0.4-0.2-0.8-0.2-1.1
		h-0.1l0,0.2c0,0.2-0.1,0.6-0.2,1l-1.2,3.2H88L86.8,11.8z"/>
	<path class="st0" d="M98.8,9.6c0.2,0,0.3,0.1,0.3,0.3v7.9c0,0.2-0.1,0.3-0.3,0.3h-0.5c-0.1,0-0.3,0-0.3-0.2l-3.4-5
		c-0.2-0.3-0.4-0.7-0.6-1.1l-0.4-0.7h-0.1c0,0,0,0.3,0.1,0.8c0.1,0.5,0.1,1,0.1,1.4v4.5c0,0.2-0.1,0.3-0.3,0.3h-0.5
		c-0.2,0-0.3-0.1-0.3-0.3V9.9c0-0.2,0.1-0.3,0.3-0.3h0.5c0.1,0,0.3,0,0.3,0.2l3.4,4.9c0.2,0.3,0.4,0.7,0.7,1.2
		c0.2,0.5,0.3,0.7,0.4,0.7h0.1c0,0,0-0.3-0.1-0.9c-0.1-0.5-0.1-1-0.1-1.5V9.9c0-0.2,0.1-0.3,0.3-0.3H98.8z"/>
	<path class="st0" d="M102.1,9.9c0-0.2,0.1-0.3,0.3-0.3h0.5c0.2,0,0.3,0.1,0.3,0.3v7.9c0,0.2-0.1,0.3-0.3,0.3h-0.5
		c-0.2,0-0.3-0.1-0.3-0.3V9.9z"/>
	<path class="st0" d="M106,12.5c0-1.9,1.2-3.1,3.4-3.1c1.7,0,2.8,0.7,3.2,2c0.1,0.2,0,0.3-0.2,0.4l-0.5,0.2c-0.2,0.1-0.3,0-0.4-0.2
		c-0.3-0.9-0.9-1.4-2.1-1.4c-1.4,0-2.2,0.7-2.2,2v2.8c0,1.3,0.8,2,2.2,2c1.2,0,1.8-0.4,2.1-1.4c0.1-0.2,0.2-0.3,0.4-0.2l0.5,0.2
		c0.2,0.1,0.3,0.2,0.2,0.4c-0.4,1.4-1.5,2.1-3.3,2.1c-2.2,0-3.4-1.2-3.4-3.1V12.5z"/>
	<path class="st1" d="M258.9,13.8c0.2,0,0.3,0.1,0.3,0.3v1.4c0,1.5-1.1,2.5-3,2.5c-1.9,0-3-1-3-2.7v-2.4c0-1.7,1.1-2.7,3-2.7
		c1.5,0,2.5,0.6,2.8,1.8c0.1,0.2,0,0.3-0.2,0.4l-0.4,0.1c-0.2,0.1-0.3,0-0.4-0.2c-0.3-0.8-0.8-1.2-1.9-1.2c-1.3,0-1.9,0.6-1.9,1.7
		v2.4c0,1.1,0.7,1.8,1.9,1.8c1.2,0,1.9-0.6,1.9-1.6v-0.7h-1.8c-0.2,0-0.3-0.1-0.3-0.3v-0.4c0-0.2,0.1-0.3,0.3-0.3H258.9z"/>
	<path class="st1" d="M267.9,10.3c0.2,0,0.3,0.1,0.3,0.3v7c0,0.2-0.1,0.3-0.3,0.3h-0.4c-0.2,0-0.3-0.1-0.3-0.3v-3.8
		c0-0.6,0.1-1.2,0.2-2h-0.1c-0.2,0.5-0.5,1.1-0.8,1.8l-1.3,2.4c-0.1,0.1-0.2,0.2-0.3,0.2h-0.3c-0.1,0-0.3-0.1-0.3-0.2l-1.4-2.4
		c-0.3-0.5-0.6-1.1-0.8-1.8h-0.1c0.1,0.7,0.2,1.3,0.2,2v3.8c0,0.2-0.1,0.3-0.3,0.3h-0.4c-0.2,0-0.3-0.1-0.3-0.3v-7
		c0-0.2,0.1-0.3,0.3-0.3h0.4c0.2,0,0.3,0,0.4,0.2l2.4,4.3l2.4-4.3c0.1-0.2,0.2-0.2,0.4-0.2H267.9z"/>
	<path class="st1" d="M270.4,12.9c0-1.7,1.1-2.7,3-2.7c1.9,0,3,1,3,2.7v2.4c0,1.7-1.1,2.7-3,2.7c-1.9,0-3-1-3-2.7V12.9z M275.3,12.9
		c0-1.1-0.7-1.8-1.9-1.8s-1.9,0.6-1.9,1.8v2.4c0,1.1,0.7,1.8,1.9,1.8s1.9-0.6,1.9-1.8V12.9z"/>
	<line class="st1" x1="282.1" y1="1.1" x2="247.5" y2="26.3"/>
	<polygon class="st1" points="247.6,26.5 247.3,26.1 281.9,0.9 282.2,1.3 	"/>
	<path class="st1" d="M281.3,26.5h-33.8c-0.6,0-1.1-0.5-1.1-1V1.2c0-0.6,0.5-1.1,1.1-1.1h33.8c0.6,0,1,0.5,1,1.1v24.3
		C282.4,26.1,281.9,26.5,281.3,26.5 M247.5,0.6c-0.3,0-0.5,0.2-0.5,0.5v24.3c0,0.3,0.2,0.5,0.5,0.5h33.8c0.3,0,0.5-0.2,0.5-0.5V1.2
		c0-0.3-0.2-0.5-0.5-0.5H247.5z"/>
	<line class="st1" x1="241" y1="1" x2="206.1" y2="26.4"/>
	<polygon class="st1" points="206.3,26.6 206,26.2 240.9,0.8 241.2,1.2 	"/>
	<path class="st1" d="M240.2,26.6h-34.1c-0.6,0-1.1-0.5-1.1-1.1V1.1c0-0.6,0.5-1.1,1.1-1.1h34.1c0.6,0,1.1,0.5,1.1,1.1v24.5
		C241.3,26.2,240.8,26.6,240.2,26.6 M206.1,0.5c-0.3,0-0.5,0.2-0.5,0.5v24.5c0,0.3,0.2,0.5,0.5,0.5h34.1c0.3,0,0.5-0.2,0.5-0.5V1.1
		c0-0.3-0.2-0.5-0.5-0.5H206.1z"/>
	<line class="st1" x1="343.3" y1="1.1" x2="289.8" y2="26.3"/>
	<rect x="287" y="13.5" transform="matrix(0.9052 -0.425 0.425 0.9052 24.1955 135.8646)" class="st1" width="59.1" height="0.5"/>
	<path class="st1" d="M342.4,26.5h-52.8c-0.7,0-1.2-0.6-1.2-1.2V1.3c0-0.7,0.6-1.2,1.2-1.2h52.8c0.7,0,1.2,0.6,1.2,1.2v23.9
		C343.6,26,343,26.5,342.4,26.5 M289.6,0.6c-0.4,0-0.7,0.3-0.7,0.7v23.9c0,0.4,0.3,0.7,0.7,0.7h52.8c0.4,0,0.7-0.3,0.7-0.7V1.3
		c0-0.4-0.3-0.7-0.7-0.7H289.6z"/>
	<path class="st1" d="M216.2,10.3c2,0,3.1,1.1,3.1,2.8v1.9c0,1.7-1.1,2.8-3.1,2.8h-2.3c-0.2,0-0.3-0.1-0.3-0.3v-7
		c0-0.2,0.1-0.3,0.3-0.3H216.2z M218.3,13.1c0-1.2-0.7-1.8-2.1-1.8h-1.6v5.6h1.6c1.3,0,2.1-0.7,2.1-1.8V13.1z"/>
	<path class="st1" d="M226.7,10.3c0.2,0,0.3,0.1,0.1,0.3l-2.7,4.3v2.7c0,0.2-0.1,0.3-0.3,0.3h-0.5c-0.2,0-0.3-0.1-0.3-0.3v-2.8
		l-2.7-4.2c-0.1-0.1-0.1-0.3,0.1-0.3h0.6c0.3,0,0.4,0,0.5,0.2l2,3.2l2-3.2c0.1-0.2,0.2-0.2,0.5-0.2H226.7z"/>
	<path class="st1" d="M233.2,10.3c0.2,0,0.3,0.1,0.3,0.3V11c0,0.2-0.1,0.3-0.3,0.3h-3.5v2.3h3c0.2,0,0.3,0.1,0.3,0.3v0.4
		c0,0.2-0.1,0.3-0.3,0.3h-3v2.4h3.7c0.2,0,0.3,0.1,0.3,0.3v0.4c0,0.2-0.1,0.3-0.3,0.3h-4.4c-0.2,0-0.3-0.1-0.3-0.3v-7
		c0-0.2,0.1-0.3,0.3-0.3H233.2z"/>
	<path class="st1" d="M300.9,13.8c0.2,0,0.3,0.1,0.3,0.3v1.4c0,1.5-1.1,2.5-3,2.5c-1.9,0-3-1-3-2.7v-2.4c0-1.7,1.1-2.7,3-2.7
		c1.5,0,2.5,0.6,2.8,1.8c0.1,0.2,0,0.3-0.2,0.4l-0.4,0.1c-0.2,0.1-0.3,0-0.4-0.2c-0.3-0.8-0.8-1.2-1.9-1.2c-1.3,0-1.9,0.6-1.9,1.7
		v2.4c0,1.1,0.7,1.8,1.9,1.8c1.2,0,1.9-0.6,1.9-1.6v-0.7h-1.8c-0.2,0-0.3-0.1-0.3-0.3v-0.4c0-0.2,0.1-0.3,0.3-0.3H300.9z"/>
	<path class="st1" d="M303.9,10.3c0.2,0,0.3,0.1,0.3,0.3v6.3h3.3c0.2,0,0.3,0.1,0.3,0.3v0.4c0,0.2-0.1,0.3-0.3,0.3h-4.1
		c-0.2,0-0.3-0.1-0.3-0.3v-7c0-0.2,0.1-0.3,0.3-0.3H303.9z"/>
	<path class="st1" d="M310.3,15.3c0,1.1,0.6,1.8,1.9,1.8c1.2,0,1.9-0.7,1.9-1.8v-4.7c0-0.2,0.1-0.3,0.3-0.3h0.5
		c0.2,0,0.3,0.1,0.3,0.3v4.7c0,1.7-1,2.7-2.9,2.7c-1.9,0-2.9-1-2.9-2.7v-4.7c0-0.2,0.1-0.3,0.3-0.3h0.5c0.2,0,0.3,0.1,0.3,0.3V15.3z
		"/>
	<path class="st1" d="M322.1,10.3c0.2,0,0.3,0.1,0.3,0.3V11c0,0.2-0.1,0.3-0.3,0.3h-2v6.3c0,0.2-0.1,0.3-0.3,0.3h-0.5
		c-0.2,0-0.3-0.1-0.3-0.3v-6.3h-2c-0.2,0-0.3-0.1-0.3-0.3v-0.4c0-0.2,0.1-0.3,0.3-0.3H322.1z"/>
	<path class="st1" d="M328.6,10.3c0.2,0,0.3,0.1,0.3,0.3V11c0,0.2-0.1,0.3-0.3,0.3h-3.5v2.3h3c0.2,0,0.3,0.1,0.3,0.3v0.4
		c0,0.2-0.1,0.3-0.3,0.3h-3v2.4h3.6c0.2,0,0.3,0.1,0.3,0.3v0.4c0,0.2-0.1,0.3-0.3,0.3h-4.4c-0.2,0-0.3-0.1-0.3-0.3v-7
		c0-0.2,0.1-0.3,0.3-0.3H328.6z"/>
	<path class="st1" d="M336.5,10.3c0.2,0,0.3,0.1,0.3,0.3v7c0,0.2-0.1,0.3-0.3,0.3H336c-0.1,0-0.2,0-0.3-0.1l-3-4.4
		c-0.2-0.3-0.3-0.6-0.5-1l-0.3-0.6h-0.1c0,0,0,0.3,0.1,0.7c0.1,0.5,0.1,0.9,0.1,1.2v3.9c0,0.2-0.1,0.3-0.3,0.3h-0.4
		c-0.2,0-0.3-0.1-0.3-0.3v-7c0-0.2,0.1-0.3,0.3-0.3h0.5c0.1,0,0.2,0,0.3,0.1l3,4.3c0.2,0.3,0.4,0.6,0.6,1c0.2,0.4,0.3,0.6,0.3,0.7
		h0.1c0,0,0-0.3-0.1-0.8c-0.1-0.5-0.1-0.9-0.1-1.3v-3.8c0-0.2,0.1-0.3,0.3-0.3H336.5z"/>
	<path class="st1" d="M158.3,9c1.4,0,2.2,0.5,2.8,1.6c0.1,0.2,0,0.3-0.1,0.4l-0.4,0.2c-0.2,0.1-0.3,0.1-0.4-0.1
		c-0.4-0.7-0.9-1.1-1.8-1.1c-1.2,0-1.8,0.4-1.8,1.2c0,0.6,0.3,0.8,0.9,1c0.4,0.1,0.7,0.2,1.2,0.2c0.6,0.1,1,0.1,1.5,0.3
		c0.3,0.1,0.5,0.2,0.6,0.4c0.3,0.3,0.6,0.8,0.6,1.4c0,1.4-1.1,2.3-2.9,2.3c-1.6,0-2.4-0.6-2.9-1.8c-0.1-0.2,0-0.3,0.2-0.4l0.4-0.2
		c0.2-0.1,0.3,0,0.4,0.2c0.3,0.8,1,1.2,1.9,1.2c1.3,0,1.9-0.4,1.9-1.3c0-0.4-0.2-0.7-0.6-0.9c-0.4-0.2-0.7-0.2-1.3-0.3
		c-0.6-0.1-0.8-0.1-1.3-0.2c-0.3-0.1-0.5-0.1-0.6-0.2c-0.5-0.3-1-0.8-0.9-1.7C155.5,9.9,156.5,9,158.3,9"/>
	<path class="st1" d="M164.1,14.1c0,1.1,0.6,1.8,1.9,1.8c1.2,0,1.9-0.7,1.9-1.8V9.5c0-0.2,0.1-0.3,0.3-0.3h0.5
		c0.2,0,0.3,0.1,0.3,0.3v4.7c0,1.7-1,2.7-2.9,2.7c-1.9,0-2.9-1-2.9-2.7V9.5c0-0.2,0.1-0.3,0.3-0.3h0.5c0.2,0,0.3,0.1,0.3,0.3V14.1z"
		/>
	<path class="st1" d="M176.6,12.7c0.2,0,0.3,0.1,0.3,0.3v1.4c0,1.5-1.1,2.5-3,2.5c-1.9,0-3-1-3-2.7v-2.4c0-1.7,1.1-2.7,3-2.7
		c1.5,0,2.5,0.6,2.8,1.8c0.1,0.2,0,0.3-0.2,0.4l-0.4,0.1c-0.2,0.1-0.3,0-0.4-0.2c-0.3-0.8-0.8-1.2-1.9-1.2c-1.3,0-1.9,0.6-1.9,1.7
		v2.4c0,1.1,0.7,1.8,1.9,1.8c1.2,0,1.9-0.6,1.9-1.6v-0.7h-1.8c-0.2,0-0.3-0.1-0.3-0.3V13c0-0.2,0.1-0.3,0.3-0.3H176.6z"/>
	<path class="st1" d="M184.8,16.4c0.1,0.2,0,0.3-0.2,0.3h-0.4c-0.3,0-0.4,0-0.5-0.2l-0.7-1.7H180l-0.7,1.7c-0.1,0.2-0.2,0.2-0.5,0.2
		h-0.4c-0.2,0-0.3-0.1-0.2-0.3l2.8-7c0.1-0.2,0.2-0.2,0.3-0.2h0.4c0.2,0,0.3,0.1,0.3,0.2L184.8,16.4z M181.7,11.1
		c-0.1-0.4-0.2-0.7-0.2-1h-0.1l0,0.1c0,0.2-0.1,0.6-0.2,0.8l-1.1,2.8h2.6L181.7,11.1z"/>
	<path class="st1" d="M189.7,9.2c1.4,0,2.3,0.8,2.3,2.3c0,1.1-0.6,1.9-1.6,2.1c0.2,0.1,0.4,0.3,0.5,0.6l1.2,2.3
		c0.1,0.2,0.1,0.3-0.1,0.3h-0.5c-0.3,0-0.5,0-0.5-0.2l-1-1.9c-0.3-0.6-0.6-0.8-1.4-0.8h-1.1v2.7c0,0.2-0.1,0.3-0.3,0.3h-0.5
		c-0.2,0-0.3-0.1-0.3-0.3v-7c0-0.2,0.1-0.3,0.3-0.3H189.7z M189.6,10.1h-2.1v2.6h2.1c0.8,0,1.3-0.5,1.3-1.3
		C190.9,10.6,190.5,10.1,189.6,10.1"/>
	<line class="st1" x1="198.9" y1="1.3" x2="149" y2="26.1"/>
	
		<rect x="146.1" y="13.4" transform="matrix(0.8952 -0.4457 0.4457 0.8952 12.1256 78.948)" class="st1" width="55.7" height="0.5"/>
	<path class="st1" d="M197.9,26.6h-48.2c-0.7,0-1.2-0.5-1.2-1.2V1.2c0-0.7,0.5-1.2,1.2-1.2h48.2c0.7,0,1.2,0.5,1.2,1.2v24.2
		C199.1,26.1,198.6,26.6,197.9,26.6 M149.7,0.6c-0.4,0-0.7,0.3-0.7,0.7v24.2c0,0.4,0.3,0.7,0.7,0.7h48.2c0.4,0,0.7-0.3,0.7-0.7V1.2
		c0-0.4-0.3-0.7-0.7-0.7H149.7z"/>
</g>
</svg>
