<svg width="128" height="63" viewBox="0 0 128 63" xmlns="http://www.w3.org/2000/svg">
    <title>
        logo
    </title>
    <g fill="#000" fill-rule="evenodd">
        <g fill-rule="nonzero">
            <path d="M80.657 25.616c.33-3.938 2.19-11.195-.165-14.556-.352-.495-.744-.886-1.178-1.299-2.397-1.896-4.917.083-6.198 2.31l-.145.267c-.165.31-.29.598-.413.928-.579 1.464-.744 2.804-1.075 4.454 1.302-11.608-11.136-11.134-9.297.453C61.132 13.761 57.083 8.978 52 9.926c13.74 5.155-9.566 37.256 16.095 33.813-7.107-2.887-4.959-13.546-2.128-22.37.64 2.7 1.86 7.113-.124 7.587 4.463 1.03 7.459-2.453 8.264-6.783.083-.392.145-.804.186-1.217.393 6.907-5.909 26.06 12.707 22.638-6.694-2.68-6.86-11.731-6.343-17.978z"/>
            <path d="M49.754 10.326c-3.809-3.035-9.052-.182-11.346 1.82 5.837-2.306 8.254 1.74 8.97 6.858 1.475 20.089-12.062 19.38-9.38 3.905.902-5.24 7.374-10.5 8.09-5.604-.143-2.57-3.522-5.927-6.697-4.693-6.8 3.62-8.049 16.993-4.342 24.72.492 1.012 1.065 1.943 1.7 2.732 2.11 2.549 5.161 3.722 8.91 2.367 5.775-2.104 7.598-11.289 8.212-16.61.43-4.915-.041-12.036-4.117-15.495z"/>
            <path d="M121.645 24.476c-2.673-1.09-4.442-.808-7.013-.747-1.686.04-4.442 0-4.421-2.182.267-2.908 4.792-5.979 7.691-6.362 1.687-.222 3.23-.02 3.784 1.717.515 2.363-2.365 3.474-4.236 3.999 1.398.02 2.324-.121 3.64-.626 4.812-1.859 7.054-6.545 2.2-9.696-.575-.343-1.048-.626-1.665-.888-5.718-2.424-13.203 1.878-14.643 7.514-.925 4.262.514 6.564 4.504 8.08 1.501.565 3.599 1.03 4.956 1.777 1.234.787 1.563 2 1.337 3.373-.514 3.13-4.566 6.645-7.836 5.231-2.447-1.515-1.13-4.868.72-6.342 1.604-1.03 2.777-.485 2.756 1.151 1.728-7.534-15.424 2.929-5.08 10.685 5.327 4 12.237.869 14.808-3.575 2.097-3.575 3.701-10.988-1.502-13.109z"/>
            <path d="M28.681 17.46c-1.396-.904-2.958-.987-4.542-.678 2.667-2.815 5.396-7.13 3.834-11.117-1.646-3.925-6.23-4.993-10.084-4.11-1.645.37-3.354.925-5.02 1.624l.02-.165c.188-4.417-5.562-.472-7.375 1.46.771-.576 3.146-.597 2.667 1.027l-.02.144c-2.542 1.643-4.772 3.719-6.25 6.143C.888 13.514.2 16.206 2.826 16.7c.875.062 1.646-.143 1.833-.801-.208.329-.875.39-1.208.267-1.083-.41-.792-1.85-.25-2.589.729-1.027 2.187-2.116 3.917-3.123-1.5 5.219-1.73 11.568-1.313 17.301-.417.288-.792.596-1.146.884-2.541 2.075-4.416 5.096-3.27 8.486 1.354 4.028 6.562 5.938 11.062 6.596a23.63 23.63 0 0 0 2.854.267c1.104.041 2.063-.02 2.792-.123 5.02-.596 10.5-3.432 13-12.041l.041-.144c.188-.637.334-1.274.48-1.932.75-3.822.687-9.945-2.938-12.287zM6.077 30.857c.27 2.363.646 4.541 1.062 6.431-2.333-1.438-2.979-3.904-1.062-6.431zm7.667 7.603c-1.271-3.35-1.959-7.295-2.25-11.384 3.875-1.356 7.25-.123 4.791 2.178 2.396-1.644 1.688-3.76-.833-4.5-1.23-.35-2.646-.226-4.083.185-.23-5.794.229-11.774.833-16.829 2.062-.719 4.02-1.11 5.27-.924 4.355.637 3.376 4.623 1.5 7.54-1.353 2.097-2.25 2.898-4.437 3.884-1.833.822-1.625 2.96-1.583 4.83.812-2.446 8.604-3 8.896 5.033.437 5.384-2.542 9.288-8.104 9.987z"/>
            <path d="M101.19 10.705c-4.01-2.897-9.28.123-11.567 2.199 5.899-2.487 8.502 1.458 9.447 6.534 2.225 19.972-11.673 19.705-9.468 4.191.734-5.24 7.2-10.705 8.082-5.856-.23-2.548-3.8-5.794-7.012-4.458a9.084 9.084 0 0 0-2.267 1.828c.588-2.116 1.155-4.15 1.595-6.02l1.218-4.829c.714-4.274-8.292-1.459-9.867-.431 10.35-.596-9.174 27.657 5.08 38.608 1.743 1.336 4.094 2.014 6.53 1.13-.61.144-1.554-.74-2.079-1.273 1.974 1.253 4.409 1.582 7.243.472 5.836-2.28 7.39-11.486 7.83-16.808.252-4.89-.461-11.958-4.765-15.287z"/>
            <path d="M6 7c-1.545.82-8.213 6.645-5.25 9C-.414 13.161 4.158 8.283 6 7z"/>
            <path d="M29 4c-.064-4.3-7.69-5.6-15-1.573C22.178-1.117 28.11 1.357 29 4z"/>
            <path d="M85 6c-.553-2.712-4.064-2.382-6-.696C81.149 3.856 83.766 4.24 85 6z"/>
            <path d="M26 15.587c4.792-.617 7.046 2.45 6.937 4.413.634-3.515-3.633-6.245-6.937-4.413z"/>
            <path d="M122 22c.747-.227 4.521-.72 5-5-.747 2.822-3.084 4.11-5 5z"/>
            <path d="M113 44.536c4.8 1.906 9.86-2.412 11-6.536-1.86 4.338-8.32 7.197-11 6.536z"/>
            <path d="M33.018 34c-.265 5.02 2.41 10.1 5.982 9.999-3.205-1.19-5.716-6.713-5.982-9.999z"/>
            <path d="M66 9.178c-3.584-1.002-5.517 2.44-4.88 4.822-.243-2.836 2.497-5.2 4.88-4.822z"/>
        </g>
        <text font-family="Montserrat-Medium, Montserrat" font-size="10" font-weight="400" letter-spacing="3.33">
            <tspan x="0" y="62">ONLINE SCHOOL</tspan>
        </text>
    </g>
</svg>
