<?xml version="1.0" encoding="UTF-8"?><!DOCTYPE svg PUBLIC "-//W3C//DTD SVG 1.1//EN" "http://www.w3.org/Graphics/SVG/1.1/DTD/svg11.dtd"><svg xmlns="http://www.w3.org/2000/svg" xmlns:xlink="http://www.w3.org/1999/xlink"><defs>
        <path id="SVGID_1_" d="M0 0h253.8v253.8H0z"/>
    
        <path id="SVGID_1_" d="M0 0h203.9v201.8H0z"/>
    
        <path id="SVGID_1_" d="M0 0h9.6v11.2H0z"/>
    
        <path id="SVGID_1_" d="M0 0h253.8v253.8H0z"/>
    
        <path id="SVGID_1_" d="M0 0h253.8v253.8H0z"/>
    </defs><symbol id="icon-facebook" viewBox="0 0 253.8 253.8">
    <style>
        .st0{clip-path:url(#SVGID_2_);fill:#fff}
    </style>
    
    <clipPath id="SVGID_2_">
        <use xlink:href="#SVGID_1_" overflow="visible"/>
    </clipPath>
    <path class="st0" d="M126.9 0C56.8 0 0 56.8 0 126.9v.1c0 70 56.8 126.8 126.8 126.8h.1c70 0 126.8-56.8 126.8-126.8v-.1C253.7 56.8 196.9 0 126.9 0m36.8 74.3h-13.6c-10.7 0-12.7 5.1-12.7 12.5v16.4h25.5l-3.3 25.7h-22.2v66h-26.6v-66H88.5v-25.7h22.2v-19c0-22 13.4-34 33.1-34 9.4 0 17.5.7 19.9 1v23.1z"/>
</symbol><symbol id="icon-instagram" viewBox="0 0 203.9 201.8">
    <style>
        .st0{clip-path:url(#SVGID_2_);fill:#fff}
    </style>
    
    <clipPath id="SVGID_2_">
        <use xlink:href="#SVGID_1_" overflow="visible"/>
    </clipPath>
    <path class="st0" d="M142.7 70.4c-.9-2.4-2.1-4.1-3.9-6-1.8-1.8-3.6-2.9-6-3.9-1.8-.7-4.6-1.6-9.7-1.8-5.5-.2-7.2-.3-21.1-.3s-15.6.1-21.1.3c-5.1.2-7.9 1.1-9.7 1.8-2.4.9-4.2 2.1-6 3.9-1.8 1.8-3 3.5-3.9 6-.7 1.8-1.6 4.6-1.8 9.6-.3 5.5-.3 7.1-.3 20.9 0 13.8.1 15.5.3 20.9.2 5 1.1 7.8 1.8 9.6.9 2.4 2.1 4.1 3.9 5.9s3.6 2.9 6 3.9c1.8.7 4.6 1.6 9.7 1.8 5.5.2 7.2.3 21.1.3 14 0 15.6-.1 21.1-.3 5.1-.2 7.9-1.1 9.7-1.8 2.4-.9 4.2-2.1 6-3.9 1.8-1.8 3-3.5 3.9-5.9.7-1.8 1.6-4.6 1.8-9.6.3-5.5.3-7.1.3-20.9 0-13.8-.1-15.5-.3-20.9-.2-5-1.1-7.8-1.8-9.6M102 127.5c-14.8 0-26.8-11.9-26.8-26.6s12-26.6 26.8-26.6 26.9 11.9 26.9 26.6-12.1 26.6-26.9 26.6m27.9-48c-3.5 0-6.3-2.8-6.3-6.2 0-3.4 2.8-6.2 6.3-6.2s6.3 2.8 6.3 6.2c0 3.4-2.9 6.2-6.3 6.2"/>
    <path class="st0" d="M102 83.7c-9.6 0-17.4 7.7-17.4 17.2s7.8 17.2 17.4 17.2 17.4-7.7 17.4-17.2-7.8-17.2-17.4-17.2"/>
    <path class="st0" d="M102 0C45.7 0 0 45.2 0 100.9v.1c0 55.7 45.6 100.9 101.9 100.9h.1c56.3 0 101.9-45.2 101.9-100.9v-.1C203.9 45.2 158.3 0 102 0m51.9 122.3c-.3 5.5-1.1 9.3-2.4 12.6-1.3 3.4-3.1 6.3-6 9.2-2.9 2.9-5.8 4.6-9.3 6-3.3 1.3-7.1 2.2-12.7 2.4-5.6.3-7.4.3-21.6.3-14.2 0-16-.1-21.6-.3-5.6-.3-9.4-1.1-12.7-2.4-3.4-1.3-6.4-3.1-9.3-6-2.9-2.9-4.7-5.8-6-9.2-1.3-3.3-2.2-7.1-2.4-12.6-.3-5.5-.3-7.3-.3-21.3s.1-15.8.3-21.3c.3-5.5 1.1-9.3 2.4-12.6 1.3-3.4 3.1-6.3 6-9.2 2.9-2.9 5.8-4.6 9.3-6 3.3-1.3 7.1-2.2 12.7-2.4 5.6-.3 7.4-.3 21.6-.3 14.2 0 16 .1 21.6.3 5.6.3 9.4 1.1 12.7 2.4 3.4 1.3 6.4 3.1 9.3 6 2.9 2.9 4.7 5.8 6 9.2 1.3 3.3 2.2 7.1 2.4 12.6.3 5.5.3 7.3.3 21.3s0 15.7-.3 21.3"/>
</symbol><symbol id="icon-play" viewBox="0 0 40.2 40.2">
    <style>
        .st0{fill:#b5b5b5}.st1{fill:none;stroke:#fff;stroke-width:.5;stroke-miterlimit:10}
    </style>
    <path class="st0" d="M17 26.3l9.4-6.3-9.4-6.2z"/>
    <circle class="st1" cx="20.1" cy="20.1" r="19.8"/>
</symbol><symbol id="icon-ruble" viewBox="0 0 9.6 11.2">
    <style>
        .st0{clip-path:url(#SVGID_2_)}
    </style>
    
    <clipPath id="SVGID_2_">
        <use xlink:href="#SVGID_1_" overflow="visible"/>
    </clipPath>
    <path class="st0" d="M6.2 6.5c2.1 0 3.4-1.5 3.4-3.3C9.6 1.5 8.3 0 6.2 0H2v5.7H0v.9h2v1.1H0v.9h2v2.7h1V8.5h3.4v-.9H3V6.5h3.2zM3 .9h3.1c1.5 0 2.5 1 2.5 2.4s-1 2.4-2.5 2.4H3V.9z"/>
</symbol><symbol id="icon-vk" viewBox="0 0 253.8 253.8">
    <style>
        .st0{clip-path:url(#SVGID_2_);fill:#fff}
    </style>
    
    <clipPath id="SVGID_2_">
        <use xlink:href="#SVGID_1_" overflow="visible"/>
    </clipPath>
    <path class="st0" d="M126.9 0C56.8 0 0 56.8 0 126.9v.1c0 70 56.8 126.8 126.8 126.8h.1c70 0 126.8-56.8 126.8-126.8v-.1C253.7 56.8 196.9 0 126.9 0m62.9 175.5l-19.8.3s-4.3.8-9.9-3c-7.4-5.1-14.4-18.3-19.9-16.6-5.5 1.8-5.4 13.7-5.4 13.7s0 2.5-1.2 3.9c-1.4 1.5-4.1 1.8-4.1 1.8h-8.9s-19.6 1.2-36.8-16.8c-18.8-19.6-35.4-58.5-35.4-58.5s-1-2.5.1-3.8c1.2-1.4 4.4-1.5 4.4-1.5l21.2-.1s2 .3 3.4 1.4c1.2.9 1.8 2.5 1.8 2.5s3.4 8.7 8 16.5c8.9 15.3 13 18.7 16 17 4.4-2.4 3.1-21.7 3.1-21.7s.1-7-2.2-10.1c-1.8-2.4-5.1-3.1-6.6-3.3-1.2-.2.8-2.9 3.3-4.2 3.8-1.9 10.6-2 18.5-1.9 6.2.1 8 .4 10.4 1 7.3 1.8 4.8 8.6 4.8 25 0 5.2-.9 12.6 2.8 15.1 1.6 1.1 5.6.2 15.5-16.7 4.7-8 8.2-17.4 8.2-17.4s.8-1.7 2-2.4 2.9-.5 2.9-.5l22.3-.1s6.7-.8 7.8 2.2c1.1 3.2-2.5 10.6-11.6 22.8-15 20-16.6 18.1-4.2 29.6 11.9 11 14.3 16.4 14.7 17.1 5.2 8.1-5.2 8.7-5.2 8.7"/>
</symbol><symbol id="icon-youtube" viewBox="0 0 253.8 253.8">
    <style>
        .st0,.st1{fill:#fff}.st1{clip-path:url(#SVGID_2_)}
    </style>
    <path class="st0" d="M113.3 147l37-19.3-37-19.4z"/>
    
    <clipPath id="SVGID_2_">
        <use xlink:href="#SVGID_1_" overflow="visible"/>
    </clipPath>
    <path class="st1" d="M126.9 0C56.8 0 0 56.8 0 126.9v.1c0 70 56.8 126.8 126.8 126.8h.1c70 0 126.8-56.8 126.8-126.8v-.1C253.7 56.8 196.9 0 126.9 0m68.6 161c-1.7 7.4-7.8 12.9-15.1 13.7-17.3 1.9-34.9 1.9-52.4 1.9s-35 0-52.4-1.9c-7.3-.8-13.4-6.3-15.1-13.7-2.4-10.6-2.4-22.2-2.4-33.1 0-10.9 0-22.5 2.5-33.1 1.7-7.4 7.8-12.9 15.1-13.7 17.3-1.9 34.9-1.9 52.4-1.9s35 0 52.4 1.9c7.3.8 13.4 6.3 15.1 13.7 2.4 10.6 2.4 22.2 2.4 33.1-.1 11-.1 22.6-2.5 33.1"/>
</symbol></svg>