<?xml version="1.0" encoding="utf-8"?>
<!-- Generator: Adobe Illustrator 21.1.0, SVG Export Plug-In . SVG Version: 6.00 Build 0)  -->
<svg version="1.1" id="Слой_1" xmlns="http://www.w3.org/2000/svg" xmlns:xlink="http://www.w3.org/1999/xlink" x="0px" y="0px"
	 viewBox="0 0 3914.5 2076.8" style="enable-background:new 0 0 3914.5 2076.8;" xml:space="preserve">
<style type="text/css">
	.st0{fill-rule:evenodd;clip-rule:evenodd;fill:#CCCCCC;}
</style>
<g>
	<path class="st0" d="M545.3,94.2c-8.9,11.3,2.5,24.5,18.7,31.1c7.5,9-2.3,19.3-2.4,28.9c-9.4,2.6-18.9,5.2-29.6,8.2
		c40,18.4,38.1,29.4-5.8,59.7c-1.5,1.1-2.9,2.2-4,3.3h-68.7v69.5c-15.1,5.9-17.5,18.9-20.1,32.1c-4.4,4.3-8.7,8.5-13,12.7
		c-12.8,3.9-21.2,11.4-29.3,19.1c-14.6-7.2-8.7-19.8-9.6-30.6c7.2-4.3,20.7-6.2,17-13.3c-4-7.4-11-1.1-14.4,3.9
		c-1.9,2.8-2.1,6-3.2,9.6c-23.1,12-18.5,26.4-14.7,40.6c-21.5,14.8-30,33.5-39.9,51.9c-3.6,10.8-7.2,21.7-10.9,32.5
		c-5.6,7.1-11.2,14.2-16.7,21.3c-17.7,10-25.7,21.6-18.8,35.7c-14,9.8-33.9,17.1-31.1,33.7c-5.1,18.7-36.4,32.8-29,53.7
		c-1.4,2.7-2.6,5.5-3.9,8.2c-5.5,7.5-11,14.9-16.3,22.4c-4.8,8.9-9.8,17.8-14.6,26.7c-4.1,4.1-8.2,8.3-12.3,12.4
		c-16.5,0.8-25.8,7.7-29.6,19.2c-12.1,12.3-9.1,28.6-26.7,39.5c2.3,23.8-32.5,50.2-5.9,72.2c1.6,1.7,3.2,3.4,4.7,5.2
		c-4.2,15.6-19.2,30.9-12.1,46.8c0.9,4.7-2.8,12.1,6.9,12.3c13,0.3,12.1-7.5,13.2-13.6l0.2-0.3c7.6-5.4,15.1-10.8,22.8-16.2
		c-0.2,6.5-0.4,12.9-0.6,19.4c-12.7,10.3-6.2,21.7-10.9,32.6c-2,15.5-17.3,36.9,23.4,33.6c6.2,4.1,12.5,8.3,18.7,12.4
		c4.2-4.1,8.5-8.1,12.8-12.3c4,0.5,8.1,1.1,12.2,1.6c3.3,5.6,6.7,11.3,10.1,17l-0.5-1.7l2.4-0.9c0.1,0.7,0.2,1.4,0.4,2.1
		c-0.8,0.2-1.5,0.4-2.3,0.6c-2.5,2.8-3.3,5.2-3.2,7.4c-7.9,2.4-12.1,7.6-12.3,14.3c-0.3,8.6,8.7,3.3,14.5,1.8
		c0.8,1.9,1.5,3.8,2.2,5.8c-18.4,12.8-15.5,27.1-14.2,41.3c0.9,1.8,1.5,3.7,1.7,5.6c-15.6,6.7-1,30.4-32.4,28.2
		c-17.2,11.2-15.8,25.3-16.5,37.9c-1.1,22.2-7.3,45.1,0.5,66.2c-1.4,3.1-2.8,6.2-4.2,9.2c-16.6,7.7-22.6,18.2-20.4,30.7
		c2.3,3.5,4.6,6.8,7,10.3c4.4,7.2,9,14.3,13.6,21.5c-1.1,1.7-1.2,3.2-0.3,4.7c-7.8,10.8-3.9,20.5-1.3,30.3
		c-1.7,7.7-3.4,15.5-5.1,23.3c-2.4,1.1-4.7,2.2-7.1,3.2c-9.4,1.9-22.3-1.5-24.6,10.7c-16,6.8-12.7,17-14.3,26.3
		c1.9,10.8,7.8,20,17.6,27.6c-0.9,3-1.8,6-2.9,9c-16.6,0.4-16.1-12-27.7-18.9c-5,18.7,12.5,30.2,12.6,45.6
		c10.7,16.4,21.3,32.7,32.2,49c14.2,21.5,28.7,42.9,42.8,64.5c5.9,9.1,10.9,18.9,30.1,15.9c3.4-5.9,6.7-11.8,10.1-17.6
		c2.8-1.4,5.7-2.8,8.5-4.2c4.8,2.7,9.6,5.4,14.3,8.1c5.3,16.3,29.1,26.3,22.7,46.7c-3.1,24.1,8.4,42.1,34.8,53.7c0,0-0.1,0-0.1,0
		c16,19.5,16.2,48.2,55.6,54c19.8,15,3.1,44.9,34.1,55.3c7.2,15.6,28.9,25.1,28.7,43.9c-7.1,11.7-3.5,20.3,9.9,26
		c17.1,10.1-3.8,31,14.2,40.9c0.6,3,1.2,6,1.7,9.1c6.3,0.3,12.6,0.5,18.9,0.8v109.1h370.1c3.4,1.9,16.3,2.4,26.9,3.1
		c22,1.4,41.3,3.4,68.2,3.6c2.2,0.3,4.5,0.7,6.6,1c-3.2,2.5,3.5,3.8,17.7,4.2c5.1-0.1,10.1-0.2,15.2-0.3c10.3-0.2,20.7-0.3,31.1-0.5
		c1,0.2,2.5,0.3,4.7,0.3c5.8,1.6,18.3,1.6,30.2,1.8c6.8,0.6,13.6,1.3,20.5,1.9c-0.5,0.4-0.9,0.7-1.5,1.1c-4.4,1.3-16.6,2.7-5.6,3.6
		c-3.8,2.3,8.8,2.5,17.3,3.2c12.4,0.4,25.8,0.1,40.1-0.6c2.4,0.3,4.9,0.6,7.3,0.9c-10.8,2.1-23.1,1.3-37.9,2.4
		c15.8,1.7,39.3,0.1,55.2,1c24-0.4,47.8-0.8,71.8-1.2c31.6-0.6,63.2-1.2,94.8-1.7c13.3-0.2,26.6-0.3,36.5-2.8
		c-3.7-0.7-7.5-1.5-11.3-2.2c0.5-0.4,1-0.9,1.5-1.3c6-0.4,12-0.9,17.9-1.3c20.3,0.3,46.5-2.1,63.1-0.2c22.6,1.7,48.8,1.3,78.4-1.3
		c0,0,0,0-0.1,0c30.7-0.9,60.2,0.7,92.7-3.9c28.6-1.6,48,2.1,79.5-1.1c20.9,0,45.2-2.2,64.2-1.1c7.3,1.5,18.5,1.6,33.3,0.2
		c21.8-1.5,29.2,2.2,51.4,0.5c27.2,0.7,52.7,1.9,83.5,1.4c0,0,0,0,0,0c0.1,0,0.3,0,0.4,0c1.7,0,3.4-0.1,5-0.1
		c22.6-0.3,38,2.1,63.5,0.7c20.2,2.9,52.7,1.9,82.1,1.9c14.6,0.3,27,1.5,45.4,0.4c12.7,0.2,25.3,0.4,38,0.6
		c27.4,0.7,54.9,1.4,82.4,2.1c23.2,0,44,1.1,69.6,0.1c7.8,0.3,15.6,0.5,23.4,0.8c12.4,1.1,25.3,2.1,45.2,0.4
		c12.2,1.2,29.2,0.6,45.1,0.4c7.8,1,12.5,2.9,30.5,0.7c17.3,0.5,34.5,1,51.8,1.5c10.1,1.9,25.4,0.3,40.1-0.8
		c6.1,1.5,17.8,1,34.7,0.2c-12.9-0.6-22.6-1-32.1-1.4c-0.2,0-0.4,0-0.6,0c8.1-1.5,17.1-1.4,25.9-1.6c8.7-0.5,17.3-1.1,25.9-1.6
		c2,0.4,4,0.7,6.1,1c5.6-0.2,13-1.5,16.1-0.2c0,0,0,0-0.1,0c3.5,1.3,13.5,0.8,21.8,0.8c6.2,2.6,20.1,2.4,36.2-0.1
		c8.6-1.3,13.4-1.3,19.9-1c9.8-0.8,21.8,0.9,29.8-2.1c8-2.9-4.1-2.9-17.3-3c-4.3,0-7.1-0.6-10.7-0.9c3.3-0.4,6.6-0.8,9.9-1.3
		c0,0,0,0,0,0c2.8-0.1,5.6-0.2,8.4-0.3c8.2,1.5,22.9,1.4,35.6,1.8c5.7,3,27.1,1.7,44.4,1.5c1.9,0.4,3.8,0.8,5.7,1.2
		c11.8,5.7,50,3.2,84.2,1.9c2.3-0.1,4.1,0,5.5,0.2c-2.6,1.4-22.3,0.8-17.4,2.6c3.6,1.3,9.5,3.4,28.2,0.6c4.2-0.6,8.3-1.1,10.9-1.8
		c5.6,0,11-0.2,16.4-0.9c0.9,0,1.9,0,2.8-0.1c-2.3,1.6-15.5,1.6-21.2,2.7c24.7,1.4,53.6,1.5,81.3,1.9c3,1.3,12.9,0.9,21.4,0.9
		c2.8-0.1,5.5-0.1,8.3-0.1c7.7,0.1,15.4,0.2,23.1,0.3c26.9,1.6,56.8,2.2,91.5,1c12.8,2.9,39.3-1.8,55.6-0.8
		c-0.7-0.1-1.4-0.1-2.1-0.2c0.8,0,1.5,0.1,2.1,0.2c8.8-0.5,14.7-1.5,19.9-2.6c25,1.3,50.4-2.9,75.6-3.7c28-0.3,55.3,0.5,84.9-3.6
		c17.7-0.5,33.2-1.4,36.8-4.7c-3-1.4-6.1-2.7-9.1-4.1c3.3-0.5,6.3-1,9.8-1.4c2.6-0.3,5-0.5,7.3-0.8h326.8v-54.1
		c1.6,0.1,3.3,0.3,4.9,0.5c1.2,2.6-4.3,7,3.1,8.1c7.2,1.1,5.1,6.1,4.7,10.2c-1.4,1.9-1.9,3.4-1.7,4.7c1.4,1.3,2.8,2.7,4.1,4.1
		c0.7,0.3,1.4,0.6,2.1,0.8c3.7,3.4,9.8,6.1,11.9,1c1.9-4.8-3.4-9.8-9.7-12.1c-3.6-3.5-1.2-7.8-2.1-11.7c3-1.3,6.1-2.6,9.5-4
		c-15.9-6.4-16.4-10.9-4.1-24.2c0.4-0.5,0.8-0.9,1.1-1.4l24-1.7l-7.2-28c4.7-2.8,4.2-8,3.7-13.4c1.1-1.8,2.2-3.6,3.2-5.4
		c4.1-1.9,6.2-5.1,8.3-8.4c5.8,2.5,5.1,7.8,6.5,12.1c-2.1,1.9-6.6,3-4.6,5.8c2.2,2.9,4,0.2,4.6-1.9c0.4-1.2,0.1-2.5,0.1-3.9
		c6.8-5.4,3.7-11.1,0.9-16.7c6-6.5,7-14.3,8.6-21.9c0.1-4.4,0.3-8.9,0.5-13.4c1.2-3,2.5-6,3.6-9c5.2-4.5,6.8-9.3,2.9-14.8
		c3.9-4.3,10.1-7.7,7.4-14.4c-0.2-7.7,9.3-14.1,4.6-22.4c0.2-1.1,0.4-2.3,0.5-3.4c1.1-3.1,2.3-6.3,3.4-9.4c0.8-3.7,1.6-7.4,2.4-11.1
		c1-1.8,2-3.5,3-5.3c5.7-0.7,8.2-3.7,8.4-8.5c3-5.3,0.2-11.7,5.3-16.6c-3.3-9.5,6.2-21-5.4-29.3c-0.7-0.7-1.5-1.3-2.2-2
		c-0.1-6.4,3.5-12.9-0.6-19.2c-0.8-1.9-0.3-4.9-3.7-4.8c-4.6,0.2-3.5,3.3-3.2,5.8l0,0.1c-2.1,2.4-4.2,4.7-6.3,7.1
		c-0.6-2.6-1.2-5.2-1.8-7.8c3.4-4.5-0.1-8.9,0.4-13.4c-0.9-6.3,2.3-15.3-11.6-13c-2.6-1.5-5.2-3-7.8-4.5c-1.1,1.7-2.1,3.5-3.2,5.3
		c-1.5-0.1-2.9-0.2-4.4-0.3c-1.7-2.2-3.5-4.4-5.3-6.6l0.3,0.7l-0.7,0.4c-0.1-0.3-0.2-0.6-0.4-0.8c0.2-0.1,0.5-0.2,0.7-0.3
		c0.6-1.2,0.6-2.2,0.3-3.1c2.5-1.2,3.5-3.4,2.8-6.1c-0.8-3.5-3.4-1.1-5.3-0.4c-0.5-0.7-0.9-1.5-1.4-2.3c5.1-5.6,2.6-11.3,0.7-17
		c-0.5-0.7-0.9-1.4-1.2-2.2c4.8-3.1-2.8-12.3,8.4-12.1c4.9-4.9,2.9-10.6,1.9-15.7c-1.9-9-2.1-18.4-7-26.7c0.2-1.3,0.3-2.6,0.5-3.8
		c5-3.5,6-7.9,4-12.9c-1.1-1.3-2.3-2.6-3.5-4c-2.3-2.8-4.6-5.5-7-8.3c0.2-0.7,0.1-1.3-0.4-1.9c1.6-4.5-0.7-8.3-2.7-12.3
		c-0.2-3.2-0.4-6.4-0.6-9.5c0.7-0.5,1.4-1,2.1-1.5c3.1-1,8,0.1,7.5-4.9c4.9-3.1,2.7-7.2,2.3-11c-1.8-4.3-4.8-7.9-9-10.7
		c0-1.2,0-2.4,0.1-3.7c5.8-0.6,6.9,4.5,11.6,6.9c-0.2-7.7-7.5-11.9-9.1-18.1c-5.4-6.3-10.8-12.6-16.3-19
		c-7.2-8.3-14.4-16.6-21.6-24.9c-3-3.5-5.7-7.3-12.2-5.7c-0.6,2.4-1.1,4.9-1.7,7.4c-0.8,0.6-1.6,1.2-2.4,1.8v-104.3
		c0.5-1.2,0.9-2.4,1.3-3.7c0.5,0.2,0.9,0.4,1.4,0.6c1.7,1.6,3.4,6.2,4.8,2.1c3.1,1.4,3.5-3.3,4.5-6.4c0.6-4.6,0.4-9.6-0.5-14.9
		c0.4-0.9,0.8-1.8,1.2-2.7c2.7,4,1.6,8.6,2.8,14.1c2.4-5.9,0.5-14.7,1.8-20.6c-0.3-8.9-0.7-17.8-1-26.8c-0.5-11.8-1-23.6-1.4-35.3
		c-0.2-5-0.1-9.9-3.5-13.6c-1,1.4-2.1,2.8-3.1,4.2c-0.6-0.2-1.1-0.4-1.7-0.6c-0.5-2.2-1.1-4.5-1.6-6.7c0.5-7.6-2.4-17.3,0.3-23.5
		c2.5-8.4,2.2-18.1-1-29.2c0,0,0,0,0,0c-0.9-11.5,1.5-22.4-4.4-34.6c0-0.2,0-0.3-0.1-0.5v-9.9c0.6-5.3,1.6-10.3,0-16.7v-30.5
		c0.1-1.1,0.1-2.2,0-3.5v-15.6c0.6-2.3,1-4.8,0.2-8.3c1.2-10.1,3.1-19.6,2.7-31.1c0,0,0,0,0,0c0-0.1,0-0.1,0-0.1
		c0-0.6,0-1.3-0.1-1.8c-0.2-8.4,3.2-14.1,1.6-23.6c4-7.5,3-19.6,3.3-30.5c0.6-5.4,2.2-10.1,1-16.9c0.4-4.7,0.8-9.4,1.1-14.2
		c1.2-10.2,2.3-20.4,3.5-30.7c0.2-8.6,1.9-16.4,0.7-25.9c0.4-2.9,0.8-5.8,1.2-8.7c1.6-4.6,3-9.4,1-16.8c1.7-4.5,1.1-10.9,1-16.8
		c1.4-2.9,4-4.6,1.2-11.3c0.8-6.4,1.7-12.9,2.5-19.3c2.6-3.7,0.7-9.5-0.7-14.9c2.1-2.3,1.5-6.6,0.5-12.9c-0.9,4.8-1.5,8.4-2.1,11.9
		c0,0.1,0,0.1,0,0.2c-2-3-1.8-6.4-2-9.7c-0.6-3.2-1.3-6.5-1.9-9.7c0.5-0.7,1-1.5,1.5-2.2c-0.2-2.1-1.9-4.9-0.2-6c0,0,0,0,0,0
		c1.8-1.3,1.2-5,1.3-8.1c3.5-2.3,3.4-7.5,0.2-13.5c-1.7-3.2-1.7-5-1.1-7.4c-1-3.7,1.4-8.1-2.5-11.1c-3.9-3-4,1.5-4.1,6.4
		c0,1.6-0.9,2.7-1.3,4c-0.5-1.2-1.1-2.5-1.6-3.7c0,0,0,0,0,0c-0.1-1-0.2-2.1-0.3-3.1c2.1-3,2.1-8.5,2.7-13.2
		c4.1-2.1,2.6-10.1,2.5-16.5c0.6-0.7,1.1-1.4,1.6-2.1c7.8-4.4,4.7-18.6,3.3-31.3c-0.1-0.9,0-1.5,0.3-2c1.9,1,0.8,8.3,3.4,6.5
		c1.8-1.3,4.7-3.5,1-10.5c-0.7-1.6-1.4-3.1-2.3-4.1c0.1-2.1-0.2-4.1-1.1-6.1c0-0.3,0-0.7-0.1-1.1c2.1,0.9,2,5.8,3.5,7.9
		c2.1-9.2,2.5-19.9,3.4-30.3c1.8-1.1,1.4-4.8,1.4-7.9c0-1-0.1-2.1-0.1-3.1c0.2-2.9,0.4-5.7,0.6-8.6c2.4-10,3.4-21.1,2.1-34.1
		c4.1-4.8-2.1-14.7-0.5-20.7c-0.1,0.3-0.2,0.5-0.3,0.8c0.1-0.3,0.2-0.5,0.3-0.8c-0.6-3.3-1.9-5.5-3.4-7.4c2-9.3-3.5-18.8-4.3-28.2
		c-0.2-10.4,1.1-20.6-4-31.7c-0.4-4.5-1-8.6-2.7-11.2c2.2-0.6,4.4-1.2,6.7-1.8c8-1.1,14.2-2.2,5.7-3.1c-2.7-0.3-6.9-1-10.7,0.1
		c-7.1,2,3.9,1.9,5,3c-2.8,0.1-5.3,0.3-7.6,0.6c-0.6-0.6-1.4-1.1-2.3-1.4c-1.4,0.8-2.7,1.6-4.1,2.5c-0.6,0.1-1.2,0.3-1.7,0.5
		c-0.6-1.1-1.1-2.1-1.6-3.2c-0.4-1-0.7-1.9-1-2.7l0-1.9c21.7-2.3,1.2-2.8,4.1-4.4c-0.7-0.4-2.1-0.6-4-0.7l2.8-114.8l-5.3,0v-17
		h-307.8c-0.6-0.2-1.2-0.4-1.8-0.6c-3.9-0.9-7.9-1.8-11.8-2.8c-1-0.6-2.1-1.3-3.1-1.9c6.7-2,6.1-3.4-0.1-4.3
		c-3.1-1.9-15.5-2.2-15.2-4.7c-17.2-0.6-20-5.8-46.7-3.5c-1.9,0.1-3.7,0.2-5.6,0.4c-8.8-1.1-12.7-3.5-26.6-3.2
		c-3.6-0.1-7-0.8-11.4,0.3c-5.9,1.5-0.2,1.7,3.4,2.1l0.1,0c0.4,1.1,0.7,2.2,1,3.3c-4.3-0.3-8.7-0.5-13-0.8
		c-1.4-1.9-12.1-1.6-17.5-2.5c-9.7-0.8-17.6-3.5-33.2,1.5c-5.5,0.6-11.1,1.2-16.6,1.7c0.9,0.7,1.8,1.3,2.8,2
		c-2.1,0.5-4.3,0.9-6.4,1.4c-5.3,0.2-10.7,0.4-16,0.5l1.4,0l-0.4,0.3c-0.5,0-1.1,0-1.6,0c0.2-0.1,0.4-0.2,0.6-0.3
		c-0.8-0.4-2.1-0.6-3.7-0.7c1.8-1,0.1-1.7-4.4-2c-5.7-0.4-6.1,0.9-7.6,1.6c-1.7,0-3.3,0-4.9,0c-0.7-2.7-11.7-2.9-21.9-3.3
		c-1.6,0-3.2,0-4.6,0c2.3-2.1-20.3-1.3-5-4.9c-0.1-2.5-10.4-2.8-18.6-3.4c-14.6-1-27.5-2.6-45.4-2.5c-1.5-0.3-3-0.6-4.5-0.8
		c2-2.3-2.5-3.4-11.9-3.6c-3.4,0.1-6.7,0.3-10,0.4c-6.8,0.3-13.7,0.5-20.6,0.8c-0.6-0.2-1.7-0.3-3.1-0.2c-4-1.3-12.2-1.3-20.1-1.3
		c-4.6-0.5-9.1-1-13.7-1.5c0.3-0.3,0.6-0.6,0.9-1c2.8-1.2,10.8-2.6,3.5-3.3c2.4-2.2-6-2.2-11.7-2.7c-8.2-0.2-17.1,0.2-26.5,1
		c-1.6-0.2-3.3-0.4-4.9-0.7c7-2,15.3-1.4,25-2.6c-10.5-1.3-26.1,0.3-36.6-0.3c-15.9,0.6-31.6,1.3-47.5,1.9
		c-20.9,0.9-41.8,1.7-62.7,2.6c-8.8,0.4-17.6,0.6-24,3c2.5,0.6,5.1,1.3,7.6,1.9c-0.3,0.4-0.6,0.8-0.9,1.2c-3.9,0.5-7.9,0.9-11.8,1.4
		c-13.5,0-30.7,2.4-41.8,0.9c-15.1-1.3-32.4-0.6-51.9,2.1c0,0,0,0,0,0c-20.3,1.1-39.9,0.1-61.2,4.5c-18.9,1.8-31.9-1.4-52.6,1.9
		c-13.8,0.3-29.8,2.5-42.5,1.7c-4.9-1.3-12.3-1.2-22.1,0.2c-14.4,1.6-19.5-1.6-34.1,0.1c-18-0.3-35-1.1-55.4-0.4c0,0,0,0,0,0
		c-0.1,0-0.2,0-0.3,0c-1.1,0-2.2,0.1-3.3,0.2c-15,0.5-25.3-1.5-42.1,0.1c-13.5-2.3-35-1.1-54.5-0.8c-9.7-0.1-18-1-30.1,0.1
		c-8.4,0-16.8-0.1-25.2-0.1c-18.2-0.3-36.4-0.6-54.7-0.9c-15.4,0.2-29.2-0.5-46.2,0.7c-5.2-0.1-10.3-0.3-15.5-0.4
		c-8.3-0.9-16.9-1.6-30,0.1c-8.1-1-19.4-0.2-29.9,0.1c-5.2-0.8-8.5-2.5-20.2-0.3c-11.5-0.3-22.9-0.5-34.4-0.8
		c-6.8-1.6-16.9,0-26.5,1.2c-4.1-1.3-11.8-0.7-23,0.2c8.6,0.3,15,0.6,21.3,0.9c0.1,0,0.2,0,0.4,0c-5.3,1.5-11.3,1.5-17.1,1.8
		c-5.7,0.6-11.4,1.2-17.1,1.7c-1.3-0.3-2.7-0.6-4.1-0.9c-3.7,0.3-8.5,1.5-10.6,0.4c0,0,0,0,0,0c-2.4-1.1-9-0.6-14.5-0.5
		c-4.3-2.2-13.5-1.9-24,0.5c-5.7,1.3-8.8,1.3-13.1,1.1c-6.5,0.8-14.5-0.6-19.6,2.2c-5.2,2.7,2.9,2.6,11.6,2.5c2.8,0,4.8,0.4,7.1,0.7
		c-2.1,0.4-4.3,0.8-6.5,1.2l0,0c-1.9,0.1-3.7,0.2-5.5,0.3c-5.5-1.2-15.2-1-23.7-1.2c-4-2.7-18.1-1.2-29.5-0.9
		c-1.3-0.3-2.6-0.7-3.8-1c-8.2-5-33.3-2.3-55.9-0.7c-1.5,0.1-2.7,0.1-3.7-0.1c1.6-1.3,14.7-0.9,11.4-2.5c-2.5-1.1-6.5-3-18.7-0.2
		c-2.7,0.5-5.4,1.1-7.1,1.7c-3.7,0.1-7.3,0.3-10.8,1c-0.6,0-1.2,0.1-1.9,0.1c1.4-1.4,10.2-1.6,13.9-2.7c-16.4-1-35.6-0.7-54-0.8
		c-2.1-1.2-8.6-0.7-14.2-0.6c-1.9,0.1-3.7,0.1-5.5,0.2c-5.1,0-10.2,0-15.3,0c-17.9-1.2-37.8-1.3-60.7,0.2
		c-8.7-2.5-25.9,2.1-36.8,1.3c0.5,0.1,0.9,0.1,1.4,0.2c-0.5,0-1-0.1-1.4-0.2c-5.8,0.5-9.7,1.5-13,2.6c-16.6-0.9-33.2,3.2-49.9,4.2
		c-18.5,0.6-36.7,0.2-56.1,4.2c-9.2,0.5-17.6,1.3-21.7,3h-122.6c-9-1-18.4-1.8-28.7-2.3l0,0c-0.1,0-0.2,0-0.3,0
		c-1.1-0.1-2.2-0.1-3.3-0.1c-14.9-0.8-24.5-3.6-41.5-3.6c-12.6-3.5-34.2-4.2-53.5-5.6c-9.5-1-17.4-2.6-29.7-2.5
		c-8.3-0.8-16.5-1.5-24.9-2.3c-17.9-1.9-35.7-3.8-53.6-5.7c-15.2-1.1-28.6-3-45.7-3.3c-5.1-0.6-10.1-1.2-15.2-1.8
		c-7.9-1.6-16.1-3-29.6-2.5c-7.7-1.7-19-1.9-29.6-2.5c-4.9-1.2-7.6-3.2-19.9-2c-11.2-1.3-22.5-2.5-33.7-3.8
		c-6.2-2.2-16.6-1.5-26.5-1.2c-3.7-1.6-11.5-1.7-22.8-1.8c8.4,1.1,14.6,1.9,20.8,2.7c0.1,0,0.2,0,0.4,0c-5.6,1-11.6,0.5-17.4,0.2
		c-5.8,0.1-11.6,0.1-17.4,0.2c-1.2-0.4-2.5-0.8-3.7-1.2c-3.7-0.1-8.9,0.8-10.6-0.5c0,0,0,0,0,0c-2-1.3-8.7-1.4-14.1-1.8
		c-3.5-2.6-12.7-3-23.8-1.6c-6,0.8-9.1,0.6-13.3-0.1c-6.6,0.2-14.1-1.8-20,0.4c-6,2.2,2,2.8,10.7,3.5c2.8,0.2,4.6,0.9,6.8,1.3
		c-2.2,0.2-4.5,0.4-6.8,0.7c0,0,0,0,0,0c-1.9-0.1-3.7-0.1-5.6-0.2c-4.5-1.5-12.9-2.2-20.5-3c0,0-0.1,0-0.1,0
		c-4.8-4.2-9.7-8.5-14.5-12.7c-31.9-3-59.7-10.8-83.1-21.6c-0.9-0.4-1.8-0.9-2.7-1.3c0,1.1,0.3,2.4,0.9,3.8
		c-4.2,4.2-8.4,8.4-12.6,12.7c-13.9,8.7-26.9,4.9-40.1,3c-1.5-6.6,17.1-16.2-2.9-20.2c-19.5-3.8-10.1-15.6-5.8-25.7
		c5.2-4.3,7.7-8,8.1-11.1c-3.1-3.4-6-7-8.6-10.8c-1.6-0.8-3.5-1.6-5.4-2.4C570,89.7,554.7,82.3,545.3,94.2z M1101.5,1953.1
		c0,0,0.1,0,0.1,0c-0.1,0-0.2,0-0.3,0.1L1101.5,1953.1c-0.3,0.1-0.6,0.1-0.9,0.2c-0.1-0.1-0.3-0.2-0.4-0.4
		C1100.6,1953,1101.1,1953.1,1101.5,1953.1z M1138.5,1949.7c-0.5,0-0.9,0.1-1.3,0.1c0.1-0.1,0.2-0.1,0.4-0.2
		C1137.9,1949.6,1138.2,1949.7,1138.5,1949.7z M2415.8,1946.8c0-0.1,0.1-0.2,0.1-0.2c0.1,0,0.3,0,0.4-0.1
		C2416.2,1946.7,2416,1946.8,2415.8,1946.8z M3124.1,1949.5c-4.1,0.3-8.2,0.7-12.3,1.3c-1.7-0.6-4.9-1-9.3-1.1
		c4.7-0.2,9.4-0.5,11.7-1.2C3116.7,1949,3120.2,1949.3,3124.1,1949.5z M3030,1947.8c-0.5,0.1-1,0.1-1.5,0.2c-0.1,0-0.2,0.1-0.3,0.1
		c-0.1,0-0.1,0-0.2-0.1c0.2,0,0.3,0,0.5,0l1.1-0.2C3029.8,1947.8,3029.9,1947.8,3030,1947.8z M3118.8,1945.1c-0.2,0-0.5,0.1-0.7,0.1
		c-0.3-0.1-0.5-0.2-0.8-0.3c0.4,0,0.8,0,1.1,0C3118.6,1944.9,3118.7,1945,3118.8,1945.1z M2309.6,1941.6c-0.3-0.1-0.6-0.2-0.9-0.2
		c0.8,0,1.5,0,2.3,0C2310.5,1941.4,2310.1,1941.5,2309.6,1941.6z M1310.3,1938.4c-0.5,0-0.9-0.1-0.9-0.2
		C1309.7,1938.3,1310,1938.4,1310.3,1938.4z M3749.4,1735.9c-0.2,0.1-0.3,0.1-0.5,0.2c0-0.1,0-0.2,0-0.2
		C3749.1,1735.9,3749.2,1735.9,3749.4,1735.9z M3800,1608.1c0.8,2.3,1.8,4.6,4.1,6.2c-2.7-0.5-5.3-0.5-7.8,0.7
		c-0.1,0.1-0.2,0.1-0.3,0.2c-2.8,0.1-4.9,1.8-7.2,3.2c-0.9-1.4-1.8-2.7-2.7-4.1c0.2-1.3,0.3-2.6,0.5-3.9l-0.2,0c0-0.5,0-1,0.1-1.5
		c0,0,0,0,0,0c0,0.5-0.1,1-0.1,1.5c0.6-0.3,1.1-0.7,1.4-1.1c0.4,0.1,0.8,0.2,1.2,0.2c2.1-0.3,3.7-1.2,5-2.7c0.1-0.2,0.2-0.4,0.3-0.6
		C3796.1,1607.7,3797.9,1608.9,3800,1608.1z M3744.9,1400.7c0-0.2,0-0.5,0.1-0.7c0,0,0,0,0,0c0.1,0,0.1,0,0.2,0l-0.1,0
		c0.2,0,0.3,0,0.5,0C3745.2,1400.2,3745.1,1400.4,3744.9,1400.7z M3732.1,1395.4c-0.1,0.1-0.3,0.2-0.4,0.3c0-0.2,0-0.3,0-0.5
		C3731.8,1395.3,3732,1395.3,3732.1,1395.4z M320.6,1254.5c2.8-0.3,5.8,0.5,9.1,2.8c-0.2,0.2-0.5,0.3-0.7,0.5
		C324.9,1256.9,322.3,1255.8,320.6,1254.5z M448.9,1298c0.5-2.7,0.8-5.3,0.9-7.7c1.2,0.6,2.3,1.1,3.4,1.6v5.2
		c-1.1,0.5-2.2,1-3.4,1.5C449.6,1298.4,449.2,1298.2,448.9,1298z M137.5,1333.5l0.3,0c-0.5,0-0.9,0-1.4,0c0.7-0.6,1.4-1.2,2.1-1.8
		c-0.2,0.6-0.4,1.2-0.7,1.8c0,0,0.1,0.1,0.1,0.1C137.8,1333.6,137.7,1333.6,137.5,1333.5z M170.7,1346.8c0.5-0.2,0.9-0.4,1.4-0.6
		c-0.1,0.4-0.2,0.8-0.3,1.2C171.4,1347.2,171,1347,170.7,1346.8z M301.5,1429.1c-0.4,0.5-0.7,1-1,1.6
		C300.3,1430.3,300.8,1429.6,301.5,1429.1z M3176,1934.9c-0.5,0.1-1,0.2-1.5,0.3c-0.1-0.1-0.2-0.2-0.3-0.4l0.1,0c0,0,0,0,0,0
		C3174.9,1934.8,3175.4,1934.8,3176,1934.9z M3707.9,1211L3707.9,1211c0,0,0.1,0.1,0.2,0.3c-0.2,0-0.3,0.1-0.5,0.1
		C3707.7,1211.2,3707.7,1211.1,3707.9,1211c-0.1-0.1-0.1-0.1-0.1-0.1C3707.9,1210.9,3707.9,1211,3707.9,1211z M3703.7,1197.6
		c-0.1,0-0.2-0.1-0.3-0.1c0.1-0.1,0.1-0.2,0.2-0.4C3703.6,1197.3,3703.7,1197.4,3703.7,1197.6z M323.9,1146.8
		c-1.5-1.7-2.8-3.4-4-5.1C322.3,1143.2,324.5,1144.7,323.9,1146.8z M176.4,803.9c-1.4,3.1-2.7,6.2-4.1,9.4l0.5-0.1
		c-0.4,1.2-0.8,2.5-1.3,3.7c0,0,0,0,0,0c0.4-1.2,0.9-2.4,1.3-3.7c-1.9,0.6-3.5,1.5-4.9,2.5c-1.1-0.3-2.2-0.5-3.3-0.7
		c-6.1,0.4-11.3,2.4-15.9,5.7c-0.5,0.5-0.9,1-1.3,1.5c-3.8-3.8-7.9-7-14.5-5.5c-0.7-5.8-1.9-11.5-7.1-15.9
		c7.1,1.8,14.4,2.2,22.5-0.4c0.3-0.1,0.5-0.3,0.8-0.4c7.9,0.4,15.1-3.6,22.6-6.5C173.2,797,174.8,800.4,176.4,803.9z M3703.5,760.8
		c-0.1,0.1-0.2,0.2-0.3,0.3c0-0.3,0-0.6,0-0.9C3703.2,760.5,3703.4,760.7,3703.5,760.8z M3711.5,721.3c-0.1,0-0.2,0-0.3,0
		c0-0.1,0-0.1-0.1-0.2C3711.3,721.2,3711.4,721.3,3711.5,721.3z M368.1,514.3c-0.4-0.1-0.9-0.1-1.3-0.2c0.5-0.1,1-0.3,1.4-0.4
		C368.2,513.9,368.1,514.1,368.1,514.3z M3718.7,493.1c0,0,0.1,0.1,0.1,0.1c0,0-0.1,0-0.1,0.1
		C3718.7,493.3,3718.7,493.2,3718.7,493.1l-0.3-0.4c0,0,0.1-0.1,0.1-0.1C3718.5,492.8,3718.6,493,3718.7,493.1z M3715.3,459.6
		c0.1-0.1,0.2-0.1,0.3-0.1c0,0.1,0.1,0.2,0.1,0.3c-0.1,0.1-0.3,0.2-0.4,0.3C3715.3,459.9,3715.3,459.8,3715.3,459.6z M3723.3,462.1
		c-0.8,0.6-1.3,1.8-1.6,3.4c-0.3-1.7-0.5-3.5-1.5-4.4c0.7-0.9,1.1-2.2,1.5-3.7C3722,459.1,3722.5,460.6,3723.3,462.1z M3702.7,438.7
		c-0.2,0-0.3,0.1-0.5,0.1l0,0c0,0,0,0,0,0c0.1-0.2,0.1-0.4,0.2-0.6C3702.5,438.3,3702.6,438.5,3702.7,438.7z M2937.6,190.3l0.2,0
		L2937.6,190.3c0.3-0.1,0.5-0.1,0.7-0.2c0.1,0.1,0.2,0.2,0.3,0.3C2938.3,190.4,2938,190.4,2937.6,190.3
		C2937.7,190.3,2937.6,190.3,2937.6,190.3z M2913.4,193.8c0.3,0,0.6-0.1,0.9-0.1c-0.1,0.1-0.2,0.1-0.2,0.2
		C2913.8,193.9,2913.6,193.9,2913.4,193.8z M2800.2,205.9c0.3,0,0.6,0.1,0.6,0.2C2800.6,206,2800.4,205.9,2800.2,205.9z
		 M2067.2,210.7c0,0.1,0,0.1,0,0.2c-0.1,0-0.2,0-0.3,0.1C2067,210.9,2067.1,210.8,2067.2,210.7z M2137.9,214.2
		c0.2,0.1,0.4,0.1,0.6,0.2c-0.5,0-1,0-1.5,0C2137.3,214.4,2137.6,214.3,2137.9,214.2z M3277.4,214.5l-0.2,0.1
		c-0.7-0.1-1.3-0.2-1.9-0.3c0,0,0,0,0,0c0.6,0.1,1.3,0.2,1.9,0.3c0.4-0.2,0.5-0.5,0.4-0.7c0.7-0.1,1.3-0.2,2-0.4
		c2.4-0.7,3.3-1.4,3.1-2.1c-0.1-0.1-0.3-0.1-0.4-0.2c4.3-0.3,8.3-0.7,10.1-1.5c4.3,0.1,8.7,0.2,14-0.2c-4.3,0.8-7.8,1.6-9.6,2.7
		c0,0-0.1,0.1-0.1,0.1c-3.7,0.9-4.2,1.9-5.5,2.9c-3.1,0-6.1,0.1-9.2,0.2C3280.4,215,3278.9,214.7,3277.4,214.5z M2905.6,215.9
		c2.3-0.4,4.3-0.7,5.9-0.9c-1.1,0.3-2.9,0.7-5.9,1C2905.6,216,2905.6,216,2905.6,215.9z M2535.5,216.2c-0.2,0-0.3,0.1-0.5,0.1
		c-0.1,0-0.2,0-0.3,0.1c-0.1,0-0.1,0-0.2,0.1c-0.9,0.3-1.8,0.5-2.6,0.8C2532.8,216.9,2534,216.6,2535.5,216.2z M1661.5,216.5l-0.3,0
		l-0.7,0.2c-0.1,0-0.2,0-0.2-0.1c0.3-0.1,0.7-0.1,1-0.2c0.1,0,0.1,0,0.2-0.1C1661.4,216.5,1661.5,216.5,1661.5,216.5z M1597.8,216.2
		c2.7-0.3,5.4-0.8,8.1-1.3c1.2,0.5,3.3,0.8,6.2,0.9c-3.1,0.3-6.2,0.5-7.7,1.2C1602.7,216.6,1600.4,216.4,1597.8,216.2z
		 M2248.9,219.3c0.2,0,0.4-0.1,0.6-0.1c0,0-0.1,0.1-0.1,0.1C2249.2,219.3,2249,219.3,2248.9,219.3z M2983.5,219.6
		c1.8-0.1,3.5-0.2,5.2-0.3C2986.7,219.5,2984.6,219.7,2983.5,219.6z M1601.5,220.2c0.2,0,0.3-0.1,0.4-0.1c0.2,0.1,0.4,0.2,0.5,0.3
		c-0.3,0-0.5,0-0.8,0C1601.7,220.3,1601.6,220.2,1601.5,220.2z M1112,220.5c-0.1,0-0.3,0-0.4-0.1c0.2,0,0.4,0,0.6,0
		C1112.1,220.5,1112,220.5,1112,220.5z M866.4,219.4c-0.1-0.1-0.2-0.1-0.3-0.2c0.5,0,0.9,0,1.3,0C867,219.2,866.8,219.3,866.4,219.4
		z M1004.2,206c-0.5,0-1-0.1-1.5-0.1c0.3-0.1,0.7-0.1,1-0.2C1003.8,205.8,1004,205.9,1004.2,206z M935,196.3c-0.1,0-0.2,0-0.3,0
		c0.1-0.1,0.2-0.2,0.4-0.2C935.1,196.2,935.1,196.2,935,196.3z"/>
	<path class="st0" d="M0.1,561C0.1,561,0.1,561,0.1,561L0,561C0.1,561.1,0.1,561.1,0.1,561c0.1,0.1,0.2,0,0.3,0
		C0.3,561,0.2,561,0.1,561z"/>
	<path class="st0" d="M-133.3,606.8c0,0,0,0.1,0,0.1c0.1,0,0.2-0.1,0.4-0.1C-133.1,606.8-133.2,606.8-133.3,606.8z"/>
	<path class="st0" d="M16.9,427.6c0,0,0.1-0.1,0.1-0.1c-0.1,0-0.3,0.1-0.4,0.1C16.6,427.6,16.7,427.6,16.9,427.6
		C16.8,427.6,16.8,427.6,16.9,427.6C16.8,427.6,16.9,427.6,16.9,427.6z"/>
	<path class="st0" d="M166.3,456.7c-0.2,0-0.4,0.1-0.6,0.1C165.9,456.8,166.1,456.8,166.3,456.7
		C166.3,456.7,166.3,456.7,166.3,456.7z"/>
	<path class="st0" d="M3726.2,317.8c0.2-0.1,0.3-0.2,0.5-0.2c-0.2,0.1-0.4,0.1-0.6,0.2C3726.1,317.8,3726.2,317.8,3726.2,317.8z"/>
	<path class="st0" d="M3872.7,1707.9C3872.7,1707.9,3872.7,1707.9,3872.7,1707.9L3872.7,1707.9
		C3872.7,1707.9,3872.7,1707.9,3872.7,1707.9C3872.7,1707.9,3872.7,1707.9,3872.7,1707.9C3872.7,1707.9,3872.7,1707.9,3872.7,1707.9
		z"/>
	<path class="st0" d="M3914.7,1686.2C3914.7,1686.1,3914.7,1686.1,3914.7,1686.2c0,0-0.1,0-0.1,0
		C3914.6,1686.2,3914.6,1686.2,3914.7,1686.2z"/>
	<path class="st0" d="M3880.6,1762.1C3880.6,1762.1,3880.6,1762.1,3880.6,1762.1c0,0,0.1,0,0.1,0
		C3880.7,1762.1,3880.7,1762.1,3880.6,1762.1C3880.7,1762.1,3880.7,1762.1,3880.6,1762.1C3880.6,1762.1,3880.6,1762.1,3880.6,1762.1
		z"/>
	<path class="st0" d="M3825.4,1754.1c0.1,0,0.1,0,0.2-0.1C3825.5,1754,3825.5,1754,3825.4,1754.1
		C3825.4,1754.1,3825.4,1754.1,3825.4,1754.1z"/>
</g>
</svg>
