<?xml version="1.0" encoding="utf-8"?>
<!-- Generator: Adobe Illustrator 21.1.0, SVG Export Plug-In . SVG Version: 6.00 Build 0)  -->
<svg version="1.1" id="Objects" xmlns="http://www.w3.org/2000/svg" xmlns:xlink="http://www.w3.org/1999/xlink" x="0px" y="0px"
	 viewBox="0 0 687.6 341.9" style="enable-background:new 0 0 687.6 341.9;" xml:space="preserve">
<style type="text/css">
	.st0{fill:#FF3366;}
	.st1{fill:none;stroke:#FF3366;stroke-linecap:round;stroke-miterlimit:10;}
</style>
<title>icon_1</title>
<path class="st0" d="M467.9,168.5L381.9,19.5c-3.8-6.7-12.4-9-19-5.1c-2.1,1.2-3.9,3-5.1,5.1l-86.1,149.1
	c-3.8,6.7-1.5,15.3,5.2,19.1c2.1,1.2,4.4,1.8,6.8,1.8h172.1c7.7-0.1,14-6.4,13.9-14.1C469.8,173,469.1,170.6,467.9,168.5z
	 M285.1,173.5L369.8,27l83,146.6L285.1,173.5z"/>
<rect x="362.3" y="75.8" class="st0" width="15" height="58.1"/>
<circle class="st0" cx="369.8" cy="149" r="9.2"/>
<path class="st1" d="M469.8,155.4c54-0.6,110.7,47.3,117.5,99"/>
<polyline class="st1" points="589.5,243.8 587.7,256 580.5,246.2 "/>
<path class="st1" d="M442.4,219.5c33.1-0.5,120.8-1.7,178.2,16.6c45.7,14.6,43.4,32.4,42.9,35.2c-4.7,25-79.5,51.5-185.3,55.3
	c-111.9,4-193.9-19.7-221.1-40.7c-5.5-4.3-32.9-25.4,8.4-43.9C311.5,221.4,407,220,442.4,219.5z"/>
<path class="st1" d="M449.2,221.2c33.1,1.8,120.7,6.4,176.6,28.4c44.7,17.6,41.1,35.2,40.4,38c-6.3,24.7-82.7,46.1-188.5,42.8
	c-111.9-3.5-192.2-32.6-217.9-55.4c-5.2-4.6-31.1-27.6,11.3-43.2C318.5,214.4,413.9,219.4,449.2,221.2z"/>
<g id="_5K25ts.tif">
	
		<image style="overflow:visible;enable-background:new    ;" width="529" height="34" id="Слой_1" xlink:href="52FD44A1B4F59871.png"  transform="matrix(0.9981 0 0 1 68.26 195.369)">
	</image>
</g>
</svg>
