<svg id="Слой_1" xmlns="http://www.w3.org/2000/svg" viewBox="0 0 344.1 27.7">
    <style>
        .st0,.st1{fill:#426c66;stroke:#426c66;stroke-width:.5;stroke-miterlimit:10}.st1{fill:#d65970;stroke:#d65970}
    </style>
    <path class="st0" d="M128.8 27.4H2.3c-1.1 0-2-.9-2-2V2.8c0-1.1.9-2 2-2h126.6c1.1 0 2 .9 2 2v22.6c0 1.1-1 2-2.1 2zM2.3 1.8c-.6 0-1 .5-1 1v22.6c0 .6.5 1 1 1h126.6c.6 0 1-.5 1-1V2.8c0-.6-.5-1-1-1H2.3z"/>
    <path class="st0" d="M20.7 9.9c.2 0 .3.1.3.3v7.9c0 .2-.1.3-.3.3h-.5c-.2 0-.3-.1-.3-.3v-6.8l-2.2 1.2c-.2.1-.4.1-.5-.1l-.3-.4c-.1-.2 0-.3.1-.4l2.7-1.5c.1-.1.3-.1.4-.1h.6z"/>
    <path class="st0" d="M23.7 12.6c0-1.8 1.2-2.9 3.1-2.9 2 0 3.1 1.1 3.1 2.9v3.2c0 1.8-1.2 2.9-3.1 2.9-2 0-3.1-1.1-3.1-2.9v-3.2zm5.1 0c0-1.1-.7-1.8-2-1.8s-2 .7-2 1.8v3.2c0 1.1.7 1.8 2 1.8 1.2 0 2-.7 2-1.8v-3.2z"/>
    <path class="st0" d="M32.5 12.6c0-1.8 1.2-2.9 3.1-2.9 2 0 3.1 1.1 3.1 2.9v3.2c0 1.8-1.2 2.9-3.1 2.9-2 0-3.1-1.1-3.1-2.9v-3.2zm5.1 0c0-1.1-.7-1.8-2-1.8s-2 .7-2 1.8v3.2c0 1.1.7 1.8 2 1.8 1.2 0 2-.7 2-1.8v-3.2z"/>
    <path class="st0" d="M41 11.5c0-1.1.7-1.8 2-1.8s2 .7 2 1.8v.9c0 1.1-.7 1.8-2 1.8s-2-.7-2-1.8v-.9zm3 .1c0-.6-.4-1-1-1-.7 0-1 .3-1 1v.8c0 .6.4 1 1 1s1-.3 1-1v-.8zm4.9-1.7c.2 0 .3.1.1.3l-5.9 8c-.2.3-.2.3-.6.3h-.4c-.2 0-.3-.1-.2-.3l5.9-8c.2-.2.2-.3.6-.3h.5zM46.1 16c0-1.1.7-1.8 2-1.8s2 .7 2 1.8v.9c0 1.1-.7 1.8-2 1.8s-2-.7-2-1.8V16zm3 .1c0-.6-.4-1-1-1-.7 0-1 .3-1 1v.8c0 .6.4 1 1 1 .7 0 1-.3 1-1v-.8z"/>
    <path class="st0" d="M56.3 12.8c0-1.9 1.2-3.1 3.4-3.1s3.4 1.2 3.4 3.1v2.7c0 1.9-1.2 3.1-3.4 3.1s-3.4-1.2-3.4-3.1v-2.7zm5.5 0c0-1.3-.8-2-2.2-2s-2.2.7-2.2 2v2.7c0 1.3.8 2 2.2 2s2.2-.7 2.2-2v-2.7z"/>
    <path class="st0" d="M69.5 9.9c1.6 0 2.6.9 2.6 2.6 0 1.3-.7 2.1-1.8 2.4.2.1.4.3.6.7l1.3 2.6c.1.2.1.3-.2.3h-.5c-.4 0-.5 0-.6-.3L69.8 16c-.3-.7-.7-1-1.6-1h-1.3v3.1c0 .2-.1.3-.3.3h-.5c-.2 0-.3-.1-.3-.3v-7.9c0-.2.1-.3.3-.3h3.4zm-.1 1.1H67v3h2.4c1 0 1.5-.5 1.5-1.5-.1-1-.6-1.5-1.5-1.5z"/>
    <path class="st0" d="M80.9 13.9c.2 0 .3.1.3.3v1.5c0 1.7-1.2 2.9-3.4 2.9s-3.4-1.2-3.4-3.1v-2.7c0-1.9 1.2-3.1 3.4-3.1 1.7 0 2.8.7 3.2 2 .1.2 0 .3-.2.4l-.5.2c-.2.1-.3 0-.4-.2-.3-.9-.9-1.4-2.1-1.4-1.4 0-2.2.7-2.2 2v2.8c0 1.3.8 2 2.2 2 1.4 0 2.2-.7 2.2-1.8V15h-2c-.2 0-.3-.1-.3-.3v-.5c0-.2.1-.3.3-.3h2.9z"/>
    <path class="st0" d="M90.6 18.2c.1.2 0 .3-.2.3h-.5c-.4 0-.5 0-.6-.3l-.7-2H85l-.7 2c-.1.2-.2.3-.6.3h-.4c-.2 0-.3-.1-.2-.3l3.1-8c.1-.2.2-.3.4-.3h.5c.2 0 .3.1.4.3l3.1 8zm-3.5-6.1c-.1-.4-.2-.8-.2-1.1h-.1v.2c0 .2-.1.6-.2 1l-1.2 3.2h2.9l-1.2-3.3z"/>
    <path class="st0" d="M99 9.9c.2 0 .3.1.3.3v7.9c0 .2-.1.3-.3.3h-.5c-.1 0-.3 0-.3-.2l-3.4-5c-.2-.3-.4-.7-.6-1.1l-.4-.7h-.1s0 .3.1.8.1 1 .1 1.4v4.5c0 .2-.1.3-.3.3h-.5c-.2 0-.3-.1-.3-.3v-7.9c0-.2.1-.3.3-.3h.5c.1 0 .3 0 .3.2l3.4 4.9c.2.3.4.7.7 1.2.2.5.3.7.4.7h.1s0-.3-.1-.9c-.1-.5-.1-1-.1-1.5v-4.4c0-.2.1-.3.3-.3h.4z"/>
    <path class="st0" d="M102.3 10.2c0-.2.1-.3.3-.3h.5c.2 0 .3.1.3.3v7.9c0 .2-.1.3-.3.3h-.5c-.2 0-.3-.1-.3-.3v-7.9z"/>
    <path class="st0" d="M106.2 12.8c0-1.9 1.2-3.1 3.4-3.1 1.7 0 2.8.7 3.2 2 .1.2 0 .3-.2.4l-.5.2c-.2.1-.3 0-.4-.2-.3-.9-.9-1.4-2.1-1.4-1.4 0-2.2.7-2.2 2v2.8c0 1.3.8 2 2.2 2 1.2 0 1.8-.4 2.1-1.4.1-.2.2-.3.4-.2l.5.2c.2.1.3.2.2.4-.4 1.4-1.5 2.1-3.3 2.1-2.2 0-3.4-1.2-3.4-3.1v-2.7z"/>
    <path class="st1" d="M259.2 14.2c.2 0 .3.1.3.3v1.4c0 1.5-1.1 2.5-3 2.5s-3-1-3-2.7v-2.4c0-1.7 1.1-2.7 3-2.7 1.5 0 2.5.6 2.8 1.8.1.2 0 .3-.2.4l-.4.1c-.2.1-.3 0-.4-.2-.3-.8-.8-1.2-1.9-1.2-1.3 0-1.9.6-1.9 1.7v2.4c0 1.1.7 1.8 1.9 1.8s1.9-.6 1.9-1.6v-.7h-1.8c-.2 0-.3-.1-.3-.3v-.4c0-.2.1-.3.3-.3h2.7z"/>
    <path class="st1" d="M268.2 10.7c.2 0 .3.1.3.3v7c0 .2-.1.3-.3.3h-.4c-.2 0-.3-.1-.3-.3v-3.8c0-.6.1-1.2.2-2h-.1c-.2.5-.5 1.1-.8 1.8l-1.3 2.4c-.1.1-.2.2-.3.2h-.3c-.1 0-.3-.1-.3-.2l-1.4-2.4c-.3-.5-.6-1.1-.8-1.8h-.1c.1.7.2 1.3.2 2V18c0 .2-.1.3-.3.3h-.4c-.2 0-.3-.1-.3-.3v-7c0-.2.1-.3.3-.3h.4c.2 0 .3 0 .4.2l2.4 4.3 2.4-4.3c.1-.2.2-.2.4-.2h.4z"/>
    <path class="st1" d="M270.6 13.2c0-1.7 1.1-2.7 3-2.7s3 1 3 2.7v2.4c0 1.7-1.1 2.7-3 2.7s-3-1-3-2.7v-2.4zm4.9 0c0-1.1-.7-1.8-1.9-1.8s-1.9.6-1.9 1.8v2.4c0 1.1.7 1.8 1.9 1.8s1.9-.6 1.9-1.8v-2.4z"/>
    <g>
        <path class="st1" d="M282.3 1.5l-34.6 25.1"/>
        <path class="st1" d="M247.9 26.8l-.3-.4 34.6-25.1.3.4z"/>
    </g>
    <path class="st1" d="M281.6 26.9h-33.8c-.6 0-1-.5-1-1V1.5c0-.6.5-1 1-1h33.8c.6 0 1 .5 1 1v24.3c0 .6-.5 1.1-1 1.1zM247.7 1c-.3 0-.5.2-.5.5v24.3c0 .3.2.5.5.5h33.8c.3 0 .5-.2.5-.5V1.5c0-.3-.2-.5-.5-.5h-33.8z"/>
    <g>
        <path class="st1" d="M241.3 1.4l-34.9 25.3"/>
        <path class="st1" d="M206.5 26.9l-.3-.4 34.9-25.3.3.4z"/>
    </g>
    <path class="st1" d="M240.5 27h-34.1c-.6 0-1.1-.5-1.1-1.1V1.4c0-.6.5-1.1 1.1-1.1h34.1c.6 0 1.1.5 1.1 1.1v24.5c-.1.6-.5 1.1-1.1 1.1zM206.4.9c-.3 0-.5.2-.5.5v24.5c0 .3.2.5.5.5h34.1c.3 0 .5-.2.5-.5V1.4c0-.3-.2-.5-.5-.5h-34.1z"/>
    <g>
        <path class="st1" d="M343.6 1.5l-53.5 25.1"/>
        <path transform="rotate(-25.163 316.867 14.054)" class="st1" d="M287.3 13.8h59.1v.5h-59.1z"/>
    </g>
    <path class="st1" d="M342.6 26.9h-52.8c-.7 0-1.2-.6-1.2-1.2v-24c0-.7.6-1.2 1.2-1.2h52.8c.7 0 1.2.6 1.2 1.2v23.9c.1.7-.5 1.3-1.2 1.3zM289.8 1c-.4 0-.7.3-.7.7v23.9c0 .4.3.7.7.7h52.8c.4 0 .7-.3.7-.7V1.7c0-.4-.3-.7-.7-.7h-52.8z"/>
    <g>
        <path class="st1" d="M216.4 10.7c2 0 3.1 1.1 3.1 2.8v1.9c0 1.7-1.1 2.8-3.1 2.8h-2.3c-.2 0-.3-.1-.3-.3v-7c0-.2.1-.3.3-.3h2.3zm2.1 2.8c0-1.2-.7-1.8-2.1-1.8h-1.6v5.6h1.6c1.3 0 2.1-.7 2.1-1.8v-2z"/>
        <path class="st1" d="M227 10.7c.2 0 .3.1.1.3l-2.7 4.3V18c0 .2-.1.3-.3.3h-.5c-.2 0-.3-.1-.3-.3v-2.8l-2.7-4.2c-.1-.1-.1-.3.1-.3h.6c.3 0 .4 0 .5.2l2 3.2 2-3.2c.1-.2.2-.2.5-.2h.7z"/>
        <path class="st1" d="M233.4 10.7c.2 0 .3.1.3.3v.4c0 .2-.1.3-.3.3h-3.5V14h3c.2 0 .3.1.3.3v.4c0 .2-.1.3-.3.3h-3v2.4h3.7c.2 0 .3.1.3.3v.3c0 .2-.1.3-.3.3h-4.4c-.2 0-.3-.1-.3-.3v-7c0-.2.1-.3.3-.3h4.2z"/>
    </g>
    <g>
        <path class="st1" d="M301.1 14.2c.2 0 .3.1.3.3v1.4c0 1.5-1.1 2.5-3 2.5s-3-1-3-2.7v-2.4c0-1.7 1.1-2.7 3-2.7 1.5 0 2.5.6 2.8 1.8.1.2 0 .3-.2.4l-.4.1c-.2.1-.3 0-.4-.2-.3-.8-.8-1.2-1.9-1.2-1.3 0-1.9.6-1.9 1.7v2.4c0 1.1.7 1.8 1.9 1.8s1.9-.6 1.9-1.6v-.7h-1.8c-.2 0-.3-.1-.3-.3v-.4c0-.2.1-.3.3-.3h2.7z"/>
        <path class="st1" d="M304.2 10.7c.2 0 .3.1.3.3v6.3h3.3c.2 0 .3.1.3.3v.4c0 .2-.1.3-.3.3h-4.1c-.2 0-.3-.1-.3-.3v-7c0-.2.1-.3.3-.3h.5z"/>
        <path class="st1" d="M310.6 15.6c0 1.1.6 1.8 1.9 1.8 1.2 0 1.9-.7 1.9-1.8V11c0-.2.1-.3.3-.3h.5c.2 0 .3.1.3.3v4.7c0 1.7-1 2.7-2.9 2.7s-2.9-1-2.9-2.7V11c0-.2.1-.3.3-.3h.5c.2 0 .3.1.3.3v4.6z"/>
        <path class="st1" d="M322.3 10.7c.2 0 .3.1.3.3v.4c0 .2-.1.3-.3.3h-2V18c0 .2-.1.3-.3.3h-.5c-.2 0-.3-.1-.3-.3v-6.3h-2c-.2 0-.3-.1-.3-.3V11c0-.2.1-.3.3-.3h5.1z"/>
        <path class="st1" d="M328.9 10.7c.2 0 .3.1.3.3v.4c0 .2-.1.3-.3.3h-3.5V14h3c.2 0 .3.1.3.3v.4c0 .2-.1.3-.3.3h-3v2.4h3.6c.2 0 .3.1.3.3v.4c0 .2-.1.3-.3.3h-4.4c-.2 0-.3-.1-.3-.3v-7c0-.2.1-.3.3-.3h4.3z"/>
        <path class="st1" d="M336.7 10.7c.2 0 .3.1.3.3v7c0 .2-.1.3-.3.3h-.5c-.1 0-.2 0-.3-.1l-3-4.4c-.2-.3-.3-.6-.5-1l-.3-.6h-.1s0 .3.1.7c.1.5.1.9.1 1.2V18c0 .2-.1.3-.3.3h-.4c-.2 0-.3-.1-.3-.3v-7c0-.2.1-.3.3-.3h.5c.1 0 .2 0 .3.1l3 4.3c.2.3.4.6.6 1 .2.4.3.6.3.7h.1s0-.3-.1-.8-.1-.9-.1-1.3V11c0-.2.1-.3.3-.3h.3z"/>
    </g>
    <g>
        <path class="st1" d="M158.5 9.8c1.4 0 2.2.5 2.8 1.6.1.2 0 .3-.1.4l-.4.2c-.2.1-.3.1-.4-.1-.4-.7-.9-1.1-1.8-1.1-1.2 0-1.8.4-1.8 1.2 0 .6.3.8.9 1 .4.1.7.2 1.2.2.6.1 1 .1 1.5.3.3.1.5.2.6.4.3.3.6.8.6 1.4 0 1.4-1.1 2.3-2.9 2.3-1.6 0-2.4-.6-2.9-1.8-.1-.2 0-.3.2-.4l.4-.2c.2-.1.3 0 .4.2.3.8 1 1.2 1.9 1.2 1.3 0 1.9-.4 1.9-1.3 0-.4-.2-.7-.6-.9-.4-.2-.7-.2-1.3-.3-.5-.1-.8-.1-1.3-.2-.3-.1-.5-.1-.6-.2-.5-.3-1-.8-.9-1.7-.2-1.4.8-2.2 2.6-2.2z"/>
        <path class="st1" d="M164.3 14.9c0 1.1.6 1.8 1.9 1.8 1.2 0 1.9-.7 1.9-1.8v-4.7c0-.2.1-.3.3-.3h.5c.2 0 .3.1.3.3v4.7c0 1.7-1 2.7-2.9 2.7s-2.9-1-2.9-2.7v-4.7c0-.2.1-.3.3-.3h.5c.2 0 .3.1.3.3v4.7z"/>
        <path class="st1" d="M176.8 13.4c.2 0 .3.1.3.3v1.4c0 1.5-1.1 2.5-3 2.5s-3-1-3-2.7v-2.4c0-1.7 1.1-2.7 3-2.7 1.5 0 2.5.6 2.8 1.8.1.2 0 .3-.2.4l-.4.1c-.2.1-.3 0-.4-.2-.3-.8-.8-1.2-1.9-1.2-1.3 0-1.9.6-1.9 1.7v2.4c0 1.1.7 1.8 1.9 1.8s1.9-.6 1.9-1.6v-.7h-1.8c-.2 0-.3-.1-.3-.3v-.4c0-.2.1-.3.3-.3h2.7z"/>
        <path class="st1" d="M185.1 17.1c.1.2 0 .3-.2.3h-.4c-.3 0-.4 0-.5-.2l-.7-1.7h-3.1l-.7 1.7c-.1.2-.2.2-.5.2h-.4c-.2 0-.3-.1-.2-.3l2.7-7c.1-.2.2-.2.3-.2h.4c.2 0 .3.1.3.2l3 7zm-3.1-5.3c-.1-.4-.2-.7-.2-1h-.1v.1c0 .2-.1.5-.2.8l-1.1 2.8h2.6l-1-2.7z"/>
        <path class="st1" d="M189.9 9.9c1.4 0 2.3.8 2.3 2.3 0 1.1-.6 1.9-1.6 2.1.2.1.4.3.5.6l1.2 2.3c.1.2.1.3-.1.3h-.5c-.3 0-.5 0-.5-.2l-1-1.9c-.3-.6-.6-.8-1.4-.8h-1.1v2.7c0 .2-.1.3-.3.3h-.4c-.2 0-.3-.1-.3-.3v-7c0-.2.1-.3.3-.3h2.9zm-.1 1h-2.1v2.6h2.1c.8 0 1.3-.5 1.3-1.3.1-.9-.4-1.3-1.3-1.3z"/>
    </g>
    <g>
        <path class="st1" d="M199.1 1.6l-49.9 24.9"/>
        <path class="st1" d="M149.4 26.7l-.3-.4L199 1.4l.2.4z"/>
    </g>
    <path class="st1" d="M198.2 27H150c-.7 0-1.2-.5-1.2-1.2V1.6c0-.7.5-1.2 1.2-1.2h48.2c.7 0 1.2.5 1.2 1.2v24.2c0 .7-.6 1.2-1.2 1.2zM150 .9c-.4 0-.7.3-.7.7v24.2c0 .4.3.7.7.7h48.2c.4 0 .7-.3.7-.7V1.6c0-.4-.3-.7-.7-.7H150z"/>
</svg>
