<svg id="Слой_1" xmlns="http://www.w3.org/2000/svg" xmlns:xlink="http://www.w3.org/1999/xlink" viewBox="0 0 130.6 158">
    <style>
        .st0,.st1{clip-path:url(#SVGID_2_);fill:#426c66}.st1{fill:#d65970}
    </style>
    <defs>
        <path id="SVGID_1_" d="M0 0h130.6v158H0z"/>
    </defs>
    <clipPath id="SVGID_2_">
        <use xlink:href="#SVGID_1_" overflow="visible"/>
    </clipPath>
    <path class="st0" d="M128.6 26.7H2c-1.1 0-2-.9-2-2V2C0 .9.9 0 2 0h126.6c1.1 0 2 .9 2 2v22.6c0 1.1-.9 2.1-2 2.1M2 1c-.5 0-1 .5-1 1v22.6c0 .6.5 1 1 1h126.6c.6 0 1-.5 1-1V2c0-.6-.5-1-1-1H2z"/>
    <path class="st0" d="M20.4 9.1c.2 0 .3.1.3.3v7.9c0 .2-.1.3-.3.3h-.5c-.2 0-.3-.1-.3-.3v-6.8l-2.2 1.2c-.2.1-.4.1-.5-.1l-.2-.4c-.1-.2 0-.3.1-.4l2.7-1.5c.1-.1.3-.1.4-.1h.5z"/>
    <path class="st0" d="M23.4 11.8c0-1.8 1.2-2.9 3.1-2.9 2 0 3.1 1.1 3.1 2.9V15c0 1.8-1.2 2.9-3.1 2.9-2 0-3.1-1.1-3.1-2.9v-3.2zm5.1 0c0-1.1-.7-1.8-2-1.8s-2 .7-2 1.8V15c0 1.1.7 1.8 2 1.8 1.2 0 2-.7 2-1.8v-3.2z"/>
    <path class="st0" d="M32.2 11.8c0-1.8 1.2-2.9 3.1-2.9 2 0 3.1 1.1 3.1 2.9V15c0 1.8-1.2 2.9-3.1 2.9-2 0-3.1-1.1-3.1-2.9v-3.2zm5.1 0c0-1.1-.7-1.8-2-1.8s-2 .7-2 1.8V15c0 1.1.7 1.8 2 1.8 1.2 0 2-.7 2-1.8v-3.2z"/>
    <path class="st0" d="M40.8 10.7c0-1.1.7-1.8 2-1.8s2 .7 2 1.8v.9c0 1.1-.7 1.8-2 1.8s-2-.7-2-1.8v-.9zm3 .1c0-.6-.4-1-1-1-.7 0-1 .3-1 1v.8c0 .6.4 1 1 1 .7 0 1-.3 1-1v-.8zm4.9-1.7c.2 0 .3.1.1.3l-5.9 8c-.2.3-.2.3-.6.3h-.4c-.2 0-.3-.1-.2-.3l5.9-8c.2-.2.2-.3.6-.3h.5zm-2.8 6.1c0-1.1.7-1.8 2-1.8s2 .7 2 1.8v.9c0 1.1-.7 1.8-2 1.8s-2-.7-2-1.8v-.9zm3 .1c0-.6-.4-1-1-1-.7 0-1 .3-1 1v.8c0 .6.4 1 1 1 .7 0 1-.3 1-1v-.8z"/>
    <path class="st0" d="M56 12c0-1.9 1.2-3.1 3.4-3.1s3.4 1.2 3.4 3.1v2.7c0 1.9-1.2 3.1-3.4 3.1S56 16.6 56 14.7V12zm5.6 0c0-1.3-.8-2-2.2-2-1.4 0-2.2.7-2.2 2v2.7c0 1.3.8 2 2.2 2 1.4 0 2.2-.7 2.2-2V12z"/>
    <path class="st0" d="M69.2 9.1c1.6 0 2.6.9 2.6 2.6 0 1.3-.7 2.1-1.8 2.4.2.1.4.3.6.7l1.3 2.6c.1.2.1.3-.2.3h-.5c-.4 0-.5 0-.6-.3l-1.1-2.2c-.3-.7-.7-1-1.6-1h-1.3v3.1c0 .2-.1.3-.3.3h-.5c-.2 0-.3-.1-.3-.3V9.5c0-.2.1-.3.3-.3h3.4zm-.1 1.1h-2.4v3h2.4c1 0 1.5-.5 1.5-1.5 0-.9-.5-1.5-1.5-1.5"/>
    <path class="st0" d="M80.7 13.1c.2 0 .3.1.3.3V15c0 1.7-1.2 2.9-3.4 2.9s-3.4-1.2-3.4-3.1V12c0-1.9 1.2-3.1 3.4-3.1 1.7 0 2.8.7 3.2 2.1.1.2 0 .3-.2.4l-.5.2c-.2.1-.3 0-.4-.2-.3-.9-.9-1.4-2.1-1.4-1.4 0-2.2.7-2.2 2v2.8c0 1.3.8 2 2.2 2 1.4 0 2.2-.7 2.2-1.8v-.8h-2.1c-.2 0-.3-.1-.3-.3v-.5c0-.2.1-.3.3-.3h3z"/>
    <path class="st0" d="M90.4 17.4c.1.2 0 .3-.2.3h-.5c-.4 0-.5 0-.6-.3l-.7-2h-3.6l-.7 2c-.1.2-.2.3-.6.3H83c-.2 0-.3-.1-.2-.3l3.1-8c.1-.2.2-.3.4-.3h.5c.2 0 .3.1.4.3l3.2 8zm-3.6-6.1c-.1-.4-.2-.8-.2-1.1h-.1v.2c0 .2-.1.6-.2 1l-1.2 3.2H88l-1.2-3.3z"/>
    <path class="st0" d="M98.8 9.1c.2 0 .3.1.3.3v7.9c0 .2-.1.3-.3.3h-.5c-.1 0-.3 0-.3-.2l-3.4-5c-.2-.3-.4-.7-.6-1.1l-.4-.7h-.1s0 .3.1.8.1 1 .1 1.4v4.5c0 .2-.1.3-.3.3h-.5c-.2 0-.3-.1-.3-.3V9.5c0-.2.1-.3.3-.3h.5c.1 0 .3 0 .3.2l3.4 4.9c.2.3.4.7.7 1.2.2.5.3.7.4.7h.1s0-.3-.1-.9c-.1-.5-.1-1-.1-1.5V9.5c0-.2.1-.3.3-.3h.4z"/>
    <path class="st0" d="M102.1 9.5c0-.2.1-.3.3-.3h.5c.2 0 .3.1.3.3v7.9c0 .2-.1.3-.3.3h-.5c-.2 0-.3-.1-.3-.3V9.5z"/>
    <path class="st0" d="M106 12c0-1.9 1.2-3.1 3.4-3.1 1.7 0 2.8.7 3.2 2.1.1.2 0 .3-.2.4l-.5.2c-.2.1-.3 0-.4-.2-.3-.9-.9-1.4-2.1-1.4-1.4 0-2.2.7-2.2 2v2.8c0 1.3.8 2 2.2 2 1.2 0 1.8-.4 2.1-1.4.1-.2.2-.3.4-.2l.5.2c.2.1.3.2.2.4-.4 1.4-1.5 2.1-3.3 2.1-2.2 0-3.4-1.2-3.4-3.1V12z"/>
    <path class="st1" d="M12.5 145.3c.2 0 .3.1.3.3v1.4c0 1.5-1.1 2.5-3 2.5s-3-1-3-2.7v-2.4c0-1.7 1.1-2.7 3-2.7 1.5 0 2.5.6 2.8 1.8.1.2 0 .3-.2.4l-.4.1c-.2.1-.3 0-.4-.2-.3-.8-.8-1.2-1.9-1.2-1.3 0-1.9.6-1.9 1.7v2.4c0 1.1.7 1.8 1.9 1.8s1.9-.6 1.9-1.6v-.7H9.9c-.2 0-.3-.1-.3-.3v-.4c0-.2.1-.3.3-.3h2.6z"/>
    <path class="st1" d="M21.5 141.8c.2 0 .3.1.3.3v7c0 .2-.1.3-.3.3h-.4c-.2 0-.3-.1-.3-.3v-3.8c0-.6.1-1.2.2-2-.2.5-.5 1.1-.8 1.8l-1.3 2.4c-.1.1-.2.2-.3.2h-.3c-.1 0-.3-.1-.3-.2l-1.4-2.4c-.3-.5-.6-1.1-.8-1.8h-.1c.1.7.2 1.3.2 2v3.8c0 .2-.1.3-.3.3h-.4c-.2 0-.3-.1-.3-.3v-7c0-.2.1-.3.3-.3h.4c.2 0 .3 0 .4.2l2.4 4.3 2.4-4.3c.1-.2.2-.2.4-.2h.3z"/>
    <path class="st1" d="M23.9 144.3c0-1.7 1.1-2.7 3-2.7s3 1 3 2.7v2.4c0 1.7-1.1 2.7-3 2.7s-3-1-3-2.7v-2.4zm4.9 0c0-1.1-.7-1.8-1.9-1.8s-1.9.6-1.9 1.8v2.4c0 1.1.7 1.8 1.9 1.8s1.9-.6 1.9-1.8v-2.4z"/>
    <path class="st1" d="M35.7 132.6L1.1 157.7"/>
    <path class="st1" d="M1.2 157.9l-.3-.4 34.6-25.1.3.4z"/>
    <path class="st1" d="M34.9 158H1.1c-.6 0-1-.5-1-1v-24.3c0-.6.5-1.1 1-1.1h33.8c.6 0 1 .5 1 1.1V157c0 .5-.4 1-1 1M1.1 132c-.3 0-.5.2-.5.5v24.3c0 .3.2.5.5.5h33.8c.3 0 .5-.2.5-.5v-24.3c0-.3-.2-.5-.5-.5H1.1z"/>
    <path class="st1" d="M35.9 66.9L1.1 92.2"/>
    <path class="st1" d="M1.2 92.4L.9 92l34.9-25.3.3.4z"/>
    <path class="st1" d="M35.1 92.5h-34C.5 92.5 0 92 0 91.4V66.9c0-.6.5-1.1 1.1-1.1h34.1c.6 0 1.1.5 1.1 1.1v24.5c-.1.6-.6 1.1-1.2 1.1m-34-26.1c-.3 0-.5.2-.5.5v24.5c0 .3.2.5.5.5h34.1c.3 0 .5-.2.5-.5V66.9c0-.3-.2-.5-.5-.5H1.1z"/>
    <path class="st1" d="M55 99.8L1.5 125"/>
    <path class="st1" d="M1.6 125.2l-.2-.5 53.5-25.1.2.5z"/>
    <path class="st1" d="M54 125.2H1.3c-.7 0-1.2-.6-1.2-1.2v-24c0-.7.6-1.2 1.2-1.2H54c.7 0 1.2.6 1.2 1.2v24c.1.7-.5 1.2-1.2 1.2M1.3 99.3c-.4 0-.7.3-.7.7v24c0 .4.3.7.7.7H54c.4 0 .7-.3.7-.7v-24c0-.4-.3-.7-.7-.7H1.3z"/>
    <path class="st1" d="M11.1 76.2c2 0 3.1 1.1 3.1 2.8v1.9c0 1.7-1.1 2.8-3.1 2.8H8.8c-.2 0-.3-.1-.3-.3v-7c0-.2.1-.3.3-.3h2.3zm2.1 2.8c0-1.2-.7-1.8-2.1-1.8H9.6v5.6h1.6c1.3 0 2.1-.7 2.1-1.8v-2z"/>
    <path class="st1" d="M21.7 76.2c.2 0 .3.1.1.3l-2.7 4.3v2.8c0 .2-.1.3-.3.3h-.5c-.2 0-.3-.1-.3-.3v-2.8l-2.7-4.2c-.1-.1-.1-.3.1-.3h.6c.3 0 .4 0 .5.2l2 3.2 2-3.2c.1-.2.2-.2.5-.2h.7z"/>
    <path class="st1" d="M28.1 76.2c.2 0 .3.1.3.3v.4c0 .2-.1.3-.3.3h-3.5v2.3h3c.2 0 .3.1.3.3v.4c0 .2-.1.3-.3.3h-3v2.4h3.7c.2 0 .3.1.3.3v.4c0 .2-.1.3-.3.3h-4.4c-.2 0-.3-.1-.3-.3v-7c0-.2.1-.3.3-.3h4.2z"/>
    <path class="st1" d="M12.5 112.5c.2 0 .3.1.3.3v1.4c0 1.5-1.1 2.5-3 2.5s-3-1-3-2.7v-2.4c0-1.7 1.1-2.7 3-2.7 1.5 0 2.5.6 2.8 1.8.1.2 0 .3-.2.4l-.4.2c-.2.1-.3 0-.4-.2-.3-.8-.8-1.2-1.9-1.2-1.3 0-1.9.6-1.9 1.7v2.4c0 1.1.7 1.8 1.9 1.8s1.9-.6 1.9-1.6v-.7H10c-.2 0-.3-.1-.3-.3v-.4c0-.2.1-.3.3-.3h2.5z"/>
    <path class="st1" d="M15.6 109c.2 0 .3.1.3.3v6.3h3.3c.2 0 .3.1.3.3v.4c0 .2-.1.3-.3.3h-4.1c-.2 0-.3-.1-.3-.3v-7c0-.2.1-.3.3-.3h.5z"/>
    <path class="st1" d="M22 114c0 1.1.6 1.8 1.9 1.8 1.2 0 1.9-.7 1.9-1.8v-4.7c0-.2.1-.3.3-.3h.5c.2 0 .3.1.3.3v4.7c0 1.7-1 2.7-2.9 2.7s-2.9-1-2.9-2.7v-4.7c0-.2.1-.3.3-.3h.5c.2 0 .3.1.3.3v4.7z"/>
    <path class="st1" d="M33.7 109c.2 0 .3.1.3.3v.4c0 .2-.1.3-.3.3h-2v6.3c0 .2-.1.3-.3.3H31c-.2 0-.3-.1-.3-.3V110h-2c-.2 0-.3-.1-.3-.3v-.4c0-.2.1-.3.3-.3h5z"/>
    <path class="st1" d="M40.3 109c.2 0 .3.1.3.3v.4c0 .2-.1.3-.3.3h-3.5v2.3h3c.2 0 .3.1.3.3v.4c0 .2-.1.3-.3.3h-3v2.4h3.6c.2 0 .3.1.3.3v.4c0 .2-.1.3-.3.3H36c-.2 0-.3-.1-.3-.3v-7c0-.2.1-.3.3-.3h4.3z"/>
    <path class="st1" d="M48.1 109c.2 0 .3.1.3.3v7c0 .2-.1.3-.3.3h-.5c-.1 0-.2 0-.3-.1l-3-4.4c-.2-.3-.3-.6-.5-1l-.3-.6h-.1s0 .3.1.7c.1.5.1.9.1 1.2v3.9c0 .2-.1.3-.3.3h-.4c-.2 0-.3-.1-.3-.3v-7c0-.2.1-.3.3-.3h.5c.1 0 .2 0 .3.1l3 4.3c.2.3.4.6.6 1 .2.4.3.6.3.7h.1s0-.3-.1-.8-.1-.9-.1-1.3v-3.8c0-.2.1-.3.3-.3h.3z"/>
    <path class="st1" d="M9.8 41.9c1.4 0 2.2.5 2.8 1.6.1.2 0 .3-.1.4l-.5.2c-.2.1-.3.1-.4-.1-.4-.7-.9-1.1-1.8-1.1-1.2 0-1.8.4-1.8 1.2 0 .6.3.8.9 1 .4.1.7.2 1.2.2.6.1 1 .1 1.5.3.3.1.5.2.6.4.3.3.6.8.6 1.4 0 1.4-1.1 2.3-2.9 2.3-1.6 0-2.4-.6-2.9-1.8-.1-.2 0-.3.2-.4l.4-.2c.2-.1.3 0 .4.2.3.8 1 1.2 1.9 1.2 1.3 0 1.9-.4 1.9-1.3 0-.4-.2-.7-.6-.9-.4-.2-.7-.2-1.3-.3-.6-.1-.8-.1-1.3-.2-.4 0-.6 0-.7-.1-.5-.3-1-.8-.9-1.7 0-1.4 1-2.3 2.8-2.3"/>
    <path class="st1" d="M15.6 47.1c0 1.1.6 1.8 1.9 1.8 1.2 0 1.9-.7 1.9-1.8v-4.7c0-.2.1-.3.3-.3h.5c.2 0 .3.1.3.3V47c0 1.7-1 2.7-2.9 2.7s-2.9-1-2.9-2.7v-4.7c0-.2.1-.3.3-.3h.5c.2 0 .3.1.3.3v4.8z"/>
    <path class="st1" d="M28.1 45.6c.2 0 .3.1.3.3v1.4c0 1.5-1.1 2.5-3 2.5s-3-1-3-2.7v-2.4c0-1.7 1.1-2.7 3-2.7 1.5 0 2.5.6 2.8 1.8.1.2 0 .3-.2.4l-.4.1c-.2.1-.3 0-.4-.2-.3-.8-.8-1.2-1.9-1.2-1.3 0-1.9.6-1.9 1.7V47c0 1.1.7 1.8 1.9 1.8s1.9-.6 1.9-1.6v-.7h-1.8c-.2 0-.3-.1-.3-.3v-.4c0-.2.1-.3.3-.3h2.7z"/>
    <path class="st1" d="M36.4 49.3c.1.2 0 .3-.2.3h-.4c-.3 0-.4 0-.5-.2l-.7-1.7h-3.1l-.7 1.7c-.1.2-.2.2-.5.2h-.4c-.2 0-.3-.1-.2-.3l2.8-7c.1-.2.2-.2.3-.2h.4c.2 0 .3.1.3.2l2.9 7zM33.2 44c-.1-.4-.2-.7-.2-1v.1c0 .2-.1.6-.2.8l-1.1 2.8h2.6L33.2 44z"/>
    <path class="st1" d="M41.2 42.1c1.4 0 2.3.8 2.3 2.3 0 1.1-.6 1.9-1.6 2.1.2.1.4.3.5.6l1.2 2.3c.1.2.1.3-.1.3H43c-.3 0-.5 0-.5-.2l-1-1.9c-.3-.6-.6-.8-1.4-.8H39v2.7c0 .2-.1.3-.3.3h-.5c-.2 0-.3-.1-.3-.3v-7c0-.2.1-.3.3-.3h3zm-.1 1H39v2.6h2.1c.8 0 1.3-.5 1.3-1.3 0-.9-.4-1.3-1.3-1.3"/>
    <path class="st1" d="M50.4 34.2L.5 59"/>
    <path transform="rotate(-26.463 25.438 46.607)" class="st1" d="M-2.4 46.3h55.7v.5H-2.4z"/>
    <path class="st1" d="M49.4 59.5H1.2C.5 59.5 0 59 0 58.3V34.2c0-.7.5-1.2 1.2-1.2h48.2c.7 0 1.2.5 1.2 1.2v24.2c0 .6-.5 1.1-1.2 1.1m-48.2-26c-.4 0-.7.3-.7.7v24.2c0 .4.3.7.7.7h48.2c.4 0 .7-.3.7-.7V34.2c0-.4-.3-.7-.7-.7H1.2z"/>
</svg>
