<?xml version="1.0" encoding="utf-8"?>
<!-- Generator: Adobe Illustrator 21.1.0, SVG Export Plug-In . SVG Version: 6.00 Build 0)  -->
<svg version="1.1" id="Слой_1" xmlns="http://www.w3.org/2000/svg" xmlns:xlink="http://www.w3.org/1999/xlink" x="0px" y="0px"
	 viewBox="0 0 1865.1 2180.5" style="enable-background:new 0 0 1865.1 2180.5;" xml:space="preserve">
<style type="text/css">
	.st0{clip-path:url(#SVGID_2_);fill:#FFFFFF;}
</style>
<g>
	<defs>
		<rect id="SVGID_1_" y="0" width="1865.1" height="2180.5"/>
	</defs>
	<clipPath id="SVGID_2_">
		<use xlink:href="#SVGID_1_"  style="overflow:visible;"/>
	</clipPath>
	<path class="st0" d="M1496.2,2055.2c0.2,0,0.3,0,0.5,0c-0.1-0.1-0.3-0.2-0.5-0.3C1496.2,2055,1496.2,2055.1,1496.2,2055.2"/>
	<path class="st0" d="M1390.9,2097.8c0.1,0,0.2,0.1,0.3,0.1c0,0,0,0,0-0.1C1391.2,2097.8,1391.1,2097.8,1390.9,2097.8"/>
	<path class="st0" d="M1520.5,2078.6c0.1,0,0.2,0,0.3,0.1c0,0,0.1-0.1,0.1-0.1C1520.8,2078.6,1520.7,2078.6,1520.5,2078.6"/>
	<path class="st0" d="M1501,2075.7c0.1,0,0.3,0,0.4,0l0,0C1501.2,2075.7,1501.1,2075.7,1501,2075.7"/>
	<path class="st0" d="M1340.1,2107.8c-1.3,0-3.3-0.1-4.7-0.1c-0.1,1-1.8,1.9,0.5,3.1C1337.8,2110,1337.9,2108.6,1340.1,2107.8
		C1340.1,2107.9,1340.1,2107.8,1340.1,2107.8"/>
	<path class="st0" d="M1425.3,2088.4c0.1,0,0.2,0,0.3,0.1c0-0.1-0.1-0.1-0.1-0.2C1425.4,2088.4,1425.3,2088.4,1425.3,2088.4"/>
	<path class="st0" d="M1057.5,2180.5c0.1,0,0.2,0,0.3,0c-0.1-0.1-0.2-0.1-0.3-0.2C1057.5,2180.4,1057.5,2180.5,1057.5,2180.5"/>
	<path class="st0" d="M1077,2175.4L1077,2175.4C1077,2175.4,1077,2175.4,1077,2175.4C1077,2175.4,1077,2175.4,1077,2175.4"/>
	<path class="st0" d="M1324.4,2126.5c0.1,0,0.3,0.1,0.4,0.1c0,0,0,0,0.1-0.1C1324.7,2126.5,1324.6,2126.5,1324.4,2126.5"/>
	<path class="st0" d="M1235.7,2144.1c1.6,0.7,1.8,1.4,1.8,2c0.3,0,0.5,0,0.8,0.1l4.5-1C1240.2,2145,1237.9,2144.6,1235.7,2144.1"/>
	<path class="st0" d="M1077,2175.4C1077,2175.4,1077,2175.4,1077,2175.4c0.1,0,0.1,0,0.1,0C1077.1,2175.4,1077,2175.4,1077,2175.4"
		/>
	<path class="st0" d="M1501.5,2047l-0.2-0.1C1501.4,2046.9,1501.5,2046.9,1501.5,2047C1501.5,2047,1501.5,2047,1501.5,2047"/>
	<path class="st0" d="M1686.3,2002.8c-0.4-1.5-0.9-2.9-1-4.5c0-0.1,0-0.1-0.1-0.2c-0.4-1.6-0.4-3.1-0.4-4.7
		c-0.4,1.2-0.9,1.6-1.5,1.9c0.3,1.3,0,2.2-0.3,3.1c0.1,0.1,0.1,0.1,0.2,0.2c0.4,0.9,0.7,1.9,0.8,3.2c0,0.2,0,0.5,0,0.7
		c0.1,0.3,0.2,0.6,0.3,0.9l0-0.1c0.3,0.2,0.7,0.4,1,0.6C1685.6,2003.6,1686,2003.2,1686.3,2002.8"/>
	<path class="st0" d="M1486.3,2070.2l-0.2,0c0.1,0,0.2,0.1,0.3,0.1C1486.4,2070.3,1486.4,2070.2,1486.3,2070.2"/>
	<path class="st0" d="M1672.6,2014.8l-0.1-0.5l-0.2,0.1c0,0.2,0.1,0.3,0.1,0.5C1672.5,2014.9,1672.6,2014.9,1672.6,2014.8"/>
	<path class="st0" d="M1060.7,2175.7L1060.7,2175.7C1060.6,2175.7,1060.6,2175.7,1060.7,2175.7
		C1060.7,2175.7,1060.7,2175.7,1060.7,2175.7"/>
	<path class="st0" d="M1630.2,2016.1c0,0,0.1,0,0.1,0c0-0.1-0.1-0.2-0.1-0.3C1630.2,2015.9,1630.2,2016,1630.2,2016.1"/>
	<path class="st0" d="M1529.4,2046.4L1529.4,2046.4C1529.4,2046.4,1529.4,2046.4,1529.4,2046.4
		C1529.4,2046.4,1529.4,2046.4,1529.4,2046.4"/>
	<path class="st0" d="M1529.4,2046.4C1529.4,2046.4,1529.4,2046.4,1529.4,2046.4c0.1,0,0.2,0,0.2,0
		C1529.5,2046.4,1529.4,2046.4,1529.4,2046.4"/>
	<path class="st0" d="M1631.1,2008.7C1631.1,2008.7,1631.1,2008.7,1631.1,2008.7L1631.1,2008.7
		C1631.1,2008.7,1631.1,2008.7,1631.1,2008.7"/>
	<path class="st0" d="M1683.9,2003.3c0.1,0.1,0.3,0.1,0.4,0.2C1684.2,2003.4,1684,2003.3,1683.9,2003.3
		C1683.9,2003.3,1683.9,2003.3,1683.9,2003.3"/>
	<path class="st0" d="M1631,2008.4c0,0.1,0,0.2,0,0.3c0.1,0,0.1,0.1,0.2,0.1C1631.2,2008.7,1631.1,2008.6,1631,2008.4"/>
	<path class="st0" d="M1795.7,702.4c0.1-0.1,0.2-0.2,0.3-0.3c0,0,0-0.1,0-0.1C1795.9,702.1,1795.8,702.3,1795.7,702.4"/>
	<path class="st0" d="M1820.1,597.2c0,0.1,0,0.1,0,0.2c0.1-0.1,0.1-0.1,0.2-0.2C1820.2,597.2,1820.2,597.2,1820.1,597.2"/>
	<path class="st0" d="M1843,487.4L1843,487.4L1843,487.4C1843,487.5,1843,487.4,1843,487.4"/>
	<path class="st0" d="M1699,935.3L1699,935.3C1699,935.3,1699,935.3,1699,935.3C1699,935.3,1699,935.3,1699,935.3"/>
	<path class="st0" d="M1842.9,487.5C1843,487.5,1843,487.5,1842.9,487.5c0.1-0.1,0.1-0.1,0.2-0.2
		C1843,487.4,1843,487.4,1842.9,487.5"/>
	<path class="st0" d="M1788.9,678.9c-0.7,1.1-1.9,2.7-2.7,3.9c0.8,0.6,0.6,2.5,2.8,1.3C1789.5,682.1,1788.3,681.2,1788.9,678.9
		C1788.9,679,1788.9,679,1788.9,678.9"/>
	<path class="st0" d="M1698.9,935.3C1699,935.3,1699,935.3,1698.9,935.3C1699,935.3,1699,935.2,1698.9,935.3
		C1699,935.2,1699,935.3,1698.9,935.3"/>
	<path class="st0" d="M1764.3,785l1.7-4.3c-1.6,2.1-3.2,3.8-4.8,5.3c1.5-0.9,2.1-0.7,2.7-0.4C1764,785.4,1764.1,785.2,1764.3,785"/>
	<path class="st0" d="M1808.8,631.1c0.1-0.1,0.2-0.1,0.2-0.2c0,0,0,0,0-0.1C1809,631,1808.9,631,1808.8,631.1"/>
	<path class="st0" d="M1692.6,954.1c-0.1,0-0.2,0.1-0.3,0.1c0.1,0,0.1,0.1,0.2,0.1L1692.6,954.1z"/>
	<path class="st0" d="M1832.1,519.5c-0.2,0-0.4,0.1-0.5,0.2c0.1,0.1,0.2,0.1,0.3,0.2C1831.9,519.8,1832,519.7,1832.1,519.5"/>
	<path class="st0" d="M1690.2,949.1L1690.2,949.1C1690.1,949.1,1690.2,949.1,1690.2,949.1L1690.2,949.1z"/>
	<path class="st0" d="M1851.5,527.3c0.1-0.1,0.2-0.2,0.3-0.3c0,0,0,0,0,0C1851.7,527.1,1851.6,527.2,1851.5,527.3"/>
	<path class="st0" d="M1864.8,512.7c0.1-0.1,0.2-0.2,0.2-0.2c0,0,0-0.1,0-0.1C1865,512.5,1864.9,512.6,1864.8,512.7"/>
	<path class="st0" d="M1828,510.9l-0.1,0.1C1827.9,511,1827.9,511,1828,510.9C1828,510.9,1828,510.9,1828,510.9"/>
	<path class="st0" d="M1838.8,536.5l-0.1,0.2c0.1-0.1,0.2-0.1,0.3-0.2C1839,536.5,1838.9,536.5,1838.8,536.5"/>
	<path class="st0" d="M1045.9,1604.9l726,145.6c-0.3-1-0.8-1.6-1.7-0.9c0.1-0.8,0.3-1.7,0.4-2.6c1.2-2.7,2.4-5.4,3.6-8.1
		c0,0,0,0,0,0c-0.4,3.3-1,8.1,0.8,5.1c1.4-2.3,0.7-4.5,1.1-6.9c-0.6-2.4-2.1-1.5-3.5-1.2c0,0,0,0,0,0c-0.1-0.6-0.2-1.3-0.4-1.9
		c0.3-1.8,0.6-3.7,0.9-5.5c0.5-1.2,0.9-2.4,1.4-3.6c3.3-5.6,0.6-5.3,1.5-8.5c0.8-1.3,1.7-0.3,2.3-4.1c0.5-3-0.6-1.9-1.4-1.4
		c-0.6-8.1-3.9,5.2-5.8,7.9l-0.1,0.2c0,0,0,0,0,0c0-0.1,0.1-0.1,0.1-0.2c1.1-6.4,2.2-12.9,3.3-19.4c0.2-0.9,0.3-1.8,0.5-2.7
		c0.3,1.4,0.7,2.8,1,4.1c0.4-1.2,0.9-2.5,1.1-3.5c1.1-6-0.2-4.7-1.6-3.5c-0.4-3.2-2-2.7-3.1-4c-0.5,1.6-0.9,3.2-1.4,4.8
		c-0.3,0.6-0.7,1.3-1,2.1c-0.2,0.2-0.5,0.4-0.7,0.6c0-0.1,0-0.1,0-0.2c0.6-3.5,0.3-5.2-0.1-6.6c-1.3-1.1-1.2-7.1-3.9-3.2
		c0,0,0,0,0,0c-0.1-0.7-0.3-1.3-0.4-1.9c-0.7-0.2-1-1.4-0.9-3.8c-0.4,0.4-0.9,0.9-1.3,1.3c0-0.2-0.1-0.4-0.1-0.6
		c-0.2-0.5-0.4-0.8-0.7-0.8c-0.3,0.3-0.6,0.6-0.9,0.9c0.4-6.1-1.9-0.4-3.2,0.9c-0.7,1.4-1.4,2.7-2.2,4l0,0.3c-0.1,0-0.1,0.1-0.2,0.2
		c0.1-0.1,0.1-0.3,0.2-0.4c0.3-4.7,6.3-17.1,2-15.5c0.3,3.1-1.2,5.9-2.3,8.9c-0.5,0.5-1.1,1.1-1.6,1.7c0.2-2.2,0.2-3.7-0.3-3.9
		c-0.3-0.5-0.6-0.8-0.9-1.4c4.5-14.3,9.2-25.9,13.6-34.9c0.1-0.3,0.3-0.5,0.4-0.8c-0.1,0-0.3,0-0.5,0.1c0-1.5,0-3.1,0-4.6
		c0.5-4.8,2.2-8.8,3.7-12.8c0.8-0.1-0.1,6.2,2.3,0.1c2.3-6,2.5-2.4,3.1-0.6c-0.1,1.9,0,2.8,0.3,3.1c0.7-0.8,1.3-1.5,1.9-2.2
		c0.2-0.5,0.5-1,0.8-1.6c1.7-2,3.9-6.5,3.7-10.1c-0.2-3.4-2.7-0.4-4.9,4.4c-1.6,1.9-1.7-1.7-2.6-2.2c0.7-3.1,1.4-6.2,2.2-9.8
		c-5.8,11.8-6.7,10.6-5.3-4.8c0.4-3.9-0.5-4.9-1.9-3.6c0.4-2.3,0.6-4.2,0.1-4.7c0.4-2.2,0.6-4.1,0.1-4.7c0.2-2.5-1.5-1.6-0.1-6.2
		c3.7-11.5,2.2-13.3,0.8-15.3c0-1.6,0-3.2,0-4.7c0.9-4.3,1-7.3,1-10.2c2.2-4.3,2.8-1.8,4-1.5c-0.3,2.5-1.5,6.9-0.4,6
		c1.1-0.9,1.2-3.4,1.1-4.7c-0.1-0.7-0.4-1-0.6-1.5c1.1-7.9-0.7-7.1-2.5-6.6c0.7-7.5-0.3-11.1-1.1-15.2c-0.7-1.7-1.4-3.4-2.1-5
		c-0.1-2.1-0.3-4.2-0.4-6.3c0.8-6.1,0.4-9.2-1.6-7.7c0.4-4.9,1.7-11.6-0.2-11.5c-1.3-2.5,0.4-13.1-2.4-11.8
		c-0.1-0.6-0.3-1.1-0.4-1.6c-0.2-2.1-0.4-4.2-0.6-6.3c-0.4-2-0.8-4-1.2-5.9c0-1.5,0-3,0-4.5c1.6-5.3,1.8-8.5,1.1-10.3
		c0-4.4-1.9-4.3-1.2-10.4c-2.6-0.4-1.7-12.8-6.5-5.4c-0.3,0.4-0.7,0.8-1,1.2c-1.1-2.1-1.1-7.5-3.3-6.2l13.3-257.8
		c0.6-1.3,1.1-2.9,1.4-5.4c0-1.8,0-3.6,0-5.5c0.3-0.8,0.6-1.7,0.9-2.4c4-9.1,4.3-10.4,2.6-14.6c0.8-1.6,1.5-3.3,2.3-4.9
		c0.8-1.3,1.6-2.8,2.4-5.2c3.3-7.3,5.2-15.9,4.5-20.6c-0.2,0.1-0.3,0.2-0.5,0.4c0.3-2.8,0.5-5.2-0.8-3.9c-0.4-0.7-0.7-1.4-1.1-2
		c-0.3-1.4-0.6-2.7-0.9-4.1c0.5-1.9,1-3.7,1.6-5.5c0-0.1,0-0.1,0-0.2c0,0.1,0,0.1,0,0.2c0.3-2.2,0.6-4.3,0.9-6.5
		c0.2-1.3,0.3-2.3-0.3-0.9c-0.2,0.5-0.4,1.7-0.7,2.5c-0.2,0.2-0.4,0.3-0.5,0.4c-0.1-0.2-0.3-0.5-0.4-0.7c0.2-1.8-0.4-1.1-0.8-1
		c-0.6-0.5-1.2-1-1.8-1.5c0-1.6-0.4-2.1-1-2.1c-0.4-3.8-1.9-3.7-3.3-4.1l0.3-6.1c0.4-1.5,0.7-3.6,1.1-4.7c0.6-1.7,0.6-2.6,0.5-3.1
		c0.1-1.3,0.2-2.7,0.4-4c0.5-2.9,0.2-3.3-0.4-2.9c0.3-1.3,0.7-2.2,1.2-2.7c0.2,0.7,0.4,1.4,0.6,2.2c0,1.8,0.7,0.5,1.2,0.1
		c0,0,0,0,0,0c0.6-0.6,1.2-0.8,1.9-3.2c0.2-0.1,0.3-0.2,0.5-0.3c0.1,1.9,1-0.7,1.6-1.7c-0.5,3-0.4,5.2-0.3,6.9
		c0.2,2.1,0.9,0.8,1.7-2.9c0.2-0.2,0.4-0.4,0.5-0.5c-1.3,6-1,8.6,0.1,9.4c0.2,1-0.7,4.5,0.2,3.9c-0.3,3.9-0.6,7.9,2.1,0.7
		c1.3-2.9,2.2-6.2,3-9.7c0.6-2,1.3-3.9,1.9-5.9c0.9-1.8,1.7-3.7,1-4.6c-0.2-0.3-0.5-1.1-1,0.5c-1,3.2,0.1,2.6,0,4.1
		c-1,1.1-1.8,3.2-2.4,6.4c-0.7,1.5-1.4,4.2-2.1,4.8c-0.4-0.2-0.1,0-0.5-0.2c0.8-3.3,2.2-7.1,1.6-9c0.4-3.2,1.2-6.3,2.5-9.2l0,0
		c2.5-4.2,0.6-4.2,1.1-6.5c0-1.1-0.3-1-0.8-0.6c-0.2-2.7-0.3-5.9-1.7-5.1c0.3-3.7-0.5-4.2-1.5-3.9c0.1-0.6,0.2-1.1,0.3-1.6
		c0.2-1.3,0.3-2.5,0-2.7c-0.9-0.5-0.6-4.7-2-3.6c0.1-0.5,0.2-1,0.3-1.5c0.7-1.6,1.4-3.2,2.1-4.7c0,0,0,0,0,0c-0.2,2-0.6,4.7,0.5,3
		c0.8-1.3,0.4-2.7,0.6-4c-0.4-1.4-1.3-0.9-2.1-0.7c0,0,0,0,0,0c-0.1-0.4-0.1-0.7-0.2-1.1c0.2-1.1,0.3-2.1,0.5-3.2
		c0.3-0.7,0.5-1.4,0.8-2.1c2-3.3,0.4-3.1,0.9-5c0.5-0.8,1-0.2,1.4-2.4c0.3-1.8-0.4-1.1-0.8-0.8c-0.3-4.7-2.3,3-3.4,4.6l-0.1,0.1
		c0,0,0,0,0,0c0,0,0-0.1,0.1-0.1c0.6-3.8,1.3-7.6,1.9-11.4c0.1-0.5,0.2-1,0.3-1.6c0.2,0.8,0.4,1.6,0.6,2.4c0.2-0.7,0.5-1.5,0.6-2.1
		c0.7-3.5-0.1-2.8-0.9-2c-0.3-1.9-1.2-1.6-1.8-2.3c-0.3,0.9-0.5,1.9-0.8,2.8c-0.2,0.3-0.4,0.8-0.6,1.2c-0.1,0.1-0.3,0.2-0.4,0.4
		c0,0,0-0.1,0-0.1c0.3-2.1,0.2-3-0.1-3.9c-0.8-0.6-0.7-4.2-2.3-1.9c0,0,0,0,0,0c-0.1-0.4-0.2-0.7-0.2-1.1c-0.4-0.1-0.6-0.8-0.5-2.2
		c-0.3,0.3-0.5,0.5-0.8,0.7c0-0.1-0.1-0.2-0.1-0.4c-0.1-0.3-0.2-0.5-0.4-0.5c-0.2,0.2-0.4,0.3-0.5,0.5c0.2-3.6-1.1-0.2-1.9,0.5
		c-0.2,0.3-0.4,0.7-0.6,1l0.1-2.1c0.9-3,2.1-6.3,0.3-5.7c0.1,0.6,0,1.1-0.1,1.7l0.4-8.2c1.6-4.2,3.2-7.8,4.7-10.9
		c0.1-0.2,0.2-0.3,0.2-0.5c-0.1,0-0.2,0-0.3,0c0-0.9,0-1.8,0-2.7c0.3-2.8,1.3-5.1,2.2-7.5c0.5-0.1-0.1,3.6,1.3,0.1
		c1.4-3.5,1.5-1.4,1.8-0.3c-0.1,1.1,0,1.7,0.2,1.8c0.4-0.5,0.8-0.9,1.1-1.3c0.1-0.3,0.3-0.6,0.5-0.9c1-1.2,2.3-3.8,2.2-5.9
		c-0.1-2-1.6-0.2-2.9,2.6c-1,1.1-1-1-1.5-1.3c0.4-1.8,0.8-3.6,1.3-5.7c-3.4,6.9-3.9,6.2-3.1-2.8c0.2-2.3-0.3-2.9-1.1-2.1
		c0.2-1.3,0.3-2.5,0-2.8c0.2-1.3,0.3-2.4,0-2.7c0.1-1.5-0.9-0.9,0-3.6c2.1-6.7,1.3-7.8,0.5-9c0-0.2,0-0.3,0-0.4
		c0.7-1.4,1.4-3,2.1-4.9c2.2-2.4,4.3-5.6,5.5-13.8c0-3.1,0-6.2,0-9.3c0.5-1.4,1-2.9,1.5-4c6.9-15.5,7.3-17.8,4.5-24.9
		c1.3-2.8,2.6-5.6,3.9-8.4c1.4-2.2,2.8-4.7,4-8.9c5.6-12.4,8.8-27.1,7.7-35.2c-0.3,0.2-0.6,0.3-0.8,0.6c0.5-4.8,0.8-8.8-1.3-6.6
		c-0.6-1.2-1.3-2.3-1.9-3.5c-0.5-2.3-1-4.7-1.5-7c0.9-3.2,1.8-6.3,2.7-9.5c0-0.1,0-0.2,0-0.3c0,0.1,0,0.2,0,0.3
		c0.5-3.7,1-7.4,1.5-11.1c0.3-2.2,0.5-3.9-0.6-1.5c-0.4,0.9-0.8,2.9-1.1,4.3c-0.3,0.3-0.6,0.5-0.9,0.7c-0.2-0.4-0.5-0.8-0.7-1.2
		c0.3-3.1-0.7-1.8-1.4-1.8c-1-0.8-2-1.7-3-2.5c-0.1-2.7-0.7-3.7-1.6-3.6c-0.7-7-3.8-6.2-6.3-7.3c-0.7-0.6-1.4-1.3-2.1-1.9
		c-0.2-2.2-0.4-4.3-0.5-6.4c0.7-0.1,0.5-0.1,1.1-0.2c0.1,0.3,0.3,0.5,0.5,0.6c2.1,2.1,2.8-7.1,4-10.3c1.1-3,1.1-4.4,0.8-5.3
		c0.2-2.3,0.3-4.7,0.7-6.8c0.9-5,0.3-5.6-0.6-5c0.6-2.1,1.3-3.7,2.1-4.6c0.3,1.2,0.6,2.4,1,3.7c-0.1,3.1,1.2,0.9,2.1,0.2
		c0,0,0,0,0,0c1-0.9,2-1.4,3.3-5.5c0.3-0.2,0.5-0.3,0.8-0.5c0.2,3.2,1.7-1.3,2.7-2.8c-0.8,5.1-0.8,8.8-0.5,11.7
		c0.4,3.6,1.6,1.4,3-4.9c0.3-0.3,0.6-0.6,0.9-0.9c-2.3,10.3-1.8,14.7,0.2,16c0.4,1.7-1.2,7.6,0.3,6.6c-0.5,6.7-1.1,13.5,3.5,1.2
		c2.2-4.9,3.7-10.6,5.1-16.5c1.1-3.4,2.2-6.7,3.2-10.1c1.5-3.1,2.8-6.3,1.7-7.9c-0.4-0.5-0.8-2-1.7,0.9c-1.6,5.4,0.1,4.4,0,7
		c-1.7,1.9-3.1,5.5-4.1,10.9c-1.2,2.6-2.3,7.3-3.7,8.2c-0.1-0.6-0.3-1.2-0.4-1.9c1.4-5.2,3.3-10.9,2.4-13.9
		c0.7-5.5,2.1-10.7,4.2-15.6l0,0c4.2-7.2,1.1-7.2,1.9-11.1c0-1.8-0.6-1.7-1.3-1c-0.4-4.5-0.5-10-3-8.7c0.5-6.3-0.8-7.1-2.6-6.7
		c0.2-0.9,0.3-1.9,0.5-2.8c0.4-2.3,0.6-4.2,0-4.6c-1.5-0.9-1-8-3.3-6.2c0.1-0.8,0.3-1.7,0.4-2.6c1.2-2.7,2.4-5.4,3.6-8.1h0
		c-0.4,3.3-1,8.1,0.8,5.1c1.4-2.3,0.7-4.5,1.1-6.9c-0.6-2.4-2.1-1.5-3.5-1.2c0,0,0,0,0,0c-0.1-0.6-0.2-1.3-0.4-1.9
		c0.3-1.8,0.6-3.7,0.9-5.5c0.5-1.2,0.9-2.4,1.4-3.6c3.3-5.6,0.6-5.3,1.5-8.5c0.8-1.3,1.7-0.3,2.3-4.1c0.5-3-0.6-1.9-1.4-1.4
		c-0.6-8.1-3.9,5.2-5.8,7.9l-0.1,0.2c0,0,0,0,0,0c0-0.1,0.1-0.1,0.1-0.2c1.1-6.4,2.2-12.9,3.3-19.4c0.2-0.9,0.3-1.8,0.5-2.7
		c0.3,1.4,0.7,2.8,1,4.1c0.4-1.2,0.9-2.5,1.1-3.5c1.1-6-0.2-4.7-1.6-3.5c-0.4-3.2-2-2.7-3.1-4c-0.5,1.6-0.9,3.2-1.4,4.8
		c-0.3,0.6-0.7,1.3-1,2.1c-0.2,0.2-0.5,0.4-0.7,0.6c0-0.1,0-0.1,0-0.2c0.6-3.5,0.3-5.2-0.1-6.6c-1.3-1.1-1.2-7.1-3.9-3.2
		c0,0,0,0,0,0c-0.1-0.7-0.3-1.3-0.4-1.9c-0.7-0.2-1-1.4-0.9-3.8c-0.4,0.4-0.9,0.9-1.3,1.3c0-0.2-0.1-0.4-0.1-0.6
		c-0.2-0.5-0.4-0.8-0.7-0.8c-0.3,0.3-0.6,0.6-0.9,0.9c0.4-6.1-1.9-0.4-3.2,0.9c-0.7,1.4-1.4,2.7-2.2,4l0,0.3c-0.1,0-0.1,0.1-0.2,0.2
		c0.1-0.1,0.1-0.3,0.2-0.4c0.3-4.7,6.3-17.1,2-15.5c0.3,3.1-1.2,5.9-2.3,8.9c-0.5,0.5-1.1,1.1-1.6,1.7c0.2-2.2,0.2-3.7-0.3-3.9
		c-0.3-0.5-0.6-0.8-0.9-1.4c4.5-14.3,9.2-25.9,13.6-34.9c0.1-0.3,0.3-0.5,0.4-0.8c-0.1,0-0.3,0-0.5,0.1c0-1.5,0-3.1,0-4.6
		c0.5-4.8,2.2-8.8,3.7-12.8c0.8-0.1-0.1,6.2,2.3,0.1c2.3-6,2.6-2.4,3.1-0.6c-0.1,1.9,0,2.8,0.3,3.1c0.7-0.8,1.3-1.5,1.9-2.2
		c0.2-0.5,0.5-1,0.8-1.6c1.7-2,3.9-6.5,3.7-10.1c-0.2-3.4-2.7-0.4-4.9,4.4c-1.6,1.9-1.7-1.7-2.6-2.2c0.7-3,1.3-6,2.1-9.5
		c0,0-0.1,0-0.1,0c0,0,0,0,0,0c-4.9,9.9-6.2,10.2-5.5,0.1c-1.5-0.3-3.1-0.5-4.7-0.7l-4.9,2c0.4,0,0.7-0.2,1-0.4
		c1.2,1.6-1.3,1.4-3.5,1.4l-1.3,0.5c0.3,0.1,0.6,0.2,0.9,0.3c0.8,0.6,3.4,0.9,1.2,1.8c0.2,0.1,0.4,0.3,0.5,0.4
		c0.1,0.2,0,0.4-0.1,0.6c-0.1,0.1-0.1,0.1-0.2,0.2c0.3,0.2,0.5,0.4,0.8,0.6c-0.8,0.3-1.2,0.7-1.1,1.2c-0.2,0.2-0.4,0.4-0.5,0.6
		c0,0,0,0,0,0c2.1,1,0,2,0,2.9c-0.4,0.5-0.9,1-2.2,1.2c0,0-0.1,0-0.1,0c0.1,0.1,0.3,0.2,0.4,0.3c0.4,0.1,0.7,0.1,1,0.2
		c0.7,0,1.3,0,2,0c-0.2,0.9,0.5,1.7-0.5,2.6c0.8,0.6,1.6,1.2-0.8,1.6c-0.4,0.1-1,0-1.5,0c0.4-0.4,0.8-0.9,1.1-1.3
		c-0.4,0.1-0.7,0.1-1,0.2c-2.5,0.5-5,1-7.5,1.4c1.4,0.7,6.8,0.3,4.3,2.1c0.4,0.4,1,0.9-0.1,1.1c-1.5,0.3-1.4-0.4-2-0.7
		c-1.3,0.1-0.5,1.7-3.3,0.6c-0.5-0.1-1.1-0.1-1.6-0.2c-0.7,0.1-1.4,0.3-2.1,0.4c-0.2,0.2-0.4,0.4-0.5,0.6c0,0,0,0,0,0
		c0.5,0.8,1.2,1.5,0.6,2.3c-0.9,0.2-1.5,1-2.6,0.6c-1.5-0.6,0.3-1,1.5-1.4c0,0,0,0,0,0c-1.2-0.2-2.5-0.5-3.7-0.7
		c-0.4,0.1-0.7,0.1-1,0.2c1.3,1.1-1.3,2.1-1.2,3.1c0,0.4-0.7,0.6-1.6,0.8c-0.4,0.1-0.7,0.1-1.1,0.2c0.6,1,0.7,2-1.6,2.7
		c1.1,1.3-0.7,2.3-2.2,3.3c0.4,0.3,0.6,0.6,0,1c-1.6,0.2-0.7,2.1-4.3,0.8l0,0c-2.2-0.4-4.4-0.3-6.5,0.2c-0.8,1.2-3.7,0.9-6,1
		c0.1,0.5,0,0.1,0.1,0.6c0.7,0.6,2.5,0.5,3.7,0.8c2.1-0.4,3.7-0.2,4.8,0.6c0.9-0.4,0.1-1.3,2.4-1.3c1.2,0,0.9,0.6,0.8,0.9
		c-0.2,1-1.7,0.8-3.2,0.4c-1.4-0.1-2.9-0.1-4.3-0.2c-2.4,0.2-4.7,0.3-7-0.2c-5.4-0.6-3-1.5-0.5-2.3c-0.8-0.8,1.7-0.9,2.2-1.4
		c-0.1-1.4,1.2-2.5,5.4-3c-0.2-0.1-0.4-0.3-0.6-0.4c-2.5,0.3-3.6-0.1-2.5-0.9c0.9-0.7,2.2-1.4,4.1-1.8c-0.8-0.3-2.7-0.5-1.7-1.2
		c-0.1-0.1-0.2-0.3-0.4-0.4c-1.7,0-2.2-0.6-2.8-1c0,0,0,0,0,0c-0.5-0.4-1.5-0.8-0.5-1.3c0.3-0.4,0.7-0.8,1-1.2
		c-0.5-0.4-1.2-0.5-2.1-0.5c0.4,0.5,0.4,0.9-1.5,1.3c-0.8,0.1-1.7,0.5-2.5,0.8c-0.2,0.4-0.7,0.6-2,0.5c-0.8-0.1-2.2,0.3-3.2,0.3
		l-3.7,1.5c0.4,1.6,1.1,3.1-0.9,4.7c0.3,0.6,0.1,1.1-0.8,1.6c0,0.8,0,1.5,0,2.3c0.2,0.4,0.9,0.8-0.2,1.2c-0.1,0.2-0.1,0.4-0.2,0.7
		c0.1,0.1,0.3,0.3,0.5,0.4c0.6,0,1.4-0.2,1.8-0.1c1.1,0.2,0.5,0.4-0.4,0.6c-1.4,0.3-2.8,0.7-4.2,1c0,0,0.1,0,0.1,0c0,0-0.1,0-0.1,0
		c-1.3,0-2.6,0-3.9,0.1c-0.7,0.7-1.3,1.4-2,2.1c-0.2,0.6-0.5,1.2-0.7,1.8c1.3,0.9-0.1,1.5-1.9,2c0.2,0.1,0.3,0.3,0.4,0.4
		c-2.5,2.1-8.3,2.8-14.1,1.6c-1.8,0-3-0.4-4.1-0.9c-1.3-0.3-2.6-0.6-3.9-0.9c-1.7,3-2.6,3.1-9.7,1.7c-0.5-0.1-1.2-0.1-1.8-0.2
		c-1.1,0.6-2.1,1.1-3.2,1.7c-1.6,0.4-2.8,0.4-3.8,0.1l-57,23.5c0.1,0.3-0.2,0.6-0.1,0.8c2.1,1.7-3.1,3.4-4.8,5.1
		c0.5,0.2,1,0.4,1.5,0.5c8.5,2.3-3.5,5.3-3.1,7.9c-6,1.3-5.3,3-9.5,4.4c-1.4,1.3-4.6,2.1-10.1,2.2c-1.4,0.5-2.8,0.9-4.3,1.4
		c-1.7,1-3.5,2-5.3,3c-1.9,0.8-3.8,1.7-5.8,2.5c-0.4,0.3-0.9,0.6-1.4,0.9c2.1,2.2-8.5,3.9-10.5,6c0.7,1.8-6,2.7-10.8,3.8
		c2.1,1.5-0.8,2.8-6.8,4c-1.9,0.8-3.9,1.6-5.9,2.4c-1.4,1.2-2.8,2.4-4.1,3.6c-3.6,2-6.7,4.1-14.1,5.8c1,1.5,2.3,3.1-5.5,4.5
		c-0.4,0.4-0.5,0.7-1.2,1.1c-1.1,0.5-3.3,1.2-4.6,0.6c-1.1,0.7-2.8,1.1-5.5,1c-0.9,0.5-1.7,0.9-2.6,1.4c-1,1-1.9,2-2.9,3
		c-1.1,0.8-2.2,1.7-3.4,2.5c-0.2,0.3-0.5,0.6-0.7,0.9c2.1,2.5-4.9,3.9-5.7,6c0.9,2-3.5,2.7-6.6,3.7c1.8,1.7,0.2,3-3.7,4
		c-1.1,0.8-2.3,1.6-3.5,2.4c-0.7,1.2-1.3,2.5-1.9,3.7c-2,2.1-3.6,4.2-8.3,5.7c1.1,1.7,2.4,3.4-2.7,4.6c-0.2,0.4-0.2,0.8-0.6,1.1
		c-0.7,0.6-2.2,1.2-3.2,0.3c-1-0.9,2.1-1,3.7-1.4c-0.4-1.3,0.7-2.7-2.7-3.6c-1.7,0.8-3.5,1.7-6.4,2c-0.9,0.5-1.8,0.9-2.8,1.4
		c-0.5,2.1-0.9,4.1-9.3,3.8c-3.3-0.1-2,1.4-3.6,1.9c-0.1,0.7-1.3,1.1-2.7,1.3c-0.1,0.7-1.3,1.1-2.8,1.4c1.4,1.1,1.2,2.3-1.2,3.1
		c-9.6,3.2-9.8,4.5-0.3,6.9c-2.4,0.3-4.6,0.5-6.7,0.7c0.1,1.1-2,2.2-0.1,3.3c3.8,0.9,6.7,2.5,4.8,3.8c-2,1.3-5.6,0.3-7.6-0.8
		c-0.5-0.1-0.9-0.2-1.3-0.3c-0.7-0.5-1.4-0.9-2.2-1.3c0-0.4,0.5-0.8,1.7-1.2c0.8-1.1,2.8-2.4-1.8-3c-4.6-0.6-0.6-1.6-1-2.4
		c-3-0.3-6.1-0.9-9.2,0c-0.9,0.5-1.8,0.9-2.7,1.4c0.2,0.2,0.2,0.3,0.3,0.4c-0.2-0.1-0.4-0.1-0.6-0.2c-7.3-1.9-16.2-3.2-26.6-3.6
		c-0.1,0.5-0.2,0.9-0.4,1.4c0.1,0.6-0.8,1.1-2.1,1.5c0.6,0.4,1.2,0.8,1.7,1.2c2.2,0.2,4.5,0.9,6.2-0.3c2.9,4-7.1,1.6-9.9,2.7
		c1.1,0.3,2.2,0.7,3.3,1c1.4,0.9,5.7,1.6,2,3c0.3,0.2,0.6,0.4,0.9,0.7c0.1,0.3,0.1,0.7-0.2,1c-0.1,0.1-0.2,0.2-0.3,0.3
		c0.5,0.3,0.9,0.7,1.4,1c-1.4,0.6-2,1.3-1.8,2c-0.3,0.3-0.6,0.7-0.9,1c0,0,0,0,0,0c3.5,1.7,0,3.3,0,5c-0.7,0.8-1.5,1.7-3.8,2.1
		c0,0-0.1,0-0.1,0c0.2,0.2,0.5,0.4,0.7,0.5c0.6,0.1,1.2,0.2,1.7,0.4c1.1,0,2.3,0,3.4,0c-0.3,1.5,0.8,2.9-0.9,4.4
		c1.3,1,2.7,2-1.3,2.7c-0.7,0.1-1.7,0-2.5,0c0.6-0.8,1.3-1.5,1.9-2.3c-0.6,0.1-1.2,0.2-1.8,0.3c-4.3,0.8-8.5,1.6-12.8,2.4
		c2.4,1.2,11.7,0.6,7.3,3.6c0.6,0.6,1.8,1.5-0.2,1.9c-2.5,0.4-2.3-0.7-3.5-1.2c-2.2,0.1-0.8,2.8-5.6,1.1c-0.9-0.1-1.8-0.2-2.7-0.3
		c-1.2,0.2-2.4,0.5-3.6,0.8c-0.3,0.3-0.6,0.6-0.9,0.9c0,0,0,0,0,0c0.8,1.3,2.1,2.6,0.9,4c-1.5,0.4-2.5,1.7-4.5,1
		c-2.6-1,0.5-1.7,2.6-2.3c0,0,0,0,0,0c-2.1-0.4-4.2-0.8-6.4-1.2c-0.6,0.1-1.2,0.2-1.7,0.3c2.1,1.9-2.3,3.5-2.1,5.3
		c0.1,0.7-1.2,1.1-2.7,1.4c-0.6,0.1-1.2,0.2-1.9,0.4c1,1.7,1.2,3.3-2.7,4.7c1.9,2.2-1.3,3.9-3.7,5.7c0.7,0.5,1.1,1.1,0,1.7
		c-2.7,0.3-1.2,3.6-7.3,1.4l0,0c-3.8-0.6-7.5-0.6-11,0.4c-1.3,1.8-5.5,1.6-9.2,1.7c-0.3,0.3-0.6,0.7-0.9,1c1.1,1.1,4.3,0.8,6.4,1.3
		c3.6-0.6,6.3-0.3,8.2,1c1.6-0.7,0.2-2.2,4.1-2.1c2.1,0,1.5,1,1.3,1.5c-0.4,1.7-2.8,1.3-5.4,0.6c-2.5-0.1-4.9-0.2-7.3-0.3
		c-4.1,0.3-8.1,0.5-11.9-0.3c-9.2-1-5-2.5-0.9-4c-1.3-1.3,2.9-1.5,3.7-2.4c-0.2-2.5,2.1-4.3,9.2-5.1c-0.3-0.2-0.6-0.5-1-0.7
		c-4.3,0.5-6.1-0.1-4.2-1.6c1.5-1.2,3.7-2.3,7-3.1c-1.4-0.6-4.7-0.8-2.9-2c-0.2-0.2-0.4-0.5-0.6-0.7c-3-0.1-3.7-1-4.7-1.7
		c0,0,0,0,0,0c-0.8-0.7-2.6-1.4-0.8-2.2c0.6-0.7,1.1-1.4,1.7-2.1c-0.9-0.6-2.1-0.9-3.6-0.8c0.8,0.8,0.7,1.6-2.6,2.2
		c-1.4,0.2-2.9,0.9-4.3,1.3c-0.4,0.6-1.2,1-3.4,0.8c-2.4-0.3-8.1,1.8-7.8-1c-0.1-0.2,0-0.5,0.1-0.7c-0.4-0.6-0.3-0.5-0.6-1.1
		c-1.1,0.8-2.3,1.7-3.5,2.5c0,0.9-0.1,1.8-0.1,2.7c0.5,2.9,2.4,5.8-1.3,8.7c0.5,1,0.2,1.9-1.4,2.8c0,1.3-0.1,2.6-0.1,3.9
		c0.4,0.7,1.5,1.3-0.4,2c-0.1,0.4-0.2,0.7-0.3,1.1c0.2,0.2,0.5,0.5,0.8,0.7c1-0.1,2.3-0.3,3-0.2c1.9,0.4,0.8,0.7-0.6,1
		c-2.4,0.6-4.8,1.2-7.2,1.8c0.1,0,0.1-0.1,0.2-0.1c-0.1,0-0.1,0.1-0.2,0.1c-2.2,0-4.5,0.1-6.7,0.1c-1.1,1.2-2.3,2.4-3.4,3.6
		c-0.4,1-0.8,2-1.2,3c2.2,1.5-0.2,2.5-3.2,3.4c0.3,0.2,0.5,0.4,0.8,0.7c-1,0.8-2.2,1.5-3.8,2.1c-1.1,2.9-2.1,5.9-3.2,8.8
		c-1,2.8-2.1,5.7-3.1,8.5c-1.5,0.6-1.7,4.6-3.8,4.4c0.1-2.6,1.3-3,0.4-6.3c-0.3-0.1-0.7-0.1-1-0.2c-0.2,2.3-0.8,3.8-1.8,4.7
		c-1,0.1-1.8,1.1-3.2-1.8c-1.3,0-1.6-2.7-2.2-4.5c-0.2-0.4-0.4-0.9-0.7-1.3c-0.8,0-1.7-0.1-2.5-0.1c-0.8,0.9-1.6,2.1-3,1
		c-0.1,0.3-0.3,0.3-0.5,0.1c-0.5,1.2-0.9,2.4-1.4,3.6c-0.2,0.6-0.4,1.2-0.6,1.8c-1.1,0.9-2.4,0.2-3.9-2.9c-0.4-0.2-0.7-0.3-1.1-0.5
		c-1.6,2.4-4.2,2.1-6.3,2.8c-1.2,0.4-2.5,1.2-4.4-1.8c-1.3-6.4-2.9-2.5-4.3-5.4c-0.2,0.1-0.3,0.3-0.5,0.6c-1.3,0.8-2.5,2-4.7-1.2
		c-0.2,0.2-0.3,0.4-0.4,0.7c0.4,1.1,1.4,2.7,0.5,3c-0.7,0.2-1.4-0.4-2-1.9c-0.2,0.1-0.5,0-0.9-0.3c-0.4,0.9-0.8,1.8-1.1,2.7
		c0.2,0.8,0.3,1.7,0.4,2.5c0.6,0.7,1.2,1.4,1.8,2.1c-0.1,1.4-0.2,2.8-0.3,4.3c2.3,8.1-0.5,5.9-2.1,6.1c-1.3-0.5-2,1.3-3.7-0.9
		c-0.6,0.2-1.3,0.4-1.9,0.7c0.9,1.3,1.8,2.6,2.7,3.9l0,0c0.6,0,1.3-0.5,2,2.1c0.5,2-0.4,1.5-0.8,1.9c-1.2,2.1-3.4-0.3-5.1-0.6
		c-0.1,0.4-0.2,0.8-0.3,1.2c-0.8,6.3-5.1,0.3-7.2,1.7c-1.2-2-2.2-2.2-3.3-2.6L1045.9,1604.9z M1739.1,1735.7c0-0.1,0-0.1-0.1-0.2
		c0-0.2,0.1-0.3,0.1-0.5C1739.1,1735.3,1739.1,1735.5,1739.1,1735.7 M1746.8,1707.8C1746.8,1707.8,1746.8,1707.8,1746.8,1707.8
		c0-0.2,0.1-0.4,0.1-0.6C1746.9,1707.4,1746.9,1707.6,1746.8,1707.8 M1765.7,1708.1c-0.1,0.2-0.3,0.4-0.4,0.6c0-0.2,0.1-0.5,0.1-0.7
		C1765.6,1708,1765.7,1708.1,1765.7,1708.1 M1756.9,1590.4c-0.1,0.1-0.1,0.1-0.2,0.2c0-0.1,0.1-0.2,0.1-0.4
		C1756.8,1590.2,1756.8,1590.3,1756.9,1590.4 M1758.2,1536.1C1758.1,1536.1,1758.1,1536.1,1758.2,1536.1c0-0.2,0.1-0.3,0.1-0.5
		C1758.2,1535.8,1758.2,1536,1758.2,1536.1 M1751.9,1452.5c0,0.1,0,0.2,0,0.3c-0.8,2.3-1.1,4.7-1.5,7l0.5-10.2
		c0.4-0.7,0.7-1.6,1-2.8c0.6,0.1,1.3,0,2.3-1.5C1753.3,1447.5,1752.5,1449.8,1751.9,1452.5 M1778.4,1040.8c0-0.1,0-0.1,0-0.2l0,0
		c0,0,0,0,0-0.1c0,0,0,0,0,0c0,0,0,0,0,0C1778.4,1040.7,1778.4,1040.8,1778.4,1040.8 M1779.6,1009.9c-0.1,0.1-0.2,0.2-0.2,0.3
		c0-0.1,0-0.3,0.1-0.4C1779.5,1009.9,1779.5,1009.9,1779.6,1009.9 M1727.4,586.5c0.1-0.1,0.2-0.3,0.3-0.5c0.1-0.2,0.1-0.3,0.1-0.4
		c0,0,0.1,0,0.1-0.1c-0.2,0.7-0.3,1.3-0.4,1.8C1727.5,587,1727.5,586.7,1727.4,586.5 M1811.9,629.9c0.1,0.1,0.2,0.1,0.3,0.1
		c-0.1,0.2-0.3,0.4-0.4,0.6C1811.8,630.4,1811.9,630.2,1811.9,629.9 M1793.3,629.7c0.1-0.2,0.1-0.4,0.2-0.6
		C1793.4,629.3,1793.3,629.5,1793.3,629.7C1793.3,629.7,1793.3,629.7,1793.3,629.7 M1810.3,682.5c0,0,0-0.1,0-0.1
		C1810.3,682.4,1810.3,682.5,1810.3,682.5c0-0.1,0.1-0.1,0.1-0.1c0,0.1-0.1,0.2-0.1,0.3C1810.2,682.7,1810.3,682.6,1810.3,682.5
		L1810.3,682.5z"/>
	<path class="st0" d="M1690.1,1058.1c-72.5,36.2-243.1-164.6-244.6-162.8c-1.9-1.8-735.2,26.1-734.9,19.8c0-0.4,0-0.8-0.1-1.2
		c-1.7-0.1-4.3,1.9-5.1-0.3c-0.3-0.4-1.3-0.2-0.5-2c1-2.5,1.7-1.9,2.3-1.8l0,0c1.1-1.1,2.2-2.3,3.3-3.4c-0.6-0.3-1.2-0.7-1.8-1
		c-2,1.8-2.4,0-3.8,0.2c-1.5-0.5-4.7,1.2-1-6.3c0.2-1.4,0.3-2.8,0.5-4.3c0.7-0.6,1.4-1.2,2.1-1.7c0.3-0.8,0.6-1.6,0.9-2.4
		c-0.2-1-0.4-1.9-0.7-2.9c-0.4,0.3-0.7,0.3-0.9,0.2c-0.9,1.4-1.7,1.9-2.3,1.5c-0.8-0.4,0.4-1.8,1-2.9c-0.1-0.3-0.2-0.5-0.3-0.7
		c-2.6,2.8-3.7,1.4-4.8,0.4c-0.1-0.3-0.2-0.5-0.4-0.6c-1.9,2.6-2.7-1.5-5.1,4.6c-2.4,2.7-3.5,1.6-4.7,1c-2-1-4.6-1.1-5.8-3.8
		c-0.4,0.1-0.8,0.2-1.2,0.3c-2.1,2.7-3.5,3.3-4.4,2.2c-0.1-0.6-0.2-1.3-0.3-1.9c-0.3-1.2-0.5-2.5-0.8-3.8c-0.2,0.1-0.4,0-0.4-0.2
		c-1.6,0.9-2.1-0.4-2.8-1.5c-0.8-0.1-1.6-0.2-2.5-0.3c-0.3,0.4-0.6,0.8-0.9,1.2c-0.9,1.7-1.7,4.3-3,4.1c-1.9,2.7-2.5,1.5-3.5,1.2
		c-0.8-1-1.1-2.6-1-4.9c-0.3,0-0.7,0-1,0c-1.4,3.1-0.3,3.7-0.6,6.3c-2.1-0.1-1.6-4.1-3-5c-0.5-3-1.1-5.9-1.6-8.9
		c-0.6-3.1-1.1-6.1-1.6-9.2c-1.4-0.8-2.5-1.7-3.3-2.7c0.3-0.2,0.5-0.4,0.9-0.5c-2.8-1.4-5.1-2.7-2.6-3.9c-0.2-1-0.4-2.1-0.6-3.2
		c-0.9-1.4-1.8-2.8-2.7-4.2c-2.2-0.4-4.4-0.8-6.6-1.3c0,0-0.1-0.1-0.1-0.1c0,0,0.1,0.1,0.1,0.1c-2.2-1-4.5-2-6.7-3
		c-1.3-0.6-2.4-1.1-0.4-1.1c0.7,0,2,0.4,3,0.7c0.3-0.2,0.7-0.4,0.9-0.6c-0.1-0.4-0.1-0.8-0.1-1.2c-1.8-0.9-0.5-1.4,0-2
		c0.2-1.3,0.4-2.5,0.6-3.8c-1.4-1.1-1.5-2.1-0.9-3c-3.2-3.5-0.9-6,0.2-8.8c0.1-0.9,0.2-1.8,0.3-2.7c-1-1-2-2-3-3
		c-0.5,0.6-0.3,0.4-0.8,1c0.1,0.3,0.1,0.5,0,0.7c-0.2,2.8-5.5-0.2-7.9-0.4c-2.2-0.1-3-0.7-3.2-1.4c-1.3-0.7-2.6-1.6-4-2
		c-3.2-1.1-3.1-1.9-2.2-2.6c-1.5-0.3-2.7-0.3-3.7,0.2c0.4,0.8,0.9,1.6,1.3,2.4c1.6,1.1-0.3,1.5-1.2,2c0,0,0,0,0,0
		c-1.1,0.6-2,1.3-4.9,0.9c-0.3,0.2-0.5,0.4-0.8,0.6c1.5,1.5-1.7,1.1-3.2,1.5c3.2,1.3,5.1,2.8,6.4,4.2c1.6,1.8-0.3,2.1-4.4,0.8
		c-0.4,0.2-0.7,0.3-1.1,0.5c6.8,1.9,8.8,4.2,8.2,6.5c0.6,1,4.7,1.9,3.2,2.9c3.8,2.2,7.7,4.4-1.6,3.8c-3.9,0.1-7.8-0.8-11.8-1.8
		c-2.4-0.3-4.8-0.6-7.3-1c-2.6,0.2-5,0.2-5.2-1.5c0-0.5-0.5-1.6,1.6-1.2c3.9,0.6,2.2,1.9,3.6,2.8c2.1-0.9,4.8-0.7,8.3,0.5
		c2.1-0.1,5.3,0.7,6.5-0.2c-0.2-0.4-0.5-0.8-0.7-1.1c-3.6-0.7-7.8-1.2-8.8-3.3c-3.3-1.5-6.9-2.2-10.8-2.3l0,0
		c-6.4,1.1-4.4-1.8-7-2.6c-1-0.7-0.5-1.2,0.3-1.6c-2.1-2.2-4.9-4.4-2.7-6.3c-3.6-2-3.2-3.6-1.9-5.1c-0.6-0.2-1.2-0.4-1.8-0.7
		c-1.4-0.5-2.6-1.1-2.4-1.8c0.5-1.8-3.6-4.1-1.1-5.6c-0.5-0.2-1-0.4-1.6-0.6c-2.2,0-4.3,0.1-6.5,0.2c0,0,0,0,0,0
		c2,1,4.9,2.2,2.1,2.7c-2,0.4-2.8-1.1-4.3-1.7c-0.9-1.5,0.6-2.6,1.6-3.8c0,0,0,0,0,0c-0.2-0.4-0.5-0.7-0.8-1.1
		c-1.1-0.4-2.3-0.9-3.4-1.4c-0.9,0-1.8-0.1-2.7-0.1c-5,0.9-3.1-1.5-5.3-2c-1.2,0.2-1.2,1.4-3.6,0.6c-1.9-0.7-0.6-1.3,0.1-1.9
		c-3.8-3.8,5.1-1.6,7.8-2.3c-4.1-1.5-8.1-3-12.2-4.6c-0.6-0.2-1.1-0.4-1.7-0.6c0.5,0.9,1,1.7,1.5,2.6c-0.8-0.1-1.8-0.2-2.5-0.4
		c-3.8-1.3-2.3-2.1-0.8-2.9c-1.4-1.7-0.1-3-0.1-4.4c1.1,0.2,2.2,0.4,3.4,0.6c0.5-0.1,1.1-0.1,1.7-0.1c0.3-0.1,0.5-0.3,0.8-0.4
		c0,0-0.1,0-0.1,0c-2.2-0.8-2.9-1.8-3.4-2.7c0.3-1.6-3-3.9,0.8-4.9c0,0,0,0,0,0c-0.3-0.4-0.5-0.8-0.8-1.1c0.4-0.7-0.1-1.5-1.4-2.3
		c0.5-0.3,1-0.5,1.5-0.8c-0.1-0.1-0.2-0.3-0.2-0.4c-0.2-0.4-0.2-0.7,0-1c0.3-0.2,0.7-0.3,1-0.5c-3.4-2,1-1.9,2.5-2.6
		c1.2-0.1,2.3-0.3,3.5-0.4c-2.6-1.6-12.9-0.9-9.3-4.3c1.4,1.5,3.9,1.2,6.1,1.4c0.6-0.3,1.2-0.6,1.9-0.8c-1.3-0.7-2-1.3-1.8-1.9
		c0-0.5-0.1-0.9-0.1-1.4c-10.3-1.4-19.3-1.6-26.8-1c-0.2,0-0.4,0-0.7,0.1c0-0.1,0.2-0.3,0.3-0.4c-0.8-0.6-1.6-1.2-2.4-1.8
		c-2.8-1.4-6-1.4-9-1.6c-0.6,0.7,3.3,2.4-1.4,2.2c-4.6-0.2-2.9,1.4-2.3,2.7c1,0.6,1.5,1.1,1.4,1.5c-0.8,0.3-1.6,0.6-2.4,0.9
		c-0.4,0-0.8,0.1-1.3,0.1c-2.1,0.8-5.9,1.1-7.6-0.5c-1.6-1.5,1.5-2.7,5.4-2.9c2-0.8,0.2-2.2,0.5-3.3c-2-0.6-4.1-1.2-6.5-1.9
		c9.8-0.8,9.8-2.1,0.9-6.9c-2.2-1.2-2.2-2.4-0.7-3.2c-1.4-0.5-2.5-1.1-2.5-1.8c-1.4-0.5-2.5-1.1-2.5-1.8c-1.4-0.8,0.1-2.1-3.2-2.5
		c-8.3-1.1-8.3-3.2-8.5-5.3c-0.8-0.6-1.7-1.2-2.5-1.8c-2.8-0.8-4.4-1.9-6-3.1c-3.6,0.3-2.7,1.9-3.3,3.1c1.5,0.7,4.5,1.3,3.4,2
		c-1.2,0.7-2.6-0.2-3.1-0.9c-0.3-0.4-0.3-0.7-0.4-1.2c-4.8-2.1-3.2-3.5-1.9-5c-4.3-2.3-5.6-4.7-7.2-7.1c-0.4-1.3-0.9-2.7-1.3-4
		c-1-1-2-1.9-3-2.9c-3.7-1.7-5.1-3.2-3-4.6c-2.8-1.5-7.1-3-5.8-4.8c-0.5-2.3-7.1-4.8-4.6-6.9c-0.2-0.3-0.4-0.7-0.6-1c-1-1-2-2-2.9-3
		c-0.8-1.1-1.6-2.3-2.3-3.5c-0.8-0.6-1.6-1.2-2.3-1.8c-2.7-0.4-4.3-1.1-5.3-2c-1.3,0.3-3.4-0.7-4.4-1.4c-0.6-0.4-0.7-0.8-1-1.2
		c-7.5-2.7-6-4-4.7-5.3c-7-2.9-9.7-5.5-12.9-8.1c-1.1-1.4-2.3-2.8-3.5-4.2c-1.8-1.1-3.6-2.2-5.4-3.4c-5.8-2.2-8.3-3.9-6-5.1
		c-4.5-1.9-11-3.9-10-5.6c-1.6-2.4-11.8-5.8-9.3-7.7c-0.4-0.4-0.8-0.8-1.2-1.1c-1.8-1.2-3.5-2.3-5.3-3.5c-1.5-1.3-3.1-2.5-4.7-3.8
		c-1.3-0.7-2.6-1.4-4-2.1c-5.4-1.1-8.4-2.4-9.6-3.9c-3.9-2.1-2.9-3.7-8.6-6c0.8-2.5-10.5-7.5-1.7-8.3c0.5-0.1,1-0.2,1.5-0.3
		c-1.3-2-6.2-4.6-3.8-5.9c0.1-0.2,0-0.6,0.1-0.8l-52.2-32.8c-1,0-2.2-0.2-3.7-0.8c-1-0.7-1.9-1.5-2.8-2.2c-0.6,0-1.2-0.1-1.8-0.1
		c-7.3,0.2-8.1-0.1-9.3-3.3c-1.3,0.1-2.7,0.1-4,0.2c-1.2,0.3-2.5,0.4-4.2,0.2c-5.9,0.2-11.5-1.4-13.6-3.9c0.1-0.1,0.3-0.2,0.5-0.3
		c-1.7-0.8-3-1.6-1.5-2.3c-0.1-0.6-0.2-1.2-0.4-1.8c-0.5-0.8-1.1-1.6-1.6-2.4c-1.3-0.2-2.6-0.5-3.9-0.7c0,0-0.1,0-0.1-0.1
		c0,0,0.1,0,0.1,0.1c-1.3-0.6-2.6-1.2-4-1.7c-0.8-0.3-1.4-0.6-0.2-0.7c0.4,0,1.2,0.3,1.7,0.4c0.2-0.1,0.4-0.2,0.5-0.3
		c0-0.2-0.1-0.5-0.1-0.7c-1-0.6-0.3-0.8,0-1.2c0.1-0.7,0.2-1.5,0.4-2.2c-0.8-0.7-0.9-1.2-0.5-1.8c-1.7-1.9-0.7-3.3-0.1-4.7l-3.4-2.1
		c-1-0.2-2.3-0.8-3.1-0.8c-1.3-0.1-1.7-0.4-1.9-0.8c-0.8-0.4-1.5-0.9-2.3-1.2c-1.9-0.7-1.8-1.1-1.3-1.5c-0.9-0.2-1.6-0.2-2.2,0.1
		c0.3,0.5,0.5,0.9,0.8,1.4c1,0.7-0.2,0.9-0.7,1.2h0c-0.7,0.4-1.2,0.8-2.9,0.5c-0.2,0.1-0.3,0.2-0.4,0.3c0.9,0.9-1,0.7-1.9,0.9
		c1.9,0.8,3,1.6,3.8,2.5c1,1-0.2,1.2-2.6,0.5c-0.2,0.1-0.4,0.2-0.6,0.3c4,1.1,5.1,2.4,4.8,3.8c0.4,0.6,2.8,1.1,1.9,1.7
		c2.2,1.3,4.5,2.6-0.9,2.2c-2.3,0.1-4.6-0.4-6.9-1c-1.4-0.2-2.8-0.4-4.3-0.6c-1.5,0.1-3,0.1-3-0.9c0-0.3-0.3-0.9,0.9-0.7
		c2.3,0.3,1.3,1.1,2.1,1.6c1.2-0.5,2.8-0.4,4.9,0.3c1.2-0.1,3,0.4,3.8-0.1c0.1-0.4,0-0.1,0.2-0.6c-2.2-0.5-5.1-0.7-5.7-2
		c-1.9-0.9-4-1.3-6.3-1.3h0c-3.8,0.7-2.6-1.1-4.1-1.5c-0.6-0.4-0.3-0.7,0.2-1c-1.2-1.3-2.9-2.6-1.6-3.7c-2.1-1.2-1.9-2.1-1.1-3
		c-0.3-0.1-0.7-0.3-1-0.4c-0.8-0.3-1.5-0.7-1.4-1c0.3-1-2.1-2.4-0.7-3.3c-0.3-0.1-0.6-0.3-1-0.4c-1.3,0-2.5,0.1-3.8,0.1c0,0,0,0,0,0
		c1.2,0.6,2.8,1.3,1.3,1.6c-1.2,0.2-1.7-0.6-2.5-1c-0.5-0.9,0.3-1.5,0.9-2.2c0,0,0,0,0,0c-0.1-0.2-0.3-0.4-0.4-0.6
		c-0.7-0.3-1.3-0.5-2-0.8c-0.5,0-1.1,0-1.6-0.1c-2.9,0.5-1.8-0.9-3.1-1.2c-0.7,0.1-0.7,0.8-2.1,0.3c-1.1-0.4-0.4-0.8,0.1-1.1
		c-2.2-2.2,3-0.9,4.5-1.4c-2.4-0.9-4.8-1.8-7.1-2.7c-0.3-0.1-0.7-0.2-1-0.4c0.3,0.5,0.6,1,0.9,1.5c-0.5-0.1-1.1-0.1-1.5-0.2
		c-2.2-0.8-1.3-1.2-0.5-1.7c-0.8-1-0.1-1.7-0.1-2.6c0.7,0.1,1.3,0.2,2,0.4c0.3,0,0.6-0.1,1-0.1c0.1-0.1,0.3-0.2,0.4-0.2
		c0,0,0,0-0.1,0c-1.3-0.5-1.7-1-2-1.6c0.2-1-1.7-2.3,0.5-2.9h0c-0.2-0.2-0.3-0.4-0.4-0.7c0.2-0.4-0.1-0.9-0.8-1.4
		c0.3-0.1,0.6-0.3,0.9-0.4c0-0.1-0.1-0.2-0.1-0.2c-0.1-0.2-0.1-0.4,0-0.6c0.2-0.1,0.4-0.2,0.6-0.3c-2-1.2,0.6-1.1,1.5-1.5
		c0.3,0,0.6-0.1,0.9-0.1l-1.2-0.7c-2.2-0.3-4.6-0.6-3.2-2c0.3,0.3,0.6,0.4,1,0.6l-4.5-2.8c-1.7-0.1-3.3-0.1-4.8-0.1
		c-1.1,10.1-2.3,9.5-5.4-1.1c0,0,0,0,0,0c0,0-0.1,0-0.1,0c0.2,3.5,0.3,6.6,0.4,9.7c-1,0.4-1.6,3.9-2.9,1.7c-1.4-5.1-3.3-8.4-4.1-5.2
		c-0.8,3.5,0.6,8.3,1.9,10.6c0.2,0.6,0.3,1.2,0.5,1.7c0.5,0.8,1,1.6,1.5,2.5c0.3-0.2,0.6-1.2,0.8-3c0.9-1.7,1.7-5.2,3,1.1
		c1.3,6.4,1.5,0,2.3,0.3c0.8,4.3,1.8,8.4,1.5,13.3c-0.3,1.5-0.5,3-0.8,4.5c-0.2-0.1-0.3-0.2-0.4-0.2c0.1,0.3,0.2,0.6,0.3,0.8
		c2.9,9.6,5.5,21.9,7.5,36.7c-0.4,0.4-0.7,0.7-1.1,1.2c-0.5,0.1-0.8,1.6-1,3.8c-0.4-0.7-0.9-1.3-1.3-1.9c-0.5-3.1-1.6-6.1-0.8-9.1
		c-4-2.3-0.2,11-0.7,15.7c0,0.1,0.1,0.3,0.1,0.4c0-0.1-0.1-0.1-0.1-0.2l0-0.3c-0.5-1.5-1-2.9-1.4-4.3c-1.1-1.5-2.4-7.5-3-1.4
		c-0.2-0.3-0.5-0.7-0.7-1c-0.3,0-0.6,0.2-0.8,0.7c-0.1,0.2-0.2,0.4-0.3,0.6c-0.4-0.5-0.7-1-1.1-1.5c-0.3,2.4-0.8,3.5-1.5,3.6
		c-0.2,0.6-0.5,1.2-0.7,1.8c0,0,0,0,0,0c-2-4.3-2.9,1.6-4.4,2.5c-0.6,1.4-1.2,3-1.2,6.5c0,0.1,0,0.1,0,0.2c-0.2-0.2-0.4-0.5-0.6-0.7
		c-0.2-0.9-0.4-1.6-0.6-2.3c-0.2-1.7-0.4-3.3-0.5-5c-1.2,1.1-2.7,0.3-3.7,3.4c-1.1-1.4-2.2-2.9-2.1,3.1c0,1.1,0.3,2.4,0.4,3.6
		c0.6-1.3,1.1-2.6,1.7-3.9c0,0.9,0,1.8,0,2.7c0,6.6,0,13.1,0,19.7c0,0.1,0,0.1,0.1,0.2c0,0,0,0,0,0l-0.1-0.2
		c-1.5-3-2.4-16.6-4.4-8.7c-0.7-0.6-1.6-1.8-1.6,1.2c0,3.8,1,3,1.6,4.4c0.3,3.3-2.3,2.5,0,8.6c0.3,1.2,0.5,2.5,0.8,3.7
		c0,1.8-0.1,3.7-0.1,5.5c-0.2,0.6-0.5,1.2-0.7,1.8c0,0,0,0,0,0c-1.3-0.5-2.6-1.7-3.7,0.6c-0.1,2.4-1.1,4.5-0.1,7
		c1.3,3.3,1.4-1.5,1.6-4.8c0,0,0,0,0,0c0.7,2.9,1.4,5.7,2.1,8.6c0,0.9,0,1.8,0,2.6c-2-2.2-2.7,5-4.3,5.6c-0.6,0.3-0.7,2.2-0.8,4.5
		c0,1,0,1.9,0,2.9c-1.7-0.7-3.1-0.1-3.7,6.2c-2.2-1.7-3.2,3.7-4.4,8.1c-0.6-0.8-1.2-1-1.5,0.8c0.2,4-3,3.4,0,11.2l0,0
		c1.2,5.2,1.7,10.6,1.5,16.1c-1.4,2.8-0.5,8.7,0,14.1c-0.2,0.6-0.5,1.2-0.7,1.8c-1.1-1.1-1.4-5.9-2.2-8.7c-0.1-5.5-0.8-9.3-2.2-11.4
		c0.3-2.6,1.9-1.3,1.2-6.9c-0.4-3-1.1-1.6-1.5-1.2c-1.4,1.4-0.7,4.7,0.3,8.1c0.5,3.5,1,7,1.5,10.5c0.4,6,0.9,12,2.2,17.1
		c2.4,12.9,3,6.1,3.7-0.6c1.4,1.3,0.8-4.9,1.5-6.5c2.2-0.9,3.5-5.2,2.9-15.7c0.3,0.3,0.5,0.7,0.8,1.1c0.3,6.4,1.1,8.8,2.1,5.3
		c0.8-2.8,1.5-6.5,1.5-11.7c0.7,1.7,1.5,6.4,2.2,3.3c0.2,0.2,0.5,0.4,0.7,0.6c0.6,4.3,1.5,4.9,2.3,6c0,0,0,0,0,0
		c0.8,0.8,1.6,3.2,2.1,0.1c0.5-1.2,1-2.3,1.6-3.5c0.7,1,1.1,2.7,1.3,4.9c-0.9-0.7-1.5-0.3-1.5,4.8c0,2.2-0.3,4.5-0.5,6.8
		c-0.5,0.9-0.7,2.2-0.1,5.4c0.6,3.4-0.3,12.6,2.2,10.9c0.2,0,0.4-0.2,0.6-0.5c0.6,0.2,0.4,0.1,1.1,0.3c-0.5,2.1-1.1,4.1-1.6,6.2
		c-0.8,0.5-1.6,1-2.4,1.5c-2.6,0.6-5.5-0.7-7.4,6.1c-0.9-0.2-1.7,0.7-2.2,3.3c-1.1,0.6-2.3,1.3-3.4,1.9c-0.6-0.2-1.4-1.6-1.7,1.5
		c-0.3,0.3-0.6,0.7-0.9,1c-0.3-0.2-0.5-0.5-0.8-0.8c-0.1-1.5-0.1-3.5-0.4-4.5c-0.7-2.6-0.8-0.8-0.8,1.4c-0.1,3.8-0.2,7.5-0.4,11.2
		c0-0.1,0-0.2,0.1-0.3c0,0.1,0,0.2,0,0.3c0.3,3.3,0.7,6.5,1,9.8c-0.9,2.2-1.8,4.5-2.6,6.7c-0.8,1.1-1.6,2.1-2.4,3.1
		c-1.7-2.5-2.1,1.5-2.4,6.3c-0.2-0.3-0.5-0.6-0.7-0.8c-2.5,7.8-1.8,22.8,1.6,36c0.5,4.3,1.5,7.1,2.5,9.5c0.8,3,1.6,6,2.4,9
		c-4,6.5-4,8.9,0.2,25.3c0.3,1.2,0.5,2.8,0.8,4.2c-0.5,3.1-1.1,6.1-1.6,9.2c-0.2,8.3,1.3,11.8,3.1,14.5c0.4,2,0.8,3.7,1.3,5.2
		c0,0.2-0.1,0.3-0.1,0.4c-1,1-2,2-1.1,8.9c0.4,2.8-0.5,2.1-0.7,3.6c-0.3,0.2-0.4,1.4-0.4,2.7c-0.3,0.2-0.4,1.4-0.4,2.7
		c-0.7-0.9-1.3-0.4-1.5,1.9c-0.7,9-1.4,9.6-3.5,2.2c0.1,2.1,0.2,4,0.3,5.9c-0.6,0.2-1,2.3-1.7,1c-0.8-3-1.9-4.9-2.4-3
		c-0.5,2,0.4,4.9,1.1,6.2c0.1,0.4,0.2,0.7,0.3,1c0.3,0.4,0.6,0.9,0.9,1.5c0.2-0.1,0.3-0.7,0.5-1.8c0.5-1,1-3,1.7,0.6
		c0.8,3.8,0.9,0,1.3,0.2c0.5,2.5,1,4.9,0.9,7.8c-0.2,0.9-0.3,1.8-0.5,2.7c-0.1-0.1-0.2-0.1-0.3-0.1c0,0.2,0.1,0.3,0.2,0.5
		c1,3.3,1.9,7.2,2.8,11.5l-1,8.1c0-0.6,0-1.1,0.2-1.7c-1.6-0.9-1,2.6-0.6,5.7l-0.2,2.1c-0.1-0.4-0.2-0.7-0.4-1.1
		c-0.6-0.9-1.4-4.4-1.8-0.8c-0.1-0.2-0.3-0.4-0.4-0.6c-0.2,0-0.3,0.1-0.5,0.4c-0.1,0.1-0.1,0.2-0.1,0.3c-0.2-0.3-0.4-0.6-0.6-0.9
		c-0.2,1.4-0.5,2.1-0.9,2.1c-0.1,0.4-0.3,0.7-0.4,1.1c0,0,0,0,0,0c-1.2-2.5-1.7,1-2.6,1.5c-0.4,0.8-0.7,1.7-0.7,3.8c0,0,0,0.1,0,0.1
		c-0.1-0.1-0.2-0.3-0.3-0.4c-0.1-0.5-0.2-1-0.4-1.3c-0.1-1-0.2-1.9-0.3-2.9c-0.7,0.6-1.6,0.2-2.2,2c-0.6-0.8-1.3-1.7-1.3,1.8
		c0,0.6,0.2,1.4,0.3,2.1c0.3-0.8,0.7-1.5,1-2.3c0,0.5,0,1.1,0,1.6c0,3.9,0,7.7,0,11.5c0,0,0,0.1,0,0.1c0,0,0,0,0,0l0-0.1
		c-0.9-1.7-1.4-9.7-2.6-5.1c-0.4-0.4-0.9-1.1-0.9,0.7c0,2.2,0.6,1.8,0.9,2.6c0.2,1.9-1.4,1.5,0,5c0.1,0.7,0.3,1.5,0.4,2.2
		c0,1.1,0,2.2,0,3.2c-0.1,0.4-0.3,0.7-0.4,1.1c0,0,0,0,0,0c-0.8-0.3-1.5-1-2.1,0.3c0,1.4-0.6,2.6-0.1,4.1c0.7,1.9,0.8-0.9,1-2.8h0
		c0.4,1.7,0.8,3.3,1.3,5c0,0.5,0,1.1,0,1.6c-1.2-1.3-1.6,2.9-2.5,3.3c-0.4,0.1-0.4,1.3-0.4,2.6c0,0.6,0,1.1,0,1.7
		c-1-0.4-1.8-0.1-2.1,3.6c-1.3-1-1.9,2.2-2.6,4.8c-0.4-0.5-0.7-0.6-0.9,0.5c0.1,2.3-1.7,2,0,6.6l0,0c0.7,3.1,1,6.2,0.9,9.4
		c-0.9,1.8-0.2,5.7,0.1,9.1c-0.4,0.1-0.1,0-0.5,0.2c-0.7-0.7-0.8-3.4-1.3-5.1c0-3.2-0.5-5.4-1.3-6.7c0.2-1.5,1.1-0.8,0.7-4
		c-0.2-1.8-0.6-1-0.9-0.7c-0.8,0.8-0.4,2.8,0.2,4.7c0.3,2.1,0.6,4.1,0.9,6.1c0.2,3.5,0.5,7,1.3,10c1.4,7.5,1.8,3.6,2.2-0.4
		c0.8,0.7,0.5-2.9,0.9-3.8c1.3-0.6,2-3,1.7-9.2c0.2,0.2,0.3,0.4,0.4,0.6c0.2,3.8,0.7,5.2,1.2,3.1c0.5-1.6,0.8-3.8,0.9-6.8
		c0.4,1,0.9,3.7,1.3,1.9c0.1,0.1,0.3,0.2,0.4,0.3c0.3,2.5,0.9,2.9,1.4,3.5c0,0,0,0,0,0c0.4,0.5,1,1.8,1.2,0.1c0.3-0.7,0.6-1.4,0.9-2
		c0.4,0.6,0.7,1.6,0.8,2.8c-0.5-0.4-0.9-0.1-0.9,2.8c0,1.3-0.2,2.7-0.3,4c-0.3,0.5-0.4,1.3-0.1,3.1c0.2,1.1,0.1,3.3,0.3,4.8
		l-0.7,6.1c-1.4,0.2-2.9-0.1-4,3.5c-0.6-0.1-1,0.4-1.3,1.9c-0.7,0.4-1.3,0.8-2,1.1c-0.4-0.1-0.8-0.9-1,0.9c-0.2,0.2-0.4,0.4-0.5,0.6
		c-0.1-0.1-0.3-0.3-0.5-0.5c-0.1-0.9-0.1-2-0.2-2.6c-0.4-1.5-0.5-0.5-0.5,0.8c-0.1,2.2-0.1,4.4-0.2,6.6c0-0.1,0-0.1,0-0.2
		c0,0.1,0,0.1,0,0.2c0.2,1.9,0.4,3.8,0.6,5.7c-0.5,1.3-1,2.6-1.5,3.9c-0.5,0.6-1,1.2-1.4,1.8c-1-1.5-1.3,0.9-1.4,3.7
		c-0.1-0.2-0.3-0.3-0.4-0.5c-1.5,4.6-1.1,13.4,0.9,21.1c0.3,2.6,0.9,4.2,1.4,5.5c0.5,1.7,1,3.5,1.4,5.3c-2.3,3.8-2.3,5.2,0.1,14.8
		c0.2,0.7,0.3,1.6,0.5,2.5c-0.3,1.8-0.6,3.6-1,5.4c0,2.5,0.2,4.2,0.5,5.6l-30.7,256.3c-1.9-1.7-2.9,3.6-4.3,5.5
		c-0.3-0.4-0.5-0.9-0.8-1.4c-3.5-8.1-4.7,4.2-7.3,4.2c-0.4,6.1-2.2,5.7-3,10c-1,1.6-1.3,4.9-0.7,10.3c-0.3,1.5-0.5,3-0.8,4.4
		c-0.7,1.9-1.4,3.8-2.2,5.6c-0.5,2-1.1,4-1.6,6.1c-0.2,0.5-0.5,1-0.7,1.5c-2.5-1.8-2.6,9-4.4,11.2c-1.9-0.4-1.8,6.4-2.2,11.3
		c-1.8-1.8-2.7,1.2-2.9,7.3c-0.5,2-1,4.1-1.5,6.2c-1,1.5-2,3.1-2.9,4.6c-1.5,3.8-3.1,7.2-3.7,14.8c-1.7-0.8-3.4-1.9-3.6,6.1
		c-0.3,0.4-0.7,0.6-0.9,1.3c-0.4,1.3-0.7,3.8,0.2,4.8c0.9,1,0.5-3.5,0.6-6c1.2-0.1,2.2-2.4,3.7,2.2c-0.5,2.9-0.9,5.9-0.7,10.2
		c-0.2,1.6-0.5,3.1-0.8,4.7c-1.8,1.8-3.5,3.3-1.8,15.3c0.7,4.8-0.9,3.6-1.1,6.1c-0.6,0.4-0.7,2.3-0.7,4.6c-0.6,0.4-0.7,2.3-0.7,4.7
		c-1.2-1.5-2.2-0.6-2.5,3.2c-1.2,15.4-2.3,16.4-6,3.8c0.2,3.6,0.3,6.8,0.5,10c-1,0.3-1.6,3.9-2.9,1.7c-1.4-5.1-3.3-8.4-4.1-5.2
		c-0.8,3.5,0.6,8.3,1.9,10.6c0.2,0.6,0.3,1.2,0.5,1.7c0.5,0.8,1,1.6,1.5,2.5c0.3-0.2,0.6-1.1,0.8-3c0.9-1.7,1.7-5.2,3,1.1
		c1.3,6.4,1.5,0,2.3,0.3c0.8,4.3,1.8,8.4,1.5,13.3c-0.3,1.5-0.5,3-0.8,4.5c-0.2-0.1-0.3-0.2-0.4-0.2c0.1,0.3,0.2,0.6,0.3,0.8
		c2.9,9.6,5.5,21.9,7.5,36.7c-0.4,0.4-0.7,0.7-1.1,1.2c-0.5,0.1-0.8,1.6-1,3.8c-0.4-0.7-0.9-1.3-1.3-1.9c-0.6-3.1-1.6-6.1-0.8-9.1
		c-4-2.3-0.2,11-0.7,15.7c0,0.1,0.1,0.3,0.1,0.4c0-0.1-0.1-0.1-0.1-0.2l0-0.3c-0.5-1.5-1-2.9-1.4-4.3c-1.1-1.5-2.4-7.5-3-1.4
		c-0.2-0.3-0.5-0.7-0.7-1c-0.3,0-0.6,0.2-0.8,0.7c-0.1,0.2-0.2,0.4-0.3,0.6c-0.4-0.5-0.7-1-1.1-1.5c-0.3,2.4-0.8,3.5-1.5,3.6
		c-0.2,0.6-0.5,1.2-0.7,1.8c0,0,0,0,0,0c-2-4.3-2.9,1.6-4.4,2.5c-0.6,1.4-1.2,2.9-1.2,6.5c0,0.1,0,0.1,0,0.2
		c-0.2-0.2-0.4-0.5-0.6-0.7c-0.2-0.9-0.4-1.6-0.6-2.3c-0.2-1.7-0.4-3.3-0.5-5c-1.2,1.1-2.7,0.3-3.7,3.4c-1.1-1.4-2.2-2.9-2.1,3.1
		c0,1.1,0.3,2.4,0.4,3.6c0.6-1.3,1.1-2.6,1.7-3.9c0,0.9,0,1.8,0,2.7c0,6.6,0,13.1,0,19.7c0,0.1,0,0.1,0.1,0.2c0,0,0,0,0,0l-0.1-0.2
		c-1.5-3-2.4-16.6-4.4-8.7c-0.7-0.6-1.6-1.8-1.6,1.2c0,3.8,1,3,1.6,4.4c0.3,3.3-2.3,2.5,0,8.6c0.3,1.2,0.5,2.5,0.8,3.7
		c0,1.8,0,3.7-0.1,5.5c-0.2,0.6-0.5,1.2-0.7,1.8c0,0,0,0,0,0c-1.3-0.5-2.6-1.7-3.7,0.6c-0.1,2.4-1.1,4.5-0.1,7
		c1.3,3.3,1.4-1.5,1.6-4.8c0,0,0,0,0,0c0.7,2.9,1.4,5.7,2.1,8.6c0,0.9,0,1.8,0,2.6c-0.8-0.8-1.3-0.3-1.8,0.6l1768.3,22.1
		L1690.1,1058.1z M37.3,1715.2c0,0.2,0,0.3,0.1,0.5c0,0.1-0.1,0.1-0.1,0.2C37.2,1715.7,37.2,1715.4,37.3,1715.2 M34.3,1686.4
		c0,0.2,0,0.4,0.1,0.6c0,0,0,0,0,0C34.3,1686.8,34.3,1686.6,34.3,1686.4 M15.9,1684.1c0,0.2,0,0.5,0,0.7c-0.1-0.2-0.2-0.4-0.3-0.6
		C15.7,1684.2,15.8,1684.1,15.9,1684.1 M44.5,1569.4c0,0.1,0,0.3,0.1,0.4c0-0.1-0.1-0.1-0.1-0.2
		C44.4,1569.6,44.5,1569.5,44.5,1569.4 M52.3,1515.5c0,0.1,0.1,0.3,0.1,0.4c0,0,0,0-0.1,0.1C52.3,1515.8,52.3,1515.7,52.3,1515.5
		 M71.7,1427.2c0.7,1.6,1.4,1.8,2,1.8c0.1,1.2,0.3,2.1,0.5,2.9l-1.2,10.2c0-2.4,0-4.8-0.3-7.2c0-0.1,0-0.2,0-0.3
		C72.6,1431.9,72.2,1429.5,71.7,1427.2 M116.5,1024.2C116.5,1024.2,116.5,1024.3,116.5,1024.2
		C116.5,1024.3,116.5,1024.2,116.5,1024.2L116.5,1024.2L116.5,1024.2l0,0.2C116.5,1024.4,116.5,1024.3,116.5,1024.2 M120.8,993.7
		c0,0.1,0,0.3,0,0.4c-0.1-0.1-0.1-0.2-0.2-0.4C120.7,993.8,120.7,993.8,120.8,993.7 M243.7,586.2c-0.1-0.5-0.1-1.2-0.1-1.9
		c0,0.1,0.1,0.1,0.1,0.1c0,0.1,0,0.2,0.1,0.4c0.1,0.2,0.1,0.4,0.2,0.5C243.9,585.6,243.8,585.8,243.7,586.2 M153.3,614.5
		c-0.1-0.2-0.2-0.4-0.3-0.6c0.1,0,0.2,0,0.3-0.1C153.3,614.1,153.3,614.3,153.3,614.5 M171.7,616.8c0-0.2,0-0.4,0-0.6
		C171.7,616.4,171.7,616.6,171.7,616.8C171.7,616.8,171.7,616.8,171.7,616.8 M146,665.9v0.3C146,666.1,146,666,146,665.9
		C145.9,665.9,146,665.9,146,665.9C146,665.9,146,665.9,146,665.9C146,665.9,146,665.9,146,665.9L146,665.9z"/>
	<path class="st0" d="M1843,434.3c-1.4-1.4-3.1-2.2-2.9-6.7c-0.6-0.3-0.9-1.2-0.6-2.9c-0.5-0.9-1.1-1.8-1.6-2.7
		c-0.4-0.2-1.2,0.2-0.7-1.6c-0.1-0.3-0.2-0.7-0.3-1c-0.2,0-0.4,0-0.6,0.1c-0.4,0.8-0.8,1.9-1.1,2.3c-0.9,1.1-0.6,0.1-0.2-1.2
		c0.7-2.1,1.4-4.3,2.1-6.4c0,0.1,0,0.1,0,0.2c0-0.1,0-0.1,0-0.2c0.9-1.7,1.7-3.3,2.6-5c-0.1-1.7-0.1-3.3-0.2-5
		c-0.3-1-0.5-1.9-0.8-2.9c-1.5,0.6-1-1.9-0.1-4.7c-0.2,0.1-0.4,0.1-0.6,0.1c0-1.3,0.2-2.7,0.6-4.2c-0.8-2.8-1.6-5.6-2.4-8.4
		c-0.8-2.7-1.5-5.4-2.3-8.1c0.3-1.5-1.3-4.4-0.4-5.7c1.1,1.9,0.7,3,2.5,4.7c0.2-0.2,0.3-0.4,0.5-0.6c-0.9-1.7-1.3-3.2-1.2-4.5
		c0.3-0.7,0.3-1.8,1.5-1.3c0.1-0.5,0.1-1,0.2-1.5c1.2-1,2.1-2.2-0.8-5.3c1.3-1-0.1-3.3-0.9-5.3c1.1-0.5,3.6-0.3,0-3.4
		c0.1-1.9,0.3-3.8,0.4-5.7c2.3-0.4-0.4-3-2.3-5.2c1.9-0.1,0.8-1.8-0.9-4.2c-0.4,1.3-0.6,2.3-0.9,3.3c0,0,0,0,0,0.1
		c-2.4-1.6-2.5-2.7-3.1-3.9c-1-1.3-2-2.6-3-3.8c0.4-0.1,0.8-0.2,1.3-0.3c-0.5-0.8-2.5-2.2-0.8-2.1c0,0,0,0,0,0
		c1.7,0.1,0.7-1.3,0.5-2.3c3.4,0.3,2.6-1.4-1.3-4.5c-2.1-1.6-2.3-2.2-2-2.8c-1.4-1.5,0.6-2.3-3.8-4.5c-4.3-2.2-3.9-0.8-3.6,0.8
		c0.1,0.5-0.6,0.6-0.9,0.9c-0.7-0.6-1.4-1.2-2-1.7c0,0,0,0,0,0c-0.2-0.4-0.4-0.8-0.6-1.1c1.8-0.4,1.2-2.2,1.3-3.6
		c4,0.6,1.5-2.6,0.7-4.8c0.5-0.1,1-0.1,1.5-0.2c7.6,1,2.8-4.7,0-9.5c-0.2-0.3-0.2-0.5,0.1-0.6c2,0.9,1.8,3,4.2,3.2
		c1.7,0.1,4.4,0.3-0.1-3.2c-0.9-0.8-1.8-1.5-2.8-2.1c-0.2-0.7-0.7-1.5-1.9-2.4c0-0.2,0-0.1,0-0.3c2.1,1,2.6,2.5,4.3,3.7
		c1.1-2.4,0.3-5.9,0.1-9.1c1.8,0.2,0.9-1.2,0.6-2.2c-0.2-0.4-0.3-0.7-0.4-1.1c-0.1-0.9-0.2-1.8-0.3-2.7c1.4-2.6,1.2-6-1.5-10.7
		c3.7-0.3-3.7-5.6-2.8-7.1c-0.1,0.1-0.1,0.1-0.2,0.2c0-0.1,0.1-0.1,0.2-0.2c-0.9-1.3-2.5-2.4-4.3-3.5c1-2.5-5.6-7.4-7.6-10.8
		c-1.3-3.6-1.1-6.5-7.6-11.9c-1.3-2.4-3-4.7-7.7-6.5c-1.8-0.2-3.6-0.4-5.4-0.6c-0.8-0.6-1.6-1.2-2.2-1.8c-8.6-8-9.9-8.6-14.1-6.3
		c-1.6-1.5-3.1-3-4.7-4.5c-1.2-1.5-2.6-3.1-4.9-4.7c-6.9-6.5-15.2-10.8-19.9-10.2c0.1,0.3,0.2,0.6,0.3,0.9c-2.7-0.9-5-1.4-3.9,0.8
		c-0.7,0.5-1.4,1.1-2.1,1.6c-1.4,0.3-2.7,0.6-4.1,1c-1.8-1.1-3.5-2.2-5.3-3.3c-0.1,0-0.1,0-0.2,0c0.1,0,0.1,0,0.2,0
		c-2.1-0.8-4.2-1.5-6.3-2.3c-1.2-0.5-2.2-0.8-0.9,0.5c0.5,0.5,1.6,1,2.4,1.4c0.2,0.3,0.3,0.6,0.3,0.9c-0.2,0.2-0.5,0.4-0.7,0.7
		c-1.7-0.5-1.1,0.6-1.1,1.3c-0.5,0.9-1,1.9-1.6,2.8c-1.5-0.1-2.1,0.4-2.2,1.4c-4.1,0.2-3.7,3.3-4.4,5.7c-0.4,0.6-0.8,1.3-1.2,1.9
		c-1.2,0-2.5,0-3.7,0.1c0-0.7,0-0.5,0-1.1c0.2-0.1,0.3-0.3,0.3-0.5c1.3-1.9-4-3.3-5.8-4.7c-1.7-1.3-2.5-1.4-3-1.2
		c-1.3-0.4-2.7-0.6-3.9-1.2c-2.8-1.3-3.2-0.7-2.9,0.3c-1.2-0.7-2.1-1.5-2.5-2.4c0.7-0.2,1.4-0.5,2.1-0.7c1.8,0.3,0.6-1.1,0.2-2
		c0,0,0,0,0,0c-0.5-1.1-0.7-2.1-3-3.7c-0.1-0.3-0.2-0.6-0.2-0.8c1.8,0-0.7-1.8-1.5-2.9c2.9,1.2,5,1.4,6.7,1.3
		c2.1-0.1,0.9-1.5-2.7-3.3c-0.2-0.3-0.3-0.7-0.5-1c5.8,3,8.4,2.8,9.2,0.9c1-0.2,4.3,1.8,3.8,0.1c3.8,1,7.7,2,0.9-3.4
		c-2.7-2.5-5.9-4.4-9.3-6.3c-1.9-1.3-3.8-2.6-5.6-4c-1.7-1.8-3.5-3.3-4.5-2.3c-0.3,0.3-1.2,0.7,0.5,1.8c3,2,2.5,0.2,4,0.5
		c1,1.9,3,3.5,6.1,4.9c1.4,1.4,4.1,2.9,4.5,4.2c-0.4,0.1-0.7,0.2-1.1,0.3c-2.9-1.8-6.1-4.1-7.9-3.4c-3.1-1.1-6-2.9-8.8-5.3l0,0
		c-3.9-4.8-4.1-1.6-6.3-2.7c-1.1-0.1-1,0.5-0.6,1.2c-2.6,0.1-5.8-0.2-5.1,2.3c-3.6-1-4.1,0.3-4,2.1c-0.5-0.2-1.1-0.5-1.6-0.7
		c-1.3-0.5-2.4-0.9-2.6-0.4c-0.6,1.4-4.6,0.4-3.7,2.9c-0.5-0.2-1-0.4-1.5-0.6c-1.5-1.4-3-2.8-4.5-4.2c0,0,0,0,0,0
		c1.9,0.6,4.6,1.6,2.9-0.4c-1.2-1.5-2.6-1.1-3.9-1.6c-1.4,0.4-0.9,2-0.8,3.4c0,0,0,0,0,0c-0.4,0.1-0.7,0.1-1.1,0.2
		c-1-0.4-2.1-0.8-3.1-1.3c-0.7-0.5-1.3-1.1-2-1.6c-3.1-3.7-3-1-4.8-2.1c-0.7-0.9-0.1-1.7-2.3-2.6c-1.7-0.7-1.1,0.5-0.9,1.3
		c-4.7,0,2.8,4.2,4.3,6.4l0.1,0.1c0,0,0,0,0,0c0,0-0.1-0.1-0.1-0.1c-3.7-1.6-7.3-3.1-11-4.7c-0.5-0.2-1-0.4-1.5-0.7
		c0.8-0.2,1.6-0.5,2.4-0.7c-0.7-0.4-1.4-1-2-1.3c-3.4-1.5-2.7-0.1-2.1,1.3c-1.9,0.2-1.6,1.8-2.4,2.8c0.9,0.6,1.8,1.1,2.7,1.7
		c0.3,0.4,0.7,0.8,1.2,1.1c0.1,0.2,0.2,0.5,0.3,0.7c0,0-0.1,0-0.1-0.1c-2-0.8-3-0.7-3.8-0.4c-0.7,1.2-4.1,0.7-2,3.7c0,0,0,0,0,0
		c-0.4,0.1-0.7,0.2-1.1,0.3c-0.1,0.7-0.8,0.9-2.2,0.6c0.2,0.5,0.5,1,0.7,1.4c-0.1,0-0.2,0.1-0.4,0.1c-0.3,0.1-0.5,0.3-0.5,0.6
		c0.2,0.3,0.3,0.6,0.5,1c-3.5-0.8-0.3,1.9,0.4,3.2c0.7,0.8,1.5,1.6,2.2,2.4l0.1,0c0,0.1,0.1,0.1,0.1,0.2c-0.1-0.1-0.2-0.1-0.2-0.2
		c-2.7-0.6-9.6-7.5-8.8-3.1c1.8-0.1,3.4,1.7,5,2.9c0.3,0.6,0.6,1.1,0.9,1.7c-1.2-0.4-2.1-0.5-2.3,0c-0.3,0.3-0.5,0.5-0.8,0.8
		c-8-5.5-14.5-11-19.5-16.1c-0.1-0.2-0.3-0.3-0.4-0.5c0,0.1,0,0.3,0,0.5c-0.9-0.1-1.8-0.2-2.6-0.3c-2.7-0.9-4.9-2.8-7.2-4.6
		c0-0.8,3.6,0.6,0.1-2.3c-3.3-2.7-1.3-2.7-0.2-3.1c1.1,0.2,1.6,0.2,1.8-0.1c-0.4-0.7-0.8-1.4-1.2-2.1c-0.3-0.3-0.6-0.6-0.9-0.9
		c-1.1-1.8-3.6-4.4-5.6-4.4c-1.9,0-0.4,2.6,2.3,5.2c1,1.8-1,1.5-1.4,2.4c-1.8-0.9-3.5-1.8-5.5-2.9c6.5,6.6,5.8,7.5-3,4.9
		c-2.2-0.6-2.8,0.1-2.2,1.6c-1.3-0.5-2.4-0.9-2.7-0.4c-1.3-0.5-2.4-0.9-2.7-0.4c-1.4-0.3-1,1.4-3.6-0.4c-6.4-4.5-7.6-3.2-8.8-1.9
		c-0.9-0.1-1.8-0.3-2.7-0.4c-2.4-1.2-4.1-1.5-5.8-1.8c-2.4-2.5-0.9-2.9-0.7-4.1c1.4,0.5,3.9,2,3.4,0.8c-0.5-1.2-1.9-1.5-2.7-1.4
		c-0.4,0-0.6,0.3-0.9,0.5c-4.5-1.7-4.1,0.2-3.9,2c-4.3-1.2-6.4-0.5-8.8,0c-1,0.6-2,1.2-3,1.7c-1.2,0-2.4,0-3.7,0
		c-3.5-1.2-5.3-1.1-4.5,1.1c-2.8-0.8-6.6-2.5-6.6-0.6c-1.5,1.1-7.5-1.4-6.9,1.5c-0.3,0.1-0.6,0.2-0.9,0.3c-1.2,0-2.4,0.1-3.6,0.1
		c-1.1,0.2-2.3,0.5-3.5,0.7c-0.9-0.1-1.7-0.2-2.6-0.3c-3-1.9-4.8-2.4-5.9-1.8c-2.5-0.3-2.5,1.6-6,0.5c-0.4,2.5-7.4,0.8-3.4,6.1
		c0.2,0.4,0.5,0.7,0.7,1.1c-1.2,0.9-4.3,0.6-3.7,2.9l-147.4-32c-0.7-0.7-1.6-1.3-3-1.8c-1.1-0.1-2.1-0.2-3.1-0.4
		c-0.4-0.4-0.9-0.7-1.3-1c-5-4.7-5.8-5-8.3-3.7c-0.9-0.9-1.8-1.8-2.7-2.7c-0.7-0.9-1.5-1.8-2.9-2.7c-4-3.8-8.9-6.3-11.7-6
		c0,0.2,0.1,0.3,0.2,0.5c-1.6-0.5-2.9-0.8-2.3,0.5c-0.4,0.3-0.8,0.6-1.2,0.9c-0.8,0.2-1.6,0.4-2.4,0.6c-1-0.7-2.1-1.3-3.1-2
		c0,0-0.1,0-0.1,0c0,0,0.1,0,0.1,0c-1.2-0.5-2.5-0.9-3.7-1.4c-0.7-0.3-1.3-0.5-0.5,0.3c0.3,0.3,0.9,0.6,1.4,0.8
		c0.1,0.2,0.2,0.4,0.2,0.6c-0.1,0.1-0.3,0.3-0.4,0.4c-1-0.3-0.6,0.3-0.6,0.7c-0.3,0.6-0.6,1.1-0.9,1.7c-0.9-0.1-1.2,0.2-1.3,0.8
		c-2.2,0.1-2.2,1.6-2.5,3l-3.5-0.8c-0.8-0.5-2.1-1-2.6-1.4c-1-0.8-1.4-0.8-1.8-0.7c-0.8-0.2-1.6-0.4-2.3-0.7
		c-1.7-0.8-1.9-0.4-1.7,0.1c-0.7-0.4-1.2-0.9-1.5-1.4c0.4-0.1,0.8-0.3,1.3-0.4c1,0.2,0.3-0.7,0.1-1.2c0,0,0,0,0,0
		c-0.3-0.6-0.4-1.2-1.8-2.2c-0.1-0.2-0.1-0.3-0.1-0.5c1.1,0-0.4-1.1-0.9-1.7c1.7,0.7,3,0.8,3.9,0.8c1.2-0.1,0.5-0.9-1.6-1.9
		c-0.1-0.2-0.2-0.4-0.3-0.6c3.4,1.8,4.9,1.7,5.4,0.5c0.6-0.1,2.5,1,2.2,0.1c2.2,0.6,4.5,1.2,0.5-2c-1.6-1.5-3.5-2.6-5.4-3.7
		c-1.1-0.8-2.2-1.5-3.3-2.3c-1-1-2-1.9-2.6-1.3c-0.2,0.2-0.7,0.4,0.3,1c1.8,1.2,1.5,0.1,2.4,0.3c0.6,1.1,1.8,2.1,3.6,2.9
		c0.8,0.8,2.4,1.7,2.6,2.5c-0.1,0.4,0,0.1-0.2,0.5c-1.8-1.1-4-2.7-5.1-2.3c-1.8-0.6-3.5-1.7-5.2-3.1l0,0c-2.3-2.8-2.4-0.9-3.7-1.6
		c-0.6-0.1-0.6,0.3-0.4,0.7c-1.5,0.1-3.4-0.1-3,1.4c-2.1-0.6-2.4,0.2-2.3,1.2c-0.3-0.1-0.6-0.3-0.9-0.4c-0.8-0.3-1.4-0.5-1.5-0.2
		c-0.3,0.8-2.7,0.2-2.2,1.7c-0.3-0.1-0.6-0.2-0.9-0.4c-0.9-0.8-1.8-1.6-2.6-2.4v0c1.1,0.4,2.7,0.9,1.7-0.2c-0.7-0.9-1.5-0.6-2.3-0.9
		c-0.8,0.3-0.6,1.2-0.5,2c0,0,0,0,0,0c-0.2,0-0.4,0.1-0.6,0.1c-0.6-0.2-1.2-0.5-1.8-0.7c-0.4-0.3-0.8-0.6-1.2-1
		c-1.8-2.2-1.8-0.6-2.8-1.2c-0.4-0.5-0.1-1-1.3-1.5c-1-0.4-0.7,0.3-0.5,0.7c-2.7,0,1.7,2.5,2.5,3.7l0.1,0.1v0c0,0,0,0-0.1-0.1
		c-2.1-0.9-4.3-1.8-6.4-2.8c-0.3-0.1-0.6-0.3-0.9-0.4c0.5-0.1,0.9-0.3,1.4-0.4c-0.4-0.3-0.8-0.6-1.2-0.8c-2-0.9-1.6-0.1-1.2,0.8
		c-1.1,0.1-1,1.1-1.4,1.6c0.5,0.3,1.1,0.7,1.6,1c0.2,0.2,0.4,0.4,0.7,0.7c0.1,0.1,0.1,0.3,0.2,0.4c0,0,0,0-0.1,0
		c-1.2-0.5-1.7-0.4-2.2-0.2c-0.4,0.7-2.4,0.4-1.2,2.2c0,0,0,0,0,0c-0.2,0-0.4,0.1-0.7,0.1c-0.1,0.4-0.5,0.5-1.3,0.3
		c0.1,0.3,0.3,0.6,0.4,0.8c-0.1,0-0.1,0-0.2,0.1c-0.2,0.1-0.3,0.2-0.3,0.4c0.1,0.2,0.2,0.4,0.3,0.6c-2-0.5-0.2,1.1,0.2,1.9
		c0.2,0.2,0.4,0.4,0.6,0.6l-1.2-0.3c-1.7-1.1-3.6-2.5-3.3-0.7c0.3,0,0.7,0.1,1,0.2l-4.7-1c-2.3-1.9-4.3-3.7-6.1-5.5
		c-0.1-0.1-0.2-0.2-0.3-0.3c0,0.1,0,0.2,0,0.3c-0.5-0.1-1-0.1-1.5-0.2c-1.6-0.5-2.9-1.7-4.2-2.7c0-0.5,2.1,0.3,0.1-1.3
		c-2-1.6-0.8-1.6-0.1-1.8c0.6,0.1,1,0.1,1.1,0c-0.3-0.4-0.5-0.8-0.7-1.2c-0.2-0.2-0.3-0.3-0.5-0.5c-0.6-1.1-2.1-2.6-3.3-2.6
		c-1.1,0-0.2,1.5,1.4,3.1c0.6,1-0.6,0.9-0.8,1.4c-1-0.5-2.1-1.1-3.2-1.7c3.8,3.9,3.4,4.4-1.7,2.9c-1.3-0.4-1.7,0.1-1.3,1
		c-0.8-0.3-1.4-0.5-1.6-0.2c-0.7-0.3-1.4-0.5-1.6-0.2c-0.8-0.2-0.6,0.8-2.1-0.2c-3.8-2.6-4.4-1.9-5.1-1.1c-0.1,0-0.2,0-0.3,0
		c-0.7-0.8-1.6-1.6-2.7-2.5c-1.3-2.4-3-4.7-7.7-6.5c-1.8-0.2-3.6-0.4-5.4-0.6c-0.8-0.6-1.6-1.2-2.2-1.8c0,0,0,0-0.1-0.1
		c0-0.1,0-0.3,0.1-0.4c0.6-4,1.1-2.1,1.6-1.2c0.2,1.1,0.3,1.6,0.5,1.7c0.3-0.6,0.5-1.2,0.8-1.8c0.1-0.3,0.2-0.7,0.2-1.1
		c0.7-1.6,1.4-4.8,0.9-6.7c-0.5-1.8-1.5,0.5-2.2,3.9c-0.7,1.6-1.1-0.5-1.7-0.5c0-1.9,0-3.9,0-6.1c-1.8,8.2-2.5,7.9-3.5-1.1
		c-0.3-2.3-0.8-2.6-1.5-1.5c-0.1-1.4-0.2-2.5-0.5-2.7c-0.1-1.4-0.2-2.5-0.5-2.6c-0.2-1.4-1-0.5-0.8-3.4c0.7-7.5-0.3-8.1-1.3-8.8
		c-0.2-0.9-0.4-1.8-0.5-2.7c0-2.6-0.3-4.3-0.6-6c0.7-3,1.3-1.8,2-2c0.1,1.5,0,4.3,0.5,3.5c0.5-0.8,0.3-2.3,0-2.9
		c-0.1-0.4-0.3-0.4-0.5-0.6c-0.3-4.7-1.2-3.8-2.2-3c-0.5-4.4-1.5-6.1-2.4-8.1c-0.6-0.7-1.2-1.5-1.8-2.2c-0.3-1.1-0.7-2.3-1-3.4
		c-0.3-3.6-0.8-5.3-1.8-3.8c-0.3-2.9-0.4-7-1.5-6.3c-1-1-1.3-7.4-2.7-5.9c-0.1-0.3-0.3-0.5-0.4-0.8c-0.3-1.1-0.7-2.2-1-3.3
		c-0.4-1-0.9-2-1.3-3c-0.2-0.8-0.3-1.7-0.5-2.5c0.2-3.4,0-5.3-0.6-6.1c-0.5-2.5-1.5-1.8-1.9-5.5c-1.5,0.5-2.4-6.6-4.2-1.1
		c-0.1,0.3-0.3,0.7-0.4,1c-0.9-0.9-1.5-3.9-2.6-2.4c-0.3,0.2-0.7-0.6-0.9,1.4c-0.3,2.7,0.2,2.5,0.6,2.7l0,0c0.2,1.6,0.4,3.1,0.6,4.7
		c-0.4,0-0.8-0.1-1.2-0.1c-0.4-2.6-1.2-1.3-1.8-2.2c-0.9-0.4-1.9-3.5-2.4,4.8c-0.4,1.3-0.7,2.6-1.1,3.8c0.2,0.9,0.3,1.7,0.5,2.6
		c-0.1,0.8-0.2,1.7-0.3,2.5c-0.4,0.7-0.8,1.4-1.2,2.1l0.1-0.1l0,0.5c0,0-0.1,0.1-0.1,0.1c0-0.2,0-0.3,0-0.5
		c-0.1-0.5-0.3-0.7-0.4-0.6c0-1.6-0.2-2.5-0.6-2.5c-0.5,0-0.4,1.8-0.4,3c-0.1,0.2-0.3,0.3-0.4,0.5c-0.4-3.8-1.3-3.2-2.2-2.9
		c-0.1,0.2-0.2,0.3-0.4,0.4c-0.1-3.2-1.8-0.2-1.1-6.6c-0.4-3.5-1.2-3.2-2-3.4c-1.3-0.2-2.6-1.5-4,0.2c-0.2-0.3-0.3-0.6-0.5-0.8
		c-0.2-3.4-0.7-4.6-1.5-4.2c-0.2,0.5-0.5,1-0.7,1.4c-0.5,0.9-1,1.9-1.5,2.8c-0.1-0.2-0.2-0.2-0.3-0.1c-0.5-1.6-1.2-0.8-1.8-0.2
		c-0.4-0.3-0.9-0.7-1.3-1c0-0.5,0-1-0.1-1.4c0.1-1.9,0.5-4.6-0.2-5c-0.1-3.3-0.8-2.6-1.3-2.9c-0.7,0.4-1.3,1.6-2,3.6
		c-0.2-0.2-0.3-0.4-0.5-0.6c0.3-3.4,1-3.3,1.6-5.7c-1-1-2,2.6-3,2.6c-1.2,2.2-2.3,4.4-3.5,6.7c-1.2,2.3-2.4,4.6-3.6,6.9
		c-0.9-0.1-1.8,0.1-2.5,0.5c0.1,0.3,0.1,0.6,0.3,0.9c-1.8-0.3-3.3-0.4-2.5,1.9c-0.4,0.8-0.8,1.6-1.3,2.3c-0.9,0.7-1.7,1.4-2.6,2.1
		c-1.2-0.8-2.4-1.6-3.6-2.5c0,0-0.1,0-0.1,0c0,0,0.1,0,0.1,0c-1.4-0.4-2.8-0.7-4.2-1.1c-0.8-0.2-1.5-0.4-0.5,0.7
		c0.4,0.4,1.1,0.7,1.7,1c0.1,0.3,0.2,0.7,0.3,1c-0.1,0.3-0.3,0.6-0.4,0.9c-1.2-0.1-0.7,0.9-0.6,1.7c-0.3,1.2-0.6,2.4-0.9,3.6
		c-1,0.2-1.4,1-1.3,2.1c-2.6,1.2-2.3,4.6-2.6,7.5c-0.2,0.8-0.5,1.6-0.7,2.5c-0.8,0.3-1.6,0.7-2.4,1c0-0.7,0-0.5-0.1-1.3
		c0.1-0.2,0.2-0.4,0.2-0.6c0.8-2.5-2.7-2.7-4-3.9c-1.1-1.1-1.7-1-2-0.6c-0.9-0.1-1.8-0.1-2.6-0.4c-1.9-0.8-2.1-0.1-1.9,1
		c-0.8-0.5-1.4-1.2-1.8-2.1c0.5-0.4,0.9-0.9,1.4-1.3c1.2-0.1,0.3-1.4,0-2.3c0,0,0,0,0,0c-0.4-1.1-0.6-2.2-2.1-3.4
		c-0.1-0.3-0.1-0.6-0.2-0.9c1.2-0.4-0.5-1.9-1.1-2.9c1.9,0.6,3.3,0.3,4.4-0.2c1.3-0.6,0.5-1.9-1.9-3.1c-0.1-0.3-0.2-0.7-0.4-1
		c3.9,2,5.5,1.1,6-1.2c0.6-0.5,2.9,0.9,2.5-0.8c2.5,0.2,5.1,0.4,0.4-4c-1.9-2.2-4.1-3.5-6.3-4.8c-1.3-1-2.6-2-3.8-3.1
		c-1.2-1.6-2.4-2.8-3-1.5c-0.2,0.4-0.7,1.1,0.4,1.9c2.1,1.6,1.6-0.4,2.6-0.4c0.7,1.9,2.1,3.2,4.2,4c1,1.2,2.8,2.2,3.1,3.7
		c-0.2,0.2-0.5,0.4-0.7,0.6c-2-1.3-4.2-3.1-5.3-1.9c-2.1-0.5-4-1.8-5.9-3.8l0,0c-2.8-4.4-2.7-0.8-4.2-1.5c-0.7,0.1-0.6,0.8-0.4,1.5
		c-1.7,0.7-3.8,1.2-3.2,3.9c-2.4-0.3-2.6,1.3-2.5,3.3c-0.4-0.1-0.7-0.2-1.1-0.4c-0.9-0.3-1.6-0.4-1.7,0.2c-0.3,1.8-3,1.6-2.3,4.1
		c-0.3-0.1-0.6-0.2-1-0.3c-1-1.2-2.1-2.4-3.1-3.6v0c1.3,0.2,3,0.7,1.9-1.2c-0.9-1.4-1.7-0.6-2.6-0.8c-0.9,0.9-0.5,2.5-0.4,4
		c0,0,0,0,0,0c-0.2,0.2-0.5,0.3-0.7,0.5c-0.7-0.2-1.4-0.4-2.1-0.7c-0.5-0.5-0.9-0.9-1.4-1.4c-2.2-3.5-2-0.4-3.2-1.2
		c-0.5-0.8-0.2-1.9-1.6-2.4c-1.1-0.4-0.7,0.8-0.5,1.6c-3,1.1,2,4.1,3.1,6.1l0.1,0.1c0,0,0,0,0,0c0,0-0.1-0.1-0.1-0.1
		c-2.4-0.9-4.9-1.7-7.3-2.6c-0.3-0.1-0.7-0.3-1-0.4c0.5-0.5,1-0.9,1.5-1.4c-0.4-0.3-0.9-0.8-1.3-1c-2.3-0.9-1.8,0.6-1.3,2
		c-1.2,0.7-1,2.4-1.4,3.7c0.6,0.4,1.2,0.9,1.8,1.3c0.2,0.3,0.5,0.7,0.8,1c0.1,0.2,0.2,0.5,0.2,0.7c0,0,0,0-0.1,0
		c-1.3-0.5-1.9,0-2.5,0.5c-0.4,1.5-2.6,1.7-1.1,4.6c0,0,0,0,0,0c-0.2,0.2-0.5,0.4-0.7,0.6c0,0.8-0.5,1.2-1.4,1.2
		c0.2,0.5,0.3,1,0.5,1.4c-0.1,0.1-0.2,0.1-0.2,0.2c-0.2,0.2-0.3,0.5-0.3,0.8c0.1,0.3,0.2,0.6,0.3,1c-2.3-0.1-0.1,2.2,0.4,3.6
		c0.5,0.7,1,1.5,1.5,2.2l0.1,0c0,0.1,0,0.1,0.1,0.2c-0.1-0.1-0.1-0.1-0.2-0.2c-1.8-0.1-6.5-6.1-5.9-1.3c1.2-0.5,2.3,1,3.4,2.1
		c0.2,0.6,0.4,1.1,0.7,1.7c-0.8-0.1-1.4,0-1.5,0.6c-0.2,0.4-0.3,0.7-0.5,1.1c-5.5-4.3-9.9-8.9-13.4-13.4c-0.1-0.1-0.2-0.3-0.3-0.4
		c0,0.1,0,0.3,0,0.5c-0.6,0.1-1.1,0.2-1.7,0.3c-1.8-0.3-3.3-2-4.9-3.4c-0.1-0.9,2.3-0.2,0-2.6c-2.3-2.3-1-2.7-0.3-3.5
		c0.7,0,1.1-0.2,1.2-0.5c-0.3-0.7-0.6-1.4-0.9-2c-0.2-0.3-0.4-0.5-0.6-0.8c-0.8-1.8-2.5-4.1-3.9-3.6c-1.3,0.4-0.1,3,1.7,5.3
		c0.8,1.7-0.6,2-0.8,3.1c-1.2-0.6-2.4-1.2-3.7-1.9c4.5,5.9,4.1,7-1.7,6.3c-1.5-0.2-1.8,0.8-1.3,2.4c-0.9-0.3-1.6-0.4-1.8,0.2
		c-0.9-0.3-1.6-0.4-1.8,0.2c-0.9,0-0.6,1.8-2.3,0.4c-4.4-3.5-5-1.8-5.8,0c-0.6,0.1-1.2,0.2-1.8,0.2c-1.6-0.8-2.7-0.7-3.8-0.6
		c-1.6-2.2-0.7-3.1-0.7-4.4c0.9,0.2,2.6,1.3,2.3,0.1c-0.4-1.2-1.3-1.2-1.8-0.9c-0.3,0.1-0.4,0.5-0.5,0.8c-3-0.8-2.7,1.3-2.4,3.3
		c-2.8-0.3-4.2,1-5.7,2.2c-0.6,0.9-1.2,1.8-1.8,2.7c-0.8,0.3-1.6,0.6-2.4,0.9c-2.3-0.5-3.5,0-2.9,2.3c-1.9-0.2-4.4-1.3-4.3,0.9
		c-0.9,1.7-4.9,0.3-4.4,3.4c-0.2,0.2-0.4,0.4-0.6,0.6c-0.8,0.3-1.6,0.7-2.3,1c-0.7,0.6-1.5,1.1-2.2,1.7c-0.6,0.1-1.1,0.2-1.7,0.3
		c-1.4-1-2.5-1.4-3.2-1.2c-0.6-1-1.9-1.2-2.6-1.2c-0.4,0-0.6,0.3-0.9,0.5c-4.5-1.7-4.1,0.2-3.9,2c-4.3-1.2-6.4-0.5-8.8,0
		c-1,0.6-2,1.2-3,1.7c-1.2,0-2.4,0-3.7,0c-3.5-1.2-5.3-1.1-4.5,1.1c-2.8-0.8-6.6-2.5-6.6-0.6c-1.5,1.1-7.5-1.4-6.9,1.5
		c-0.3,0.1-0.6,0.2-0.9,0.3c-1.2,0-2.4,0.1-3.6,0.1c-1.1,0.2-2.3,0.5-3.5,0.7c-0.9-0.1-1.7-0.2-2.6-0.3c-3-1.9-4.8-2.4-5.9-1.8
		c-2.5-0.3-2.5,1.6-6,0.5c-0.4,2.5-7.4,0.8-3.4,6.1c0.2,0.4,0.5,0.7,0.7,1.1c-1.3,1-4.4,0.6-3.7,2.9c0,0.3-0.2,0.5-0.2,0.7H820
		c-0.5-0.6-1.1-1-2.1-1.3c-0.7,0.1-1.4,0.2-2,0.3c-0.3-0.3-0.6-0.6-0.9-0.9c-3.5-4-4-4.2-5.5-2.1c-0.6-0.8-1.3-1.5-1.9-2.3
		c-0.5-0.8-1.1-1.7-2-2.4c-2.8-3.3-6.1-4.9-7.8-3.9c0,0.2,0.1,0.4,0.2,0.5c-1.1-0.2-1.9-0.2-1.4,1.1c-0.2,0.5-0.5,0.9-0.7,1.4
		c-0.5,0.4-1,0.8-1.5,1.2c-0.7-0.5-1.4-1-2.1-1.4c0,0,0,0-0.1,0c0,0,0,0,0.1,0c-0.8-0.2-1.6-0.4-2.5-0.6c-0.5-0.1-0.9-0.2-0.3,0.4
		c0.2,0.2,0.6,0.4,1,0.6c0.1,0.2,0.1,0.4,0.2,0.6c-0.1,0.2-0.2,0.4-0.3,0.5c-0.7-0.1-0.4,0.5-0.4,1c-0.2,0.7-0.3,1.4-0.5,2.1
		c-0.6,0.1-0.8,0.6-0.8,1.2c-1.4,0.7-1.3,2.4-1.5,4h-2.3c-0.6-0.4-1.4-0.6-1.8-1c-0.7-0.6-1-0.6-1.2-0.3c-0.5-0.1-1,0-1.5-0.2
		c-1.1-0.4-1.2,0-1.1,0.6c-0.5-0.3-0.8-0.7-1-1.2c0.3-0.3,0.5-0.5,0.8-0.8c0.7-0.1,0.2-0.8,0-1.4l0,0c-0.2-0.7-0.3-1.3-1.2-2
		c0-0.2-0.1-0.3-0.1-0.5c0.7-0.3-0.3-1.1-0.7-1.7c1.1,0.4,2,0.2,2.6-0.1c0.8-0.4,0.3-1.1-1.1-1.8c-0.1-0.2-0.1-0.4-0.2-0.6
		c2.3,1.2,3.2,0.7,3.5-0.7c0.4-0.3,1.7,0.5,1.5-0.5c1.5,0.1,3,0.2,0.2-2.4c-1.1-1.3-2.4-2.1-3.7-2.8c-0.8-0.6-1.5-1.2-2.3-1.8
		c-0.7-0.9-1.4-1.7-1.8-0.9c-0.1,0.3-0.4,0.6,0.2,1.1c1.2,0.9,1-0.2,1.5-0.3c0.4,1.1,1.2,1.9,2.4,2.4c0.6,0.7,1.6,1.3,1.8,2.1
		c-0.1,0.5,0,0.1-0.1,0.6c-1.2-0.8-2.7-2.1-3.4-1.3c-1.2-0.3-2.4-1-3.5-2.2l0,0c-1.6-2.6-1.6-0.5-2.5-0.9c-0.4,0.1-0.4,0.4-0.2,0.9
		c-1,0.4-2.2,0.7-1.9,2.3c-1.4-0.1-1.6,0.8-1.5,1.9c-0.2-0.1-0.4-0.1-0.6-0.2c-0.5-0.2-0.9-0.2-1,0.1c-0.2,1-1.8,0.9-1.3,2.4
		c-0.2,0-0.4-0.1-0.6-0.2c-0.6-0.7-1.2-1.4-1.8-2.1v0c0.7,0.1,1.8,0.4,1.1-0.7c-0.5-0.8-1-0.3-1.5-0.5c-0.5,0.5-0.3,1.5-0.2,2.4
		c0,0,0,0,0,0c-0.1,0.1-0.3,0.2-0.4,0.3c-0.4-0.1-0.8-0.3-1.2-0.4c-0.3-0.3-0.5-0.5-0.8-0.8c-1.3-2-1.2-0.2-1.9-0.7
		c-0.3-0.5-0.1-1.1-0.9-1.4c-0.7-0.3-0.4,0.5-0.3,1c-1.8,0.7,1.2,2.4,1.8,3.6l0,0.1c0,0,0,0,0,0c0,0,0,0,0-0.1
		c-1.4-0.5-2.9-1-4.3-1.5c-0.2-0.1-0.4-0.1-0.6-0.2c0.3-0.3,0.6-0.5,0.9-0.8c-0.3-0.2-0.6-0.5-0.8-0.6c-1.3-0.5-1,0.3-0.7,1.2
		c-0.7,0.4-0.6,1.4-0.8,2.2c0.4,0.3,0.7,0.5,1.1,0.8c0.1,0.2,0.3,0.4,0.5,0.6c0,0.1,0.1,0.3,0.1,0.4c0,0,0,0,0,0
		c-0.8-0.3-1.1,0-1.5,0.3c-0.2,0.9-1.5,1-0.7,2.7c0,0,0,0,0,0c-0.1,0.1-0.3,0.2-0.4,0.3c0,0.5-0.3,0.7-0.8,0.7
		c0.1,0.3,0.2,0.6,0.3,0.8c0,0-0.1,0.1-0.1,0.1c-0.1,0.1-0.2,0.3-0.2,0.5c0.1,0.2,0.1,0.4,0.2,0.6c-1.3-0.1-0.1,1.3,0.2,2.1
		c0.1,0.2,0.3,0.4,0.4,0.6H751c-1.1-0.9-2.4-2-2.2,0c0.2-0.1,0.4-0.1,0.6,0h-3.1c-1.6-1.5-3-3.1-4.2-4.7c-0.1-0.1-0.1-0.2-0.2-0.2
		c0,0.1,0,0.2,0,0.3c-0.3,0.1-0.7,0.1-1,0.2c-1.1-0.2-2-1.2-2.9-2c0-0.5,1.4-0.1,0-1.5c-1.3-1.3-0.6-1.6-0.2-2
		c0.4,0,0.6-0.1,0.7-0.3c-0.2-0.4-0.4-0.8-0.5-1.2c-0.1-0.1-0.2-0.3-0.4-0.5c-0.5-1-1.5-2.4-2.3-2.1c-0.7,0.3-0.1,1.8,1,3.1
		c0.4,1-0.3,1.2-0.5,1.8c-0.7-0.3-1.4-0.7-2.2-1.1c2.6,3.4,2.4,4.1-1,3.7c-0.9-0.1-1.1,0.5-0.8,1.4c-0.5-0.2-0.9-0.2-1,0.1
		c-0.5-0.2-0.9-0.2-1,0.1c-0.5,0-0.3,1.1-1.4,0.3c-2.6-2-3-1-3.4,0c-0.1,0-0.1,0-0.2,0.1c-0.5-0.7-1.1-1.4-1.9-2.1
		c-0.9-2.4-2.2-4.5-5.3-5.4c-1.2,0.2-2.3,0.4-3.5,0.6c-0.5-0.5-1.1-1-1.5-1.5c-5.9-6.9-6.8-7.2-9.4-3.6c-1.1-1.3-2.2-2.6-3.2-4
		c-0.8-1.4-1.8-2.8-3.4-4c-4.8-5.7-10.3-8.4-13.4-6.7c0.1,0.3,0.1,0.6,0.3,0.9c-1.8-0.3-3.3-0.4-2.5,1.9c-0.4,0.8-0.8,1.6-1.3,2.3
		c-0.9,0.7-1.7,1.4-2.6,2.1c-1.2-0.8-2.4-1.6-3.6-2.5c0,0-0.1,0-0.1,0c0,0,0.1,0,0.1,0c-1.4-0.4-2.8-0.7-4.2-1.1
		c-0.8-0.2-1.5-0.4-0.5,0.7c0.4,0.4,1.1,0.7,1.7,1c0.1,0.3,0.2,0.7,0.3,1c-0.1,0.3-0.3,0.6-0.4,0.9c-1.2-0.1-0.7,0.9-0.6,1.7
		c-0.3,1.2-0.6,2.4-0.9,3.6c-0.3,0.1-0.6,0.2-0.8,0.4c0.2-1.5,0-2.3-0.6-2.6c-0.4,0.1-0.8,0.3-1.1,0.5c-0.8,0.3-1.5,0.6-2.3,0.9
		c0-0.3-0.1-0.4-0.2-0.4c0.1-2.1-0.8-2.1-1.5-2.3c-0.3-0.8-0.5-1.7-0.8-2.5c0.1-0.5,0.3-1,0.4-1.4c0.7-1.7,2-3.7,1.5-4.9
		c1-3.2,0.2-3.3-0.2-4.3c-0.8-0.4-1.8,0-3,1.1c-0.1-0.4-0.2-0.7-0.2-1.1c1.4-2.9,2-1.9,3.4-3.4c-0.6-2.1-2.7,0.1-3.5-1
		c-1.6,0.6-3.2,1.2-4.8,1.9c-0.8-0.6-1.7-1.1-2.5-1.5c-1.3-1-2.6-2-3.8-3.1c-1.2-1.6-2.4-2.8-3-1.5c-0.2,0.4-0.7,1.1,0.4,1.9
		c2.1,1.6,1.6-0.4,2.6-0.4c0.7,1.9,2.1,3.2,4.2,4c0.3,0.4,0.7,0.7,1,1c-0.8,0.3-1.6,0.6-2.4,1c-0.6-0.1-1.1-0.1-1.4,0.3
		c-2.1-0.5-4-1.8-5.9-3.8l0,0c-2.8-4.4-2.7-0.8-4.2-1.5c-0.7,0.1-0.6,0.8-0.4,1.5c-1.7,0.7-3.8,1.2-3.2,3.9
		c-2.4-0.3-2.6,1.3-2.5,3.3c-0.4-0.1-0.7-0.2-1.1-0.4c-0.9-0.3-1.6-0.4-1.7,0.2c-0.3,1.8-3,1.6-2.3,4.1c-0.3-0.1-0.6-0.2-1-0.3
		c-1-1.2-2.1-2.4-3.1-3.6c0,0,0,0,0,0c1.3,0.2,3,0.7,1.9-1.2c-0.9-1.4-1.7-0.6-2.6-0.8c-0.9,0.8-0.5,2.5-0.4,4c0,0,0,0,0,0
		c-0.2,0.2-0.5,0.3-0.7,0.5c-0.7-0.2-1.4-0.4-2.1-0.7c-0.5-0.5-0.9-0.9-1.4-1.4c-2.2-3.5-2-0.4-3.2-1.2c-0.5-0.8-0.2-1.9-1.6-2.4
		c-1.1-0.4-0.7,0.8-0.5,1.6c-3,1.1,2,4.1,3.1,6.1l0.1,0.1c0,0,0,0,0,0c0,0-0.1-0.1-0.1-0.1c-2.4-0.9-4.9-1.7-7.3-2.6
		c-0.3-0.1-0.7-0.3-1-0.4c0.5-0.5,1-0.9,1.5-1.4c-0.4-0.3-0.9-0.8-1.3-1c-2.3-0.9-1.8,0.6-1.3,2c-1.2,0.7-1,2.4-1.4,3.7
		c0.6,0.4,1.2,0.9,1.8,1.3c0.2,0.3,0.5,0.7,0.8,1c0.1,0.2,0.2,0.5,0.2,0.7c0,0,0,0-0.1,0c-1.3-0.5-1.9,0-2.5,0.5
		c-0.4,1.5-2.6,1.7-1.1,4.6l0,0c-0.2,0.2-0.5,0.4-0.7,0.6c0,0.8-0.5,1.2-1.4,1.2c0.2,0.5,0.3,1,0.5,1.4c-0.1,0.1-0.2,0.1-0.2,0.2
		c-0.2,0.2-0.3,0.5-0.3,0.8c0.1,0.3,0.2,0.6,0.3,1c-0.8,0-1.1,0.2-1,0.7c-0.2,0-0.5,0.1-0.7,0.2c0,0,0,0,0,0c0,0,0,0,0,0
		c-0.1,0-0.3,0.1-0.4,0.2c-1.7,0.5-2-2.6-4.2-0.6c-0.5-3.7-3.1-2.2-5.1-2.1c-0.8-0.3-1.3-1.6-2.7-0.6c-0.3-0.4-0.7-0.9-1-1.3
		c-0.1-0.1-0.2-0.3-0.3-0.4c0,0.1,0,0.3,0,0.5c-0.6,0.1-1.1,0.2-1.7,0.3c-1.8-0.3-3.3-2-4.9-3.4c-0.1-0.9,2.3-0.2,0-2.6
		c-2.3-2.3-1-2.7-0.3-3.5c0.7,0,1.1-0.2,1.2-0.5c-0.3-0.7-0.6-1.4-0.9-2c-0.2-0.3-0.4-0.5-0.6-0.8c-0.8-1.8-2.5-4.1-3.9-3.6
		c-1.3,0.4-0.1,3,1.7,5.3c0.8,1.7-0.6,2-0.8,3.1c-1.2-0.6-2.4-1.2-3.7-1.9c1.7,2.2,2.7,3.7,3,4.7c-1.2-2.2-2.6-4.4-8.1-6
		c-1.6-1.7-3.6-3.1-8.4-2.7c-1.8,0.6-3.5,1.3-5.3,1.9c-0.8-0.2-1.7-0.4-2.4-0.7c-9.5-3.7-10.9-3.7-14.6,0.5
		c-1.7-0.7-3.5-1.5-5.2-2.2c-1.4-0.9-3-1.8-5.5-2.2c-7.6-3.1-16.3-3.4-20.7-0.6c0.1,0.2,0.3,0.5,0.5,0.7c-2.8,0.4-5.1,0.9-3.6,2.6
		c-0.6,0.8-1.2,1.7-1.8,2.5c-1.3,0.9-2.5,1.9-3.8,2.8c-1.9-0.2-3.8-0.5-5.6-0.7c0,0-0.1,0-0.2,0.1c0,0,0.1,0,0.1-0.1
		c-2.1,0.2-4.3,0.5-6.4,0.7c-1.3,0.1-2.3,0.3-0.8,0.9c0.6,0.2,1.7,0.2,2.6,0.2c0.2,0.2,0.4,0.5,0.5,0.7c-0.2,0.3-0.4,0.6-0.6,1
		c-1.8,0.3-1,1.1-0.8,1.7c-0.3,1.1-0.7,2.3-1.1,3.4c-1.5,0.6-2,1.4-1.9,2.3c-3.9,2.1-3.1,4.9-3.4,7.6c-0.3,0.8-0.6,1.6-0.8,2.4
		c-1.2,0.6-2.4,1.2-3.6,1.8c-0.1-0.6-0.1-0.4-0.2-1.1c0.2-0.2,0.3-0.4,0.3-0.6c1-2.5-4.3-1.3-6.3-1.9c-1.8-0.5-2.6-0.2-3.1,0.3
		c-1.3,0.2-2.7,0.6-3.9,0.6c-2.9,0.1-3.2,0.8-2.8,1.6c-1.3-0.1-2.2-0.5-2.8-1.2c0.7-0.6,1.3-1.1,2-1.7c1.7-0.5,0.4-1.3-0.1-2.1
		c0,0,0,0,0,0c-0.6-0.8-1-1.7-3.5-2.1c-0.1-0.2-0.3-0.5-0.4-0.7c1.8-0.8-0.9-1.4-1.9-2.1c3-0.2,5.1-1,6.7-1.9c2-1.1,0.6-1.8-3.1-1.9
		c-0.2-0.2-0.4-0.5-0.6-0.7c6.1,0.2,8.5-1.2,9-3.4c0.9-0.7,4.4-0.3,3.7-1.6c3.8-0.8,7.7-1.6,0.3-3.7c-3-1.2-6.4-1.5-9.9-1.8
		c-2-0.4-4-0.8-6-1.2c-1.9-0.9-3.9-1.5-4.7-0.1c-0.2,0.5-1,1.2,0.7,1.5c3.2,0.6,2.5-1,3.9-1.4c1.3,1.3,3.5,2,6.6,1.9
		c1.6,0.7,4.4,0.9,5,2c-0.3,0.3-0.7,0.5-1,0.8c-3.1-0.4-6.5-1.1-8.1,0.4c-3.2,0.4-6.3,0-9.3-1l0,0c-4.5-2.7-4.2,0.4-6.5,0.3
		c-1,0.4-0.9,0.9-0.4,1.5c-2.5,1.3-5.6,2.5-4.6,4.6c-3.6,0.7-3.9,2.2-3.5,3.8c-0.6,0-1.1,0.1-1.6,0.1c-1.3,0.1-2.4,0.3-2.6,0.9
		c-0.3,1.6-4.4,2.5-3.1,4.5c-0.5,0-1,0.1-1.5,0.1c-1.7-0.6-3.3-1.3-5-1.9c0,0,0,0,0,0c1.9-0.3,4.7-0.6,2.8-1.8
		c-1.4-0.9-2.6,0.2-4,0.3c-1.3,1.1-0.6,2.4-0.3,3.7c0,0,0,0,0,0c-0.3,0.2-0.7,0.5-1,0.7c-1.1,0.1-2.1,0.2-3.2,0.2
		c-0.7-0.2-1.5-0.4-2.2-0.7c-3.5-2.2-3.1,0.4-4.9,0.2c-0.8-0.5-0.4-1.6-2.6-1.5c-1.7,0.1-1,1-0.7,1.6c-4.5,2.2,3.4,2.8,5.1,4.1
		l0.1,0.1c0,0,0,0,0,0c0,0-0.1,0-0.1-0.1c-3.8,0.2-7.5,0.4-11.3,0.6c-0.5,0-1,0-1.6,0.1c0.7-0.6,1.5-1.2,2.2-1.8
		c-0.7-0.1-1.5-0.4-2.1-0.3c-3.5,0.1-2.6,1.2-1.8,2.2c-1.8,1.1-1.3,2.5-1.9,3.8c1,0.1,1.9,0.3,2.9,0.4c0.4,0.2,0.8,0.4,1.3,0.6
		c0.1,0.2,0.3,0.4,0.4,0.6c0,0-0.1,0-0.1,0c-2.1,0.1-3,0.7-3.7,1.4c-0.5,1.5-3.9,2.5-1.4,4.5l0,0c-0.4,0.3-0.7,0.5-1,0.8
		c0,0.7-0.7,1.2-2,1.6c0.3,0.4,0.6,0.7,0.9,1.1c-0.1,0.1-0.2,0.2-0.3,0.3c-0.3,0.3-0.4,0.5-0.4,0.9c0.2,0.2,0.4,0.5,0.6,0.7
		c-3.5,0.8,0,1.9,0.9,2.9c0.8,0.4,1.7,0.9,2.5,1.3l0.2,0c0,0,0.1,0.1,0.1,0.1c-0.1,0-0.2-0.1-0.3-0.1c-2.7,0.6-10.4-2.8-9,1.1
		c1.7-0.9,3.5,0,5.3,0.5c0.4,0.4,0.7,0.8,1.1,1.2c-1.3,0.2-2.1,0.5-2.2,1.1c-0.2,0.4-0.4,0.7-0.7,1.2c-8.6-1.6-15.7-3.9-21.3-6.5
		c-0.2-0.1-0.3-0.2-0.5-0.2c0,0.1,0,0.3,0.1,0.4c-0.9,0.3-1.7,0.6-2.6,0.9c-2.8,0.4-5.2-0.4-7.7-1.1c-0.2-0.8,3.5-1.1-0.2-2.2
		c-3.6-1.1-1.7-2-0.7-2.9c1.1-0.3,1.6-0.6,1.7-0.9c-0.5-0.5-1-1-1.5-1.5c-0.3-0.1-0.6-0.3-1-0.4c-1.3-1.2-4.1-2.6-6.1-1.6
		c-1.9,0.9,0.1,2.7,3,4c1.3,1.2-0.8,2-0.9,3c-1.8-0.1-3.7-0.1-5.8-0.2c7.3,3.4,6.8,4.5-2.1,6.1c-2.2,0.4-2.7,1.4-1.8,2.6
		c-1.3,0.1-2.4,0.3-2.7,0.9c-1.3,0.1-2.4,0.3-2.6,0.9c-1.4,0.3-0.7,1.8-3.5,1.3c-6.9-1.3-7.8,0.4-8.8,2.2c-0.9,0.3-1.8,0.6-2.7,0.9
		c-2.5,0-4.2,0.5-5.9,1c-2.6-1.3-1.3-2.4-1.3-3.6c1.4-0.2,4,0.1,3.4-0.8c-0.6-0.9-2.1-0.5-2.8-0.1c-0.4,0.2-0.5,0.6-0.8,0.9
		c-4.6,0.5-3.9,2.1-3.5,3.8c-4.3,0.8-6.2,2.5-8.4,4.1c-0.9,1-1.7,2-2.6,3.1c-1.2,0.6-2.4,1.1-3.5,1.7c-3.5,0.4-5.2,1.4-4.2,3.1
		c-2.8,0.5-6.7,0.6-6.5,2.5c-1.3,1.8-7.4,2.2-6.4,4.7c-0.3,0.2-0.6,0.5-0.9,0.7c-1.2,0.6-2.3,1.2-3.5,1.8c-1.1,0.8-2.1,1.5-3.2,2.3
		c-0.8,0.3-1.7,0.6-2.5,0.9c-3.1-0.5-5-0.1-5.9,1c-2.5,0.9-2.2,2.7-5.7,3.2c0,2.6-7,4.2-2.3,7.5c0.3,0.2,0.5,0.5,0.8,0.7
		c-1.1,1.5-4.1,2.6-3.1,4.5l-135.4,34.6c0.6,2.6,1,8.4,1.7,10c1.1-0.5,1.1,6.3,1.4,11.2c1-1.9,1.5,1.1,1.8,7.2c0.3,2,0.6,4.1,1,6.1
		c0.6,1.5,1.2,3,1.8,4.5c0.9,3.8,1.9,7.1,2.3,14.6c0.9-0.9,1.9-2,2.2,6c0.2,0.4,0.4,0.6,0.5,1.3c0.2,1.2,0.5,3.8-0.1,4.9
		c-0.5,1-0.3-3.5-0.5-6c-0.7,0-1.3-2.3-2.1,2.3c0.3,2.9,0.6,5.9,0.6,10.2c0.2,1.5,0.3,3.1,0.5,4.7c1,1.7,2.1,3.3,1.3,15.2
		c-0.3,4.8,0.5,3.6,0.7,6c0.3,0.4,0.5,2.3,0.5,4.6c0.3,0.4,0.5,2.3,0.5,4.6c0.7-1.5,1.3-0.7,1.5,3.2c0.9,15.4,1.6,16.3,3.5,3.6
		c0,3.6-0.1,6.8-0.1,10c0.6,0.3,1,3.9,1.7,1.6c0.7-5.2,1.8-8.5,2.3-5.3c0.5,3.5-0.2,8.3-0.9,10.6c-0.1,0.6-0.2,1.2-0.3,1.7
		c-0.3,0.8-0.6,1.6-0.8,2.5c-0.2-0.2-0.4-1.1-0.5-3c-0.5-1.7-1.1-5.1-1.7,1.2c-0.7,6.5-0.9,0.1-1.3,0.4c-0.4,4.3-0.9,8.5-0.6,13.3
		c0.2,1.5,0.3,3,0.5,4.5c0.1-0.1,0.2-0.2,0.2-0.2c0,0.3-0.1,0.6-0.1,0.9c-1.5,9.7-2.8,22-3.8,36.9c0.3,0.4,0.4,0.7,0.7,1.1
		c0.3,0.1,0.5,1.6,0.6,3.8c0.2-0.7,0.5-1.3,0.7-1.9c0.3-3.1,0.8-6.2,0.3-9.2c2.3-2.4,0.3,11,0.7,15.6c0.3-1.5,0.5-2.9,0.8-4.4
		c0.6-1.6,1.2-7.6,1.7-1.5c0.1-0.3,0.3-0.7,0.4-1c0.2,0,0.3,0.2,0.5,0.7c0.1,0.2,0.1,0.4,0.2,0.6c0.2-0.5,0.4-1,0.6-1.5
		c0.2,2.4,0.5,3.5,0.9,3.5c0.1,0.6,0.3,1.2,0.4,1.8c0,0,0,0,0,0c1.1-4.4,1.7,1.6,2.6,2.4c0.4,1.4,0.7,2.9,0.8,6.5c0,0.1,0,0.1,0,0.2
		c0.1-0.2,0.2-0.5,0.3-0.7c0.1-0.9,0.2-1.6,0.3-2.3c0.1-1.7,0.2-3.3,0.2-5c0.7,1.1,1.6,0.2,2.2,3.3c0.6-1.5,1.2-3,1.3,3.1
		c0,1.1-0.1,2.4-0.2,3.7c-0.3-1.3-0.7-2.6-1-3.8c0,0.9,0,1.8,0,2.7c0.1,6.6,0.2,13.1,0.3,19.7c0.8-3,1.1-16.7,2.4-8.9
		c0.4-0.6,0.9-1.9,0.9,1.2c0,3.8-0.5,3-0.8,4.5c-0.1,3.3,1.4,2.5,0.1,8.6c-0.1,1.2-0.3,2.5-0.4,3.8c0,1.8,0.1,3.7,0.1,5.5
		c0.1,0.6,0.3,1.2,0.4,1.8c0,0,0,0,0,0c0.7-0.6,1.5-1.8,2.1,0.5c0.1,2.4,0.7,4.5,0.2,7c-0.7,3.3-0.8-1.5-1-4.8c0,0,0,0,0,0
		c-0.4,2.9-0.7,5.8-1.1,8.6c0,0.9,0,1.8,0.1,2.6c1.1-2.2,1.6,4.9,2.6,5.5c0.4,0.2,0.5,2.2,0.5,4.5c0,1,0,1.9,0,2.9
		c0.9-0.7,1.8-0.2,2.2,6.1c1.2-1.7,1.9,3.6,2.7,8c0.3-0.8,0.6-1.1,0.9,0.7c0,4,1.8,3.4,0.2,11.2l0,0c-0.6,5.3-0.8,10.6-0.6,16.1
		c0.8,2.8,0.4,8.7,0.2,14.1c0.2,0.6,0.3,1.2,0.4,1.7c0.6-1.1,0.7-5.9,1.1-8.7c0-5.5,0.3-9.3,1.1-11.5c-0.2-2.6-1.1-1.2-0.8-6.9
		c0.2-3,0.6-1.7,0.9-1.3c0.8,1.4,0.5,4.7-0.1,8.1c-0.2,3.5-0.5,7-0.7,10.5c-0.1,6-0.3,12-1,17.2c-1.2,12.9-1.7,6.2-2.1-0.5
		c-0.8,1.3-0.6-4.8-0.9-6.4c-1.3-0.9-2.1-5.1-1.9-15.6c-0.1,0.3-0.3,0.7-0.4,1.1c-0.1,6.5-0.5,8.8-1.1,5.4
		c-0.5-2.8-0.9-6.4-1.1-11.6c-0.4,1.7-0.7,6.4-1.2,3.3c-0.1,0.2-0.3,0.4-0.4,0.6c-0.3,4.3-0.8,4.9-1.2,6c0,0,0,0,0,0
		c-0.4,0.8-0.9,3.2-1.2,0.2c-0.3-1.1-0.6-2.3-1-3.4c-0.4,1-0.6,2.7-0.7,4.9c0.5-0.7,0.9-0.3,0.9,4.8c0,2.2,0.2,4.5,0.4,6.8
		c0.3,0.8,0.4,2.2,0.2,5.3c-0.3,3.4,0.4,12.6-1.1,10.9c-0.1,0-0.3-0.2-0.4-0.5c-0.4,0.2-0.3,0.2-0.6,0.4c0.3,2,0.7,4.1,1,6.2
		c0.5,0.5,0.9,1,1.4,1.5c1.5,0.6,3.2-0.8,4.4,5.9c0.5-0.2,1,0.6,1.3,3.2c0.7,0.6,1.3,1.3,2,1.8c0.4-0.2,0.8-1.6,1,1.5
		c0.2,0.3,0.4,0.7,0.6,1c0.1-0.2,0.3-0.5,0.4-0.8c0-1.5,0-3.5,0.1-4.5c0.3-2.6,0.4-0.8,0.5,1.3c0.1,3.8,0.3,7.4,0.4,11.2
		c0-0.1,0-0.2,0-0.3c0,0.1,0,0.2,0,0.3c-0.1,3.3-0.3,6.5-0.4,9.8c0.5,2.2,1.1,4.4,1.6,6.6c0.5,1,1,2.1,1.5,3.1
		c1-2.5,1.3,1.5,1.5,6.2c0.1-0.3,0.3-0.6,0.4-0.8c1.6,7.8,1.4,22.8-0.4,36c-0.2,4.4-0.7,7.1-1.3,9.5c-0.4,3-0.8,6-1.3,9
		c2.4,6.4,2.4,8.8,0.3,25.3c-0.2,1.2-0.3,2.8-0.4,4.2c0.4,3,0.7,6.1,1.1,9.1c0.2,8.3-0.6,11.9-1.6,14.6c-0.9,9.6-2.2,12-3.5,14.1
		c0.6-0.5,1.5-2.2,2.7-5.2c-0.4,2.3-0.7,4.4-1.1,6.4c0.6,0.3,0.8,2.7,1.8,1.3c1.3-3.2,2.8-5.2,3.1-3c0.3,2.3-1.1,5.3-2.1,6.7
		c-0.2,0.4-0.3,0.7-0.5,1.1c-0.4,0.4-0.8,0.9-1.2,1.5c-0.2-0.2-0.3-0.8-0.3-2c-0.4-1.2-0.7-3.5-2,0.5c-1.3,4.1-1-0.1-1.5,0
		c-0.8,2.7-1.8,5.3-2,8.5c0,1,0.1,2,0.2,3c0.1-0.1,0.2-0.1,0.3-0.1c-0.1,0.2-0.2,0.3-0.2,0.5c-0.2,0.6-0.5,1.2-0.7,1.8
		c0.6,2.3-0.1,3.2-0.3,4.7c0.1,3.6,1,8-1.2,8.9c1.2,3.8-0.6,4.4-0.3,7.3c0,0.2,0.1,0.4,0.1,0.7c0,0,0,0,0,0.1c0,0,0,0,0,0
		c0.1,0.4,0.1,0.9,0.1,1.3c0.3-0.1,0.4,0.3,0.4,1.8c0.2-0.2,0.4-0.4,0.6-0.6c0.2,0,0.4,0.2,0.5,0.5c0,0.1,0.1,0.3,0.1,0.4
		c0.3-0.3,0.6-0.6,0.8-0.9c0,1.6,0.2,2.4,0.7,2.4c0.1,0.4,0.2,0.8,0.3,1.2c0,0,0,0,0,0c1.7-2.6,1.8,1.3,2.7,1.9
		c0.3,0.9,0.6,2,0.3,4.3c0,0,0,0.1,0,0.1c0.1-0.1,0.3-0.3,0.4-0.4c0.2-0.5,0.4-1,0.6-1.4c0.2-1.1,0.5-2.1,0.7-3.2
		c0.7,0.8,1.7,0.4,2.1,2.5c0.8-0.9,1.7-1.7,1.1,2.2c-0.1,0.7-0.4,1.5-0.6,2.3c-0.3-0.9-0.5-1.8-0.8-2.6c-0.1,0.6-0.1,1.2-0.2,1.8
		c-0.5,4.3-1,8.5-1.5,12.8c1.2-1.8,2.9-10.6,3.5-5.3c0.5-0.3,1.2-1.1,0.9,0.9c-0.3,2.5-0.9,1.9-1.4,2.7c-0.4,2.1,1.3,1.8-0.7,5.6
		c-0.3,0.8-0.5,1.6-0.8,2.4c-0.1,1.2-0.3,2.4-0.4,3.6c0.1,0.4,0.2,0.8,0.3,1.2c0,0,0,0,0,0c0.9-0.3,1.8-0.9,2.3,0.6
		c-0.1,1.5,0.4,3-0.5,4.5c-1.1,2-0.8-1.1-0.7-3.3c0,0,0,0,0,0c-0.7,1.8-1.4,3.6-2.1,5.4c-0.1,0.6-0.1,1.2-0.2,1.7
		c1.5-1.3,1.4,3.4,2.4,3.9c0.4,0.2,0.3,1.5,0.1,3c-0.1,0.6-0.1,1.2-0.2,1.8c1.1-0.3,2,0.2,1.9,4.3c1.6-0.9,1.8,2.7,2.2,5.6
		c0.5-0.5,0.8-0.6,0.9,0.6c-0.4,2.6,1.7,2.5-0.9,7.3l0,0c-1.2,3.3-1.9,6.7-2.2,10.3c0.2,0.7,0.3,1.5,0.2,2.5
		c0.2,1.4,0.4,2.8,0.6,4.2c0.2-0.6,0.4-1.3,0.6-1.8c0.5-3.6,1.2-6,2.3-7.3c0-1.7-1.1-1-0.2-4.6c0.5-1.9,0.8-1,1.1-0.7
		c0.8,1,0.1,3.1-0.8,5.2c-0.6,2.2-1.2,4.4-1.8,6.7c-0.3,1.5-0.6,3-0.9,4.4c0.4,2.8,0.7,5.5,1.1,8.3c-0.6,1.5,0.7,5.1-0.6,6.2
		c-0.9-2.4-0.3-3.4-2-5.9c-0.2,0.1-0.4,0.3-0.6,0.4c0.7,2.2,0.9,3.9,0.6,5.2c-0.5,0.6-0.6,2.1-2.4,0.4c-0.7,0.8-1.9-1.4-2.8-2.6
		c-0.3-0.3-0.5-0.5-0.8-0.7c-0.5,0.5-1,1-1.4,1.4c-0.1,1.3-0.1,2.8-1.3,2.7c0,0.3,0,0.4-0.2,0.4c0.2,1.4,0.3,2.7,0.5,4
		c0.1,0.7,0.2,1.3,0.3,2c-0.2,1-0.7,1.3-1.5,1c0.1,0.3,0.2,0.8,0.2,1.3c0.7,0.5,1.4,1,2,1.5c0.4-0.1,1.1-0.9,1,1.1
		c0.2,0.2,0.3,0.5,0.5,0.7c0.2-0.1,0.4-0.3,0.6-0.5c0.2-1,0.3-2.3,0.6-2.9c0.6-1.6,0.6-0.5,0.4,1c-0.2,2.4-0.4,4.9-0.6,7.3
		c0-0.1,0-0.1,0-0.2c0,0.1,0,0.1,0,0.2c-0.5,2.1-0.9,4.2-1.4,6.3c0.4,1.5,0.8,3,1.2,4.5c0.4,0.8,0.9,1.5,1.3,2.2
		c1.3-1.5,1.3,1.1,1.1,4.3c0.2-0.2,0.4-0.3,0.5-0.4c1,5.3-0.6,14.9-3.8,23.2c-0.7,2.8-1.5,4.5-2.3,5.9c-0.8,1.9-1.5,3.7-2.3,5.6
		c2.1,4.6,1.9,6.1-2.1,16.4c-0.3,0.8-0.6,1.8-0.8,2.7c0.1,2,0.2,4,0.3,6.1c-0.5,5.4-1.8,7.6-3.1,9.2c-0.4,1.3-0.8,2.4-1.2,3.3
		c0,0.1,0,0.2,0,0.3c0.6,0.7,1.2,1.4,0,5.9c-0.5,1.8,0.2,1.4,0.1,2.4c0.2,0.2,0.2,0.9,0.1,1.8c0.2,0.2,0.2,0.9,0.1,1.8
		c0.5-0.5,0.9-0.1,0.8,1.3c-0.2,5.9,0.1,6.3,2.1,1.7c-0.2,1.4-0.4,2.6-0.6,3.8c0.4,0.2,0.4,1.6,1,0.8c0.8-1.9,1.6-3.1,1.8-1.8
		c0.2,1.4-0.6,3.1-1.2,3.9c-0.1,0.2-0.2,0.4-0.3,0.6c-0.2,0.3-0.5,0.6-0.7,0.9c-0.1-0.1-0.2-0.5-0.2-1.2c-0.3-0.7-0.4-2-1.2,0.3
		c-0.8,2.4-0.6-0.1-0.9,0c-0.5,1.6-1.1,3.1-1.2,5c0,0.6,0.1,1.2,0.1,1.8c0.1,0,0.1-0.1,0.2,0c0,0.1-0.1,0.2-0.1,0.3
		c-0.9,2.1-1.8,4.5-2.7,7.3v5.3c0.1-0.4,0.1-0.7,0-1.1c1.1-0.5,0.5,1.7,0,3.7v1.4c0.1-0.2,0.2-0.5,0.3-0.7c0.5-0.5,1.2-2.7,1.2-0.4
		c0.1-0.1,0.2-0.2,0.3-0.4c0.1,0,0.2,0.1,0.3,0.3c0,0.1,0,0.2,0.1,0.2c0.2-0.2,0.3-0.3,0.5-0.5c0,0.9,0.1,1.4,0.4,1.4
		c0.1,0.2,0.1,0.5,0.2,0.7c0,0,0,0,0,0c1-1.5,1,0.8,1.6,1.1c0.2,0.5,0.3,1.2,0.2,2.5c0,0,0,0,0,0.1c0.1-0.1,0.2-0.2,0.3-0.2
		c0.1-0.3,0.2-0.6,0.3-0.8c0.1-0.6,0.3-1.2,0.4-1.9c0.4,0.5,1,0.2,1.2,1.5c0.5-0.5,1-1,0.7,1.3c-0.1,0.4-0.2,0.9-0.3,1.4
		c-0.2-0.5-0.3-1-0.5-1.6c0,0.3-0.1,0.7-0.1,1c-0.3,2.5-0.6,5-0.9,7.5c0.7-1.1,1.7-6.2,2.1-3.1c0.3-0.2,0.7-0.6,0.6,0.5
		c-0.2,1.4-0.5,1.1-0.8,1.6c-0.3,1.2,0.8,1.1-0.4,3.3c-0.2,0.5-0.3,0.9-0.5,1.4c-0.1,0.7-0.1,1.4-0.2,2.1c0.1,0.2,0.1,0.5,0.2,0.7
		c0,0,0,0,0,0c0.5-0.1,1.1-0.5,1.4,0.4c-0.1,0.9,0.2,1.8-0.3,2.6c-0.6,1.2-0.5-0.6-0.4-1.9h0c-0.4,1.1-0.8,2.1-1.2,3.2
		c0,0.3-0.1,0.7-0.1,1c0.9-0.7,0.8,2,1.4,2.3c0.2,0.1,0.2,0.9,0.1,1.7c0,0.4-0.1,0.7-0.1,1.1c0.7-0.2,1.2,0.1,1.1,2.5
		c0.9-0.5,1,1.5,1.3,3.2h0.1c0.1-0.1,0.2-0.1,0.3,0h1564.8c0.9-1.3,2.1-2.8,3.7-4.8c0.4-0.5,0.9-1.3,1.3-2c0.3-2,0.6-3.9,0.9-5.9
		c1.6-4.7,3.2-6,4.8-6.6c0.7-0.9,1.3-1.7,1.8-2.3c0-0.1,0-0.2,0-0.3c-0.4-1.1-0.8-2.1,1.2-5.5c0.8-1.4,0.1-1.4,0.3-2.3
		c-0.2-0.3,0-1,0.3-1.7c-0.2-0.3,0-1,0.3-1.7c-0.6,0.1-0.8-0.4-0.5-1.8c1.4-5.4,1.2-6-1.6-2.9c0.5-1.1,0.9-2.1,1.4-3.1
		c-0.3-0.4-0.1-1.7-0.8-1.4c-1.1,1.3-2.2,1.8-2,0.5c0.1-1.4,1.2-2.5,1.9-2.9c0.1-0.2,0.3-0.3,0.4-0.4c0.3-0.1,0.5-0.2,0.8-0.4
		c0.1,0.2,0.1,0.5-0.1,1.2c0.1,0.8,0,2.2,1.2,0.5c1.2-1.7,0.5,0.4,0.8,0.5c0.8-1.2,1.6-2.3,2.1-3.9c0.1-0.6,0.2-1.1,0.3-1.7
		c-0.1,0-0.1,0-0.2-0.1c0.1-0.1,0.1-0.1,0.2-0.2c1.3-1.4,2.6-3.1,4-5.1l1.1-5c-0.1,0.3-0.2,0.6-0.2,1c-1.1-0.3-0.1-1.9,0.8-3.5
		l0.3-1.3c-0.1,0.1-0.3,0.3-0.4,0.4c-0.5,0.2-1.7,1.8-1.2-0.4c-0.1,0-0.2,0.1-0.4,0.1c-0.1-0.1-0.2-0.2-0.2-0.5c0-0.1,0-0.2,0-0.3
		c-0.2,0.1-0.4,0.1-0.6,0.2c0.2-0.9,0.2-1.4-0.1-1.6c0-0.3,0-0.5,0-0.8c0,0,0,0,0,0c-1.2,0.8-0.8-1.4-1.2-2
		c-0.1-0.6-0.1-1.3,0.4-2.5c0,0,0,0,0-0.1c-0.1,0-0.2,0.1-0.3,0.1c-0.2,0.2-0.3,0.4-0.5,0.6c-0.3,0.5-0.5,1-0.8,1.5
		c-0.3-0.7-0.9-0.8-0.9-2.1c-0.6,0.2-1.1,0.3-0.4-1.6c0.1-0.3,0.4-0.7,0.6-1.1c0,0.6,0.1,1.2,0.1,1.7c0.1-0.3,0.2-0.6,0.3-0.9
		c0.8-2.1,1.6-4.3,2.4-6.4c-0.9,0.6-2.8,4.7-2.6,1.6c-0.3,0-0.8,0.2-0.4-0.8c0.5-1.2,0.7-0.7,1.1-1c0.5-1-0.5-1.5,1-2.8
		c0.2-0.3,0.5-0.7,0.7-1c0.2-0.6,0.4-1.2,0.6-1.8c0-0.3,0-0.5,0-0.8c0,0,0,0,0,0c-0.5-0.2-1.1-0.2-1.2-1.2c0.3-0.8,0.2-1.8,0.8-2.3
		c0.8-0.7,0.3,0.9,0,2l0,0c0.6-0.7,1.2-1.5,1.8-2.2c0.1-0.3,0.2-0.6,0.3-0.9c-1,0.1-0.3-2.4-0.8-3c-0.2-0.3,0-0.9,0.3-1.7
		c0.1-0.3,0.2-0.6,0.3-0.9c-0.7-0.2-1.1-0.8-0.5-3c-1-0.1-0.7-2.1-0.5-3.9c-0.3,0.1-0.5,0-0.4-0.7c0.5-1.3-0.6-1.9,1.4-3.7l0,0
		c1-1.4,1.9-3,2.4-4.9c-0.2-1.4,1.1-3.3,1.9-5c-0.2-0.3-0.1-0.1-0.3-0.3c-0.5,0.1-1.2,1.5-1.8,2.2c-0.7,1.8-1.4,2.8-2.1,3.1
		c-0.2,0.9,0.5,1-0.4,2.6c-0.5,0.9-0.6,0.2-0.7,0c-0.3-0.8,0.3-1.7,1.1-2.5c0.6-1,1.2-2,1.8-3c0.9-1.9,1.8-3.7,2.8-5
		c2.4-3.5,1.8-1.1,1.2,1.2c0.6,0-0.3,1.8-0.3,2.5c0.6,0.9,0.6,2.6-0.9,5.9c0.1,0,0.3-0.1,0.4-0.1c0.9-2,1.4-2.6,1.4-1.2
		c-0.1,1.1-0.3,2.5-0.9,4.2c0.5-0.4,1.3-1.7,1.2-0.4c0.1,0,0.2,0,0.3,0c0.7-1.2,1.1-1.2,1.5-1.3c0,0,0,0,0,0
		c0.4-0.1,0.9-0.6,0.7,0.5c0,0.5,0.1,1,0.1,1.6c0.4-0.1,0.7-0.6,1-1.2c-0.4,0-0.6-0.3,0.1-2c0.3-0.7,0.4-1.6,0.7-2.4
		c-0.1-0.4,0-0.9,0.6-1.8c0.3-0.5,0.8-1.8,1.1-2.5l0.8-3.8c-0.8-0.8-1.8-1.3-1.6-3.8c-0.3-0.2-0.5-0.7-0.4-1.7
		c-0.3-0.5-0.6-1.1-0.9-1.6c-0.2-0.1-0.7,0.1-0.4-1c-0.1-0.2-0.1-0.4-0.2-0.6c-0.1,0-0.2,0-0.4,0c-0.2,0.5-0.5,1.1-0.7,1.4
		c-0.5,0.7-0.4,0.1-0.1-0.7c0.4-1.3,0.8-2.5,1.2-3.8c0,0,0,0.1,0,0.1c0,0,0-0.1,0-0.1c0.5-1,1-1.9,1.5-2.9c0-1-0.1-1.9-0.1-2.9
		c-0.2-0.6-0.3-1.1-0.5-1.7c-0.9,0.3-0.6-1.1-0.1-2.7c-0.1,0-0.2,0.1-0.3,0c0.1-3.3,2.1-8,4.9-11.3c0.7-1.3,1.4-1.9,2-2.4
		c0.6-0.7,1.3-1.5,1.9-2.2c-0.6-3.2-0.3-4,3.1-8.2c0.3-0.3,0.5-0.8,0.8-1.2c0.2-1.1,0.4-2.3,0.5-3.4c0.5-1.4,1-2.3,1.4-2.9
		l12.7-57.5c-0.1-0.1-0.2-0.5-0.3-0.6c-1.5,0.4-0.2-4.6-0.3-7c-0.3,0.2-0.5,0.5-0.8,0.7c-4.3,4.6-0.8-6.2-2.1-7.7
		c1.9-5.2,0.8-5.9,1.9-9.9c0-1.9,1-4.8,3.1-8.9c0.4-1.4,0.7-2.7,1.1-4.1c0.3-1.9,0.6-3.9,0.8-5.9c0.4-2,0.8-3.9,1.2-5.9
		c0.1-0.5,0.1-1.1,0.2-1.6c-1.8,0,1.7-8.8,1.6-11.7c-1-0.7,1.3-6.2,2.7-10.5c-1.5,0.5-0.9-2.5,1-7.7c0.4-2,0.9-3.9,1.3-5.9
		c0-1.8,0.1-3.6,0.1-5.5c0.6-4,0.9-7.7,3.1-14.2c-1.1-0.3-2.2-0.4,0.3-7.1c0-0.6-0.1-0.9,0-1.6c0.2-1.2,0.8-3.2,1.5-3.7
		c0.1-1.2,0.7-2.8,1.8-4.7c0.2-0.9,0.3-1.9,0.5-2.8c0-1.4-0.1-2.8-0.1-4.2c0.1-1.4,0.2-2.8,0.3-4.2c0-0.4-0.1-0.8-0.1-1.2
		c-1.9-0.2,0.3-6.2-0.3-8.3c-1.2-0.7,0.3-4.4,1-7.3c-1.4,0.2-1.3-1.9-0.2-5.5c0.1-1.4,0.3-2.8,0.4-4.1c-0.3-1.3-0.5-2.6-0.8-4
		c-0.1-2.8-0.3-5.5,0.9-10c-1.2-0.3-2.4-0.6-0.9-5.1c-0.1-0.4-0.3-0.7-0.2-1.2c0-0.9,0.3-2.4,1.1-2.6c0.7-0.1-0.4,2.2-0.9,3.7
		c0.7,0.6,0.8,2.4,2.6,0.5c0.3-1.8,0.7-3.7,1.7-6c0.2-1,0.3-2,0.5-3c-0.7-1.8-1.4-3.5,2.1-9.4c1.4-2.3,0.2-2.4,0.6-3.9
		c-0.3-0.5,0.1-1.6,0.5-2.9c-0.3-0.5,0.1-1.6,0.5-2.9c-1,0.3-1.4-0.7-0.8-3c2.4-9.2,2-10.2-2.8-5c0.8-1.9,1.6-3.7,2.3-5.4
		c-0.5-0.7-0.2-3-1.4-2.3c-1.9,2.2-3.7,3.1-3.5,0.9c0.2-2.3,2.1-4.3,3.3-5c0.2-0.3,0.4-0.5,0.6-0.7c0.5-0.2,0.9-0.4,1.4-0.7
		c0.1,0.3,0.1,0.9-0.1,2.1c0.2,1.4-0.1,3.7,2,0.8c2.1-3,0.9,0.7,1.4,0.9c1.3-2,2.8-3.9,3.6-6.7c0.2-1,0.3-1.9,0.5-2.9
		c-0.1,0-0.2,0-0.3-0.1c0.1-0.1,0.2-0.2,0.3-0.4c3.7-4,7.8-9.6,12-16.9c-0.2-0.4-0.3-0.7-0.4-1.2c-0.3-0.3-0.2-1.3,0.2-2.6
		c-0.4,0.2-0.8,0.3-1.2,0.5c-1,1.5-2.2,2.7-2.3,4.7c-2.8-0.6,2.1-6.2,2.8-9.1c-0.6,0.6-1.2,1.1-1.7,1.7c-0.9,0.4-2.9,3.1-2.1-0.6
		c-0.2,0.1-0.4,0.1-0.6,0.2c-0.2-0.1-0.3-0.4-0.3-0.8c0-0.1,0-0.3,0-0.4c-0.3,0.1-0.6,0.2-1,0.3c0.3-1.5,0.3-2.3-0.1-2.7
		c0-0.5,0-0.9,0-1.4c0,0,0,0,0,0c-2.1,1.4-1.4-2.3-2.1-3.5c-0.1-1.1-0.1-2.2,0.6-4.2c0,0,0-0.1,0-0.1c-0.2,0-0.3,0.1-0.5,0.1
		c-0.3,0.4-0.6,0.7-0.8,1c-0.4,0.8-0.9,1.7-1.3,2.5c-0.5-1.2-1.5-1.4-1.5-3.6c-0.9,0.3-1.9,0.6-0.6-2.8c0.2-0.6,0.7-1.2,1-1.8
		c0.1,1,0.1,2,0.2,3c0.2-0.5,0.4-1,0.6-1.5c1.3-3.7,2.7-7.3,4-11c-1.5,1-4.9,8.1-4.4,2.8c-0.5,0-1.3,0.3-0.7-1.4
		c0.8-2.1,1.2-1.2,1.9-1.7c0.8-1.7-0.9-2.5,1.8-4.8c0.4-0.6,0.8-1.2,1.2-1.7c0.4-1,0.7-2.1,1.1-3.1c0-0.4,0-0.9,0-1.3c0,0,0,0,0,0
		c-0.9-0.3-1.9-0.3-2-2c0.4-1.4,0.3-3,1.4-3.9c1.4-1.2,0.5,1.5,0,3.5c0,0,0,0,0,0c1-1.3,2-2.5,3-3.8c0.2-0.5,0.4-1,0.5-1.5
		c-1.6,0.2-0.6-4.1-1.4-5.2c-0.3-0.4,0-1.6,0.5-2.9c0.2-0.5,0.4-1.1,0.6-1.6c-1.1-0.4-1.9-1.4-0.9-5.2c-1.6-0.1-1.1-3.6-0.9-6.6
		c-0.5,0.2-0.9,0-0.7-1.1c0.9-2.2-1-3.3,2.3-6.3l0,0c1.8-2.3,3.2-5.1,4.2-8.3c-0.2-2.2,1.5-5.1,2.9-7.9c0-0.4,0-0.9-0.1-1.3
		c-0.9,0.1-2.1,2.6-3.1,3.8c-1.2,3-2.4,4.8-3.7,5.3c-0.3,1.6,0.9,1.6-0.7,4.4c-0.8,1.5-1,0.4-1.2-0.1c-0.5-1.4,0.6-3,1.9-4.3
		c1-1.7,2-3.4,3-5.1c1.5-3.2,3-6.2,4.8-8.5c4.1-6,3-1.9,2,2.1c1.1-0.1-0.5,3.1-0.5,4.3c1.1,1.6,1,4.5-1.5,10.1
		c0.2-0.1,0.4-0.2,0.7-0.2c1.5-3.5,2.5-4.4,2.3-2c-0.1,1.9-0.5,4.3-1.5,7.2c0.8-0.6,2.2-2.9,2-0.8c0.2,0,0.4,0,0.5,0
		c1.2-2.1,1.9-2,2.6-2.2c0,0,0,0,0,0c0.6-0.1,1.6-1,1.2,0.9c0.1,0.9,0.1,1.8,0.2,2.7c0.6-0.2,1.2-1,1.8-2.1c-0.6,0-0.9-0.6,0.1-3.4
		c0.5-1.2,0.8-2.7,1.1-4c-0.1-0.7,0-1.6,1-3c1.1-1.6,2.4-7.2,3.5-5c0.1,0.1,0.2,0.3,0.3,0.6c0.4,0.2,0.3,0.1,0.7,0.3
		c0.1-1,0.2-2,0.2-3.1C1843.5,436.4,1842.9,435.2,1843,434.3 M257.9,125.1c-0.4-0.2-1-0.4-1.7-0.4c0-0.6-0.2-1.3-1.1-1.9
		c1.3,0.4,2.7,0.7,4.3,0.8c0.1,0,0.1,0,0.2,0c1.4,0.3,2.8,0.2,4.1,0.1L257.9,125.1z M305.9,101c-0.1,0-0.2,0-0.2-0.1
		C305.7,101,305.8,101,305.9,101C305.9,101,305.9,101,305.9,101 M336.5,91.7c0,0,0.1-0.1,0.1-0.1c0,0,0.1,0.1,0.1,0.1
		C336.7,91.7,336.6,91.7,336.5,91.7 M402.1,60c0-0.1,0-0.2,0-0.3c0.1,0.1,0.3,0.2,0.4,0.3C402.3,60,402.2,60,402.1,60 M404,78.4
		c-0.1,0-0.2,0-0.3,0C403.8,78.3,403.9,78.3,404,78.4C404.1,78.3,404,78.4,404,78.4 M420.6,80.5c-0.1,0-0.2,0-0.3,0
		C420.4,80.5,420.6,80.5,420.6,80.5C420.7,80.5,420.6,80.5,420.6,80.5 M431.9,51.3C431.9,51.3,431.9,51.3,431.9,51.3
		C431.9,51.3,431.9,51.3,431.9,51.3C431.9,51.3,431.9,51.3,431.9,51.3c0,0,0.1,0,0.1,0C432,51.3,432,51.3,431.9,51.3L431.9,51.3z
		 M613.5,37.6c0-0.1,0-0.2,0-0.3c0.1,0.1,0.2,0.3,0.2,0.4C613.7,37.7,613.6,37.6,613.5,37.6 M655.2,34.3c0,0,0-0.1,0-0.1
		c0,0,0.1-0.1,0.1-0.1C655.3,34.1,655.3,34.2,655.2,34.3 M658.9,29.6c0-0.1,0-0.2,0-0.2c0,0,0,0,0,0c0,0,0,0,0-0.1l0,0.1
		c0-0.1,0.1-0.2,0.1-0.2C658.9,29.3,658.9,29.4,658.9,29.6 M756.7,52.2c0-0.1,0-0.1,0-0.2c0.1,0.1,0.1,0.2,0.1,0.2
		C756.8,52.2,756.7,52.2,756.7,52.2 M768.3,51.5C768.3,51.5,768.3,51.5,768.3,51.5C768.2,51.5,768.3,51.5,768.3,51.5
		C768.3,51.5,768.2,51.5,768.3,51.5C768.3,51.5,768.3,51.5,768.3,51.5C768.3,51.5,768.3,51.5,768.3,51.5L768.3,51.5z M862.5,58.8
		c-0.1-0.1-0.3-0.2-0.4-0.3c0.1-0.6,0-1.3-0.7-2.4c1.2,1,2.4,1.9,3.8,2.6H862.5z M913.6,58.8c-0.1-0.1-0.2-0.1-0.2-0.2
		C913.4,58.6,913.5,58.7,913.6,58.8C913.6,58.7,913.6,58.7,913.6,58.8 M924.5,43.9c-1.3,0.2-1.5,1.6-2.7,1.9
		c-1.1-1.6-0.1-2.1,0.1-3.1C922.7,43,923.8,43.6,924.5,43.9C924.6,43.9,924.5,43.9,924.5,43.9 M954.5,45.5c-0.1-0.1-0.1-0.1-0.2-0.1
		C954.4,45.4,954.5,45.4,954.5,45.5C954.5,45.5,954.5,45.5,954.5,45.5 M974.8,43.8C974.9,43.8,974.9,43.8,974.8,43.8
		c0.1,0,0.1,0.1,0.1,0.1C974.9,43.9,974.9,43.9,974.8,43.8 M1018.9,26.8c0.1,0.1,0.2,0.3,0.2,0.4c-0.1,0-0.2-0.1-0.3-0.1
		C1018.9,27,1018.9,26.9,1018.9,26.8 M1019.2,48.2c-0.1,0-0.2-0.1-0.2-0.1C1019,48.1,1019.1,48.2,1019.2,48.2
		C1019.2,48.2,1019.2,48.2,1019.2,48.2 M1029.7,55.4c-0.1,0-0.1-0.1-0.2-0.1C1029.6,55.3,1029.7,55.4,1029.7,55.4
		C1029.8,55.4,1029.8,55.4,1029.7,55.4 M1038.7,25.9L1038.7,25.9L1038.7,25.9C1038.6,25.9,1038.6,25.9,1038.7,25.9
		C1038.7,25.9,1038.7,25.9,1038.7,25.9C1038.7,25.9,1038.7,25.9,1038.7,25.9L1038.7,25.9z M1099.1,18.6c0-0.1,0-0.1,0.1-0.2
		C1099.1,18.5,1099.1,18.6,1099.1,18.6C1099.1,18.7,1099.1,18.6,1099.1,18.6 M1100.5,11.6C1100.5,11.6,1100.5,11.6,1100.5,11.6
		C1100.5,11.6,1100.5,11.6,1100.5,11.6L1100.5,11.6c0-0.1,0-0.2,0-0.3c0,0.1,0,0.3,0.1,0.4C1100.6,11.7,1100.5,11.7,1100.5,11.6
		 M1132.3,13.4c-0.2,1.6-0.1,3.1,0,4.6c-0.2,0.3-0.5,0.7-0.7,1c-0.2-0.3-0.3-0.6-0.5-0.8l0,0.1c-0.1-0.1-0.1-0.2-0.2-0.3
		c0,0,0,0,0,0c0.1,0.1,0.1,0.2,0.2,0.3c0-0.4,0-0.7-0.1-1c0-0.2,0.1-0.4,0.1-0.7c0.1-1.3,0.1-2.3-0.1-3.3c0-0.1,0-0.2-0.1-0.3
		c0.3-0.8,0.6-1.6,0.6-3c0.4-0.1,0.7-0.4,1.1-1.5c-0.2,1.5-0.4,3-0.4,4.6C1132.3,13.3,1132.3,13.4,1132.3,13.4 M1145.5,58.2
		C1145.5,58.2,1145.5,58.2,1145.5,58.2c0-0.1,0-0.2,0-0.3C1145.5,58,1145.5,58.1,1145.5,58.2 M1151,89c0-0.1,0-0.2,0-0.2
		c0,0,0,0.1,0.1,0.1C1151.1,88.9,1151,88.9,1151,89 M1229.3,123.9c0-0.1,0-0.1,0.1-0.2c0.1,0.1,0.1,0.2,0.2,0.3
		C1229.5,124,1229.4,124,1229.3,123.9 M1247,127.1C1247,127.1,1247,127.1,1247,127.1C1247,127.1,1247,127.1,1247,127.1
		C1247,127.1,1247,127.1,1247,127.1C1247,127.1,1247,127.1,1247,127.1C1247,127.2,1247,127.1,1247,127.1L1247,127.1z M1480.6,184.3
		c-0.4-0.4-0.9-0.8-1.5-1.2c0.1-0.6,0-1.3-0.7-2.4c1.2,1,2.5,2,4,2.7c0.1,0,0.1,0,0.2,0.1c1.3,0.9,2.6,1.4,4,2L1480.6,184.3z
		 M1530.5,183.4c-0.1-0.1-0.2-0.1-0.2-0.2C1530.4,183.2,1530.5,183.3,1530.5,183.4C1530.6,183.3,1530.6,183.3,1530.5,183.4
		 M1561.5,188.6c0,0,0.1,0,0.1,0c0,0.1,0.1,0.1,0.1,0.2C1561.7,188.7,1561.6,188.7,1561.5,188.6 M1628.6,207.1
		c-0.1-0.1-0.2-0.1-0.3-0.2C1628.4,207,1628.5,207,1628.6,207.1C1628.6,207.1,1628.6,207.1,1628.6,207.1 M1629.5,188.5
		c0-0.1,0.1-0.2,0.1-0.3c0.1,0.1,0.2,0.3,0.3,0.4C1629.8,188.6,1629.7,188.6,1629.5,188.5 M1644.2,216.9c-0.1-0.1-0.2-0.1-0.3-0.2
		c0.1,0,0.2,0.1,0.4,0.1C1644.3,216.9,1644.3,216.9,1644.2,216.9 M1659.7,194C1659.7,194,1659.6,194,1659.7,194
		C1659.6,194,1659.6,194,1659.7,194C1659.6,194,1659.6,193.9,1659.7,194c0,0,0.1,0,0.1,0C1659.7,194,1659.7,194,1659.7,194
		L1659.7,194z M1740.5,416.3c0-0.1-0.1-0.1-0.1-0.2c0.1,0.1,0.2,0.2,0.3,0.3C1740.6,416.4,1740.6,416.3,1740.5,416.3 M1759.1,372.9
		c0-0.2-0.1-0.4-0.1-0.5c0.1,0.2,0.3,0.4,0.3,0.5C1759.2,372.9,1759.2,372.9,1759.1,372.9 M1771.7,426.4c0,0,0-0.1,0-0.1
		c0.1,0,0.2,0.1,0.2,0.1C1771.8,426.4,1771.8,426.4,1771.7,426.4 M1772.3,361.6c0-0.1-0.1-0.2-0.2-0.4c0.2,0.2,0.5,0.3,0.7,0.5
		C1772.7,361.7,1772.5,361.6,1772.3,361.6 M1780.6,324.7c0.1,0,0.2,0,0.3,0c0.1,0.1,0.2,0.2,0.3,0.3
		C1780.9,324.9,1780.8,324.8,1780.6,324.7 M1786,251.8L1786,251.8C1786,251.8,1786,251.8,1786,251.8c0-0.1,0.1-0.1,0.1-0.2
		c0.1,0.1,0.3,0.2,0.4,0.3C1786.3,251.9,1786.2,251.8,1786,251.8 M1788.9,305.2c0,0,0.1,0,0.1,0c0.1,0.1,0.2,0.2,0.4,0.2
		C1789.3,305.3,1789.1,305.2,1788.9,305.2 M1790.5,289c0-0.1,0-0.2-0.1-0.3c0.3,0.2,0.6,0.4,0.8,0.6
		C1791,289.3,1790.7,289.1,1790.5,289 M1796.2,396.4c0-0.1-0.1-0.3-0.1-0.4c0.4,0.2,0.8,0.4,1.2,0.7
		C1796.9,396.5,1796.5,396.4,1796.2,396.4 M1800.4,448.6c0,0,0-0.1,0-0.2c0.2,0.1,0.4,0.2,0.6,0.3
		C1800.8,448.7,1800.6,448.7,1800.4,448.6 M1801.8,263.1c0-0.1-0.1-0.1-0.1-0.2c0.1,0,0.2,0,0.3,0.1c0.1,0,0.1,0.1,0.2,0.1
		C1802.1,263.1,1801.9,263.1,1801.8,263.1 M1808.9,275.3C1808.9,275.3,1808.9,275.2,1808.9,275.3l-0.4-0.3c0,0,0,0,0.1,0
		C1808.7,275,1808.8,275.1,1808.9,275.3C1808.9,275.2,1809,275.3,1808.9,275.3C1809,275.3,1809,275.3,1808.9,275.3 M1808.9,266.9
		c-0.5-0.7-0.9-1.3-2-1.9c0.6-0.1,0.9-0.4,1.1-0.8c0.5,0.6,1.3,1.3,2.2,2.1C1809.5,266.2,1809,266.5,1808.9,266.9 M1812.6,445.8
		c-0.1,0-0.1-0.1-0.2-0.1c0,0,0.1,0,0.1,0C1812.6,445.8,1812.6,445.8,1812.6,445.8L1812.6,445.8z M1814.7,474.7
		c-0.6-0.7-1.2-1.2-1.7-1.7c0.7,0.3,1.3,0.5,2,0.8c0.1,0.1,0.1,0.1,0.2,0.2C1815,474.2,1814.8,474.4,1814.7,474.7 M1817.2,377.2
		C1817.2,377.2,1817.2,377.2,1817.2,377.2c0.1,0,0.1,0,0.2,0.1C1817.3,377.3,1817.3,377.3,1817.2,377.2 M1822.3,360.1
		c0-0.1-0.1-0.2-0.1-0.3c0.1,0.1,0.3,0.2,0.4,0.3C1822.6,360.1,1822.4,360.1,1822.3,360.1 M1826.2,349.2c0.2,0.1,0.3,0.1,0.4,0.2
		C1826.5,349.4,1826.4,349.4,1826.2,349.2C1826.2,349.3,1826.2,349.3,1826.2,349.2 M1827.8,428.9c0,0-0.1-0.1-0.1-0.1
		c0,0-0.1,0-0.1-0.1c-0.4-0.3-0.8-0.6-1.2-0.8c0.6,0.3,1.1,0.7,1.7,1.1C1828,429,1827.9,428.9,1827.8,428.9"/>
</g>
</svg>
