<?xml version="1.0" encoding="utf-8"?>
<!-- Generator: Adobe Illustrator 21.1.0, SVG Export Plug-In . SVG Version: 6.00 Build 0)  -->
<svg version="1.1" id="Capa_1" xmlns="http://www.w3.org/2000/svg" xmlns:xlink="http://www.w3.org/1999/xlink" x="0px" y="0px"
	 viewBox="0 0 826.5 304.5" style="enable-background:new 0 0 826.5 304.5;" xml:space="preserve">
<style type="text/css">
	.st0{fill:none;stroke:#2D6965;stroke-linecap:round;stroke-miterlimit:10;stroke-dasharray:1,5;}
	.st1{fill:#336666;}
	.st2{fill:#406863;}
</style>
<line class="st0" x1="194.1" y1="147.9" x2="386.5" y2="147.9"/>
<line class="st0" x1="435.3" y1="147.9" x2="627.7" y2="147.9"/>
<line class="st0" x1="427.1" y1="155.2" x2="608.1" y2="259.6"/>
<line class="st0" x1="221" y1="36.1" x2="393.7" y2="135.8"/>
<line class="st0" x1="396.1" y1="157.2" x2="218.7" y2="259.6"/>
<line class="st0" x1="605.8" y1="36.1" x2="435.3" y2="134.6"/>
<path class="st1" d="M464.6,104.2c-20.7,0-36.6-5.9-50.1-19c-13.4,13.1-29.3,19-50.1,19c0,34-7,82.8,50.1,102.6
	C471.6,187,464.6,138.2,464.6,104.2z M410.4,164.1l-16.7-16.7l7.5-7.5l9.2,9.2l17.5-17.5l7.5,7.5L410.4,164.1z"/>
<circle class="st2" cx="217" cy="33.8" r="4.9"/>
<circle class="st2" cx="607.5" cy="35" r="4.9"/>
<circle class="st2" cx="629.4" cy="148.2" r="4.9"/>
<circle class="st2" cx="605.7" cy="258.3" r="4.9"/>
<circle class="st2" cx="191.8" cy="147.7" r="4.9"/>
<circle class="st2" cx="216.4" cy="261" r="4.9"/>
<g>
	<path d="M56.2,25.4L52.3,35h-0.8l-3.9-9.5V35h-1.8V23h2.6l3.5,8.6l3.5-8.6H58v12h-1.8V25.4z"/>
	<path d="M60.6,26.3h1.6v6.2l4.3-6.2h1.6V35h-1.6v-6.4L62.2,35h-1.5V26.3z"/>
	<path d="M73.6,31.2l-1.3,1.3V35h-1.6v-8.7h1.6v4.4l4.2-4.4h2l-3.7,3.9l3.8,4.8h-2.1L73.6,31.2z"/>
	<path d="M80.1,38.3v-12h1.6v1.2c0.6-0.9,1.7-1.5,2.8-1.5c2.3,0,3.9,1.7,3.9,4.6s-1.6,4.6-3.9,4.6c-1.1,0-2.1-0.5-2.8-1.5v4.6H80.1z
		 M84.1,27.5c-1,0-2,0.6-2.4,1.3v3.7c0.4,0.7,1.4,1.3,2.4,1.3c1.6,0,2.6-1.3,2.6-3.1C86.7,28.8,85.7,27.5,84.1,27.5z"/>
	<path d="M89.9,30.6c0-2.5,1.7-4.6,4.4-4.6c2.7,0,4.4,2.1,4.4,4.6c0,2.5-1.7,4.6-4.4,4.6C91.6,35.2,89.9,33.1,89.9,30.6z M97,30.6
		c0-1.6-1-3.1-2.7-3.1c-1.7,0-2.7,1.5-2.7,3.1c0,1.7,1,3.1,2.7,3.1C96,33.7,97,32.3,97,30.6z"/>
	<path d="M111,30.6c0,2.7-1.7,4.4-4.6,4.6v3.1h-1.6v-3.1c-2.9-0.2-4.6-1.9-4.6-4.6c0-2.7,1.7-4.4,4.6-4.6V23h1.6v3.1
		C109.3,26.2,111,27.9,111,30.6z M104.8,33.7v-6.2c-1.7,0-2.9,1.2-2.9,3.1C101.9,32.6,103,33.7,104.8,33.7z M109.3,30.6
		c0-1.9-1.2-3.1-2.9-3.1v6.2C108.2,33.7,109.3,32.6,109.3,30.6z"/>
	<path d="M113,26.3h1.6v6.2l4.3-6.2h1.6V35h-1.6v-6.4l-4.3,6.4H113V26.3z"/>
	<path d="M124.1,28.4l0.1-2.1h6.4V35H129v-7.3h-3.3l-0.1,0.8c-0.4,5.5-1.7,6.7-3.5,6.7v-1.6C123.1,33.6,123.8,32.5,124.1,28.4z"/>
	<path d="M134.8,29.3h3c2,0,2.9,1.4,2.9,2.8c0,1.4-1,2.8-2.9,2.8h-4.7v-8.7h1.6V29.3z M134.8,33.5h2.9c1,0,1.4-0.6,1.4-1.4
		c0-0.8-0.4-1.4-1.4-1.4h-2.9V33.5z"/>
	<path d="M143.2,27.7h-2.5v-1.4h6.6v1.4h-2.5V35h-1.6V27.7z"/>
	<path d="M149,38.3v-12h1.6v1.2c0.6-0.9,1.7-1.5,2.8-1.5c2.3,0,3.9,1.7,3.9,4.6s-1.6,4.6-3.9,4.6c-1.1,0-2.1-0.5-2.8-1.5v4.6H149z
		 M153.1,27.5c-1,0-2,0.6-2.4,1.3v3.7c0.4,0.7,1.4,1.3,2.4,1.3c1.6,0,2.6-1.3,2.6-3.1C155.7,28.8,154.7,27.5,153.1,27.5z"/>
	<path d="M164.8,34c-0.7,0.8-1.7,1.2-2.8,1.2c-1.4,0-3-1-3-2.9c0-2,1.6-2.8,3-2.8c1.2,0,2.2,0.4,2.8,1.2v-1.4c0-1.1-0.9-1.7-2.1-1.7
		c-1,0-1.8,0.4-2.6,1.2l-0.7-1.1c1-1,2.2-1.4,3.6-1.4c1.9,0,3.5,0.8,3.5,3V35h-1.6V34z M164.8,31.6c-0.5-0.6-1.3-1-2.2-1
		c-1.2,0-2,0.7-2,1.7c0,1,0.8,1.7,2,1.7c0.9,0,1.7-0.3,2.2-1V31.6z"/>
	<path d="M169,35v-8.7h1.6v7.3h4.1v-7.3h1.6v7.3h1v3.6h-1.4V35H169z"/>
	<path d="M179,26.3h1.6v6.2l4.3-6.2h1.6V35h-1.6v-6.4l-4.3,6.4H179V26.3z"/>
	<path d="M191,31.6c-1.2-0.2-2.1-1.2-2.1-2.6c0-1.5,1-2.7,2.8-2.7h4.8V35h-1.6v-3.3h-2.2l-2,3.3h-1.9L191,31.6z M194.9,27.7h-3
		c-0.8,0-1.3,0.5-1.3,1.3c0,0.8,0.5,1.3,1.3,1.3h3V27.7z"/>
</g>
<g>
	<g>
		<path d="M639.1,24.7h-6.6V30h-1.8V18h1.8v5h6.6v-5h1.8v12h-1.8V24.7z"/>
		<path d="M643.6,21.3h1.6v6.2l4.3-6.2h1.6V30h-1.6v-6.4l-4.3,6.4h-1.5V21.3z"/>
		<path d="M653.7,27.7c0.8,0.7,1.7,1.2,2.8,1.2c1.3,0,2.1-0.6,2.1-1.4c0-0.9-0.9-1.3-2.3-1.3h-1.5V25h1.5c1.3,0,2.1-0.4,2.1-1.3
			c0-0.7-0.8-1.2-2-1.2c-1.1,0-2,0.4-2.7,1.1l-0.8-1c0.8-0.8,1.9-1.4,3.4-1.4c2.3,0,3.8,0.9,3.8,2.3c0,1.2-1.2,2-2.2,2.1
			c1,0.1,2.4,0.7,2.4,2.1c0,1.5-1.4,2.6-3.8,2.6c-1.6,0-2.9-0.5-3.7-1.4L653.7,27.7z"/>
		<path d="M665.3,26.3l-1.3,1.3V30h-1.6v-8.7h1.6v4.4l4.2-4.4h2l-3.7,3.9l3.8,4.8h-2.1L665.3,26.3z"/>
		<path d="M670.8,25.7c0-2.5,1.7-4.6,4.4-4.6c2.7,0,4.4,2.1,4.4,4.6c0,2.5-1.7,4.6-4.4,4.6C672.5,30.3,670.8,28.2,670.8,25.7z
			 M677.9,25.7c0-1.6-1-3.1-2.7-3.1c-1.7,0-2.7,1.5-2.7,3.1c0,1.7,1,3.1,2.7,3.1C676.9,28.8,677.9,27.3,677.9,25.7z"/>
		<path d="M683.1,22.8h-2.5v-1.4h6.6v1.4h-2.5V30h-1.6V22.8z"/>
		<path d="M692.6,21.1c2.6,0,4.2,2,4.2,4.7v0.4h-6.9c0.1,1.5,1.2,2.7,3,2.7c0.9,0,1.9-0.4,2.6-1l0.8,1.1c-0.9,0.8-2.1,1.3-3.5,1.3
			c-2.6,0-4.5-1.8-4.5-4.6C688.2,23.2,690,21.1,692.6,21.1z M689.9,25.1h5.3c0-1.2-0.8-2.6-2.6-2.6C690.8,22.5,690,23.9,689.9,25.1z
			"/>
		<path d="M706.9,23.4L704,30h-0.6l-2.9-6.6V30h-1.6v-8.7h2.1l2.8,6.2l2.7-6.2h2.1V30h-1.6V23.4z"/>
		<path d="M717,22.8h-4.2V30h-1.6v-8.7h7.5V30H717V22.8z"/>
		<path d="M725.1,21.1c2.6,0,4.2,2,4.2,4.7v0.4h-6.9c0.1,1.5,1.2,2.7,3,2.7c0.9,0,1.9-0.4,2.6-1l0.8,1.1c-0.9,0.8-2.1,1.3-3.5,1.3
			c-2.6,0-4.5-1.8-4.5-4.6C720.7,23.2,722.5,21.1,725.1,21.1z M722.4,25.1h5.3c0-1.2-0.8-2.6-2.6-2.6
			C723.3,22.5,722.5,23.9,722.4,25.1z"/>
		<path d="M731.3,33.4v-12h1.6v1.2c0.6-0.9,1.7-1.5,2.8-1.5c2.3,0,3.9,1.7,3.9,4.6s-1.6,4.6-3.9,4.6c-1.1,0-2.1-0.5-2.8-1.5v4.6
			H731.3z M735.3,22.6c-1,0-2,0.6-2.4,1.3v3.7c0.4,0.7,1.4,1.3,2.4,1.3c1.6,0,2.6-1.3,2.6-3.1C738,23.9,737,22.6,735.3,22.6z"/>
		<path d="M747.1,29.1c-0.7,0.8-1.7,1.2-2.8,1.2c-1.4,0-3-1-3-2.9c0-2,1.6-2.8,3-2.8c1.2,0,2.2,0.4,2.8,1.2v-1.4
			c0-1.1-0.9-1.7-2.1-1.7c-1,0-1.8,0.4-2.6,1.2l-0.7-1.1c1-1,2.2-1.4,3.6-1.4c1.9,0,3.5,0.8,3.5,3V30h-1.6V29.1z M747.1,26.7
			c-0.5-0.6-1.3-1-2.2-1c-1.2,0-2,0.7-2,1.7c0,1,0.8,1.7,2,1.7c0.9,0,1.7-0.3,2.2-1V26.7z"/>
		<path d="M752.9,22.8h-2.5v-1.4h6.6v1.4h-2.5V30h-1.6V22.8z"/>
		<path d="M759.2,32.1c0.6,0,1-0.2,1.3-0.8l0.5-1.2l-3.6-8.8h1.7l2.7,6.8l2.7-6.8h1.7L762,31.7c-0.6,1.4-1.5,1.9-2.8,1.9
			c-0.3,0-0.8-0.1-1-0.1l0.3-1.5C758.7,32.1,759,32.1,759.2,32.1z"/>
		<path d="M767.6,33.4v-12h1.6v1.2c0.6-0.9,1.7-1.5,2.8-1.5c2.3,0,3.9,1.7,3.9,4.6s-1.6,4.6-3.9,4.6c-1.1,0-2.1-0.5-2.8-1.5v4.6
			H767.6z M771.6,22.6c-1,0-2,0.6-2.4,1.3v3.7c0.4,0.7,1.4,1.3,2.4,1.3c1.6,0,2.6-1.3,2.6-3.1C774.2,23.9,773.3,22.6,771.6,22.6z"/>
		<path d="M778,21.3h1.6v3.5h4.2v-3.5h1.6V30h-1.6v-3.7h-4.2V30H778V21.3z"/>
		<path d="M787.5,25.7c0-2.5,1.7-4.6,4.4-4.6c2.7,0,4.4,2.1,4.4,4.6c0,2.5-1.7,4.6-4.4,4.6C789.2,30.3,787.5,28.2,787.5,25.7z
			 M794.6,25.7c0-1.6-1-3.1-2.7-3.1c-1.7,0-2.7,1.5-2.7,3.1c0,1.7,1,3.1,2.7,3.1C793.7,28.8,794.6,27.3,794.6,25.7z"/>
		<path d="M802.2,21.1c2.6,0,4.2,2,4.2,4.7v0.4h-6.9c0.1,1.5,1.2,2.7,3,2.7c0.9,0,1.9-0.4,2.6-1l0.8,1.1c-0.9,0.8-2.1,1.3-3.5,1.3
			c-2.6,0-4.5-1.8-4.5-4.6C797.8,23.2,799.6,21.1,802.2,21.1z M799.5,25.1h5.3c0-1.2-0.8-2.6-2.6-2.6
			C800.4,22.5,799.6,23.9,799.5,25.1z"/>
		<path d="M630.7,42.9h4.6c1.9,0,2.9,1,2.9,2.2c0,1-0.7,1.7-1.5,2c0.9,0.2,1.6,1.1,1.6,2.1c0,1.4-1,2.4-3,2.4h-4.7V42.9z
			 M635.3,44.4h-3v2.1h3c0.8,0,1.2-0.5,1.2-1C636.5,44.8,636.1,44.4,635.3,44.4z M635.4,47.9h-3.1v2.3h3.1c0.8,0,1.3-0.4,1.3-1.2
			C636.7,48.5,636.2,47.9,635.4,47.9z"/>
		<path d="M642.1,46h3c2,0,2.9,1.4,2.9,2.8c0,1.4-1,2.8-2.9,2.8h-4.7v-8.7h1.6V46z M642.1,50.2h2.9c1,0,1.4-0.6,1.4-1.4
			c0-0.8-0.4-1.4-1.4-1.4h-2.9V50.2z M649.4,42.9h1.6v8.7h-1.6V42.9z"/>
		<path d="M659.5,44.4h-4.2v7.3h-1.6v-8.7h7.5v8.7h-1.6V44.4z"/>
		<path d="M669.1,50.7c-0.7,0.8-1.7,1.2-2.8,1.2c-1.4,0-3-1-3-2.9c0-2,1.6-2.8,3-2.8c1.2,0,2.2,0.4,2.8,1.2v-1.4
			c0-1.1-0.9-1.7-2.1-1.7c-1,0-1.8,0.4-2.6,1.2l-0.7-1.1c1-1,2.2-1.4,3.6-1.4c1.9,0,3.5,0.8,3.5,3v5.9h-1.6V50.7z M669.1,48.3
			c-0.5-0.6-1.3-1-2.2-1c-1.2,0-2,0.7-2,1.7s0.8,1.7,2,1.7c0.9,0,1.7-0.3,2.2-1V48.3z"/>
		<path d="M673.3,55v-12h1.6v1.2c0.6-0.9,1.7-1.5,2.8-1.5c2.3,0,3.9,1.7,3.9,4.6c0,2.8-1.6,4.6-3.9,4.6c-1.1,0-2.1-0.5-2.8-1.5V55
			H673.3z M677.3,44.2c-1,0-2,0.6-2.4,1.3v3.7c0.4,0.7,1.4,1.3,2.4,1.3c1.6,0,2.6-1.3,2.6-3.1C679.9,45.5,678.9,44.2,677.3,44.2z"/>
		<path d="M683.7,42.9h1.6v6.2l4.3-6.2h1.6v8.7h-1.6v-6.4l-4.3,6.4h-1.5V42.9z"/>
		<path d="M693.7,42.9h4.6c1.9,0,2.9,1,2.9,2.2c0,1-0.7,1.7-1.5,2c0.9,0.2,1.6,1.1,1.6,2.1c0,1.4-1,2.4-3,2.4h-4.7V42.9z
			 M698.4,44.4h-3v2.1h3c0.8,0,1.2-0.5,1.2-1C699.6,44.8,699.1,44.4,698.4,44.4z M698.4,47.9h-3.1v2.3h3.1c0.8,0,1.3-0.4,1.3-1.2
			C699.7,48.5,699.3,47.9,698.4,47.9z"/>
		<path d="M708.9,50.7c-0.7,0.8-1.7,1.2-2.8,1.2c-1.4,0-3-1-3-2.9c0-2,1.6-2.8,3-2.8c1.2,0,2.2,0.4,2.8,1.2v-1.4
			c0-1.1-0.9-1.7-2.1-1.7c-1,0-1.8,0.4-2.6,1.2l-0.7-1.1c1-1,2.2-1.4,3.6-1.4c1.9,0,3.5,0.8,3.5,3v5.9h-1.6V50.7z M708.9,48.3
			c-0.5-0.6-1.3-1-2.2-1c-1.2,0-2,0.7-2,1.7s0.8,1.7,2,1.7c0.9,0,1.7-0.3,2.2-1V48.3z"/>
		<path d="M713.1,42.9h1.6v3.5h4.2v-3.5h1.6v8.7H719v-3.7h-4.2v3.7h-1.6V42.9z"/>
		<path d="M723.2,42.9h1.6v6.2l4.3-6.2h1.6v8.7H729v-6.4l-4.3,6.4h-1.5V42.9z"/>
		<path d="M737.1,42.7c2.6,0,4.2,2,4.2,4.7v0.4h-6.9c0.1,1.5,1.2,2.7,3,2.7c0.9,0,1.9-0.4,2.6-1l0.8,1.1c-0.9,0.8-2.1,1.3-3.5,1.3
			c-2.6,0-4.5-1.8-4.5-4.6C732.7,44.8,734.5,42.7,737.1,42.7z M734.4,46.7h5.3c0-1.2-0.8-2.6-2.6-2.6
			C735.3,44.1,734.5,45.5,734.4,46.7z"/>
	</g>
</g>
<g>
	<g>
		<path d="M653.4,132.2l0.3-3.6h7.8v12h-1.8v-10.4h-4.4l-0.2,2.1c-0.7,7.7-2.4,8.6-4.6,8.6V139C651.8,139,652.9,138.1,653.4,132.2z"
			/>
		<path d="M664.1,131.8h1.6v6.2l4.3-6.2h1.6v8.7h-1.6v-6.4l-4.3,6.4h-1.5V131.8z"/>
		<path d="M673.6,136.2c0-2.5,1.7-4.6,4.4-4.6c2.7,0,4.4,2.1,4.4,4.6c0,2.5-1.7,4.6-4.4,4.6C675.3,140.8,673.6,138.7,673.6,136.2z
			 M680.7,136.2c0-1.6-1-3.1-2.7-3.1c-1.7,0-2.7,1.5-2.7,3.1c0,1.7,1,3.1,2.7,3.1C679.7,139.3,680.7,137.8,680.7,136.2z"/>
		<path d="M694.7,136.2c0,2.7-1.7,4.4-4.6,4.6v3.1h-1.6v-3.1c-2.9-0.2-4.6-1.9-4.6-4.6c0-2.7,1.7-4.4,4.6-4.6v-3.1h1.6v3.1
			C693,131.8,694.7,133.5,694.7,136.2z M688.5,139.3v-6.2c-1.7,0-2.9,1.2-2.9,3.1C685.6,138.1,686.7,139.3,688.5,139.3z M693,136.2
			c0-1.9-1.2-3.1-2.9-3.1v6.2C691.9,139.3,693,138.1,693,136.2z"/>
		<path d="M696.8,131.8h1.6v6.2l4.3-6.2h1.6v8.7h-1.6v-6.4l-4.3,6.4h-1.5V131.8z"/>
		<path d="M707.8,133.9l0.1-2.1h6.4v8.7h-1.6v-7.3h-3.3l-0.1,0.8c-0.4,5.5-1.7,6.7-3.5,6.7v-1.6
			C706.8,139.2,707.5,138.1,707.8,133.9z"/>
		<path d="M716.9,131.8h1.6v6.2l4.3-6.2h1.6v8.7h-1.6v-6.4l-4.3,6.4h-1.5V131.8z"/>
		<path d="M727,138.2c0.8,0.7,1.7,1.2,2.8,1.2c1.3,0,2.1-0.6,2.1-1.4c0-0.9-0.9-1.3-2.3-1.3h-1.5v-1.3h1.5c1.3,0,2.1-0.4,2.1-1.3
			c0-0.7-0.8-1.2-2-1.2c-1.1,0-2,0.4-2.7,1.1l-0.8-1c0.8-0.8,1.9-1.4,3.4-1.4c2.3,0,3.8,0.9,3.8,2.3c0,1.2-1.2,2-2.2,2.1
			c1,0.1,2.4,0.7,2.4,2.1c0,1.5-1.4,2.6-3.8,2.6c-1.6,0-2.9-0.5-3.7-1.4L727,138.2z"/>
		<path d="M741.1,139.6c-0.7,0.8-1.7,1.2-2.8,1.2c-1.4,0-3-1-3-2.9c0-2,1.6-2.8,3-2.8c1.2,0,2.2,0.4,2.8,1.2v-1.4
			c0-1.1-0.9-1.7-2.1-1.7c-1,0-1.8,0.4-2.6,1.2l-0.7-1.1c1-1,2.2-1.4,3.6-1.4c1.9,0,3.5,0.8,3.5,3v5.9h-1.6V139.6z M741.1,137.2
			c-0.5-0.6-1.3-1-2.2-1c-1.2,0-2,0.7-2,1.7c0,1,0.8,1.7,2,1.7c0.9,0,1.7-0.3,2.2-1V137.2z"/>
		<path d="M745.3,140.5v-8.7h1.6v7.3h4.1v-7.3h1.6v7.3h1v3.6h-1.4v-2.2H745.3z"/>
		<path d="M755.3,131.8h1.6v6.2l4.3-6.2h1.6v8.7h-1.6v-6.4l-4.3,6.4h-1.5V131.8z"/>
		<path d="M764.9,136.2c0-2.5,1.7-4.6,4.4-4.6c2.7,0,4.4,2.1,4.4,4.6c0,2.5-1.7,4.6-4.4,4.6C766.6,140.8,764.9,138.7,764.9,136.2z
			 M772,136.2c0-1.6-1-3.1-2.7-3.1c-1.7,0-2.7,1.5-2.7,3.1c0,1.7,1,3.1,2.7,3.1C771,139.3,772,137.8,772,136.2z"/>
		<path d="M775.7,131.8h1.6v3.5h4.2v-3.5h1.6v8.7h-1.6v-3.7h-4.2v3.7h-1.6V131.8z"/>
		<path d="M785.8,131.8h1.6v3.5h4.2v-3.5h1.6v8.7h-1.6v-3.7h-4.2v3.7h-1.6V131.8z"/>
		<path d="M801.2,139.6c-0.7,0.8-1.7,1.2-2.8,1.2c-1.4,0-3-1-3-2.9c0-2,1.6-2.8,3-2.8c1.2,0,2.2,0.4,2.8,1.2v-1.4
			c0-1.1-0.9-1.7-2.1-1.7c-1,0-1.8,0.4-2.6,1.2l-0.7-1.1c1-1,2.2-1.4,3.6-1.4c1.9,0,3.5,0.8,3.5,3v5.9h-1.6V139.6z M801.2,137.2
			c-0.5-0.6-1.3-1-2.2-1c-1.2,0-2,0.7-2,1.7c0,1,0.8,1.7,2,1.7c0.9,0,1.7-0.3,2.2-1V137.2z"/>
		<path d="M807.4,137.2c-1.2-0.2-2.1-1.2-2.1-2.6c0-1.5,1-2.7,2.8-2.7h4.8v8.7h-1.6v-3.3H809l-2,3.3h-1.9L807.4,137.2z M811.2,133.3
			h-3c-0.8,0-1.3,0.5-1.3,1.3c0,0.8,0.5,1.3,1.3,1.3h3V133.3z"/>
		<path d="M655,153.2c1.6,0,2.6,0.7,3.3,1.5l-1.1,1c-0.5-0.7-1.2-1.1-2.1-1.1c-1.7,0-2.8,1.3-2.8,3.1c0,1.8,1.1,3.1,2.8,3.1
			c0.9,0,1.6-0.4,2.1-1.1l1.1,1c-0.6,0.8-1.6,1.5-3.3,1.5c-2.6,0-4.4-2-4.4-4.6C650.6,155.2,652.4,153.2,655,153.2z"/>
		<path d="M660.6,164.2c0.6,0,1-0.2,1.3-0.8l0.5-1.2l-3.6-8.8h1.7l2.7,6.8l2.7-6.8h1.7l-4.3,10.4c-0.6,1.4-1.5,1.9-2.8,1.9
			c-0.3,0-0.8-0.1-1-0.1l0.3-1.5C660.1,164.2,660.4,164.2,660.6,164.2z"/>
		<path d="M680.6,162.1H669v-8.7h1.6v7.3h3.3v-7.3h1.6v7.3h3.4v-7.3h1.6V162.1z"/>
		<path d="M686.1,158.4l-1.3,1.3v2.4h-1.6v-8.7h1.6v4.4l4.2-4.4h2l-3.7,3.9l3.8,4.8H689L686.1,158.4z"/>
		<path d="M697.9,161.2c-0.7,0.8-1.7,1.2-2.8,1.2c-1.4,0-3-1-3-2.9c0-2,1.6-2.8,3-2.8c1.2,0,2.2,0.4,2.8,1.2v-1.4
			c0-1.1-0.9-1.7-2.1-1.7c-1,0-1.8,0.4-2.6,1.2l-0.7-1.1c1-1,2.2-1.4,3.6-1.4c1.9,0,3.5,0.8,3.5,3v5.9h-1.6V161.2z M697.9,158.8
			c-0.5-0.6-1.3-1-2.2-1c-1.2,0-2,0.7-2,1.7s0.8,1.7,2,1.7c0.9,0,1.7-0.3,2.2-1V158.8z"/>
	</g>
</g>
<g>
	<g>
		<path d="M637.5,242.9h-6.6v10.4h-1.8v-12h10.2v12h-1.8V242.9z"/>
		<path d="M641.9,256.7v-12h1.6v1.2c0.6-0.9,1.7-1.5,2.8-1.5c2.3,0,3.9,1.7,3.9,4.6s-1.6,4.6-3.9,4.6c-1.1,0-2.1-0.5-2.8-1.5v4.6
			H641.9z M646,245.9c-1,0-2,0.6-2.4,1.3v3.7c0.4,0.7,1.4,1.3,2.4,1.3c1.6,0,2.6-1.3,2.6-3.1C648.6,247.2,647.6,245.9,646,245.9z"/>
		<path d="M656.2,244.4c2.6,0,4.2,2,4.2,4.7v0.4h-6.9c0.1,1.5,1.2,2.7,3,2.7c0.9,0,1.9-0.4,2.6-1l0.8,1.1c-0.9,0.8-2.1,1.3-3.5,1.3
			c-2.6,0-4.5-1.8-4.5-4.6C651.8,246.5,653.6,244.4,656.2,244.4z M653.5,248.4h5.3c0-1.2-0.8-2.6-2.6-2.6
			C654.4,245.8,653.6,247.2,653.5,248.4z"/>
		<path d="M668.3,246.1H664v7.3h-1.6v-8.7h7.5v8.7h-1.6V246.1z"/>
		<path d="M677.9,252.4c-0.7,0.8-1.7,1.2-2.8,1.2c-1.4,0-3-1-3-2.9c0-2,1.6-2.8,3-2.8c1.2,0,2.2,0.4,2.8,1.2v-1.4
			c0-1.1-0.9-1.7-2.1-1.7c-1,0-1.8,0.4-2.6,1.2l-0.7-1.1c1-1,2.2-1.4,3.6-1.4c1.9,0,3.5,0.8,3.5,3v5.9h-1.6V252.4z M677.9,250
			c-0.5-0.6-1.3-1-2.2-1c-1.2,0-2,0.7-2,1.7c0,1,0.8,1.7,2,1.7c0.9,0,1.7-0.3,2.2-1V250z"/>
		<path d="M682.1,256.7v-12h1.6v1.2c0.6-0.9,1.7-1.5,2.8-1.5c2.3,0,3.9,1.7,3.9,4.6s-1.6,4.6-3.9,4.6c-1.1,0-2.1-0.5-2.8-1.5v4.6
			H682.1z M686.1,245.9c-1,0-2,0.6-2.4,1.3v3.7c0.4,0.7,1.4,1.3,2.4,1.3c1.6,0,2.6-1.3,2.6-3.1C688.7,247.2,687.7,245.9,686.1,245.9
			z"/>
		<path d="M697.8,252.4c-0.7,0.8-1.7,1.2-2.8,1.2c-1.4,0-3-1-3-2.9c0-2,1.6-2.8,3-2.8c1.2,0,2.2,0.4,2.8,1.2v-1.4
			c0-1.1-0.9-1.7-2.1-1.7c-1,0-1.8,0.4-2.6,1.2l-0.7-1.1c1-1,2.2-1.4,3.6-1.4c1.9,0,3.5,0.8,3.5,3v5.9h-1.6V252.4z M697.8,250
			c-0.5-0.6-1.3-1-2.2-1c-1.2,0-2,0.7-2,1.7c0,1,0.8,1.7,2,1.7c0.9,0,1.7-0.3,2.2-1V250z"/>
		<path d="M703.6,246.1h-2.5v-1.4h6.6v1.4h-2.5v7.3h-1.6V246.1z"/>
		<path d="M709.4,244.6h1.6v6.2l4.3-6.2h1.6v8.7h-1.6V247l-4.3,6.4h-1.5V244.6z"/>
		<path d="M719.5,244.6h4.6c1.9,0,2.9,1,2.9,2.2c0,1-0.7,1.7-1.5,2c0.9,0.2,1.6,1.1,1.6,2.1c0,1.4-1,2.4-3,2.4h-4.7V244.6z
			 M724.1,246.1h-3v2.1h3c0.8,0,1.2-0.5,1.2-1C725.3,246.5,724.9,246.1,724.1,246.1z M724.2,249.6h-3.1v2.3h3.1
			c0.8,0,1.3-0.4,1.3-1.2C725.5,250.2,725.1,249.6,724.2,249.6z"/>
		<path d="M729.3,244.6h1.6v3.5h4.2v-3.5h1.6v8.7h-1.6v-3.7h-4.2v3.7h-1.6V244.6z"/>
		<path d="M744.7,252.4c-0.7,0.8-1.7,1.2-2.8,1.2c-1.4,0-3-1-3-2.9c0-2,1.6-2.8,3-2.8c1.2,0,2.2,0.4,2.8,1.2v-1.4
			c0-1.1-0.9-1.7-2.1-1.7c-1,0-1.8,0.4-2.6,1.2l-0.7-1.1c1-1,2.2-1.4,3.6-1.4c1.9,0,3.5,0.8,3.5,3v5.9h-1.6V252.4z M744.7,250
			c-0.5-0.6-1.3-1-2.2-1c-1.2,0-2,0.7-2,1.7c0,1,0.8,1.7,2,1.7c0.9,0,1.7-0.3,2.2-1V250z"/>
		<path d="M750.9,250c-1.2-0.2-2.1-1.2-2.1-2.6c0-1.5,1-2.7,2.8-2.7h4.8v8.7h-1.6v-3.3h-2.2l-2,3.3h-1.9L750.9,250z M754.7,246.1h-3
			c-0.8,0-1.3,0.5-1.3,1.3c0,0.8,0.5,1.3,1.3,1.3h3V246.1z"/>
		<path d="M632.2,271.6l-2.4,3.4h-1.8l3.3-4.5l-3.1-4.2h1.8l2.2,3.1l2.2-3.1h1.8l-3.1,4.2l3.3,4.5h-1.8L632.2,271.6z"/>
		<path d="M637.9,278.3v-12h1.6v1.2c0.6-0.9,1.7-1.5,2.8-1.5c2.3,0,3.9,1.7,3.9,4.6c0,2.8-1.6,4.6-3.9,4.6c-1.1,0-2.1-0.5-2.8-1.5
			v4.6H637.9z M641.9,267.5c-1,0-2,0.6-2.4,1.3v3.7c0.4,0.7,1.4,1.3,2.4,1.3c1.6,0,2.6-1.3,2.6-3.1
			C644.5,268.8,643.5,267.5,641.9,267.5z"/>
		<path d="M647.7,270.6c0-2.5,1.7-4.6,4.4-4.6c2.7,0,4.4,2.1,4.4,4.6c0,2.5-1.7,4.6-4.4,4.6C649.4,275.2,647.7,273.1,647.7,270.6z
			 M654.8,270.6c0-1.6-1-3.1-2.7-3.1c-1.7,0-2.7,1.5-2.7,3.1c0,1.7,1,3.1,2.7,3.1C653.9,273.7,654.8,272.2,654.8,270.6z"/>
		<path d="M666.7,268.4l-2.9,6.6h-0.6l-2.9-6.6v6.6h-1.6v-8.7h2.1l2.8,6.2l2.7-6.2h2.1v8.7h-1.6V268.4z"/>
		<path d="M676.2,274c-0.7,0.8-1.7,1.2-2.8,1.2c-1.4,0-3-1-3-2.9c0-2,1.6-2.8,3-2.8c1.2,0,2.2,0.4,2.8,1.2v-1.4
			c0-1.1-0.9-1.7-2.1-1.7c-1,0-1.8,0.4-2.6,1.2l-0.7-1.1c1-1,2.2-1.4,3.6-1.4c1.9,0,3.5,0.8,3.5,3v5.9h-1.6V274z M676.2,271.6
			c-0.5-0.6-1.3-1-2.2-1c-1.2,0-2,0.7-2,1.7s0.8,1.7,2,1.7c0.9,0,1.7-0.3,2.2-1V271.6z"/>
		<path d="M682,267.7h-2.5v-1.4h6.6v1.4h-2.5v7.3H682V267.7z"/>
		<path d="M687.2,270.6c0-2.5,1.7-4.6,4.4-4.6c2.7,0,4.4,2.1,4.4,4.6c0,2.5-1.7,4.6-4.4,4.6C688.9,275.2,687.2,273.1,687.2,270.6z
			 M694.3,270.6c0-1.6-1-3.1-2.7-3.1c-1.7,0-2.7,1.5-2.7,3.1c0,1.7,1,3.1,2.7,3.1C693.3,273.7,694.3,272.2,694.3,270.6z"/>
		<path d="M699.6,267.7v7.3H698v-8.7h6.3v1.4H699.6z"/>
		<path d="M706,278.3v-12h1.6v1.2c0.6-0.9,1.7-1.5,2.8-1.5c2.3,0,3.9,1.7,3.9,4.6c0,2.8-1.6,4.6-3.9,4.6c-1.1,0-2.1-0.5-2.8-1.5v4.6
			H706z M710,267.5c-1,0-2,0.6-2.4,1.3v3.7c0.4,0.7,1.4,1.3,2.4,1.3c1.6,0,2.6-1.3,2.6-3.1C712.7,268.8,711.7,267.5,710,267.5z"/>
		<path d="M721.8,274c-0.7,0.8-1.7,1.2-2.8,1.2c-1.4,0-3-1-3-2.9c0-2,1.6-2.8,3-2.8c1.2,0,2.2,0.4,2.8,1.2v-1.4
			c0-1.1-0.9-1.7-2.1-1.7c-1,0-1.8,0.4-2.6,1.2l-0.7-1.1c1-1,2.2-1.4,3.6-1.4c1.9,0,3.5,0.8,3.5,3v5.9h-1.6V274z M721.8,271.6
			c-0.5-0.6-1.3-1-2.2-1c-1.2,0-2,0.7-2,1.7s0.8,1.7,2,1.7c0.9,0,1.7-0.3,2.2-1V271.6z"/>
		<path d="M736.2,270.6c0,2.7-1.7,4.4-4.6,4.6v3.1H730v-3.1c-2.9-0.2-4.6-1.9-4.6-4.6c0-2.7,1.7-4.4,4.6-4.6v-3.1h1.6v3.1
			C734.5,266.2,736.2,267.9,736.2,270.6z M730,273.7v-6.2c-1.7,0-2.9,1.2-2.9,3.1C727.1,272.5,728.3,273.7,730,273.7z M734.5,270.6
			c0-1.9-1.2-3.1-2.9-3.1v6.2C733.4,273.7,734.5,272.5,734.5,270.6z"/>
		<path d="M738.3,266.2h1.6v6.2l4.3-6.2h1.6v8.7h-1.6v-6.4l-4.3,6.4h-1.5V266.2z"/>
		<path d="M750.3,271.6c-1.2-0.2-2.1-1.2-2.1-2.6s1-2.7,2.8-2.7h4.8v8.7h-1.6v-3.3h-2.2l-2,3.3h-1.9L750.3,271.6z M754.1,267.7h-3
			c-0.8,0-1.3,0.5-1.3,1.3s0.5,1.3,1.3,1.3h3V267.7z"/>
	</g>
</g>
<g>
	<g>
		<path d="M29.8,139.2l-4.7,9.8c-0.7,1.5-1.6,2.4-3.5,2.4c-0.5,0-1-0.1-1.4-0.3l0.5-1.5c0.2,0.1,0.6,0.2,0.9,0.2
			c0.9,0,1.4-0.5,2-1.7l0.1-0.1l-5-8.9h2.1l3.9,7.2l3.2-7.2H29.8z"/>
		<path d="M30,144.6l0.1-2.1h6.4v8.7h-1.6v-7.3h-3.3l-0.1,0.8c-0.4,5.5-1.7,6.7-3.5,6.7v-1.6C28.9,149.8,29.6,148.7,30,144.6z"/>
		<path d="M40.7,145.6h3c2,0,2.9,1.4,2.9,2.8c0,1.4-1,2.8-2.9,2.8h-4.7v-8.7h1.6V145.6z M40.7,149.8h2.9c1,0,1.4-0.6,1.4-1.4
			c0-0.8-0.4-1.4-1.4-1.4h-2.9V149.8z"/>
		<path d="M49.1,143.9h-2.5v-1.4h6.6v1.4h-2.5v7.3h-1.6V143.9z"/>
		<path d="M54.9,154.5v-12h1.6v1.2c0.6-0.9,1.7-1.5,2.8-1.5c2.3,0,3.9,1.7,3.9,4.6s-1.6,4.6-3.9,4.6c-1.1,0-2.1-0.5-2.8-1.5v4.6
			H54.9z M58.9,143.7c-1,0-2,0.6-2.4,1.3v3.7c0.4,0.7,1.4,1.3,2.4,1.3c1.6,0,2.6-1.3,2.6-3.1C61.5,145.1,60.6,143.7,58.9,143.7z"/>
		<path d="M70.6,150.3c-0.7,0.8-1.7,1.2-2.8,1.2c-1.4,0-3-1-3-2.9c0-2,1.6-2.8,3-2.8c1.2,0,2.2,0.4,2.8,1.2v-1.4
			c0-1.1-0.9-1.7-2.1-1.7c-1,0-1.8,0.4-2.6,1.2l-0.7-1.1c1-1,2.2-1.4,3.6-1.4c1.9,0,3.5,0.8,3.5,3v5.9h-1.6V150.3z M70.6,147.8
			c-0.5-0.6-1.3-1-2.2-1c-1.2,0-2,0.7-2,1.7s0.8,1.7,2,1.7c0.9,0,1.7-0.3,2.2-1V147.8z"/>
		<path d="M85.1,146.9c0,2.7-1.7,4.4-4.6,4.6v3.1h-1.6v-3.1c-2.9-0.2-4.6-1.9-4.6-4.6c0-2.7,1.7-4.4,4.6-4.6v-3.1h1.6v3.1
			C83.4,142.5,85.1,144.2,85.1,146.9z M78.9,150v-6.2c-1.7,0-2.9,1.2-2.9,3.1C76,148.8,77.2,150,78.9,150z M83.4,146.9
			c0-1.9-1.2-3.1-2.9-3.1v6.2C82.3,150,83.4,148.8,83.4,146.9z"/>
		<path d="M87.2,142.5h1.6v6.2l4.3-6.2h1.6v8.7H93v-6.4l-4.3,6.4h-1.5V142.5z"/>
		<path d="M98.2,144.6l0.1-2.1h6.4v8.7h-1.6v-7.3h-3.3l-0.1,0.8c-0.4,5.5-1.7,6.7-3.5,6.7v-1.6C97.2,149.8,97.9,148.7,98.2,144.6z"
			/>
		<path d="M109,145.6h3c2,0,2.9,1.4,2.9,2.8c0,1.4-1,2.8-2.9,2.8h-4.7v-8.7h1.6V145.6z M109,149.8h2.9c1,0,1.4-0.6,1.4-1.4
			c0-0.8-0.4-1.4-1.4-1.4H109V149.8z"/>
		<path d="M117.4,143.9h-2.5v-1.4h6.6v1.4H119v7.3h-1.6V143.9z"/>
		<path d="M123.2,154.5v-12h1.6v1.2c0.6-0.9,1.7-1.5,2.8-1.5c2.3,0,3.9,1.7,3.9,4.6s-1.6,4.6-3.9,4.6c-1.1,0-2.1-0.5-2.8-1.5v4.6
			H123.2z M127.2,143.7c-1,0-2,0.6-2.4,1.3v3.7c0.4,0.7,1.4,1.3,2.4,1.3c1.6,0,2.6-1.3,2.6-3.1C129.8,145.1,128.8,143.7,127.2,143.7
			z"/>
		<path d="M138.9,150.3c-0.7,0.8-1.7,1.2-2.8,1.2c-1.4,0-3-1-3-2.9c0-2,1.6-2.8,3-2.8c1.2,0,2.2,0.4,2.8,1.2v-1.4
			c0-1.1-0.9-1.7-2.1-1.7c-1,0-1.8,0.4-2.6,1.2l-0.7-1.1c1-1,2.2-1.4,3.6-1.4c1.9,0,3.5,0.8,3.5,3v5.9h-1.6V150.3z M138.9,147.8
			c-0.5-0.6-1.3-1-2.2-1c-1.2,0-2,0.7-2,1.7s0.8,1.7,2,1.7c0.9,0,1.7-0.3,2.2-1V147.8z"/>
		<path d="M143.1,151.2v-8.7h1.6v7.3h4.1v-7.3h1.6v7.3h1v3.6H150v-2.2H143.1z"/>
		<path d="M153.1,142.5h1.6v6.2l4.3-6.2h1.6v8.7H159v-6.4l-4.3,6.4h-1.5V142.5z"/>
		<path d="M165.1,147.9c-1.2-0.2-2.1-1.2-2.1-2.6c0-1.5,1-2.7,2.8-2.7h4.8v8.7H169V148h-2.2l-2,3.3h-1.9L165.1,147.9z M169,143.9h-3
			c-0.8,0-1.3,0.5-1.3,1.3c0,0.8,0.5,1.3,1.3,1.3h3V143.9z"/>
	</g>
</g>
<g>
	<g>
		<path d="M63,261.5h-6.6v5.4h-1.8v-12h1.8v5H63v-5h1.8v12H63V261.5z"/>
		<path d="M72.8,265.9c-0.7,0.8-1.7,1.2-2.8,1.2c-1.4,0-3-1-3-2.9c0-2,1.6-2.8,3-2.8c1.2,0,2.2,0.4,2.8,1.2v-1.4
			c0-1.1-0.9-1.7-2.1-1.7c-1,0-1.8,0.4-2.6,1.2l-0.7-1.1c1-1,2.2-1.4,3.6-1.4c1.9,0,3.5,0.8,3.5,3v5.9h-1.6V265.9z M72.8,263.5
			c-0.5-0.6-1.3-1-2.2-1c-1.2,0-2,0.7-2,1.7s0.8,1.7,2,1.7c0.9,0,1.7-0.3,2.2-1V263.5z"/>
		<path d="M77,258.2h1.6v3.5h4.2v-3.5h1.6v8.7h-1.6v-3.7h-4.2v3.7H77V258.2z"/>
		<path d="M86.5,262.5c0-2.5,1.7-4.6,4.4-4.6c2.7,0,4.4,2.1,4.4,4.6c0,2.5-1.7,4.6-4.4,4.6C88.2,267.1,86.5,265,86.5,262.5z
			 M93.6,262.5c0-1.6-1-3.1-2.7-3.1c-1.7,0-2.7,1.5-2.7,3.1c0,1.7,1,3.1,2.7,3.1C92.6,265.7,93.6,264.2,93.6,262.5z"/>
		<path d="M107.6,262.5c0,2.7-1.7,4.4-4.6,4.6v3.1h-1.6v-3.1c-2.9-0.2-4.6-1.9-4.6-4.6c0-2.7,1.7-4.4,4.6-4.6v-3.1h1.6v3.1
			C105.9,258.1,107.6,259.8,107.6,262.5z M101.4,265.7v-6.2c-1.7,0-2.9,1.2-2.9,3.1C98.5,264.5,99.6,265.6,101.4,265.7z
			 M105.9,262.5c0-1.9-1.2-3.1-2.9-3.1v6.2C104.8,265.6,105.9,264.5,105.9,262.5z"/>
		<path d="M109.7,258.2h1.6v6.2l4.3-6.2h1.6v8.7h-1.6v-6.4l-4.3,6.4h-1.5V258.2z"/>
		<path d="M120.7,260.3l0.1-2.1h6.4v8.7h-1.6v-7.3h-3.3l-0.1,0.8c-0.4,5.5-1.7,6.7-3.5,6.7v-1.6
			C119.7,265.5,120.4,264.4,120.7,260.3z"/>
		<path d="M131.4,261.2h3c2,0,2.9,1.4,2.9,2.8c0,1.4-1,2.8-2.9,2.8h-4.7v-8.7h1.6V261.2z M131.4,265.5h2.9c1,0,1.4-0.6,1.4-1.4
			c0-0.8-0.4-1.4-1.4-1.4h-2.9V265.5z"/>
		<path d="M139.8,259.6h-2.5v-1.4h6.6v1.4h-2.5v7.3h-1.6V259.6z"/>
		<path d="M145.6,270.2v-12h1.6v1.2c0.6-0.9,1.7-1.5,2.8-1.5c2.3,0,3.9,1.7,3.9,4.6s-1.6,4.6-3.9,4.6c-1.1,0-2.1-0.5-2.8-1.5v4.6
			H145.6z M149.7,259.4c-1,0-2,0.6-2.4,1.3v3.7c0.4,0.7,1.4,1.3,2.4,1.3c1.6,0,2.6-1.3,2.6-3.1C152.3,260.7,151.3,259.4,149.7,259.4
			z"/>
		<path d="M161.4,265.9c-0.7,0.8-1.7,1.2-2.8,1.2c-1.4,0-3-1-3-2.9c0-2,1.6-2.8,3-2.8c1.2,0,2.2,0.4,2.8,1.2v-1.4
			c0-1.1-0.9-1.7-2.1-1.7c-1,0-1.8,0.4-2.6,1.2l-0.7-1.1c1-1,2.2-1.4,3.6-1.4c1.9,0,3.5,0.8,3.5,3v5.9h-1.6V265.9z M161.4,263.5
			c-0.5-0.6-1.3-1-2.2-1c-1.2,0-2,0.7-2,1.7s0.8,1.7,2,1.7c0.9,0,1.7-0.3,2.2-1V263.5z"/>
		<path d="M165.6,266.9v-8.7h1.6v7.3h4.1v-7.3h1.6v7.3h1v3.6h-1.4v-2.2H165.6z"/>
		<path d="M175.6,258.2h1.6v6.2l4.3-6.2h1.6v8.7h-1.6v-6.4l-4.3,6.4h-1.5V258.2z"/>
		<path d="M187.6,263.5c-1.2-0.2-2.1-1.2-2.1-2.6s1-2.7,2.8-2.7h4.8v8.7h-1.6v-3.3h-2.2l-2,3.3h-1.9L187.6,263.5z M191.5,259.6h-3
			c-0.8,0-1.3,0.5-1.3,1.3s0.5,1.3,1.3,1.3h3V259.6z"/>
	</g>
</g>
</svg>
