<?xml version="1.0" encoding="utf-8"?>
<!-- Generator: Adobe Illustrator 21.1.0, SVG Export Plug-In . SVG Version: 6.00 Build 0)  -->
<svg version="1.1" id="Capa_1" xmlns="http://www.w3.org/2000/svg" xmlns:xlink="http://www.w3.org/1999/xlink" x="0px" y="0px"
	 viewBox="0 0 261.4 177.9" style="enable-background:new 0 0 261.4 177.9;" xml:space="preserve">
<style type="text/css">
	.st0{opacity:0.8;}
	.st1{fill:none;stroke:#FFFFCC;stroke-linecap:round;stroke-miterlimit:10;}
	.st2{fill:none;stroke:#FFFFCC;stroke-linecap:round;stroke-miterlimit:10;stroke-dasharray:0.9852,4.9259;}
	.st3{fill:none;stroke:#FFFFCC;stroke-linecap:round;stroke-linejoin:round;stroke-miterlimit:10;}
	.st4{opacity:0.8;fill:none;stroke:#FFFFCC;stroke-linecap:round;stroke-miterlimit:10;stroke-dasharray:1,5;}
	.st5{fill:#FCF8C0;}
</style>
<g class="st0">
	<g>
		<path class="st1" d="M176.7,48.5c-0.1-0.1-0.2-0.3-0.3-0.4"/>
		<path class="st2" d="M173.2,44.3C134.8,1.8,61.3,0.7,9.1,44.2"/>
		<path class="st1" d="M7.2,45.8c-0.1,0.1-0.3,0.2-0.4,0.3"/>
	</g>
</g>
<polyline class="st3" points="7.4,40.5 2.4,49.5 12.1,46.7 "/>
<ellipse class="st4" cx="187" cy="111.5" rx="64" ry="59.3"/>
<g>
	<g>
		<path class="st5" d="M150.6,91.8h4.1c1.6,0,2.6,1,2.6,2.3c0,1.2-0.8,1.9-1.6,2.1c1,0.2,1.8,1.2,1.8,2.3c0,1.5-1,2.5-2.7,2.5h-4.2
			V91.8z M154.5,95.8c1,0,1.6-0.6,1.6-1.5c0-0.8-0.6-1.5-1.6-1.5h-2.8v3H154.5z M154.5,100c1.1,0,1.7-0.6,1.7-1.6
			c0-0.8-0.6-1.6-1.7-1.6h-2.8v3.2H154.5z"/>
		<path class="st5" d="M160.3,96.8h2.4c1.5,0,2.2,1.1,2.2,2.1c0,1.1-0.7,2.1-2.2,2.1h-3.4v-6.7h1V96.8z M160.3,100.1h2.3
			c0.8,0,1.2-0.6,1.2-1.2c0-0.7-0.4-1.2-1.2-1.2h-2.3V100.1z M166,94.4h1v6.7h-1V94.4z"/>
		<path class="st5" d="M172.9,92l1.7-0.3v0.9l-1.7,0.3c-2.3,0.4-3.1,1.5-3.4,3c0.5-0.9,1.4-1.5,2.6-1.5c1.9,0,3.1,1.5,3.1,3.3
			c0,1.9-1.2,3.5-3.3,3.5c-2,0-3.3-1.6-3.3-4C168.7,94.1,169.8,92.4,172.9,92z M172,95.1c-1.4,0-2.2,1.2-2.2,2.6
			c0,1.4,0.8,2.6,2.2,2.6s2.2-1.2,2.2-2.6C174.2,96.3,173.4,95.1,172,95.1z"/>
		<path class="st5" d="M179.9,94.2c2,0,3.2,1.6,3.2,3.6V98h-5.4c0.1,1.3,1,2.3,2.4,2.3c0.8,0,1.5-0.3,2.1-0.8l0.5,0.7
			c-0.7,0.7-1.6,1-2.7,1c-2,0-3.4-1.4-3.4-3.5C176.6,95.8,178,94.2,179.9,94.2z M177.7,97.3h4.4c0-1-0.7-2.2-2.2-2.2
			C178.5,95.1,177.8,96.3,177.7,97.3z"/>
		<path class="st5" d="M184.8,103.6v-9.2h1v1c0.5-0.7,1.3-1.2,2.3-1.2c1.8,0,3,1.3,3,3.5c0,2.2-1.2,3.5-3,3.5
			c-0.9,0-1.7-0.4-2.3-1.2v3.5H184.8z M187.8,95.1c-0.8,0-1.6,0.5-2,1.1v3c0.4,0.6,1.2,1.1,2,1.1c1.3,0,2.1-1.1,2.1-2.6
			S189.1,95.1,187.8,95.1z"/>
		<path class="st5" d="M192.7,94.4h1v5.1l3.5-5.1h1v6.7h-1v-5.2l-3.5,5.2h-1V94.4z"/>
		<path class="st5" d="M201.5,95.3h-1.9v-0.9h4.9v0.9h-1.9v5.8h-1V95.3z"/>
		<path class="st5" d="M208.6,94.2c2,0,3.2,1.6,3.2,3.6V98h-5.4c0.1,1.3,1,2.3,2.4,2.3c0.8,0,1.5-0.3,2.1-0.8l0.5,0.7
			c-0.7,0.7-1.6,1-2.7,1c-2,0-3.4-1.4-3.4-3.5C205.3,95.8,206.7,94.2,208.6,94.2z M206.4,97.3h4.4c0-1-0.7-2.2-2.2-2.2
			C207.2,95.1,206.5,96.3,206.4,97.3z"/>
		<path class="st5" d="M150.5,110.9h1v5.1l3.5-5.1h1v6.7h-1v-5.2l-3.5,5.2h-1V110.9z"/>
		<path class="st5" d="M161.1,110.8c1.2,0,1.9,0.5,2.4,1.2l-0.7,0.6c-0.4-0.6-1-0.9-1.7-0.9c-1.4,0-2.3,1.1-2.3,2.6s0.9,2.6,2.3,2.6
			c0.7,0,1.3-0.3,1.7-0.9l0.7,0.6c-0.5,0.7-1.2,1.2-2.4,1.2c-2,0-3.3-1.5-3.3-3.5C157.8,112.3,159.1,110.8,161.1,110.8z"/>
		<path class="st5" d="M167.9,110.8c1.2,0,1.9,0.5,2.4,1.2l-0.7,0.6c-0.4-0.6-1-0.9-1.7-0.9c-1.4,0-2.3,1.1-2.3,2.6s0.9,2.6,2.3,2.6
			c0.7,0,1.3-0.3,1.7-0.9l0.7,0.6c-0.5,0.7-1.2,1.2-2.4,1.2c-2,0-3.3-1.5-3.3-3.5C164.6,112.3,166,110.8,167.9,110.8z"/>
		<path class="st5" d="M172.6,112.5l0.1-1.6h4.6v6.7h-1v-5.8h-2.7l-0.1,0.7c-0.3,4.3-1.3,5.2-2.5,5.2v-1
			C171.8,116.8,172.3,115.9,172.6,112.5z"/>
		<path class="st5" d="M182.4,110.8c2,0,3.2,1.6,3.2,3.6v0.3h-5.4c0.1,1.3,1,2.3,2.4,2.3c0.8,0,1.5-0.3,2.1-0.8l0.5,0.7
			c-0.7,0.7-1.6,1-2.7,1c-2,0-3.4-1.4-3.4-3.5C179.1,112.3,180.5,110.8,182.4,110.8z M180.2,113.9h4.4c0-1-0.7-2.2-2.2-2.2
			C180.9,111.6,180.2,112.8,180.2,113.9z"/>
		<path class="st5" d="M186.9,116.7c0.3-0.5,0.8-1.5,1-4.2l0.1-1.5h4.6v5.8h0.8v2.6h-0.9v-1.7h-5.3v1.7h-0.9v-2.6H186.9z
			 M187.9,116.7h3.7v-4.8h-2.7l-0.1,0.9C188.6,115.4,188.2,116.3,187.9,116.7z"/>
		<path class="st5" d="M195.2,119.4c0.5,0,0.8-0.2,1-0.7l0.4-1l-2.8-6.7h1.1l2.2,5.5l2.2-5.5h1.1l-3.3,8c-0.4,1-1.1,1.3-2,1.4
			c-0.2,0-0.6,0-0.8-0.1l0.2-0.9C194.7,119.4,195,119.4,195.2,119.4z"/>
		<path class="st5" d="M204.5,110.8c2,0,3.2,1.6,3.2,3.6v0.3h-5.4c0.1,1.3,1,2.3,2.4,2.3c0.8,0,1.5-0.3,2.1-0.8l0.5,0.7
			c-0.7,0.7-1.6,1-2.7,1c-2,0-3.4-1.4-3.4-3.5C201.2,112.3,202.6,110.8,204.5,110.8z M202.3,113.9h4.4c0-1-0.7-2.2-2.2-2.2
			C203,111.6,202.3,112.8,202.3,113.9z"/>
		<path class="st5" d="M215.5,112.3l-2.4,5.3h-0.4l-2.4-5.3v5.3h-1v-6.7h1.4l2.2,5l2.2-5h1.4v6.7h-1V112.3z"/>
		<path class="st5" d="M219.7,113.3h2.4c1.5,0,2.2,1.1,2.2,2.1c0,1.1-0.7,2.1-2.2,2.1h-3.4v-6.7h1V113.3z M219.7,116.7h2.3
			c0.8,0,1.2-0.6,1.2-1.2c0-0.7-0.4-1.2-1.2-1.2h-2.3V116.7z M225.3,110.9h1v6.7h-1V110.9z"/>
		<path class="st5" d="M228.5,110.9h1v5.1l3.5-5.1h1v6.7h-1v-5.2l-3.5,5.2h-1V110.9z M229,108.9l0.6-0.5c0.4,0.5,1,0.9,1.7,0.9
			s1.3-0.3,1.6-0.9l0.6,0.5c-0.5,0.7-1.3,1.1-2.2,1.1C230.3,110,229.5,109.6,229,108.9z"/>
		<path class="st5" d="M150.5,136.7v-9.2h1v1c0.5-0.7,1.3-1.2,2.3-1.2c1.8,0,3,1.3,3,3.5c0,2.2-1.2,3.5-3,3.5
			c-0.9,0-1.7-0.4-2.3-1.2v3.5H150.5z M153.6,128.3c-0.8,0-1.6,0.5-2,1.1v3c0.4,0.6,1.2,1.1,2,1.1c1.3,0,2.1-1.1,2.1-2.6
			S154.9,128.3,153.6,128.3z"/>
		<path class="st5" d="M162.6,133.4c-0.6,0.6-1.3,0.9-2.2,0.9c-1.1,0-2.3-0.8-2.3-2.2c0-1.5,1.2-2.2,2.3-2.2c0.9,0,1.7,0.3,2.2,0.9
			v-1.2c0-0.9-0.7-1.4-1.7-1.4c-0.8,0-1.5,0.3-2,0.9l-0.5-0.7c0.7-0.7,1.6-1.1,2.7-1.1c1.4,0,2.6,0.6,2.6,2.3v4.6h-1V133.4z
			 M162.6,131.5c-0.4-0.6-1.1-0.8-1.8-0.8c-1,0-1.6,0.6-1.6,1.5c0,0.8,0.7,1.4,1.6,1.4c0.7,0,1.4-0.3,1.8-0.8V131.5z"/>
		<path class="st5" d="M165.7,132.6c0.6,0.6,1.3,0.9,2.2,0.9c1.1,0,1.8-0.5,1.8-1.2c0-0.8-0.8-1.1-1.9-1.1h-1.1v-0.8h1.1
			c1,0,1.7-0.4,1.7-1.1c0-0.6-0.7-1.1-1.7-1.1c-0.9,0-1.6,0.3-2.1,0.9l-0.6-0.6c0.6-0.6,1.4-1.1,2.6-1.1c1.7,0,2.8,0.6,2.8,1.8
			c0,1-0.9,1.5-1.6,1.6c0.7,0.1,1.8,0.5,1.8,1.6c0,1.1-1,1.9-2.8,1.9c-1.2,0-2.2-0.4-2.8-1.1L165.7,132.6z"/>
		<path class="st5" d="M172.3,133.3c0.3-0.5,0.8-1.5,1-4.2l0.1-1.5h4.6v5.8h0.8v2.6h-0.9v-1.7h-5.3v1.7h-0.9v-2.6H172.3z
			 M173.3,133.3h3.7v-4.8h-2.7l-0.1,0.9C174,131.9,173.6,132.9,173.3,133.3z"/>
		<path class="st5" d="M183.1,127.4c2,0,3.2,1.6,3.2,3.6v0.3h-5.4c0.1,1.3,1,2.3,2.4,2.3c0.8,0,1.5-0.3,2.1-0.8l0.5,0.7
			c-0.7,0.7-1.6,1-2.7,1c-2,0-3.4-1.4-3.4-3.5C179.8,128.9,181.2,127.4,183.1,127.4z M180.9,130.4h4.4c0-1-0.7-2.2-2.2-2.2
			C181.7,128.2,181,129.4,180.9,130.4z"/>
		<path class="st5" d="M188.6,129.1l0.1-1.6h4.6v6.7h-1v-5.8h-2.7l-0.1,0.7c-0.3,4.3-1.3,5.2-2.5,5.2v-1
			C187.7,133.4,188.3,132.5,188.6,129.1z"/>
	</g>
</g>
</svg>
