<?xml version="1.0" encoding="utf-8"?>
<!-- Generator: Adobe Illustrator 21.1.0, SVG Export Plug-In . SVG Version: 6.00 Build 0)  -->
<svg version="1.1" id="chart" xmlns="http://www.w3.org/2000/svg" xmlns:xlink="http://www.w3.org/1999/xlink" x="0px" y="0px"
	 viewBox="0 0 503 615" style="enable-background:new 0 0 503 615;" xml:space="preserve">
<style type="text/css">
	.st0{fill:url(#SVGID_1_);}
	.st1{fill:url(#SVGID_2_);}
	.st2{opacity:0.8 !important;}
	.st3{fill:none;stroke:#FFFFFF;stroke-linecap:round;stroke-miterlimit:10;}
	.st4{fill:none;stroke:#FFFFFF;stroke-linecap:round;stroke-miterlimit:10;stroke-dasharray:1.0026,5.0131;}
	.st5{opacity:0.3;}
	.st6{fill:none;stroke:#FFFFFF;stroke-linecap:round;stroke-miterlimit:10;stroke-dasharray:1.005,5.0252;}
	.st7{fill:url(#SVGID_3_);}
	.st8{fill:url(#SVGID_4_);}
	.st9{fill:#FFFFFF;}
	.st10{font-family:'Proxima Nova';}
	.st11{font-size:14px;}
	.st12{font-size:21px;}
	.st13{font-size:16px;}
	.st14{font-size:24px;}
	.st15{font-size:18px;}
	.st16{opacity:0.7;fill:url(#SVGID_5_);}
	.st17{opacity:0.7;fill:url(#SVGID_6_);}
	.st18{fill:none;stroke:#F64869;stroke-width:2;stroke-linecap:round;stroke-miterlimit:10;}
	.st19{fill:none;stroke:#66FFCC;stroke-width:2;stroke-linecap:round;stroke-miterlimit:10;}
	.st20{fill:#66FFCC;}
	.st21{fill:#F64869;}
</style>
<g class="st5" id="line10">
  	<text transform="matrix(1 0 0 1 19.3335 491.667)" class="st9 st10 st11">10</text>
	<g>
		<line class="st3" x1="50.5" y1="487.5" x2="51" y2="487.5"/>
		<line class="st4" x1="56" y1="487.5" x2="492.7" y2="487.5"/>
		<line class="st3" x1="495.2" y1="487.5" x2="495.7" y2="487.5"/>
	</g>
</g>
<g class="st5 st" id="line25">
  	<text transform="matrix(1 0 0 1 16.3335 463.667)" class="st9 st10 st11">25</text>
	<g>
		<line class="st3" x1="50.5" y1="459.5" x2="51" y2="459.5"/>
		<line class="st4" x1="56" y1="459.5" x2="492.7" y2="459.5"/>
		<line class="st3" x1="495.2" y1="459.5" x2="495.7" y2="459.5"/>
	</g>
</g>
<g class="st5 st" id="line30">
  	<text transform="matrix(1 0 0 1 16.3335 443.667)" class="st9 st10 st11">30</text>
	<g>
		<line class="st3" x1="50.5" y1="439.5" x2="51" y2="439.5"/>
		<line class="st4" x1="56" y1="439.5" x2="492.7" y2="439.5"/>
		<line class="st3" x1="495.2" y1="439.5" x2="495.7" y2="439.5"/>
	</g>
</g>
<g class="st5 st" id="line35">
  	<text transform="matrix(1 0 0 1 16.3335 423.667)" class="st9 st10 st11">35</text>
	<g>
		<line class="st3" x1="50.5" y1="419.5" x2="51" y2="419.5"/>
		<line class="st4" x1="56" y1="419.5" x2="492.7" y2="419.5"/>
		<line class="st3" x1="495.2" y1="419.5" x2="495.7" y2="419.5"/>
	</g>
</g>
<g class="st5 st" id="line40">
  	<text transform="matrix(1 0 0 1 14.3335 403.667)" class="st9 st10 st13">40</text>
	<g>
		<line class="st3" x1="50.5" y1="399.5" x2="51" y2="399.5"/>
		<line class="st4" x1="56" y1="399.5" x2="492.7" y2="399.5"/>
		<line class="st3" x1="495.2" y1="399.5" x2="495.7" y2="399.5"/>
	</g>
</g>
<g class="st5 st" id="line60">
  	<text transform="matrix(1 0 0 1 13.3335 303.667)" class="st9 st10 st13">60</text>
	<g>
		<line class="st3" x1="50.5" y1="299.5" x2="51" y2="299.5"/>
		<line class="st4" x1="56" y1="299.5" x2="492.7" y2="299.5"/>
		<line class="st3" x1="495.2" y1="299.5" x2="495.7" y2="299.5"/>
	</g>
</g>
<g class="st5 st" id="line65">
  	<text transform="matrix(1 0 0 1 13.3335 284.667)" class="st9 st10 st13">65</text>
	<g>
		<line class="st3" x1="50.5" y1="279.5" x2="51" y2="279.5"/>
		<line class="st4" x1="56" y1="279.5" x2="492.7" y2="279.5"/>
		<line class="st3" x1="495.2" y1="279.5" x2="495.7" y2="279.5"/>
	</g>
</g>
<g class="st5 st" id="line100">
  	<text transform="matrix(1 0 0 1 7.3335 144.667)" class="st9 st10 st13">100</text>
	<g>
		<line class="st3" x1="50.5" y1="139.5" x2="51" y2="139.5"/>
		<line class="st4" x1="56" y1="139.5" x2="492.7" y2="139.5"/>
		<line class="st3" x1="495.2" y1="139.5" x2="495.7" y2="139.5"/>
	</g>
</g>
<g class="st5 st" id="line110">
  	<text transform="matrix(1 0 0 1 11.3335 124.667)" class="st9 st10 st13">110</text>
	<g>
		<line class="st3" x1="50.5" y1="119.5" x2="51" y2="119.5"/>
		<line class="st4" x1="56" y1="119.5" x2="492.7" y2="119.5"/>
		<line class="st3" x1="495.2" y1="119.5" x2="495.7" y2="119.5"/>
	</g>
</g>
<g class="st5 st" id="line115">
  	<text transform="matrix(1 0 0 1 11.3335 104.667)" class="st9 st10 st13">115</text>
	<g>
		<line class="st3" x1="50.8" y1="99.5" x2="51.3" y2="99.5"/>
		<line class="st4" x1="56.3" y1="99.5" x2="493" y2="99.5"/>
		<line class="st3" x1="495.5" y1="99.5" x2="496" y2="99.5"/>
	</g>
</g>
<g class="st5 st" id="line120">
  	<text transform="matrix(1 0 0 1 8.3335 84.667)" class="st9 st10 st13">120</text>
	<g>
		<line class="st3" x1="50.5" y1="79.5" x2="51" y2="79.5"/>
		<line class="st4" x1="56" y1="79.5" x2="492.7" y2="79.5"/>
		<line class="st3" x1="495.2" y1="79.5" x2="495.7" y2="79.5"/>
	</g>
</g>
<g class="st5 st" id="line125">
  	<text transform="matrix(1 0 0 1 8.3335 64.667)" class="st9 st10 st13">125</text>
	<g>
		<line class="st3" x1="50.5" y1="59.5" x2="51" y2="59.5"/>
		<line class="st4" x1="56" y1="59.5" x2="492.7" y2="59.5"/>
		<line class="st3" x1="495.2" y1="59.5" x2="495.7" y2="59.5"/>
	</g>
</g>
<g class="st5 st" id="line130">
  	<text transform="matrix(1 0 0 1 8.3335 43.667)" class="st9 st10 st13">130</text>
	<g>
		<line class="st3" x1="50.5" y1="39.5" x2="51" y2="39.5"/>
		<line class="st4" x1="56" y1="39.5" x2="492.7" y2="39.5"/>
		<line class="st3" x1="495.2" y1="39.5" x2="495.7" y2="39.5"/>
	</g>
</g>
<g class="st2">
	<g>
		<line class="st3" x1="158.5" y1="500.5" x2="158.5" y2="500"/>
		<line class="st6" x1="158.5" y1="495" x2="158.5" y2="3"/>
		<line class="st3" x1="158.5" y1="0.5" x2="158.5" y2="0"/>
	</g>
</g>
<g class="st2">
	<g>
		<line class="st3" x1="393.5" y1="500.5" x2="393.5" y2="500"/>
		<line class="st6" x1="393.5" y1="495" x2="393.5" y2="3"/>
		<line class="st3" x1="393.5" y1="0.5" x2="393.5" y2="0"/>
	</g>
</g>
<linearGradient id="SVGID_3_" gradientUnits="userSpaceOnUse" x1="48.5" y1="-2.6474" x2="48.5" y2="343.6289">
	<stop  offset="0" style="stop-color:#F64869"/>
	<stop  offset="1" style="stop-color:#32D6C1"/>
</linearGradient>
<polygon class="st7" points="46,0 46,3 48,3 48,503 51,503 51,3 51,0 "/>
<linearGradient id="SVGID_4_" gradientUnits="userSpaceOnUse" x1="507.7124" y1="502.5" x2="144.6147" y2="502.5">
	<stop  offset="0" style="stop-color:#F64869"/>
	<stop offset="1" style="stop-color:#32D6C1"/>
</linearGradient>
<polygon class="st8" id="line0" points="493,500 48,500 48,503 493,503 493,505 496,505 496,500 "/>

<g>
	<text transform="matrix(1 0 0 1 18.3335 14.667)" class="st9 st10 st12">%</text>
</g>
<g>
	<text transform="matrix(1 0 0 1 46.3335 532.667)" class="st9 st10 st12">0</text>
</g>
<g>
	<text transform="matrix(1 0 0 1 126.1978 535.667)"><tspan x="0" y="0" class="st9 st10 st14">20-25 </tspan><tspan x="18.5" y="18" class="st9 st10 st15">лет</tspan></text>
</g>
<g>
	<text transform="matrix(1 0 0 1 362.1499 535.667)"><tspan x="0" y="0" class="st9 st10 st14">50-55 </tspan><tspan x="18.5" y="18" class="st9 st10 st15">лет</tspan></text>
</g>
<g>
	<text transform="matrix(1 0 0 1 68.207 607.667)" class="st9 st10 st14">Используя AFC</text>
</g>
<g>
	<text transform="matrix(1 0 0 1 297.6831 606.667)" class="st9 st10 st14">Не используя AFC</text>
</g>
<linearGradient id="SVGID_5_" gradientUnits="userSpaceOnUse" x1="276" y1="164.6667" x2="276" y2="537.3351">
	<stop  offset="0.3" style="stop-color:#F64869"/>
	<stop  offset="0.8547" style="stop-color:#A4838E;stop-opacity:0.4082"/>
	<stop  offset="1" style="stop-color:#32D6C1;stop-opacity:0"/>
</linearGradient>
<polygon id="red-poly" class="st16" points="158,500 158,140 394,400 394,500 "/>
<linearGradient id="SVGID_6_" gradientUnits="userSpaceOnUse" x1="276" y1="69.5556" x2="276" y2="291.0457">
	<stop  offset="0.3" style="stop-color:#66FFCC"/>
	<stop class="two" offset="1" style="stop-color:#32D6C1;stop-opacity:0"/>
</linearGradient>
<polygon id="green-poly" class="st17" points="158,140 158,100 394,119 394,400 "/>
<line id="red-line" class="st18" x1="158" y1="140" x2="394" y2="400"/>
<line id="green-line" class="st19" x1="158" y1="100" x2="394" y2="119"/>

<g id="red-circle">
	<circle class="st21" cx="157.9" cy="-0.2" r="5.6"/>
	<path class="st21" d="M157.9-10.3c-5.5,0-10.1,4.5-10.1,10.1s4.5,10.1,10.1,10.1c5.5,0,10.1-4.5,10.1-10.1S163.5-10.3,157.9-10.3z
		 M157.9,7.6c-4.3,0-7.8-3.5-7.8-7.8s3.5-7.8,7.8-7.8c4.3,0,7.8,3.5,7.8,7.8S162.3,7.6,157.9,7.6z"/>
</g>
<g id="red-circle-2">
	<circle class="st21" cx="393.4" cy="0.5" r="5.6"/>
	<path class="st21" d="M393.4-9.6c-5.5,0-10.1,4.5-10.1,10.1s4.5,10.1,10.1,10.1S403.4,6,403.4,0.5S398.9-9.6,393.4-9.6z M393.4,8.3
		c-4.3,0-7.8-3.5-7.8-7.8s3.5-7.8,7.8-7.8s7.8,3.5,7.8,7.8S397.7,8.3,393.4,8.3z"/>
</g>

<g id="green-circle">
	<circle class="st20" cx="157.9" cy="0.1" r="5.6"/>
	<path class="st20" d="M157.9-10c-5.5,0-10.1,4.5-10.1,10.1s4.5,10.1,10.1,10.1c5.5,0,10.1-4.5,10.1-10.1S163.5-10,157.9-10z
		 M157.9,7.9c-4.3,0-7.8-3.5-7.8-7.8s3.5-7.8,7.8-7.8c4.3,0,7.8,3.5,7.8,7.8S162.3,7.9,157.9,7.9z"/>
</g>
<g id="green-circle-2">
	<circle class="st20" cx="393.4" cy="0.3" r="5.6"/>
	<path class="st20" d="M393.4-9.8c-5.5,0-10.1,4.5-10.1,10.1s4.5,10.1,10.1,10.1s10.1-4.5,10.1-10.1S398.9-9.8,393.4-9.8z
		 M393.4,8.1c-4.3,0-7.8-3.5-7.8-7.8s3.5-7.8,7.8-7.8s7.8,3.5,7.8,7.8S397.7,8.1,393.4,8.1z"/>
</g>
<g>
	<circle class="st20" cx="48.6" cy="599.9" r="5.6"/>
	<path class="st20" d="M48.6,589.9c-5.5,0-10.1,4.5-10.1,10.1c0,5.5,4.5,10.1,10.1,10.1s10.1-4.5,10.1-10.1
		C58.7,594.4,54.2,589.9,48.6,589.9z M48.6,607.8c-4.3,0-7.8-3.5-7.8-7.8c0-4.3,3.5-7.8,7.8-7.8s7.8,3.5,7.8,7.8
		C56.5,604.3,53,607.8,48.6,607.8z"/>
</g>
<g>
	<circle class="st21" cx="277.3" cy="599.9" r="5.6"/>
	<path class="st21" d="M277.3,589.9c-5.5,0-10.1,4.5-10.1,10.1c0,5.5,4.5,10.1,10.1,10.1c5.5,0,10.1-4.5,10.1-10.1
		C287.3,594.4,282.8,589.9,277.3,589.9z M277.3,607.8c-4.3,0-7.8-3.5-7.8-7.8c0-4.3,3.5-7.8,7.8-7.8c4.3,0,7.8,3.5,7.8,7.8
		C285.1,604.3,281.6,607.8,277.3,607.8z"/>
</g>
</svg>
