<?xml version="1.0" encoding="utf-8"?>
<!-- Generator: Adobe Illustrator 21.1.0, SVG Export Plug-In . SVG Version: 6.00 Build 0)  -->
<svg version="1.1" id="Слой_1" xmlns="http://www.w3.org/2000/svg" xmlns:xlink="http://www.w3.org/1999/xlink" x="0px" y="0px"
	 viewBox="0 0 244 52.3" style="enable-background:new 0 0 244 52.3;" xml:space="preserve">
<style type="text/css">
	.st0{clip-path:url(#SVGID_2_);}
	.st1{clip-path:url(#SVGID_2_);fill:#FF0000;}
</style>
<g>
	<defs>
		<rect id="SVGID_1_" y="0" width="244" height="52.3"/>
	</defs>
	<clipPath id="SVGID_2_">
		<use xlink:href="#SVGID_1_"  style="overflow:visible;"/>
	</clipPath>
	<path class="st0" d="M49.1,4.3H1.7C0.8,4.3,0,3.5,0,2.6V1.7C0,0.8,0.8,0,1.7,0h47.4c0.9,0,1.7,0.8,1.7,1.7v0.9
		C50.8,3.5,50,4.3,49.1,4.3"/>
	<path class="st0" d="M126.7,26.9c0-13.7,12.9-24.9,28.7-24.9c7.9,0,15.2,2.7,20.6,7.5c0.8,0.7,0.8,1.4,0,2c-0.8,0.7-1.6,0.7-2.4,0
		C168.8,7.2,162.4,5,155.4,5c-14,0-25.3,9.7-25.3,21.9s11.3,22,25.3,22c7,0,13.3-2.2,18.1-6.6c0.8-0.7,1.6-0.7,2.4,0
		c0.8,0.6,0.8,1.4,0,2c-5.4,4.8-12.7,7.5-20.6,7.5C139.6,51.9,126.7,40.7,126.7,26.9"/>
	<path class="st0" d="M155.4,52.3c-16.1,0-29.2-11.4-29.2-25.4c0-13.9,13.1-25.3,29.2-25.3c8,0,15.4,2.7,20.9,7.6
		c0.5,0.4,0.7,0.9,0.7,1.3c0,0.5-0.2,0.9-0.7,1.3c-0.9,0.8-2.1,0.8-3.1,0c-4.7-4.2-10.8-6.5-17.8-6.5c-13.7,0-24.8,9.6-24.8,21.5
		c0,11.9,11.1,21.6,24.8,21.6c7,0,13.1-2.2,17.8-6.5c1-0.8,2.1-0.8,3.1,0c0.5,0.4,0.7,0.9,0.7,1.3c0,0.5-0.2,0.9-0.7,1.3
		C170.8,49.6,163.4,52.3,155.4,52.3 M155.4,2.5c-15.6,0-28.3,11-28.3,24.4c0,13.5,12.7,24.5,28.3,24.5c7.7,0,14.9-2.6,20.2-7.4
		c0.3-0.2,0.4-0.5,0.4-0.7c0-0.2-0.1-0.5-0.4-0.7c-0.6-0.5-1.2-0.5-1.7,0c-4.8,4.4-11.2,6.7-18.5,6.7c-14.2,0-25.7-10.1-25.7-22.4
		c0-12.3,11.5-22.3,25.7-22.3c7.2,0,13.6,2.3,18.5,6.7c0.6,0.5,1.2,0.5,1.7,0c0.3-0.2,0.4-0.5,0.4-0.7c0-0.2-0.1-0.5-0.4-0.7
		C170.3,5.1,163.2,2.5,155.4,2.5"/>
	<path class="st1" d="M140.2,48.1l2.3-2.3c-1.4-0.7-2.7-1.6-3.9-2.5l-2.2,2.2C137.5,46.5,138.8,47.3,140.2,48.1"/>
	<path class="st1" d="M140.3,48.6l-0.3-0.2c-1.4-0.8-2.7-1.6-4-2.6l-0.4-0.3l2.9-2.9l0.4,0.3c1.2,0.9,2.5,1.8,3.9,2.5l0.5,0.3
		L140.3,48.6z M137,45.5c1,0.7,2,1.4,3.1,2l1.6-1.6c-1.1-0.6-2.1-1.3-3.1-2L137,45.5z"/>
	<path class="st0" d="M243,2.1l-0.8-0.4c-0.8-0.4-1.9-0.1-2.3,0.8l-21.4,43.7L197.2,2.5c-0.4-0.8-1.4-1.2-2.3-0.8l-0.8,0.4
		c-0.8,0.4-1.2,1.4-0.8,2.3l23,47c0.2,0.4,0.5,0.7,0.9,0.8c0.2,0.1,0.4,0.1,0.6,0.1h1.3c0.2,0,0.5-0.1,0.7-0.2
		c0.4-0.2,0.7-0.4,0.9-0.8l23-47C244.2,3.5,243.9,2.5,243,2.1"/>
	<path class="st0" d="M30.5,27.2H1.7c-0.9,0-1.7-0.8-1.7-1.7v-0.9C0,23.7,0.8,23,1.7,23h28.8c0.9,0,1.7,0.8,1.7,1.7v0.9
		C32.2,26.4,31.5,27.2,30.5,27.2"/>
	<path class="st0" d="M49.1,50.8H1.7C0.8,50.8,0,50,0,49.1v-0.9c0-0.9,0.8-1.7,1.7-1.7h47.4c0.9,0,1.7,0.8,1.7,1.7v0.9
		C50.8,50,50,50.8,49.1,50.8"/>
	<path class="st1" d="M98.3,22.8l19-19.3c0.7-0.7,0.6-1.7,0-2.4l-0.6-0.6c-0.7-0.7-1.7-0.6-2.4,0L95.3,19.8L98.3,22.8z"/>
	<path class="st0" d="M89.9,24.4c-7.5,7.6-15,15.3-22.5,22.9c-0.7,0.7-0.6,1.7,0,2.4l0.6,0.6c0.7,0.7,1.7,0.6,2.4,0
		c7.5-7.7,15-15.3,22.6-23C92,26.4,91,25.4,89.9,24.4"/>
	<path class="st0" d="M67.5,3.5l46.8,46.8c0.7,0.7,1.7,0.7,2.4,0l0.6-0.6c0.7-0.7,0.7-1.7,0-2.4L70.5,0.5c-0.7-0.7-1.7-0.7-2.4,0
		l-0.6,0.6C66.8,1.8,66.8,2.9,67.5,3.5"/>
</g>
</svg>
