<svg id="Слой_1" xmlns="http://www.w3.org/2000/svg" xmlns:xlink="http://www.w3.org/1999/xlink" viewBox="0 0 1865.1 2180.5">
    <style>
        .st0{clip-path:url(#SVGID_2_);fill:#fff}
    </style>
    <defs>
        <path id="SVGID_1_" d="M0 0h1865.1v2180.5H0z"/>
    </defs>
    <clipPath id="SVGID_2_">
        <use xlink:href="#SVGID_1_" overflow="visible"/>
    </clipPath>
    <path class="st0" d="M1496.2 2055.2h.5c-.1-.1-.3-.2-.5-.3v.3"/>
    <path class="st0" d="M1390.9 2097.8c.1 0 .2.1.3.1v-.1h-.3"/>
    <path class="st0" d="M1520.5 2078.6c.1 0 .2 0 .3.1l.1-.1h-.4"/>
    <path class="st0" d="M1501 2075.7h.4-.4"/>
    <path class="st0" d="M1340.1 2107.8c-1.3 0-3.3-.1-4.7-.1-.1 1-1.8 1.9.5 3.1 1.9-.8 2-2.2 4.2-3 0 .1 0 0 0 0"/>
    <path class="st0" d="M1425.3 2088.4c.1 0 .2 0 .3.1 0-.1-.1-.1-.1-.2-.1.1-.2.1-.2.1"/>
    <path class="st0" d="M1057.5 2180.5h.3c-.1-.1-.2-.1-.3-.2v.2"/>
    <path class="st0" d="M1077 2175.4"/>
    <path class="st0" d="M1324.4 2126.5c.1 0 .3.1.4.1l.1-.1h-.5"/>
    <path class="st0" d="M1235.7 2144.1c1.6.7 1.8 1.4 1.8 2 .3 0 .5 0 .8.1l4.5-1c-2.6-.2-4.9-.6-7.1-1.1"/>
    <path class="st0" d="M1077 2175.4h0"/>
    <path class="st0" d="M1501.5 2047l-.2-.1c.1 0 .2 0 .2.1"/>
    <path class="st0" d="M1686.3 2002.8c-.4-1.5-.9-2.9-1-4.5 0-.1 0-.1-.1-.2-.4-1.6-.4-3.1-.4-4.7-.4 1.2-.9 1.6-1.5 1.9.3 1.3 0 2.2-.3 3.1l.2.2c.4.9.7 1.9.8 3.2v.7l.3.9v-.1c.3.2.7.4 1 .6.3-.3.7-.7 1-1.1"/>
    <path class="st0" d="M1486.3 2070.2h-.2c.1 0 .2.1.3.1 0 0 0-.1-.1-.1"/>
    <path class="st0" d="M1672.6 2014.8l-.1-.5-.2.1c0 .2.1.3.1.5.1 0 .2 0 .2-.1"/>
    <path class="st0" d="M1060.7 2175.7c-.1 0-.1 0 0 0"/>
    <path class="st0" d="M1630.2 2016.1h.1c0-.1-.1-.2-.1-.3v.3"/>
    <path class="st0" d="M1529.4 2046.4"/>
    <path class="st0" d="M1529.4 2046.4h.2-.2"/>
    <path class="st0" d="M1631.1 2008.7"/>
    <path class="st0" d="M1683.9 2003.3c.1.1.3.1.4.2-.1-.1-.3-.2-.4-.2"/>
    <path class="st0" d="M1631 2008.4v.3c.1 0 .1.1.2.1 0-.1-.1-.2-.2-.4"/>
    <path class="st0" d="M1795.7 702.4l.3-.3v-.1c-.1.1-.2.3-.3.4"/>
    <path class="st0" d="M1820.1 597.2v.2l.2-.2h-.2"/>
    <path class="st0" d="M1843 487.4c0 .1 0 0 0 0"/>
    <path class="st0" d="M1699 935.3"/>
    <path class="st0" d="M1842.9 487.5c.1 0 .1 0 0 0l.2-.2-.2.2"/>
    <path class="st0" d="M1788.9 678.9c-.7 1.1-1.9 2.7-2.7 3.9.8.6.6 2.5 2.8 1.3.5-2-.7-2.9-.1-5.2 0 .1 0 .1 0 0"/>
    <path class="st0" d="M1698.9 935.3c.1 0 .1 0 0 0 .1 0 .1-.1 0 0 .1-.1.1 0 0 0"/>
    <path class="st0" d="M1764.3 785l1.7-4.3a42.3 42.3 0 0 1-4.8 5.3c1.5-.9 2.1-.7 2.7-.4.1-.2.2-.4.4-.6"/>
    <path class="st0" d="M1808.8 631.1c.1-.1.2-.1.2-.2v-.1c0 .2-.1.2-.2.3"/>
    <path class="st0" d="M1692.6 954.1c-.1 0-.2.1-.3.1.1 0 .1.1.2.1l.1-.2z"/>
    <path class="st0" d="M1832.1 519.5c-.2 0-.4.1-.5.2.1.1.2.1.3.2 0-.1.1-.2.2-.4"/>
    <path class="st0" d="M1690.2 949.1c-.1 0 0 0 0 0z"/>
    <path class="st0" d="M1851.5 527.3l.3-.3-.3.3"/>
    <path class="st0" d="M1864.8 512.7l.2-.2v-.1c0 .1-.1.2-.2.3"/>
    <path class="st0" d="M1828 510.9l-.1.1.1-.1"/>
    <path class="st0" d="M1838.8 536.5l-.1.2c.1-.1.2-.1.3-.2h-.2"/>
    <path class="st0" d="M1045.9 1604.9l726 145.6c-.3-1-.8-1.6-1.7-.9.1-.8.3-1.7.4-2.6l3.6-8.1c-.4 3.3-1 8.1.8 5.1 1.4-2.3.7-4.5 1.1-6.9-.6-2.4-2.1-1.5-3.5-1.2-.1-.6-.2-1.3-.4-1.9.3-1.8.6-3.7.9-5.5.5-1.2.9-2.4 1.4-3.6 3.3-5.6.6-5.3 1.5-8.5.8-1.3 1.7-.3 2.3-4.1.5-3-.6-1.9-1.4-1.4-.6-8.1-3.9 5.2-5.8 7.9l-.1.2c0-.1.1-.1.1-.2 1.1-6.4 2.2-12.9 3.3-19.4.2-.9.3-1.8.5-2.7.3 1.4.7 2.8 1 4.1.4-1.2.9-2.5 1.1-3.5 1.1-6-.2-4.7-1.6-3.5-.4-3.2-2-2.7-3.1-4-.5 1.6-.9 3.2-1.4 4.8-.3.6-.7 1.3-1 2.1-.2.2-.5.4-.7.6v-.2c.6-3.5.3-5.2-.1-6.6-1.3-1.1-1.2-7.1-3.9-3.2-.1-.7-.3-1.3-.4-1.9-.7-.2-1-1.4-.9-3.8l-1.3 1.3c0-.2-.1-.4-.1-.6-.2-.5-.4-.8-.7-.8l-.9.9c.4-6.1-1.9-.4-3.2.9-.7 1.4-1.4 2.7-2.2 4v.3c-.1 0-.1.1-.2.2.1-.1.1-.3.2-.4.3-4.7 6.3-17.1 2-15.5.3 3.1-1.2 5.9-2.3 8.9-.5.5-1.1 1.1-1.6 1.7.2-2.2.2-3.7-.3-3.9-.3-.5-.6-.8-.9-1.4 4.5-14.3 9.2-25.9 13.6-34.9.1-.3.3-.5.4-.8-.1 0-.3 0-.5.1v-4.6c.5-4.8 2.2-8.8 3.7-12.8.8-.1-.1 6.2 2.3.1 2.3-6 2.5-2.4 3.1-.6-.1 1.9 0 2.8.3 3.1.7-.8 1.3-1.5 1.9-2.2.2-.5.5-1 .8-1.6 1.7-2 3.9-6.5 3.7-10.1-.2-3.4-2.7-.4-4.9 4.4-1.6 1.9-1.7-1.7-2.6-2.2.7-3.1 1.4-6.2 2.2-9.8-5.8 11.8-6.7 10.6-5.3-4.8.4-3.9-.5-4.9-1.9-3.6.4-2.3.6-4.2.1-4.7.4-2.2.6-4.1.1-4.7.2-2.5-1.5-1.6-.1-6.2 3.7-11.5 2.2-13.3.8-15.3v-4.7c.9-4.3 1-7.3 1-10.2 2.2-4.3 2.8-1.8 4-1.5-.3 2.5-1.5 6.9-.4 6 1.1-.9 1.2-3.4 1.1-4.7-.1-.7-.4-1-.6-1.5 1.1-7.9-.7-7.1-2.5-6.6.7-7.5-.3-11.1-1.1-15.2-.7-1.7-1.4-3.4-2.1-5-.1-2.1-.3-4.2-.4-6.3.8-6.1.4-9.2-1.6-7.7.4-4.9 1.7-11.6-.2-11.5-1.3-2.5.4-13.1-2.4-11.8-.1-.6-.3-1.1-.4-1.6l-.6-6.3c-.4-2-.8-4-1.2-5.9v-4.5c1.6-5.3 1.8-8.5 1.1-10.3 0-4.4-1.9-4.3-1.2-10.4-2.6-.4-1.7-12.8-6.5-5.4-.3.4-.7.8-1 1.2-1.1-2.1-1.1-7.5-3.3-6.2l13.3-257.8c.6-1.3 1.1-2.9 1.4-5.4v-5.5c.3-.8.6-1.7.9-2.4 4-9.1 4.3-10.4 2.6-14.6.8-1.6 1.5-3.3 2.3-4.9.8-1.3 1.6-2.8 2.4-5.2 3.3-7.3 5.2-15.9 4.5-20.6-.2.1-.3.2-.5.4.3-2.8.5-5.2-.8-3.9-.4-.7-.7-1.4-1.1-2-.3-1.4-.6-2.7-.9-4.1.5-1.9 1-3.7 1.6-5.5v-.2.2c.3-2.2.6-4.3.9-6.5.2-1.3.3-2.3-.3-.9-.2.5-.4 1.7-.7 2.5-.2.2-.4.3-.5.4-.1-.2-.3-.5-.4-.7.2-1.8-.4-1.1-.8-1l-1.8-1.5c0-1.6-.4-2.1-1-2.1-.4-3.8-1.9-3.7-3.3-4.1l.3-6.1c.4-1.5.7-3.6 1.1-4.7.6-1.7.6-2.6.5-3.1.1-1.3.2-2.7.4-4 .5-2.9.2-3.3-.4-2.9.3-1.3.7-2.2 1.2-2.7.2.7.4 1.4.6 2.2 0 1.8.7.5 1.2.1.6-.6 1.2-.8 1.9-3.2.2-.1.3-.2.5-.3.1 1.9 1-.7 1.6-1.7-.5 3-.4 5.2-.3 6.9.2 2.1.9.8 1.7-2.9l.5-.5c-1.3 6-1 8.6.1 9.4.2 1-.7 4.5.2 3.9-.3 3.9-.6 7.9 2.1.7 1.3-2.9 2.2-6.2 3-9.7.6-2 1.3-3.9 1.9-5.9.9-1.8 1.7-3.7 1-4.6-.2-.3-.5-1.1-1 .5-1 3.2.1 2.6 0 4.1-1 1.1-1.8 3.2-2.4 6.4-.7 1.5-1.4 4.2-2.1 4.8-.4-.2-.1 0-.5-.2.8-3.3 2.2-7.1 1.6-9 .4-3.2 1.2-6.3 2.5-9.2 2.5-4.2.6-4.2 1.1-6.5 0-1.1-.3-1-.8-.6-.2-2.7-.3-5.9-1.7-5.1.3-3.7-.5-4.2-1.5-3.9.1-.6.2-1.1.3-1.6.2-1.3.3-2.5 0-2.7-.9-.5-.6-4.7-2-3.6l.3-1.5c.7-1.6 1.4-3.2 2.1-4.7-.2 2-.6 4.7.5 3 .8-1.3.4-2.7.6-4-.4-1.4-1.3-.9-2.1-.7-.1-.4-.1-.7-.2-1.1.2-1.1.3-2.1.5-3.2.3-.7.5-1.4.8-2.1 2-3.3.4-3.1.9-5 .5-.8 1-.2 1.4-2.4.3-1.8-.4-1.1-.8-.8-.3-4.7-2.3 3-3.4 4.6l-.1.1s0-.1.1-.1c.6-3.8 1.3-7.6 1.9-11.4.1-.5.2-1 .3-1.6l.6 2.4c.2-.7.5-1.5.6-2.1.7-3.5-.1-2.8-.9-2-.3-1.9-1.2-1.6-1.8-2.3-.3.9-.5 1.9-.8 2.8-.2.3-.4.8-.6 1.2-.1.1-.3.2-.4.4v-.1c.3-2.1.2-3-.1-3.9-.8-.6-.7-4.2-2.3-1.9-.1-.4-.2-.7-.2-1.1-.4-.1-.6-.8-.5-2.2-.3.3-.5.5-.8.7 0-.1-.1-.2-.1-.4-.1-.3-.2-.5-.4-.5-.2.2-.4.3-.5.5.2-3.6-1.1-.2-1.9.5-.2.3-.4.7-.6 1l.1-2.1c.9-3 2.1-6.3.3-5.7.1.6 0 1.1-.1 1.7l.4-8.2c1.6-4.2 3.2-7.8 4.7-10.9.1-.2.2-.3.2-.5h-.3v-2.7c.3-2.8 1.3-5.1 2.2-7.5.5-.1-.1 3.6 1.3.1 1.4-3.5 1.5-1.4 1.8-.3-.1 1.1 0 1.7.2 1.8.4-.5.8-.9 1.1-1.3.1-.3.3-.6.5-.9 1-1.2 2.3-3.8 2.2-5.9-.1-2-1.6-.2-2.9 2.6-1 1.1-1-1-1.5-1.3.4-1.8.8-3.6 1.3-5.7-3.4 6.9-3.9 6.2-3.1-2.8.2-2.3-.3-2.9-1.1-2.1.2-1.3.3-2.5 0-2.8.2-1.3.3-2.4 0-2.7.1-1.5-.9-.9 0-3.6 2.1-6.7 1.3-7.8.5-9v-.4c.7-1.4 1.4-3 2.1-4.9 2.2-2.4 4.3-5.6 5.5-13.8v-9.3c.5-1.4 1-2.9 1.5-4 6.9-15.5 7.3-17.8 4.5-24.9l3.9-8.4c1.4-2.2 2.8-4.7 4-8.9 5.6-12.4 8.8-27.1 7.7-35.2-.3.2-.6.3-.8.6.5-4.8.8-8.8-1.3-6.6-.6-1.2-1.3-2.3-1.9-3.5-.5-2.3-1-4.7-1.5-7 .9-3.2 1.8-6.3 2.7-9.5v-.3.3l1.5-11.1c.3-2.2.5-3.9-.6-1.5-.4.9-.8 2.9-1.1 4.3-.3.3-.6.5-.9.7-.2-.4-.5-.8-.7-1.2.3-3.1-.7-1.8-1.4-1.8-1-.8-2-1.7-3-2.5-.1-2.7-.7-3.7-1.6-3.6-.7-7-3.8-6.2-6.3-7.3-.7-.6-1.4-1.3-2.1-1.9-.2-2.2-.4-4.3-.5-6.4.7-.1.5-.1 1.1-.2.1.3.3.5.5.6 2.1 2.1 2.8-7.1 4-10.3 1.1-3 1.1-4.4.8-5.3.2-2.3.3-4.7.7-6.8.9-5 .3-5.6-.6-5 .6-2.1 1.3-3.7 2.1-4.6.3 1.2.6 2.4 1 3.7-.1 3.1 1.2.9 2.1.2 1-.9 2-1.4 3.3-5.5.3-.2.5-.3.8-.5.2 3.2 1.7-1.3 2.7-2.8-.8 5.1-.8 8.8-.5 11.7.4 3.6 1.6 1.4 3-4.9l.9-.9c-2.3 10.3-1.8 14.7.2 16 .4 1.7-1.2 7.6.3 6.6-.5 6.7-1.1 13.5 3.5 1.2 2.2-4.9 3.7-10.6 5.1-16.5 1.1-3.4 2.2-6.7 3.2-10.1 1.5-3.1 2.8-6.3 1.7-7.9-.4-.5-.8-2-1.7.9-1.6 5.4.1 4.4 0 7-1.7 1.9-3.1 5.5-4.1 10.9-1.2 2.6-2.3 7.3-3.7 8.2-.1-.6-.3-1.2-.4-1.9 1.4-5.2 3.3-10.9 2.4-13.9.7-5.5 2.1-10.7 4.2-15.6 4.2-7.2 1.1-7.2 1.9-11.1 0-1.8-.6-1.7-1.3-1-.4-4.5-.5-10-3-8.7.5-6.3-.8-7.1-2.6-6.7.2-.9.3-1.9.5-2.8.4-2.3.6-4.2 0-4.6-1.5-.9-1-8-3.3-6.2.1-.8.3-1.7.4-2.6l3.6-8.1c-.4 3.3-1 8.1.8 5.1 1.4-2.3.7-4.5 1.1-6.9-.6-2.4-2.1-1.5-3.5-1.2-.1-.6-.2-1.3-.4-1.9.3-1.8.6-3.7.9-5.5.5-1.2.9-2.4 1.4-3.6 3.3-5.6.6-5.3 1.5-8.5.8-1.3 1.7-.3 2.3-4.1.5-3-.6-1.9-1.4-1.4-.6-8.1-3.9 5.2-5.8 7.9l-.1.2c0-.1.1-.1.1-.2 1.1-6.4 2.2-12.9 3.3-19.4.2-.9.3-1.8.5-2.7.3 1.4.7 2.8 1 4.1.4-1.2.9-2.5 1.1-3.5 1.1-6-.2-4.7-1.6-3.5-.4-3.2-2-2.7-3.1-4-.5 1.6-.9 3.2-1.4 4.8-.3.6-.7 1.3-1 2.1-.2.2-.5.4-.7.6v-.2c.6-3.5.3-5.2-.1-6.6-1.3-1.1-1.2-7.1-3.9-3.2-.1-.7-.3-1.3-.4-1.9-.7-.2-1-1.4-.9-3.8l-1.3 1.3c0-.2-.1-.4-.1-.6-.2-.5-.4-.8-.7-.8l-.9.9c.4-6.1-1.9-.4-3.2.9-.7 1.4-1.4 2.7-2.2 4v.3c-.1 0-.1.1-.2.2.1-.1.1-.3.2-.4.3-4.7 6.3-17.1 2-15.5.3 3.1-1.2 5.9-2.3 8.9-.5.5-1.1 1.1-1.6 1.7.2-2.2.2-3.7-.3-3.9-.3-.5-.6-.8-.9-1.4 4.5-14.3 9.2-25.9 13.6-34.9.1-.3.3-.5.4-.8-.1 0-.3 0-.5.1v-4.6c.5-4.8 2.2-8.8 3.7-12.8.8-.1-.1 6.2 2.3.1 2.3-6 2.6-2.4 3.1-.6-.1 1.9 0 2.8.3 3.1.7-.8 1.3-1.5 1.9-2.2.2-.5.5-1 .8-1.6 1.7-2 3.9-6.5 3.7-10.1-.2-3.4-2.7-.4-4.9 4.4-1.6 1.9-1.7-1.7-2.6-2.2.7-3 1.3-6 2.1-9.5h-.1c-4.9 9.9-6.2 10.2-5.5.1-1.5-.3-3.1-.5-4.7-.7l-4.9 2c.4 0 .7-.2 1-.4 1.2 1.6-1.3 1.4-3.5 1.4l-1.3.5.9.3c.8.6 3.4.9 1.2 1.8.2.1.4.3.5.4.1.2 0 .4-.1.6l-.2.2c.3.2.5.4.8.6-.8.3-1.2.7-1.1 1.2-.2.2-.4.4-.5.6 2.1 1 0 2 0 2.9-.4.5-.9 1-2.2 1.2h-.1c.1.1.3.2.4.3.4.1.7.1 1 .2h2c-.2.9.5 1.7-.5 2.6.8.6 1.6 1.2-.8 1.6-.4.1-1 0-1.5 0 .4-.4.8-.9 1.1-1.3-.4.1-.7.1-1 .2-2.5.5-5 1-7.5 1.4 1.4.7 6.8.3 4.3 2.1.4.4 1 .9-.1 1.1-1.5.3-1.4-.4-2-.7-1.3.1-.5 1.7-3.3.6-.5-.1-1.1-.1-1.6-.2-.7.1-1.4.3-2.1.4-.2.2-.4.4-.5.6.5.8 1.2 1.5.6 2.3-.9.2-1.5 1-2.6.6-1.5-.6.3-1 1.5-1.4-1.2-.2-2.5-.5-3.7-.7-.4.1-.7.1-1 .2 1.3 1.1-1.3 2.1-1.2 3.1 0 .4-.7.6-1.6.8-.4.1-.7.1-1.1.2.6 1 .7 2-1.6 2.7 1.1 1.3-.7 2.3-2.2 3.3.4.3.6.6 0 1-1.6.2-.7 2.1-4.3.8-2.2-.4-4.4-.3-6.5.2-.8 1.2-3.7.9-6 1 .1.5 0 .1.1.6.7.6 2.5.5 3.7.8 2.1-.4 3.7-.2 4.8.6.9-.4.1-1.3 2.4-1.3 1.2 0 .9.6.8.9-.2 1-1.7.8-3.2.4-1.4-.1-2.9-.1-4.3-.2-2.4.2-4.7.3-7-.2-5.4-.6-3-1.5-.5-2.3-.8-.8 1.7-.9 2.2-1.4-.1-1.4 1.2-2.5 5.4-3-.2-.1-.4-.3-.6-.4-2.5.3-3.6-.1-2.5-.9.9-.7 2.2-1.4 4.1-1.8-.8-.3-2.7-.5-1.7-1.2-.1-.1-.2-.3-.4-.4-1.7 0-2.2-.6-2.8-1-.5-.4-1.5-.8-.5-1.3.3-.4.7-.8 1-1.2-.5-.4-1.2-.5-2.1-.5.4.5.4.9-1.5 1.3-.8.1-1.7.5-2.5.8-.2.4-.7.6-2 .5-.8-.1-2.2.3-3.2.3l-3.7 1.5c.4 1.6 1.1 3.1-.9 4.7.3.6.1 1.1-.8 1.6v2.3c.2.4.9.8-.2 1.2-.1.2-.1.4-.2.7.1.1.3.3.5.4.6 0 1.4-.2 1.8-.1 1.1.2.5.4-.4.6-1.4.3-2.8.7-4.2 1h0c-1.3 0-2.6 0-3.9.1-.7.7-1.3 1.4-2 2.1-.2.6-.5 1.2-.7 1.8 1.3.9-.1 1.5-1.9 2 .2.1.3.3.4.4-2.5 2.1-8.3 2.8-14.1 1.6-1.8 0-3-.4-4.1-.9l-3.9-.9c-1.7 3-2.6 3.1-9.7 1.7-.5-.1-1.2-.1-1.8-.2-1.1.6-2.1 1.1-3.2 1.7-1.6.4-2.8.4-3.8.1l-57 23.5c.1.3-.2.6-.1.8 2.1 1.7-3.1 3.4-4.8 5.1.5.2 1 .4 1.5.5 8.5 2.3-3.5 5.3-3.1 7.9-6 1.3-5.3 3-9.5 4.4-1.4 1.3-4.6 2.1-10.1 2.2-1.4.5-2.8.9-4.3 1.4-1.7 1-3.5 2-5.3 3-1.9.8-3.8 1.7-5.8 2.5-.4.3-.9.6-1.4.9 2.1 2.2-8.5 3.9-10.5 6 .7 1.8-6 2.7-10.8 3.8 2.1 1.5-.8 2.8-6.8 4-1.9.8-3.9 1.6-5.9 2.4-1.4 1.2-2.8 2.4-4.1 3.6-3.6 2-6.7 4.1-14.1 5.8 1 1.5 2.3 3.1-5.5 4.5-.4.4-.5.7-1.2 1.1-1.1.5-3.3 1.2-4.6.6-1.1.7-2.8 1.1-5.5 1-.9.5-1.7.9-2.6 1.4-1 1-1.9 2-2.9 3-1.1.8-2.2 1.7-3.4 2.5-.2.3-.5.6-.7.9 2.1 2.5-4.9 3.9-5.7 6 .9 2-3.5 2.7-6.6 3.7 1.8 1.7.2 3-3.7 4-1.1.8-2.3 1.6-3.5 2.4-.7 1.2-1.3 2.5-1.9 3.7-2 2.1-3.6 4.2-8.3 5.7 1.1 1.7 2.4 3.4-2.7 4.6-.2.4-.2.8-.6 1.1-.7.6-2.2 1.2-3.2.3-1-.9 2.1-1 3.7-1.4-.4-1.3.7-2.7-2.7-3.6-1.7.8-3.5 1.7-6.4 2-.9.5-1.8.9-2.8 1.4-.5 2.1-.9 4.1-9.3 3.8-3.3-.1-2 1.4-3.6 1.9-.1.7-1.3 1.1-2.7 1.3-.1.7-1.3 1.1-2.8 1.4 1.4 1.1 1.2 2.3-1.2 3.1-9.6 3.2-9.8 4.5-.3 6.9-2.4.3-4.6.5-6.7.7.1 1.1-2 2.2-.1 3.3 3.8.9 6.7 2.5 4.8 3.8-2 1.3-5.6.3-7.6-.8-.5-.1-.9-.2-1.3-.3-.7-.5-1.4-.9-2.2-1.3 0-.4.5-.8 1.7-1.2.8-1.1 2.8-2.4-1.8-3-4.6-.6-.6-1.6-1-2.4-3-.3-6.1-.9-9.2 0-.9.5-1.8.9-2.7 1.4.2.2.2.3.3.4-.2-.1-.4-.1-.6-.2-7.3-1.9-16.2-3.2-26.6-3.6-.1.5-.2.9-.4 1.4.1.6-.8 1.1-2.1 1.5.6.4 1.2.8 1.7 1.2 2.2.2 4.5.9 6.2-.3 2.9 4-7.1 1.6-9.9 2.7 1.1.3 2.2.7 3.3 1 1.4.9 5.7 1.6 2 3 .3.2.6.4.9.7.1.3.1.7-.2 1l-.3.3c.5.3.9.7 1.4 1-1.4.6-2 1.3-1.8 2-.3.3-.6.7-.9 1 3.5 1.7 0 3.3 0 5-.7.8-1.5 1.7-3.8 2.1h-.1c.2.2.5.4.7.5.6.1 1.2.2 1.7.4h3.4c-.3 1.5.8 2.9-.9 4.4 1.3 1 2.7 2-1.3 2.7-.7.1-1.7 0-2.5 0 .6-.8 1.3-1.5 1.9-2.3l-1.8.3c-4.3.8-8.5 1.6-12.8 2.4 2.4 1.2 11.7.6 7.3 3.6.6.6 1.8 1.5-.2 1.9-2.5.4-2.3-.7-3.5-1.2-2.2.1-.8 2.8-5.6 1.1l-2.7-.3c-1.2.2-2.4.5-3.6.8l-.9.9c.8 1.3 2.1 2.6.9 4-1.5.4-2.5 1.7-4.5 1-2.6-1 .5-1.7 2.6-2.3-2.1-.4-4.2-.8-6.4-1.2-.6.1-1.2.2-1.7.3 2.1 1.9-2.3 3.5-2.1 5.3.1.7-1.2 1.1-2.7 1.4-.6.1-1.2.2-1.9.4 1 1.7 1.2 3.3-2.7 4.7 1.9 2.2-1.3 3.9-3.7 5.7.7.5 1.1 1.1 0 1.7-2.7.3-1.2 3.6-7.3 1.4-3.8-.6-7.5-.6-11 .4-1.3 1.8-5.5 1.6-9.2 1.7-.3.3-.6.7-.9 1 1.1 1.1 4.3.8 6.4 1.3 3.6-.6 6.3-.3 8.2 1 1.6-.7.2-2.2 4.1-2.1 2.1 0 1.5 1 1.3 1.5-.4 1.7-2.8 1.3-5.4.6-2.5-.1-4.9-.2-7.3-.3-4.1.3-8.1.5-11.9-.3-9.2-1-5-2.5-.9-4-1.3-1.3 2.9-1.5 3.7-2.4-.2-2.5 2.1-4.3 9.2-5.1-.3-.2-.6-.5-1-.7-4.3.5-6.1-.1-4.2-1.6 1.5-1.2 3.7-2.3 7-3.1-1.4-.6-4.7-.8-2.9-2-.2-.2-.4-.5-.6-.7-3-.1-3.7-1-4.7-1.7-.8-.7-2.6-1.4-.8-2.2.6-.7 1.1-1.4 1.7-2.1-.9-.6-2.1-.9-3.6-.8.8.8.7 1.6-2.6 2.2-1.4.2-2.9.9-4.3 1.3-.4.6-1.2 1-3.4.8-2.4-.3-8.1 1.8-7.8-1-.1-.2 0-.5.1-.7-.4-.6-.3-.5-.6-1.1-1.1.8-2.3 1.7-3.5 2.5 0 .9-.1 1.8-.1 2.7.5 2.9 2.4 5.8-1.3 8.7.5 1 .2 1.9-1.4 2.8 0 1.3-.1 2.6-.1 3.9.4.7 1.5 1.3-.4 2-.1.4-.2.7-.3 1.1.2.2.5.5.8.7 1-.1 2.3-.3 3-.2 1.9.4.8.7-.6 1l-7.2 1.8c.1 0 .1-.1.2-.1-.1 0-.1.1-.2.1-2.2 0-4.5.1-6.7.1-1.1 1.2-2.3 2.4-3.4 3.6l-1.2 3c2.2 1.5-.2 2.5-3.2 3.4.3.2.5.4.8.7-1 .8-2.2 1.5-3.8 2.1-1.1 2.9-2.1 5.9-3.2 8.8-1 2.8-2.1 5.7-3.1 8.5-1.5.6-1.7 4.6-3.8 4.4.1-2.6 1.3-3 .4-6.3-.3-.1-.7-.1-1-.2-.2 2.3-.8 3.8-1.8 4.7-1 .1-1.8 1.1-3.2-1.8-1.3 0-1.6-2.7-2.2-4.5-.2-.4-.4-.9-.7-1.3-.8 0-1.7-.1-2.5-.1-.8.9-1.6 2.1-3 1-.1.3-.3.3-.5.1-.5 1.2-.9 2.4-1.4 3.6l-.6 1.8c-1.1.9-2.4.2-3.9-2.9-.4-.2-.7-.3-1.1-.5-1.6 2.4-4.2 2.1-6.3 2.8-1.2.4-2.5 1.2-4.4-1.8-1.3-6.4-2.9-2.5-4.3-5.4-.2.1-.3.3-.5.6-1.3.8-2.5 2-4.7-1.2-.2.2-.3.4-.4.7.4 1.1 1.4 2.7.5 3-.7.2-1.4-.4-2-1.9-.2.1-.5 0-.9-.3-.4.9-.8 1.8-1.1 2.7.2.8.3 1.7.4 2.5l1.8 2.1c-.1 1.4-.2 2.8-.3 4.3 2.3 8.1-.5 5.9-2.1 6.1-1.3-.5-2 1.3-3.7-.9-.6.2-1.3.4-1.9.7l2.7 3.9c.6 0 1.3-.5 2 2.1.5 2-.4 1.5-.8 1.9-1.2 2.1-3.4-.3-5.1-.6l-.3 1.2c-.8 6.3-5.1.3-7.2 1.7-1.2-2-2.2-2.2-3.3-2.6l-154.5 772.7zm693.2 130.8c0-.1 0-.1-.1-.2 0-.2.1-.3.1-.5v.7m7.7-27.9c0-.2.1-.4.1-.6 0 .2 0 .4-.1.6m18.9.3c-.1.2-.3.4-.4.6 0-.2.1-.5.1-.7.2 0 .3.1.3.1m-8.8-117.7l-.2.2c0-.1.1-.2.1-.4 0 0 0 .1.1.2m1.3-54.3c-.1 0-.1 0 0 0 0-.2.1-.3.1-.5-.1.2-.1.4-.1.5m-6.3-83.6v.3c-.8 2.3-1.1 4.7-1.5 7l.5-10.2c.4-.7.7-1.6 1-2.8.6.1 1.3 0 2.3-1.5-.9 2.2-1.7 4.5-2.3 7.2m26.5-411.7v-.2-.1.3m1.2-30.9c-.1.1-.2.2-.2.3 0-.1 0-.3.1-.4 0 .1 0 .1.1.1m-52.2-423.4c.1-.1.2-.3.3-.5.1-.2.1-.3.1-.4 0 0 .1 0 .1-.1-.2.7-.3 1.3-.4 1.8 0-.3 0-.6-.1-.8m84.5 43.4c.1.1.2.1.3.1-.1.2-.3.4-.4.6 0-.2.1-.4.1-.7m-18.6-.2c.1-.2.1-.4.2-.6-.1.2-.2.4-.2.6m17 52.8v-.1.1c0-.1.1-.1.1-.1 0 .1-.1.2-.1.3-.1 0 0-.1 0-.2z"/>
    <path class="st0" d="M1690.1 1058.1c-72.5 36.2-243.1-164.6-244.6-162.8-1.9-1.8-735.2 26.1-734.9 19.8 0-.4 0-.8-.1-1.2-1.7-.1-4.3 1.9-5.1-.3-.3-.4-1.3-.2-.5-2 1-2.5 1.7-1.9 2.3-1.8 1.1-1.1 2.2-2.3 3.3-3.4-.6-.3-1.2-.7-1.8-1-2 1.8-2.4 0-3.8.2-1.5-.5-4.7 1.2-1-6.3.2-1.4.3-2.8.5-4.3.7-.6 1.4-1.2 2.1-1.7l.9-2.4c-.2-1-.4-1.9-.7-2.9-.4.3-.7.3-.9.2-.9 1.4-1.7 1.9-2.3 1.5-.8-.4.4-1.8 1-2.9-.1-.3-.2-.5-.3-.7-2.6 2.8-3.7 1.4-4.8.4-.1-.3-.2-.5-.4-.6-1.9 2.6-2.7-1.5-5.1 4.6-2.4 2.7-3.5 1.6-4.7 1-2-1-4.6-1.1-5.8-3.8l-1.2.3c-2.1 2.7-3.5 3.3-4.4 2.2-.1-.6-.2-1.3-.3-1.9-.3-1.2-.5-2.5-.8-3.8-.2.1-.4 0-.4-.2-1.6.9-2.1-.4-2.8-1.5-.8-.1-1.6-.2-2.5-.3l-.9 1.2c-.9 1.7-1.7 4.3-3 4.1-1.9 2.7-2.5 1.5-3.5 1.2-.8-1-1.1-2.6-1-4.9h-1c-1.4 3.1-.3 3.7-.6 6.3-2.1-.1-1.6-4.1-3-5-.5-3-1.1-5.9-1.6-8.9-.6-3.1-1.1-6.1-1.6-9.2-1.4-.8-2.5-1.7-3.3-2.7.3-.2.5-.4.9-.5-2.8-1.4-5.1-2.7-2.6-3.9-.2-1-.4-2.1-.6-3.2l-2.7-4.2c-2.2-.4-4.4-.8-6.6-1.3l-.1-.1.1.1c-2.2-1-4.5-2-6.7-3-1.3-.6-2.4-1.1-.4-1.1.7 0 2 .4 3 .7.3-.2.7-.4.9-.6-.1-.4-.1-.8-.1-1.2-1.8-.9-.5-1.4 0-2 .2-1.3.4-2.5.6-3.8-1.4-1.1-1.5-2.1-.9-3-3.2-3.5-.9-6 .2-8.8l.3-2.7-3-3c-.5.6-.3.4-.8 1 .1.3.1.5 0 .7-.2 2.8-5.5-.2-7.9-.4-2.2-.1-3-.7-3.2-1.4-1.3-.7-2.6-1.6-4-2-3.2-1.1-3.1-1.9-2.2-2.6-1.5-.3-2.7-.3-3.7.2.4.8.9 1.6 1.3 2.4 1.6 1.1-.3 1.5-1.2 2-1.1.6-2 1.3-4.9.9-.3.2-.5.4-.8.6 1.5 1.5-1.7 1.1-3.2 1.5 3.2 1.3 5.1 2.8 6.4 4.2 1.6 1.8-.3 2.1-4.4.8-.4.2-.7.3-1.1.5 6.8 1.9 8.8 4.2 8.2 6.5.6 1 4.7 1.9 3.2 2.9 3.8 2.2 7.7 4.4-1.6 3.8-3.9.1-7.8-.8-11.8-1.8-2.4-.3-4.8-.6-7.3-1-2.6.2-5 .2-5.2-1.5 0-.5-.5-1.6 1.6-1.2 3.9.6 2.2 1.9 3.6 2.8 2.1-.9 4.8-.7 8.3.5 2.1-.1 5.3.7 6.5-.2-.2-.4-.5-.8-.7-1.1-3.6-.7-7.8-1.2-8.8-3.3-3.3-1.5-6.9-2.2-10.8-2.3-6.4 1.1-4.4-1.8-7-2.6-1-.7-.5-1.2.3-1.6-2.1-2.2-4.9-4.4-2.7-6.3-3.6-2-3.2-3.6-1.9-5.1-.6-.2-1.2-.4-1.8-.7-1.4-.5-2.6-1.1-2.4-1.8.5-1.8-3.6-4.1-1.1-5.6-.5-.2-1-.4-1.6-.6-2.2 0-4.3.1-6.5.2 2 1 4.9 2.2 2.1 2.7-2 .4-2.8-1.1-4.3-1.7-.9-1.5.6-2.6 1.6-3.8-.2-.4-.5-.7-.8-1.1-1.1-.4-2.3-.9-3.4-1.4-.9 0-1.8-.1-2.7-.1-5 .9-3.1-1.5-5.3-2-1.2.2-1.2 1.4-3.6.6-1.9-.7-.6-1.3.1-1.9-3.8-3.8 5.1-1.6 7.8-2.3-4.1-1.5-8.1-3-12.2-4.6-.6-.2-1.1-.4-1.7-.6.5.9 1 1.7 1.5 2.6-.8-.1-1.8-.2-2.5-.4-3.8-1.3-2.3-2.1-.8-2.9-1.4-1.7-.1-3-.1-4.4 1.1.2 2.2.4 3.4.6.5-.1 1.1-.1 1.7-.1.3-.1.5-.3.8-.4h-.1c-2.2-.8-2.9-1.8-3.4-2.7.3-1.6-3-3.9.8-4.9-.3-.4-.5-.8-.8-1.1.4-.7-.1-1.5-1.4-2.3.5-.3 1-.5 1.5-.8-.1-.1-.2-.3-.2-.4-.2-.4-.2-.7 0-1 .3-.2.7-.3 1-.5-3.4-2 1-1.9 2.5-2.6 1.2-.1 2.3-.3 3.5-.4-2.6-1.6-12.9-.9-9.3-4.3 1.4 1.5 3.9 1.2 6.1 1.4.6-.3 1.2-.6 1.9-.8-1.3-.7-2-1.3-1.8-1.9 0-.5-.1-.9-.1-1.4-10.3-1.4-19.3-1.6-26.8-1-.2 0-.4 0-.7.1 0-.1.2-.3.3-.4l-2.4-1.8c-2.8-1.4-6-1.4-9-1.6-.6.7 3.3 2.4-1.4 2.2-4.6-.2-2.9 1.4-2.3 2.7 1 .6 1.5 1.1 1.4 1.5l-2.4.9c-.4 0-.8.1-1.3.1-2.1.8-5.9 1.1-7.6-.5-1.6-1.5 1.5-2.7 5.4-2.9 2-.8.2-2.2.5-3.3-2-.6-4.1-1.2-6.5-1.9 9.8-.8 9.8-2.1.9-6.9-2.2-1.2-2.2-2.4-.7-3.2-1.4-.5-2.5-1.1-2.5-1.8-1.4-.5-2.5-1.1-2.5-1.8-1.4-.8.1-2.1-3.2-2.5-8.3-1.1-8.3-3.2-8.5-5.3-.8-.6-1.7-1.2-2.5-1.8-2.8-.8-4.4-1.9-6-3.1-3.6.3-2.7 1.9-3.3 3.1 1.5.7 4.5 1.3 3.4 2-1.2.7-2.6-.2-3.1-.9-.3-.4-.3-.7-.4-1.2-4.8-2.1-3.2-3.5-1.9-5-4.3-2.3-5.6-4.7-7.2-7.1-.4-1.3-.9-2.7-1.3-4-1-1-2-1.9-3-2.9-3.7-1.7-5.1-3.2-3-4.6-2.8-1.5-7.1-3-5.8-4.8-.5-2.3-7.1-4.8-4.6-6.9-.2-.3-.4-.7-.6-1-1-1-2-2-2.9-3-.8-1.1-1.6-2.3-2.3-3.5-.8-.6-1.6-1.2-2.3-1.8-2.7-.4-4.3-1.1-5.3-2-1.3.3-3.4-.7-4.4-1.4-.6-.4-.7-.8-1-1.2-7.5-2.7-6-4-4.7-5.3-7-2.9-9.7-5.5-12.9-8.1-1.1-1.4-2.3-2.8-3.5-4.2-1.8-1.1-3.6-2.2-5.4-3.4-5.8-2.2-8.3-3.9-6-5.1-4.5-1.9-11-3.9-10-5.6-1.6-2.4-11.8-5.8-9.3-7.7-.4-.4-.8-.8-1.2-1.1-1.8-1.2-3.5-2.3-5.3-3.5-1.5-1.3-3.1-2.5-4.7-3.8-1.3-.7-2.6-1.4-4-2.1-5.4-1.1-8.4-2.4-9.6-3.9-3.9-2.1-2.9-3.7-8.6-6 .8-2.5-10.5-7.5-1.7-8.3l1.5-.3c-1.3-2-6.2-4.6-3.8-5.9.1-.2 0-.6.1-.8l-52.2-32.8c-1 0-2.2-.2-3.7-.8-1-.7-1.9-1.5-2.8-2.2-.6 0-1.2-.1-1.8-.1-7.3.2-8.1-.1-9.3-3.3-1.3.1-2.7.1-4 .2-1.2.3-2.5.4-4.2.2-5.9.2-11.5-1.4-13.6-3.9.1-.1.3-.2.5-.3-1.7-.8-3-1.6-1.5-2.3-.1-.6-.2-1.2-.4-1.8-.5-.8-1.1-1.6-1.6-2.4-1.3-.2-2.6-.5-3.9-.7 0 0-.1 0-.1-.1 0 0 .1 0 .1.1-1.3-.6-2.6-1.2-4-1.7-.8-.3-1.4-.6-.2-.7.4 0 1.2.3 1.7.4.2-.1.4-.2.5-.3 0-.2-.1-.5-.1-.7-1-.6-.3-.8 0-1.2.1-.7.2-1.5.4-2.2-.8-.7-.9-1.2-.5-1.8-1.7-1.9-.7-3.3-.1-4.7l-3.4-2.1c-1-.2-2.3-.8-3.1-.8-1.3-.1-1.7-.4-1.9-.8-.8-.4-1.5-.9-2.3-1.2-1.9-.7-1.8-1.1-1.3-1.5-.9-.2-1.6-.2-2.2.1.3.5.5.9.8 1.4 1 .7-.2.9-.7 1.2-.7.4-1.2.8-2.9.5-.2.1-.3.2-.4.3.9.9-1 .7-1.9.9 1.9.8 3 1.6 3.8 2.5 1 1-.2 1.2-2.6.5l-.6.3c4 1.1 5.1 2.4 4.8 3.8.4.6 2.8 1.1 1.9 1.7 2.2 1.3 4.5 2.6-.9 2.2-2.3.1-4.6-.4-6.9-1-1.4-.2-2.8-.4-4.3-.6-1.5.1-3 .1-3-.9 0-.3-.3-.9.9-.7 2.3.3 1.3 1.1 2.1 1.6 1.2-.5 2.8-.4 4.9.3 1.2-.1 3 .4 3.8-.1.1-.4 0-.1.2-.6-2.2-.5-5.1-.7-5.7-2-1.9-.9-4-1.3-6.3-1.3-3.8.7-2.6-1.1-4.1-1.5-.6-.4-.3-.7.2-1-1.2-1.3-2.9-2.6-1.6-3.7-2.1-1.2-1.9-2.1-1.1-3-.3-.1-.7-.3-1-.4-.8-.3-1.5-.7-1.4-1 .3-1-2.1-2.4-.7-3.3-.3-.1-.6-.3-1-.4-1.3 0-2.5.1-3.8.1 1.2.6 2.8 1.3 1.3 1.6-1.2.2-1.7-.6-2.5-1-.5-.9.3-1.5.9-2.2-.1-.2-.3-.4-.4-.6-.7-.3-1.3-.5-2-.8-.5 0-1.1 0-1.6-.1-2.9.5-1.8-.9-3.1-1.2-.7.1-.7.8-2.1.3-1.1-.4-.4-.8.1-1.1-2.2-2.2 3-.9 4.5-1.4-2.4-.9-4.8-1.8-7.1-2.7-.3-.1-.7-.2-1-.4l.9 1.5c-.5-.1-1.1-.1-1.5-.2-2.2-.8-1.3-1.2-.5-1.7-.8-1-.1-1.7-.1-2.6.7.1 1.3.2 2 .4.3 0 .6-.1 1-.1.1-.1.3-.2.4-.2h-.1c-1.3-.5-1.7-1-2-1.6.2-1-1.7-2.3.5-2.9-.2-.2-.3-.4-.4-.7.2-.4-.1-.9-.8-1.4.3-.1.6-.3.9-.4 0-.1-.1-.2-.1-.2-.1-.2-.1-.4 0-.6l.6-.3c-2-1.2.6-1.1 1.5-1.5.3 0 .6-.1.9-.1l-1.2-.7c-2.2-.3-4.6-.6-3.2-2 .3.3.6.4 1 .6l-4.5-2.8c-1.7-.1-3.3-.1-4.8-.1-1.1 10.1-2.3 9.5-5.4-1.1h-.1c.2 3.5.3 6.6.4 9.7-1 .4-1.6 3.9-2.9 1.7-1.4-5.1-3.3-8.4-4.1-5.2-.8 3.5.6 8.3 1.9 10.6.2.6.3 1.2.5 1.7.5.8 1 1.6 1.5 2.5.3-.2.6-1.2.8-3 .9-1.7 1.7-5.2 3 1.1 1.3 6.4 1.5 0 2.3.3.8 4.3 1.8 8.4 1.5 13.3-.3 1.5-.5 3-.8 4.5-.2-.1-.3-.2-.4-.2.1.3.2.6.3.8 2.9 9.6 5.5 21.9 7.5 36.7-.4.4-.7.7-1.1 1.2-.5.1-.8 1.6-1 3.8-.4-.7-.9-1.3-1.3-1.9-.5-3.1-1.6-6.1-.8-9.1-4-2.3-.2 11-.7 15.7 0 .1.1.3.1.4 0-.1-.1-.1-.1-.2v-.3c-.5-1.5-1-2.9-1.4-4.3-1.1-1.5-2.4-7.5-3-1.4-.2-.3-.5-.7-.7-1-.3 0-.6.2-.8.7l-.3.6c-.4-.5-.7-1-1.1-1.5-.3 2.4-.8 3.5-1.5 3.6-.2.6-.5 1.2-.7 1.8-2-4.3-2.9 1.6-4.4 2.5-.6 1.4-1.2 3-1.2 6.5v.2c-.2-.2-.4-.5-.6-.7-.2-.9-.4-1.6-.6-2.3-.2-1.7-.4-3.3-.5-5-1.2 1.1-2.7.3-3.7 3.4-1.1-1.4-2.2-2.9-2.1 3.1 0 1.1.3 2.4.4 3.6.6-1.3 1.1-2.6 1.7-3.9v22.4c0 .1 0 .1.1.2l-.1-.2c-1.5-3-2.4-16.6-4.4-8.7-.7-.6-1.6-1.8-1.6 1.2 0 3.8 1 3 1.6 4.4.3 3.3-2.3 2.5 0 8.6.3 1.2.5 2.5.8 3.7 0 1.8-.1 3.7-.1 5.5-.2.6-.5 1.2-.7 1.8-1.3-.5-2.6-1.7-3.7.6-.1 2.4-1.1 4.5-.1 7 1.3 3.3 1.4-1.5 1.6-4.8.7 2.9 1.4 5.7 2.1 8.6v2.6c-2-2.2-2.7 5-4.3 5.6-.6.3-.7 2.2-.8 4.5v2.9c-1.7-.7-3.1-.1-3.7 6.2-2.2-1.7-3.2 3.7-4.4 8.1-.6-.8-1.2-1-1.5.8.2 4-3 3.4 0 11.2 1.2 5.2 1.7 10.6 1.5 16.1-1.4 2.8-.5 8.7 0 14.1-.2.6-.5 1.2-.7 1.8-1.1-1.1-1.4-5.9-2.2-8.7-.1-5.5-.8-9.3-2.2-11.4.3-2.6 1.9-1.3 1.2-6.9-.4-3-1.1-1.6-1.5-1.2-1.4 1.4-.7 4.7.3 8.1l1.5 10.5c.4 6 .9 12 2.2 17.1 2.4 12.9 3 6.1 3.7-.6 1.4 1.3.8-4.9 1.5-6.5 2.2-.9 3.5-5.2 2.9-15.7.3.3.5.7.8 1.1.3 6.4 1.1 8.8 2.1 5.3.8-2.8 1.5-6.5 1.5-11.7.7 1.7 1.5 6.4 2.2 3.3.2.2.5.4.7.6.6 4.3 1.5 4.9 2.3 6 .8.8 1.6 3.2 2.1.1.5-1.2 1-2.3 1.6-3.5.7 1 1.1 2.7 1.3 4.9-.9-.7-1.5-.3-1.5 4.8 0 2.2-.3 4.5-.5 6.8-.5.9-.7 2.2-.1 5.4.6 3.4-.3 12.6 2.2 10.9.2 0 .4-.2.6-.5.6.2.4.1 1.1.3-.5 2.1-1.1 4.1-1.6 6.2l-2.4 1.5c-2.6.6-5.5-.7-7.4 6.1-.9-.2-1.7.7-2.2 3.3-1.1.6-2.3 1.3-3.4 1.9-.6-.2-1.4-1.6-1.7 1.5-.3.3-.6.7-.9 1-.3-.2-.5-.5-.8-.8-.1-1.5-.1-3.5-.4-4.5-.7-2.6-.8-.8-.8 1.4-.1 3.8-.2 7.5-.4 11.2 0-.1 0-.2.1-.3v.3c.3 3.3.7 6.5 1 9.8-.9 2.2-1.8 4.5-2.6 6.7-.8 1.1-1.6 2.1-2.4 3.1-1.7-2.5-2.1 1.5-2.4 6.3-.2-.3-.5-.6-.7-.8-2.5 7.8-1.8 22.8 1.6 36 .5 4.3 1.5 7.1 2.5 9.5l2.4 9c-4 6.5-4 8.9.2 25.3.3 1.2.5 2.8.8 4.2-.5 3.1-1.1 6.1-1.6 9.2-.2 8.3 1.3 11.8 3.1 14.5.4 2 .8 3.7 1.3 5.2 0 .2-.1.3-.1.4-1 1-2 2-1.1 8.9.4 2.8-.5 2.1-.7 3.6-.3.2-.4 1.4-.4 2.7-.3.2-.4 1.4-.4 2.7-.7-.9-1.3-.4-1.5 1.9-.7 9-1.4 9.6-3.5 2.2.1 2.1.2 4 .3 5.9-.6.2-1 2.3-1.7 1-.8-3-1.9-4.9-2.4-3-.5 2 .4 4.9 1.1 6.2.1.4.2.7.3 1 .3.4.6.9.9 1.5.2-.1.3-.7.5-1.8.5-1 1-3 1.7.6.8 3.8.9 0 1.3.2.5 2.5 1 4.9.9 7.8-.2.9-.3 1.8-.5 2.7-.1-.1-.2-.1-.3-.1 0 .2.1.3.2.5 1 3.3 1.9 7.2 2.8 11.5l-1 8.1c0-.6 0-1.1.2-1.7-1.6-.9-1 2.6-.6 5.7l-.2 2.1c-.1-.4-.2-.7-.4-1.1-.6-.9-1.4-4.4-1.8-.8-.1-.2-.3-.4-.4-.6-.2 0-.3.1-.5.4-.1.1-.1.2-.1.3l-.6-.9c-.2 1.4-.5 2.1-.9 2.1-.1.4-.3.7-.4 1.1-1.2-2.5-1.7 1-2.6 1.5-.4.8-.7 1.7-.7 3.8v.1c-.1-.1-.2-.3-.3-.4-.1-.5-.2-1-.4-1.3-.1-1-.2-1.9-.3-2.9-.7.6-1.6.2-2.2 2-.6-.8-1.3-1.7-1.3 1.8 0 .6.2 1.4.3 2.1.3-.8.7-1.5 1-2.3v13.2-.1c-.9-1.7-1.4-9.7-2.6-5.1-.4-.4-.9-1.1-.9.7 0 2.2.6 1.8.9 2.6.2 1.9-1.4 1.5 0 5 .1.7.3 1.5.4 2.2v3.2c-.1.4-.3.7-.4 1.1-.8-.3-1.5-1-2.1.3 0 1.4-.6 2.6-.1 4.1.7 1.9.8-.9 1-2.8.4 1.7.8 3.3 1.3 5v1.6c-1.2-1.3-1.6 2.9-2.5 3.3-.4.1-.4 1.3-.4 2.6v1.7c-1-.4-1.8-.1-2.1 3.6-1.3-1-1.9 2.2-2.6 4.8-.4-.5-.7-.6-.9.5.1 2.3-1.7 2 0 6.6.7 3.1 1 6.2.9 9.4-.9 1.8-.2 5.7.1 9.1-.4.1-.1 0-.5.2-.7-.7-.8-3.4-1.3-5.1 0-3.2-.5-5.4-1.3-6.7.2-1.5 1.1-.8.7-4-.2-1.8-.6-1-.9-.7-.8.8-.4 2.8.2 4.7.3 2.1.6 4.1.9 6.1.2 3.5.5 7 1.3 10 1.4 7.5 1.8 3.6 2.2-.4.8.7.5-2.9.9-3.8 1.3-.6 2-3 1.7-9.2.2.2.3.4.4.6.2 3.8.7 5.2 1.2 3.1.5-1.6.8-3.8.9-6.8.4 1 .9 3.7 1.3 1.9.1.1.3.2.4.3.3 2.5.9 2.9 1.4 3.5.4.5 1 1.8 1.2.1.3-.7.6-1.4.9-2 .4.6.7 1.6.8 2.8-.5-.4-.9-.1-.9 2.8 0 1.3-.2 2.7-.3 4-.3.5-.4 1.3-.1 3.1.2 1.1.1 3.3.3 4.8l-.7 6.1c-1.4.2-2.9-.1-4 3.5-.6-.1-1 .4-1.3 1.9-.7.4-1.3.8-2 1.1-.4-.1-.8-.9-1 .9-.2.2-.4.4-.5.6l-.5-.5c-.1-.9-.1-2-.2-2.6-.4-1.5-.5-.5-.5.8-.1 2.2-.1 4.4-.2 6.6v-.2.2l.6 5.7-1.5 3.9c-.5.6-1 1.2-1.4 1.8-1-1.5-1.3.9-1.4 3.7-.1-.2-.3-.3-.4-.5-1.5 4.6-1.1 13.4.9 21.1.3 2.6.9 4.2 1.4 5.5.5 1.7 1 3.5 1.4 5.3-2.3 3.8-2.3 5.2.1 14.8.2.7.3 1.6.5 2.5-.3 1.8-.6 3.6-1 5.4 0 2.5.2 4.2.5 5.6l-30.7 256.3c-1.9-1.7-2.9 3.6-4.3 5.5-.3-.4-.5-.9-.8-1.4-3.5-8.1-4.7 4.2-7.3 4.2-.4 6.1-2.2 5.7-3 10-1 1.6-1.3 4.9-.7 10.3-.3 1.5-.5 3-.8 4.4-.7 1.9-1.4 3.8-2.2 5.6-.5 2-1.1 4-1.6 6.1-.2.5-.5 1-.7 1.5-2.5-1.8-2.6 9-4.4 11.2-1.9-.4-1.8 6.4-2.2 11.3-1.8-1.8-2.7 1.2-2.9 7.3-.5 2-1 4.1-1.5 6.2-1 1.5-2 3.1-2.9 4.6-1.5 3.8-3.1 7.2-3.7 14.8-1.7-.8-3.4-1.9-3.6 6.1-.3.4-.7.6-.9 1.3-.4 1.3-.7 3.8.2 4.8.9 1 .5-3.5.6-6 1.2-.1 2.2-2.4 3.7 2.2-.5 2.9-.9 5.9-.7 10.2-.2 1.6-.5 3.1-.8 4.7-1.8 1.8-3.5 3.3-1.8 15.3.7 4.8-.9 3.6-1.1 6.1-.6.4-.7 2.3-.7 4.6-.6.4-.7 2.3-.7 4.7-1.2-1.5-2.2-.6-2.5 3.2-1.2 15.4-2.3 16.4-6 3.8.2 3.6.3 6.8.5 10-1 .3-1.6 3.9-2.9 1.7-1.4-5.1-3.3-8.4-4.1-5.2-.8 3.5.6 8.3 1.9 10.6.2.6.3 1.2.5 1.7.5.8 1 1.6 1.5 2.5.3-.2.6-1.1.8-3 .9-1.7 1.7-5.2 3 1.1 1.3 6.4 1.5 0 2.3.3.8 4.3 1.8 8.4 1.5 13.3-.3 1.5-.5 3-.8 4.5-.2-.1-.3-.2-.4-.2.1.3.2.6.3.8 2.9 9.6 5.5 21.9 7.5 36.7-.4.4-.7.7-1.1 1.2-.5.1-.8 1.6-1 3.8-.4-.7-.9-1.3-1.3-1.9-.6-3.1-1.6-6.1-.8-9.1-4-2.3-.2 11-.7 15.7 0 .1.1.3.1.4 0-.1-.1-.1-.1-.2v-.3c-.5-1.5-1-2.9-1.4-4.3-1.1-1.5-2.4-7.5-3-1.4-.2-.3-.5-.7-.7-1-.3 0-.6.2-.8.7l-.3.6c-.4-.5-.7-1-1.1-1.5-.3 2.4-.8 3.5-1.5 3.6-.2.6-.5 1.2-.7 1.8-2-4.3-2.9 1.6-4.4 2.5-.6 1.4-1.2 2.9-1.2 6.5v.2c-.2-.2-.4-.5-.6-.7-.2-.9-.4-1.6-.6-2.3-.2-1.7-.4-3.3-.5-5-1.2 1.1-2.7.3-3.7 3.4-1.1-1.4-2.2-2.9-2.1 3.1 0 1.1.3 2.4.4 3.6.6-1.3 1.1-2.6 1.7-3.9v22.4c0 .1 0 .1.1.2l-.1-.2c-1.5-3-2.4-16.6-4.4-8.7-.7-.6-1.6-1.8-1.6 1.2 0 3.8 1 3 1.6 4.4.3 3.3-2.3 2.5 0 8.6.3 1.2.5 2.5.8 3.7 0 1.8 0 3.7-.1 5.5-.2.6-.5 1.2-.7 1.8-1.3-.5-2.6-1.7-3.7.6-.1 2.4-1.1 4.5-.1 7 1.3 3.3 1.4-1.5 1.6-4.8.7 2.9 1.4 5.7 2.1 8.6v2.6c-.8-.8-1.3-.3-1.8.6l1768.3 22.1-81.3-687.8zM37.3 1715.2c0 .2 0 .3.1.5 0 .1-.1.1-.1.2-.1-.2-.1-.5 0-.7m-3-28.8c0 .2 0 .4.1.6-.1-.2-.1-.4-.1-.6m-18.4-2.3v.7l-.3-.6c.1 0 .2-.1.3-.1m28.6-114.7c0 .1 0 .3.1.4 0-.1-.1-.1-.1-.2-.1 0 0-.1 0-.2m7.8-53.9c0 .1.1.3.1.4l-.1.1v-.5m19.4-88.3c.7 1.6 1.4 1.8 2 1.8.1 1.2.3 2.1.5 2.9l-1.2 10.2c0-2.4 0-4.8-.3-7.2v-.3c-.1-2.7-.5-5.1-1-7.4m44.8-403s0 .1 0 0c0 .1 0 0 0 0v0m4.3-30.5v.4c-.1-.1-.1-.2-.2-.4.1.1.1.1.2 0m122.9-407.5c-.1-.5-.1-1.2-.1-1.9 0 .1.1.1.1.1 0 .1 0 .2.1.4s.1.4.2.5c-.1.3-.2.5-.3.9m-90.4 28.3l-.3-.6c.1 0 .2 0 .3-.1v.7m18.4 2.3v-.6.6M146 665.9v0c-.1 0 0 0 0 0z"/>
    <path class="st0" d="M1843 434.3c-1.4-1.4-3.1-2.2-2.9-6.7-.6-.3-.9-1.2-.6-2.9-.5-.9-1.1-1.8-1.6-2.7-.4-.2-1.2.2-.7-1.6-.1-.3-.2-.7-.3-1-.2 0-.4 0-.6.1-.4.8-.8 1.9-1.1 2.3-.9 1.1-.6.1-.2-1.2.7-2.1 1.4-4.3 2.1-6.4v0c.9-1.7 1.7-3.3 2.6-5-.1-1.7-.1-3.3-.2-5-.3-1-.5-1.9-.8-2.9-1.5.6-1-1.9-.1-4.7-.2.1-.4.1-.6.1 0-1.3.2-2.7.6-4.2l-2.4-8.4c-.8-2.7-1.5-5.4-2.3-8.1.3-1.5-1.3-4.4-.4-5.7 1.1 1.9.7 3 2.5 4.7.2-.2.3-.4.5-.6-.9-1.7-1.3-3.2-1.2-4.5.3-.7.3-1.8 1.5-1.3.1-.5.1-1 .2-1.5 1.2-1 2.1-2.2-.8-5.3 1.3-1-.1-3.3-.9-5.3 1.1-.5 3.6-.3 0-3.4.1-1.9.3-3.8.4-5.7 2.3-.4-.4-3-2.3-5.2 1.9-.1.8-1.8-.9-4.2-.4 1.3-.6 2.3-.9 3.3v.1c-2.4-1.6-2.5-2.7-3.1-3.9-1-1.3-2-2.6-3-3.8.4-.1.8-.2 1.3-.3-.5-.8-2.5-2.2-.8-2.1 1.7.1.7-1.3.5-2.3 3.4.3 2.6-1.4-1.3-4.5-2.1-1.6-2.3-2.2-2-2.8-1.4-1.5.6-2.3-3.8-4.5-4.3-2.2-3.9-.8-3.6.8.1.5-.6.6-.9.9-.7-.6-1.4-1.2-2-1.7-.2-.4-.4-.8-.6-1.1 1.8-.4 1.2-2.2 1.3-3.6 4 .6 1.5-2.6.7-4.8.5-.1 1-.1 1.5-.2 7.6 1 2.8-4.7 0-9.5-.2-.3-.2-.5.1-.6 2 .9 1.8 3 4.2 3.2 1.7.1 4.4.3-.1-3.2-.9-.8-1.8-1.5-2.8-2.1-.2-.7-.7-1.5-1.9-2.4v-.3c2.1 1 2.6 2.5 4.3 3.7 1.1-2.4.3-5.9.1-9.1 1.8.2.9-1.2.6-2.2-.2-.4-.3-.7-.4-1.1l-.3-2.7c1.4-2.6 1.2-6-1.5-10.7 3.7-.3-3.7-5.6-2.8-7.1l-.2.2c0-.1.1-.1.2-.2-.9-1.3-2.5-2.4-4.3-3.5 1-2.5-5.6-7.4-7.6-10.8-1.3-3.6-1.1-6.5-7.6-11.9-1.3-2.4-3-4.7-7.7-6.5l-5.4-.6c-.8-.6-1.6-1.2-2.2-1.8-8.6-8-9.9-8.6-14.1-6.3-1.6-1.5-3.1-3-4.7-4.5-1.2-1.5-2.6-3.1-4.9-4.7-6.9-6.5-15.2-10.8-19.9-10.2l.3.9c-2.7-.9-5-1.4-3.9.8-.7.5-1.4 1.1-2.1 1.6-1.4.3-2.7.6-4.1 1-1.8-1.1-3.5-2.2-5.3-3.3h-.2.2c-2.1-.8-4.2-1.5-6.3-2.3-1.2-.5-2.2-.8-.9.5.5.5 1.6 1 2.4 1.4.2.3.3.6.3.9-.2.2-.5.4-.7.7-1.7-.5-1.1.6-1.1 1.3-.5.9-1 1.9-1.6 2.8-1.5-.1-2.1.4-2.2 1.4-4.1.2-3.7 3.3-4.4 5.7-.4.6-.8 1.3-1.2 1.9-1.2 0-2.5 0-3.7.1v-1.1c.2-.1.3-.3.3-.5 1.3-1.9-4-3.3-5.8-4.7-1.7-1.3-2.5-1.4-3-1.2-1.3-.4-2.7-.6-3.9-1.2-2.8-1.3-3.2-.7-2.9.3-1.2-.7-2.1-1.5-2.5-2.4.7-.2 1.4-.5 2.1-.7 1.8.3.6-1.1.2-2-.5-1.1-.7-2.1-3-3.7-.1-.3-.2-.6-.2-.8 1.8 0-.7-1.8-1.5-2.9 2.9 1.2 5 1.4 6.7 1.3 2.1-.1.9-1.5-2.7-3.3-.2-.3-.3-.7-.5-1 5.8 3 8.4 2.8 9.2.9 1-.2 4.3 1.8 3.8.1 3.8 1 7.7 2 .9-3.4-2.7-2.5-5.9-4.4-9.3-6.3-1.9-1.3-3.8-2.6-5.6-4-1.7-1.8-3.5-3.3-4.5-2.3-.3.3-1.2.7.5 1.8 3 2 2.5.2 4 .5 1 1.9 3 3.5 6.1 4.9 1.4 1.4 4.1 2.9 4.5 4.2-.4.1-.7.2-1.1.3-2.9-1.8-6.1-4.1-7.9-3.4-3.1-1.1-6-2.9-8.8-5.3-3.9-4.8-4.1-1.6-6.3-2.7-1.1-.1-1 .5-.6 1.2-2.6.1-5.8-.2-5.1 2.3-3.6-1-4.1.3-4 2.1-.5-.2-1.1-.5-1.6-.7-1.3-.5-2.4-.9-2.6-.4-.6 1.4-4.6.4-3.7 2.9l-1.5-.6-4.5-4.2c1.9.6 4.6 1.6 2.9-.4-1.2-1.5-2.6-1.1-3.9-1.6-1.4.4-.9 2-.8 3.4-.4.1-.7.1-1.1.2-1-.4-2.1-.8-3.1-1.3-.7-.5-1.3-1.1-2-1.6-3.1-3.7-3-1-4.8-2.1-.7-.9-.1-1.7-2.3-2.6-1.7-.7-1.1.5-.9 1.3-4.7 0 2.8 4.2 4.3 6.4l.1.1-.1-.1c-3.7-1.6-7.3-3.1-11-4.7-.5-.2-1-.4-1.5-.7.8-.2 1.6-.5 2.4-.7-.7-.4-1.4-1-2-1.3-3.4-1.5-2.7-.1-2.1 1.3-1.9.2-1.6 1.8-2.4 2.8.9.6 1.8 1.1 2.7 1.7.3.4.7.8 1.2 1.1.1.2.2.5.3.7 0 0-.1 0-.1-.1-2-.8-3-.7-3.8-.4-.7 1.2-4.1.7-2 3.7-.4.1-.7.2-1.1.3-.1.7-.8.9-2.2.6.2.5.5 1 .7 1.4-.1 0-.2.1-.4.1-.3.1-.5.3-.5.6.2.3.3.6.5 1-3.5-.8-.3 1.9.4 3.2.7.8 1.5 1.6 2.2 2.4h.1c0 .1.1.1.1.2-.1-.1-.2-.1-.2-.2-2.7-.6-9.6-7.5-8.8-3.1 1.8-.1 3.4 1.7 5 2.9.3.6.6 1.1.9 1.7-1.2-.4-2.1-.5-2.3 0l-.8.8c-8-5.5-14.5-11-19.5-16.1-.1-.2-.3-.3-.4-.5v.5c-.9-.1-1.8-.2-2.6-.3-2.7-.9-4.9-2.8-7.2-4.6 0-.8 3.6.6.1-2.3-3.3-2.7-1.3-2.7-.2-3.1 1.1.2 1.6.2 1.8-.1l-1.2-2.1-.9-.9c-1.1-1.8-3.6-4.4-5.6-4.4-1.9 0-.4 2.6 2.3 5.2 1 1.8-1 1.5-1.4 2.4-1.8-.9-3.5-1.8-5.5-2.9 6.5 6.6 5.8 7.5-3 4.9-2.2-.6-2.8.1-2.2 1.6-1.3-.5-2.4-.9-2.7-.4-1.3-.5-2.4-.9-2.7-.4-1.4-.3-1 1.4-3.6-.4-6.4-4.5-7.6-3.2-8.8-1.9-.9-.1-1.8-.3-2.7-.4-2.4-1.2-4.1-1.5-5.8-1.8-2.4-2.5-.9-2.9-.7-4.1 1.4.5 3.9 2 3.4.8s-1.9-1.5-2.7-1.4c-.4 0-.6.3-.9.5-4.5-1.7-4.1.2-3.9 2-4.3-1.2-6.4-.5-8.8 0-1 .6-2 1.2-3 1.7h-3.7c-3.5-1.2-5.3-1.1-4.5 1.1-2.8-.8-6.6-2.5-6.6-.6-1.5 1.1-7.5-1.4-6.9 1.5l-.9.3c-1.2 0-2.4.1-3.6.1-1.1.2-2.3.5-3.5.7-.9-.1-1.7-.2-2.6-.3-3-1.9-4.8-2.4-5.9-1.8-2.5-.3-2.5 1.6-6 .5-.4 2.5-7.4.8-3.4 6.1.2.4.5.7.7 1.1-1.2.9-4.3.6-3.7 2.9l-147.4-32c-.7-.7-1.6-1.3-3-1.8-1.1-.1-2.1-.2-3.1-.4-.4-.4-.9-.7-1.3-1-5-4.7-5.8-5-8.3-3.7l-2.7-2.7c-.7-.9-1.5-1.8-2.9-2.7-4-3.8-8.9-6.3-11.7-6 0 .2.1.3.2.5-1.6-.5-2.9-.8-2.3.5l-1.2.9-2.4.6c-1-.7-2.1-1.3-3.1-2h-.1.1c-1.2-.5-2.5-.9-3.7-1.4-.7-.3-1.3-.5-.5.3.3.3.9.6 1.4.8.1.2.2.4.2.6l-.4.4c-1-.3-.6.3-.6.7-.3.6-.6 1.1-.9 1.7-.9-.1-1.2.2-1.3.8-2.2.1-2.2 1.6-2.5 3l-3.5-.8c-.8-.5-2.1-1-2.6-1.4-1-.8-1.4-.8-1.8-.7-.8-.2-1.6-.4-2.3-.7-1.7-.8-1.9-.4-1.7.1-.7-.4-1.2-.9-1.5-1.4.4-.1.8-.3 1.3-.4 1 .2.3-.7.1-1.2-.3-.6-.4-1.2-1.8-2.2-.1-.2-.1-.3-.1-.5 1.1 0-.4-1.1-.9-1.7 1.7.7 3 .8 3.9.8 1.2-.1.5-.9-1.6-1.9l-.3-.6c3.4 1.8 4.9 1.7 5.4.5.6-.1 2.5 1 2.2.1 2.2.6 4.5 1.2.5-2-1.6-1.5-3.5-2.6-5.4-3.7-1.1-.8-2.2-1.5-3.3-2.3-1-1-2-1.9-2.6-1.3-.2.2-.7.4.3 1 1.8 1.2 1.5.1 2.4.3.6 1.1 1.8 2.1 3.6 2.9.8.8 2.4 1.7 2.6 2.5-.1.4 0 .1-.2.5-1.8-1.1-4-2.7-5.1-2.3-1.8-.6-3.5-1.7-5.2-3.1-2.3-2.8-2.4-.9-3.7-1.6-.6-.1-.6.3-.4.7-1.5.1-3.4-.1-3 1.4-2.1-.6-2.4.2-2.3 1.2-.3-.1-.6-.3-.9-.4-.8-.3-1.4-.5-1.5-.2-.3.8-2.7.2-2.2 1.7-.3-.1-.6-.2-.9-.4-.9-.8-1.8-1.6-2.6-2.4 1.1.4 2.7.9 1.7-.2-.7-.9-1.5-.6-2.3-.9-.8.3-.6 1.2-.5 2-.2 0-.4.1-.6.1-.6-.2-1.2-.5-1.8-.7-.4-.3-.8-.6-1.2-1-1.8-2.2-1.8-.6-2.8-1.2-.4-.5-.1-1-1.3-1.5-1-.4-.7.3-.5.7-2.7 0 1.7 2.5 2.5 3.7l.1.1-.1-.1c-2.1-.9-4.3-1.8-6.4-2.8-.3-.1-.6-.3-.9-.4.5-.1.9-.3 1.4-.4-.4-.3-.8-.6-1.2-.8-2-.9-1.6-.1-1.2.8-1.1.1-1 1.1-1.4 1.6.5.3 1.1.7 1.6 1l.7.7c.1.1.1.3.2.4h-.1c-1.2-.5-1.7-.4-2.2-.2-.4.7-2.4.4-1.2 2.2-.2 0-.4.1-.7.1-.1.4-.5.5-1.3.3.1.3.3.6.4.8-.1 0-.1 0-.2.1-.2.1-.3.2-.3.4l.3.6c-2-.5-.2 1.1.2 1.9l.6.6-1.2-.3c-1.7-1.1-3.6-2.5-3.3-.7.3 0 .7.1 1 .2l-4.7-1c-2.3-1.9-4.3-3.7-6.1-5.5l-.3-.3v.3c-.5-.1-1-.1-1.5-.2-1.6-.5-2.9-1.7-4.2-2.7 0-.5 2.1.3.1-1.3s-.8-1.6-.1-1.8c.6.1 1 .1 1.1 0-.3-.4-.5-.8-.7-1.2l-.5-.5c-.6-1.1-2.1-2.6-3.3-2.6-1.1 0-.2 1.5 1.4 3.1.6 1-.6.9-.8 1.4-1-.5-2.1-1.1-3.2-1.7 3.8 3.9 3.4 4.4-1.7 2.9-1.3-.4-1.7.1-1.3 1-.8-.3-1.4-.5-1.6-.2-.7-.3-1.4-.5-1.6-.2-.8-.2-.6.8-2.1-.2-3.8-2.6-4.4-1.9-5.1-1.1h-.3c-.7-.8-1.6-1.6-2.7-2.5-1.3-2.4-3-4.7-7.7-6.5l-5.4-.6c-.8-.6-1.6-1.2-2.2-1.8l-.1-.1c0-.1 0-.3.1-.4.6-4 1.1-2.1 1.6-1.2.2 1.1.3 1.6.5 1.7.3-.6.5-1.2.8-1.8.1-.3.2-.7.2-1.1.7-1.6 1.4-4.8.9-6.7-.5-1.8-1.5.5-2.2 3.9-.7 1.6-1.1-.5-1.7-.5v-6.1c-1.8 8.2-2.5 7.9-3.5-1.1-.3-2.3-.8-2.6-1.5-1.5-.1-1.4-.2-2.5-.5-2.7-.1-1.4-.2-2.5-.5-2.6-.2-1.4-1-.5-.8-3.4.7-7.5-.3-8.1-1.3-8.8-.2-.9-.4-1.8-.5-2.7 0-2.6-.3-4.3-.6-6 .7-3 1.3-1.8 2-2 .1 1.5 0 4.3.5 3.5.5-.8.3-2.3 0-2.9-.1-.4-.3-.4-.5-.6-.3-4.7-1.2-3.8-2.2-3-.5-4.4-1.5-6.1-2.4-8.1-.6-.7-1.2-1.5-1.8-2.2-.3-1.1-.7-2.3-1-3.4-.3-3.6-.8-5.3-1.8-3.8-.3-2.9-.4-7-1.5-6.3-1-1-1.3-7.4-2.7-5.9-.1-.3-.3-.5-.4-.8-.3-1.1-.7-2.2-1-3.3-.4-1-.9-2-1.3-3-.2-.8-.3-1.7-.5-2.5.2-3.4 0-5.3-.6-6.1-.5-2.5-1.5-1.8-1.9-5.5-1.5.5-2.4-6.6-4.2-1.1-.1.3-.3.7-.4 1-.9-.9-1.5-3.9-2.6-2.4-.3.2-.7-.6-.9 1.4-.3 2.7.2 2.5.6 2.7.2 1.6.4 3.1.6 4.7-.4 0-.8-.1-1.2-.1-.4-2.6-1.2-1.3-1.8-2.2-.9-.4-1.9-3.5-2.4 4.8-.4 1.3-.7 2.6-1.1 3.8.2.9.3 1.7.5 2.6-.1.8-.2 1.7-.3 2.5l-1.2 2.1.1-.1v.5l-.1.1v-.5c-.1-.5-.3-.7-.4-.6 0-1.6-.2-2.5-.6-2.5-.5 0-.4 1.8-.4 3-.1.2-.3.3-.4.5-.4-3.8-1.3-3.2-2.2-2.9-.1.2-.2.3-.4.4-.1-3.2-1.8-.2-1.1-6.6-.4-3.5-1.2-3.2-2-3.4-1.3-.2-2.6-1.5-4 .2-.2-.3-.3-.6-.5-.8-.2-3.4-.7-4.6-1.5-4.2-.2.5-.5 1-.7 1.4-.5.9-1 1.9-1.5 2.8-.1-.2-.2-.2-.3-.1-.5-1.6-1.2-.8-1.8-.2-.4-.3-.9-.7-1.3-1 0-.5 0-1-.1-1.4.1-1.9.5-4.6-.2-5-.1-3.3-.8-2.6-1.3-2.9-.7.4-1.3 1.6-2 3.6-.2-.2-.3-.4-.5-.6.3-3.4 1-3.3 1.6-5.7-1-1-2 2.6-3 2.6-1.2 2.2-2.3 4.4-3.5 6.7l-3.6 6.9c-.9-.1-1.8.1-2.5.5.1.3.1.6.3.9-1.8-.3-3.3-.4-2.5 1.9-.4.8-.8 1.6-1.3 2.3-.9.7-1.7 1.4-2.6 2.1-1.2-.8-2.4-1.6-3.6-2.5h-.1.1c-1.4-.4-2.8-.7-4.2-1.1-.8-.2-1.5-.4-.5.7.4.4 1.1.7 1.7 1 .1.3.2.7.3 1-.1.3-.3.6-.4.9-1.2-.1-.7.9-.6 1.7l-.9 3.6c-1 .2-1.4 1-1.3 2.1-2.6 1.2-2.3 4.6-2.6 7.5-.2.8-.5 1.6-.7 2.5-.8.3-1.6.7-2.4 1 0-.7 0-.5-.1-1.3.1-.2.2-.4.2-.6.8-2.5-2.7-2.7-4-3.9-1.1-1.1-1.7-1-2-.6-.9-.1-1.8-.1-2.6-.4-1.9-.8-2.1-.1-1.9 1-.8-.5-1.4-1.2-1.8-2.1.5-.4.9-.9 1.4-1.3 1.2-.1.3-1.4 0-2.3-.4-1.1-.6-2.2-2.1-3.4-.1-.3-.1-.6-.2-.9 1.2-.4-.5-1.9-1.1-2.9 1.9.6 3.3.3 4.4-.2 1.3-.6.5-1.9-1.9-3.1-.1-.3-.2-.7-.4-1 3.9 2 5.5 1.1 6-1.2.6-.5 2.9.9 2.5-.8 2.5.2 5.1.4.4-4-1.9-2.2-4.1-3.5-6.3-4.8-1.3-1-2.6-2-3.8-3.1-1.2-1.6-2.4-2.8-3-1.5-.2.4-.7 1.1.4 1.9 2.1 1.6 1.6-.4 2.6-.4.7 1.9 2.1 3.2 4.2 4 1 1.2 2.8 2.2 3.1 3.7-.2.2-.5.4-.7.6-2-1.3-4.2-3.1-5.3-1.9-2.1-.5-4-1.8-5.9-3.8-2.8-4.4-2.7-.8-4.2-1.5-.7.1-.6.8-.4 1.5-1.7.7-3.8 1.2-3.2 3.9-2.4-.3-2.6 1.3-2.5 3.3-.4-.1-.7-.2-1.1-.4-.9-.3-1.6-.4-1.7.2-.3 1.8-3 1.6-2.3 4.1-.3-.1-.6-.2-1-.3-1-1.2-2.1-2.4-3.1-3.6 1.3.2 3 .7 1.9-1.2-.9-1.4-1.7-.6-2.6-.8-.9.9-.5 2.5-.4 4-.2.2-.5.3-.7.5-.7-.2-1.4-.4-2.1-.7l-1.4-1.4c-2.2-3.5-2-.4-3.2-1.2-.5-.8-.2-1.9-1.6-2.4-1.1-.4-.7.8-.5 1.6-3 1.1 2 4.1 3.1 6.1l.1.1-.1-.1c-2.4-.9-4.9-1.7-7.3-2.6-.3-.1-.7-.3-1-.4.5-.5 1-.9 1.5-1.4-.4-.3-.9-.8-1.3-1-2.3-.9-1.8.6-1.3 2-1.2.7-1 2.4-1.4 3.7.6.4 1.2.9 1.8 1.3.2.3.5.7.8 1 .1.2.2.5.2.7h-.1c-1.3-.5-1.9 0-2.5.5-.4 1.5-2.6 1.7-1.1 4.6-.2.2-.5.4-.7.6 0 .8-.5 1.2-1.4 1.2.2.5.3 1 .5 1.4-.1.1-.2.1-.2.2-.2.2-.3.5-.3.8.1.3.2.6.3 1-2.3-.1-.1 2.2.4 3.6.5.7 1 1.5 1.5 2.2h.1c0 .1 0 .1.1.2l-.2-.2c-1.8-.1-6.5-6.1-5.9-1.3 1.2-.5 2.3 1 3.4 2.1.2.6.4 1.1.7 1.7-.8-.1-1.4 0-1.5.6-.2.4-.3.7-.5 1.1-5.5-4.3-9.9-8.9-13.4-13.4-.1-.1-.2-.3-.3-.4v.5c-.6.1-1.1.2-1.7.3-1.8-.3-3.3-2-4.9-3.4-.1-.9 2.3-.2 0-2.6-2.3-2.3-1-2.7-.3-3.5.7 0 1.1-.2 1.2-.5-.3-.7-.6-1.4-.9-2-.2-.3-.4-.5-.6-.8-.8-1.8-2.5-4.1-3.9-3.6-1.3.4-.1 3 1.7 5.3.8 1.7-.6 2-.8 3.1-1.2-.6-2.4-1.2-3.7-1.9 4.5 5.9 4.1 7-1.7 6.3-1.5-.2-1.8.8-1.3 2.4-.9-.3-1.6-.4-1.8.2-.9-.3-1.6-.4-1.8.2-.9 0-.6 1.8-2.3.4-4.4-3.5-5-1.8-5.8 0-.6.1-1.2.2-1.8.2-1.6-.8-2.7-.7-3.8-.6-1.6-2.2-.7-3.1-.7-4.4.9.2 2.6 1.3 2.3.1-.4-1.2-1.3-1.2-1.8-.9-.3.1-.4.5-.5.8-3-.8-2.7 1.3-2.4 3.3-2.8-.3-4.2 1-5.7 2.2l-1.8 2.7-2.4.9c-2.3-.5-3.5 0-2.9 2.3-1.9-.2-4.4-1.3-4.3.9-.9 1.7-4.9.3-4.4 3.4l-.6.6c-.8.3-1.6.7-2.3 1-.7.6-1.5 1.1-2.2 1.7-.6.1-1.1.2-1.7.3-1.4-1-2.5-1.4-3.2-1.2-.6-1-1.9-1.2-2.6-1.2-.4 0-.6.3-.9.5-4.5-1.7-4.1.2-3.9 2-4.3-1.2-6.4-.5-8.8 0-1 .6-2 1.2-3 1.7h-3.7c-3.5-1.2-5.3-1.1-4.5 1.1-2.8-.8-6.6-2.5-6.6-.6-1.5 1.1-7.5-1.4-6.9 1.5l-.9.3c-1.2 0-2.4.1-3.6.1-1.1.2-2.3.5-3.5.7-.9-.1-1.7-.2-2.6-.3-3-1.9-4.8-2.4-5.9-1.8-2.5-.3-2.5 1.6-6 .5-.4 2.5-7.4.8-3.4 6.1.2.4.5.7.7 1.1-1.3 1-4.4.6-3.7 2.9 0 .3-.2.5-.2.7H820c-.5-.6-1.1-1-2.1-1.3-.7.1-1.4.2-2 .3l-.9-.9c-3.5-4-4-4.2-5.5-2.1-.6-.8-1.3-1.5-1.9-2.3-.5-.8-1.1-1.7-2-2.4-2.8-3.3-6.1-4.9-7.8-3.9 0 .2.1.4.2.5-1.1-.2-1.9-.2-1.4 1.1-.2.5-.5.9-.7 1.4l-1.5 1.2c-.7-.5-1.4-1-2.1-1.4h-.1.1c-.8-.2-1.6-.4-2.5-.6-.5-.1-.9-.2-.3.4.2.2.6.4 1 .6.1.2.1.4.2.6-.1.2-.2.4-.3.5-.7-.1-.4.5-.4 1-.2.7-.3 1.4-.5 2.1-.6.1-.8.6-.8 1.2-1.4.7-1.3 2.4-1.5 4h-2.3c-.6-.4-1.4-.6-1.8-1-.7-.6-1-.6-1.2-.3-.5-.1-1 0-1.5-.2-1.1-.4-1.2 0-1.1.6-.5-.3-.8-.7-1-1.2l.8-.8c.7-.1.2-.8 0-1.4-.2-.7-.3-1.3-1.2-2 0-.2-.1-.3-.1-.5.7-.3-.3-1.1-.7-1.7 1.1.4 2 .2 2.6-.1.8-.4.3-1.1-1.1-1.8-.1-.2-.1-.4-.2-.6 2.3 1.2 3.2.7 3.5-.7.4-.3 1.7.5 1.5-.5 1.5.1 3 .2.2-2.4-1.1-1.3-2.4-2.1-3.7-2.8-.8-.6-1.5-1.2-2.3-1.8-.7-.9-1.4-1.7-1.8-.9-.1.3-.4.6.2 1.1 1.2.9 1-.2 1.5-.3.4 1.1 1.2 1.9 2.4 2.4.6.7 1.6 1.3 1.8 2.1-.1.5 0 .1-.1.6-1.2-.8-2.7-2.1-3.4-1.3-1.2-.3-2.4-1-3.5-2.2-1.6-2.6-1.6-.5-2.5-.9-.4.1-.4.4-.2.9-1 .4-2.2.7-1.9 2.3-1.4-.1-1.6.8-1.5 1.9-.2-.1-.4-.1-.6-.2-.5-.2-.9-.2-1 .1-.2 1-1.8.9-1.3 2.4-.2 0-.4-.1-.6-.2l-1.8-2.1c.7.1 1.8.4 1.1-.7-.5-.8-1-.3-1.5-.5-.5.5-.3 1.5-.2 2.4-.1.1-.3.2-.4.3-.4-.1-.8-.3-1.2-.4l-.8-.8c-1.3-2-1.2-.2-1.9-.7-.3-.5-.1-1.1-.9-1.4-.7-.3-.4.5-.3 1-1.8.7 1.2 2.4 1.8 3.6v0c-1.4-.5-2.9-1-4.3-1.5-.2-.1-.4-.1-.6-.2.3-.3.6-.5.9-.8-.3-.2-.6-.5-.8-.6-1.3-.5-1 .3-.7 1.2-.7.4-.6 1.4-.8 2.2.4.3.7.5 1.1.8.1.2.3.4.5.6 0 .1.1.3.1.4-.8-.3-1.1 0-1.5.3-.2.9-1.5 1-.7 2.7-.1.1-.3.2-.4.3 0 .5-.3.7-.8.7.1.3.2.6.3.8l-.1.1c-.1.1-.2.3-.2.5.1.2.1.4.2.6-1.3-.1-.1 1.3.2 2.1.1.2.3.4.4.6h-.8c-1.1-.9-2.4-2-2.2 0 .2-.1.4-.1.6 0h-3.1c-1.6-1.5-3-3.1-4.2-4.7-.1-.1-.1-.2-.2-.2v.3c-.3.1-.7.1-1 .2-1.1-.2-2-1.2-2.9-2 0-.5 1.4-.1 0-1.5-1.3-1.3-.6-1.6-.2-2 .4 0 .6-.1.7-.3-.2-.4-.4-.8-.5-1.2-.1-.1-.2-.3-.4-.5-.5-1-1.5-2.4-2.3-2.1-.7.3-.1 1.8 1 3.1.4 1-.3 1.2-.5 1.8-.7-.3-1.4-.7-2.2-1.1 2.6 3.4 2.4 4.1-1 3.7-.9-.1-1.1.5-.8 1.4-.5-.2-.9-.2-1 .1-.5-.2-.9-.2-1 .1-.5 0-.3 1.1-1.4.3-2.6-2-3-1-3.4 0-.1 0-.1 0-.2.1-.5-.7-1.1-1.4-1.9-2.1-.9-2.4-2.2-4.5-5.3-5.4-1.2.2-2.3.4-3.5.6-.5-.5-1.1-1-1.5-1.5-5.9-6.9-6.8-7.2-9.4-3.6-1.1-1.3-2.2-2.6-3.2-4-.8-1.4-1.8-2.8-3.4-4-4.8-5.7-10.3-8.4-13.4-6.7.1.3.1.6.3.9-1.8-.3-3.3-.4-2.5 1.9-.4.8-.8 1.6-1.3 2.3-.9.7-1.7 1.4-2.6 2.1-1.2-.8-2.4-1.6-3.6-2.5h-.1.1c-1.4-.4-2.8-.7-4.2-1.1-.8-.2-1.5-.4-.5.7.4.4 1.1.7 1.7 1 .1.3.2.7.3 1-.1.3-.3.6-.4.9-1.2-.1-.7.9-.6 1.7l-.9 3.6c-.3.1-.6.2-.8.4.2-1.5 0-2.3-.6-2.6-.4.1-.8.3-1.1.5-.8.3-1.5.6-2.3.9 0-.3-.1-.4-.2-.4.1-2.1-.8-2.1-1.5-2.3-.3-.8-.5-1.7-.8-2.5.1-.5.3-1 .4-1.4.7-1.7 2-3.7 1.5-4.9 1-3.2.2-3.3-.2-4.3-.8-.4-1.8 0-3 1.1-.1-.4-.2-.7-.2-1.1 1.4-2.9 2-1.9 3.4-3.4-.6-2.1-2.7.1-3.5-1-1.6.6-3.2 1.2-4.8 1.9-.8-.6-1.7-1.1-2.5-1.5-1.3-1-2.6-2-3.8-3.1-1.2-1.6-2.4-2.8-3-1.5-.2.4-.7 1.1.4 1.9 2.1 1.6 1.6-.4 2.6-.4.7 1.9 2.1 3.2 4.2 4 .3.4.7.7 1 1-.8.3-1.6.6-2.4 1-.6-.1-1.1-.1-1.4.3-2.1-.5-4-1.8-5.9-3.8-2.8-4.4-2.7-.8-4.2-1.5-.7.1-.6.8-.4 1.5-1.7.7-3.8 1.2-3.2 3.9-2.4-.3-2.6 1.3-2.5 3.3-.4-.1-.7-.2-1.1-.4-.9-.3-1.6-.4-1.7.2-.3 1.8-3 1.6-2.3 4.1-.3-.1-.6-.2-1-.3-1-1.2-2.1-2.4-3.1-3.6 1.3.2 3 .7 1.9-1.2-.9-1.4-1.7-.6-2.6-.8-.9.8-.5 2.5-.4 4-.2.2-.5.3-.7.5-.7-.2-1.4-.4-2.1-.7l-1.4-1.4c-2.2-3.5-2-.4-3.2-1.2-.5-.8-.2-1.9-1.6-2.4-1.1-.4-.7.8-.5 1.6-3 1.1 2 4.1 3.1 6.1l.1.1-.1-.1c-2.4-.9-4.9-1.7-7.3-2.6-.3-.1-.7-.3-1-.4.5-.5 1-.9 1.5-1.4-.4-.3-.9-.8-1.3-1-2.3-.9-1.8.6-1.3 2-1.2.7-1 2.4-1.4 3.7.6.4 1.2.9 1.8 1.3.2.3.5.7.8 1 .1.2.2.5.2.7h-.1c-1.3-.5-1.9 0-2.5.5-.4 1.5-2.6 1.7-1.1 4.6-.2.2-.5.4-.7.6 0 .8-.5 1.2-1.4 1.2.2.5.3 1 .5 1.4-.1.1-.2.1-.2.2-.2.2-.3.5-.3.8.1.3.2.6.3 1-.8 0-1.1.2-1 .7-.2 0-.5.1-.7.2-.1 0-.3.1-.4.2-1.7.5-2-2.6-4.2-.6-.5-3.7-3.1-2.2-5.1-2.1-.8-.3-1.3-1.6-2.7-.6-.3-.4-.7-.9-1-1.3-.1-.1-.2-.3-.3-.4v.5c-.6.1-1.1.2-1.7.3-1.8-.3-3.3-2-4.9-3.4-.1-.9 2.3-.2 0-2.6-2.3-2.3-1-2.7-.3-3.5.7 0 1.1-.2 1.2-.5-.3-.7-.6-1.4-.9-2-.2-.3-.4-.5-.6-.8-.8-1.8-2.5-4.1-3.9-3.6-1.3.4-.1 3 1.7 5.3.8 1.7-.6 2-.8 3.1-1.2-.6-2.4-1.2-3.7-1.9 1.7 2.2 2.7 3.7 3 4.7-1.2-2.2-2.6-4.4-8.1-6-1.6-1.7-3.6-3.1-8.4-2.7-1.8.6-3.5 1.3-5.3 1.9-.8-.2-1.7-.4-2.4-.7-9.5-3.7-10.9-3.7-14.6.5-1.7-.7-3.5-1.5-5.2-2.2-1.4-.9-3-1.8-5.5-2.2-7.6-3.1-16.3-3.4-20.7-.6.1.2.3.5.5.7-2.8.4-5.1.9-3.6 2.6-.6.8-1.2 1.7-1.8 2.5-1.3.9-2.5 1.9-3.8 2.8-1.9-.2-3.8-.5-5.6-.7 0 0-.1 0-.2.1 0 0 .1 0 .1-.1-2.1.2-4.3.5-6.4.7-1.3.1-2.3.3-.8.9.6.2 1.7.2 2.6.2.2.2.4.5.5.7-.2.3-.4.6-.6 1-1.8.3-1 1.1-.8 1.7-.3 1.1-.7 2.3-1.1 3.4-1.5.6-2 1.4-1.9 2.3-3.9 2.1-3.1 4.9-3.4 7.6-.3.8-.6 1.6-.8 2.4l-3.6 1.8c-.1-.6-.1-.4-.2-1.1.2-.2.3-.4.3-.6 1-2.5-4.3-1.3-6.3-1.9-1.8-.5-2.6-.2-3.1.3-1.3.2-2.7.6-3.9.6-2.9.1-3.2.8-2.8 1.6-1.3-.1-2.2-.5-2.8-1.2.7-.6 1.3-1.1 2-1.7 1.7-.5.4-1.3-.1-2.1-.6-.8-1-1.7-3.5-2.1-.1-.2-.3-.5-.4-.7 1.8-.8-.9-1.4-1.9-2.1 3-.2 5.1-1 6.7-1.9 2-1.1.6-1.8-3.1-1.9-.2-.2-.4-.5-.6-.7 6.1.2 8.5-1.2 9-3.4.9-.7 4.4-.3 3.7-1.6 3.8-.8 7.7-1.6.3-3.7-3-1.2-6.4-1.5-9.9-1.8l-6-1.2c-1.9-.9-3.9-1.5-4.7-.1-.2.5-1 1.2.7 1.5 3.2.6 2.5-1 3.9-1.4 1.3 1.3 3.5 2 6.6 1.9 1.6.7 4.4.9 5 2-.3.3-.7.5-1 .8-3.1-.4-6.5-1.1-8.1.4-3.2.4-6.3 0-9.3-1-4.5-2.7-4.2.4-6.5.3-1 .4-.9.9-.4 1.5-2.5 1.3-5.6 2.5-4.6 4.6-3.6.7-3.9 2.2-3.5 3.8-.6 0-1.1.1-1.6.1-1.3.1-2.4.3-2.6.9-.3 1.6-4.4 2.5-3.1 4.5-.5 0-1 .1-1.5.1-1.7-.6-3.3-1.3-5-1.9 1.9-.3 4.7-.6 2.8-1.8-1.4-.9-2.6.2-4 .3-1.3 1.1-.6 2.4-.3 3.7-.3.2-.7.5-1 .7-1.1.1-2.1.2-3.2.2-.7-.2-1.5-.4-2.2-.7-3.5-2.2-3.1.4-4.9.2-.8-.5-.4-1.6-2.6-1.5-1.7.1-1 1-.7 1.6-4.5 2.2 3.4 2.8 5.1 4.1l.1.1s-.1 0-.1-.1c-3.8.2-7.5.4-11.3.6-.5 0-1 0-1.6.1.7-.6 1.5-1.2 2.2-1.8-.7-.1-1.5-.4-2.1-.3-3.5.1-2.6 1.2-1.8 2.2-1.8 1.1-1.3 2.5-1.9 3.8 1 .1 1.9.3 2.9.4.4.2.8.4 1.3.6.1.2.3.4.4.6h-.1c-2.1.1-3 .7-3.7 1.4-.5 1.5-3.9 2.5-1.4 4.5-.4.3-.7.5-1 .8 0 .7-.7 1.2-2 1.6.3.4.6.7.9 1.1l-.3.3c-.3.3-.4.5-.4.9.2.2.4.5.6.7-3.5.8 0 1.9.9 2.9.8.4 1.7.9 2.5 1.3h.2l.1.1c-.1 0-.2-.1-.3-.1-2.7.6-10.4-2.8-9 1.1 1.7-.9 3.5 0 5.3.5.4.4.7.8 1.1 1.2-1.3.2-2.1.5-2.2 1.1-.2.4-.4.7-.7 1.2-8.6-1.6-15.7-3.9-21.3-6.5-.2-.1-.3-.2-.5-.2 0 .1 0 .3.1.4-.9.3-1.7.6-2.6.9-2.8.4-5.2-.4-7.7-1.1-.2-.8 3.5-1.1-.2-2.2-3.6-1.1-1.7-2-.7-2.9 1.1-.3 1.6-.6 1.7-.9l-1.5-1.5c-.3-.1-.6-.3-1-.4-1.3-1.2-4.1-2.6-6.1-1.6-1.9.9.1 2.7 3 4 1.3 1.2-.8 2-.9 3-1.8-.1-3.7-.1-5.8-.2 7.3 3.4 6.8 4.5-2.1 6.1-2.2.4-2.7 1.4-1.8 2.6-1.3.1-2.4.3-2.7.9-1.3.1-2.4.3-2.6.9-1.4.3-.7 1.8-3.5 1.3-6.9-1.3-7.8.4-8.8 2.2l-2.7.9c-2.5 0-4.2.5-5.9 1-2.6-1.3-1.3-2.4-1.3-3.6 1.4-.2 4 .1 3.4-.8-.6-.9-2.1-.5-2.8-.1-.4.2-.5.6-.8.9-4.6.5-3.9 2.1-3.5 3.8-4.3.8-6.2 2.5-8.4 4.1-.9 1-1.7 2-2.6 3.1-1.2.6-2.4 1.1-3.5 1.7-3.5.4-5.2 1.4-4.2 3.1-2.8.5-6.7.6-6.5 2.5-1.3 1.8-7.4 2.2-6.4 4.7-.3.2-.6.5-.9.7-1.2.6-2.3 1.2-3.5 1.8-1.1.8-2.1 1.5-3.2 2.3-.8.3-1.7.6-2.5.9-3.1-.5-5-.1-5.9 1-2.5.9-2.2 2.7-5.7 3.2 0 2.6-7 4.2-2.3 7.5.3.2.5.5.8.7-1.1 1.5-4.1 2.6-3.1 4.5l-135.4 34.6c.6 2.6 1 8.4 1.7 10 1.1-.5 1.1 6.3 1.4 11.2 1-1.9 1.5 1.1 1.8 7.2.3 2 .6 4.1 1 6.1l1.8 4.5c.9 3.8 1.9 7.1 2.3 14.6.9-.9 1.9-2 2.2 6 .2.4.4.6.5 1.3.2 1.2.5 3.8-.1 4.9-.5 1-.3-3.5-.5-6-.7 0-1.3-2.3-2.1 2.3.3 2.9.6 5.9.6 10.2.2 1.5.3 3.1.5 4.7 1 1.7 2.1 3.3 1.3 15.2-.3 4.8.5 3.6.7 6 .3.4.5 2.3.5 4.6.3.4.5 2.3.5 4.6.7-1.5 1.3-.7 1.5 3.2.9 15.4 1.6 16.3 3.5 3.6 0 3.6-.1 6.8-.1 10 .6.3 1 3.9 1.7 1.6.7-5.2 1.8-8.5 2.3-5.3.5 3.5-.2 8.3-.9 10.6-.1.6-.2 1.2-.3 1.7-.3.8-.6 1.6-.8 2.5-.2-.2-.4-1.1-.5-3-.5-1.7-1.1-5.1-1.7 1.2-.7 6.5-.9.1-1.3.4-.4 4.3-.9 8.5-.6 13.3.2 1.5.3 3 .5 4.5l.2-.2c0 .3-.1.6-.1.9-1.5 9.7-2.8 22-3.8 36.9.3.4.4.7.7 1.1.3.1.5 1.6.6 3.8.2-.7.5-1.3.7-1.9.3-3.1.8-6.2.3-9.2 2.3-2.4.3 11 .7 15.6.3-1.5.5-2.9.8-4.4.6-1.6 1.2-7.6 1.7-1.5.1-.3.3-.7.4-1 .2 0 .3.2.5.7.1.2.1.4.2.6l.6-1.5c.2 2.4.5 3.5.9 3.5.1.6.3 1.2.4 1.8 1.1-4.4 1.7 1.6 2.6 2.4.4 1.4.7 2.9.8 6.5v.2c.1-.2.2-.5.3-.7.1-.9.2-1.6.3-2.3.1-1.7.2-3.3.2-5 .7 1.1 1.6.2 2.2 3.3.6-1.5 1.2-3 1.3 3.1 0 1.1-.1 2.4-.2 3.7-.3-1.3-.7-2.6-1-3.8v2.7l.3 19.7c.8-3 1.1-16.7 2.4-8.9.4-.6.9-1.9.9 1.2 0 3.8-.5 3-.8 4.5-.1 3.3 1.4 2.5.1 8.6-.1 1.2-.3 2.5-.4 3.8 0 1.8.1 3.7.1 5.5.1.6.3 1.2.4 1.8.7-.6 1.5-1.8 2.1.5.1 2.4.7 4.5.2 7-.7 3.3-.8-1.5-1-4.8-.4 2.9-.7 5.8-1.1 8.6 0 .9 0 1.8.1 2.6 1.1-2.2 1.6 4.9 2.6 5.5.4.2.5 2.2.5 4.5v2.9c.9-.7 1.8-.2 2.2 6.1 1.2-1.7 1.9 3.6 2.7 8 .3-.8.6-1.1.9.7 0 4 1.8 3.4.2 11.2-.6 5.3-.8 10.6-.6 16.1.8 2.8.4 8.7.2 14.1.2.6.3 1.2.4 1.7.6-1.1.7-5.9 1.1-8.7 0-5.5.3-9.3 1.1-11.5-.2-2.6-1.1-1.2-.8-6.9.2-3 .6-1.7.9-1.3.8 1.4.5 4.7-.1 8.1-.2 3.5-.5 7-.7 10.5-.1 6-.3 12-1 17.2-1.2 12.9-1.7 6.2-2.1-.5-.8 1.3-.6-4.8-.9-6.4-1.3-.9-2.1-5.1-1.9-15.6-.1.3-.3.7-.4 1.1-.1 6.5-.5 8.8-1.1 5.4-.5-2.8-.9-6.4-1.1-11.6-.4 1.7-.7 6.4-1.2 3.3-.1.2-.3.4-.4.6-.3 4.3-.8 4.9-1.2 6-.4.8-.9 3.2-1.2.2-.3-1.1-.6-2.3-1-3.4-.4 1-.6 2.7-.7 4.9.5-.7.9-.3.9 4.8 0 2.2.2 4.5.4 6.8.3.8.4 2.2.2 5.3-.3 3.4.4 12.6-1.1 10.9-.1 0-.3-.2-.4-.5-.4.2-.3.2-.6.4.3 2 .7 4.1 1 6.2.5.5.9 1 1.4 1.5 1.5.6 3.2-.8 4.4 5.9.5-.2 1 .6 1.3 3.2.7.6 1.3 1.3 2 1.8.4-.2.8-1.6 1 1.5.2.3.4.7.6 1 .1-.2.3-.5.4-.8 0-1.5 0-3.5.1-4.5.3-2.6.4-.8.5 1.3.1 3.8.3 7.4.4 11.2v-.3.3c-.1 3.3-.3 6.5-.4 9.8.5 2.2 1.1 4.4 1.6 6.6.5 1 1 2.1 1.5 3.1 1-2.5 1.3 1.5 1.5 6.2.1-.3.3-.6.4-.8 1.6 7.8 1.4 22.8-.4 36-.2 4.4-.7 7.1-1.3 9.5-.4 3-.8 6-1.3 9 2.4 6.4 2.4 8.8.3 25.3-.2 1.2-.3 2.8-.4 4.2.4 3 .7 6.1 1.1 9.1.2 8.3-.6 11.9-1.6 14.6-.9 9.6-2.2 12-3.5 14.1.6-.5 1.5-2.2 2.7-5.2-.4 2.3-.7 4.4-1.1 6.4.6.3.8 2.7 1.8 1.3 1.3-3.2 2.8-5.2 3.1-3 .3 2.3-1.1 5.3-2.1 6.7-.2.4-.3.7-.5 1.1-.4.4-.8.9-1.2 1.5-.2-.2-.3-.8-.3-2-.4-1.2-.7-3.5-2 .5-1.3 4.1-1-.1-1.5 0-.8 2.7-1.8 5.3-2 8.5 0 1 .1 2 .2 3 .1-.1.2-.1.3-.1-.1.2-.2.3-.2.5-.2.6-.5 1.2-.7 1.8.6 2.3-.1 3.2-.3 4.7.1 3.6 1 8-1.2 8.9 1.2 3.8-.6 4.4-.3 7.3 0 .2.1.4.1.7v.1c.1.4.1.9.1 1.3.3-.1.4.3.4 1.8l.6-.6c.2 0 .4.2.5.5 0 .1.1.3.1.4.3-.3.6-.6.8-.9 0 1.6.2 2.4.7 2.4l.3 1.2c1.7-2.6 1.8 1.3 2.7 1.9.3.9.6 2 .3 4.3v.1l.4-.4c.2-.5.4-1 .6-1.4.2-1.1.5-2.1.7-3.2.7.8 1.7.4 2.1 2.5.8-.9 1.7-1.7 1.1 2.2-.1.7-.4 1.5-.6 2.3-.3-.9-.5-1.8-.8-2.6-.1.6-.1 1.2-.2 1.8-.5 4.3-1 8.5-1.5 12.8 1.2-1.8 2.9-10.6 3.5-5.3.5-.3 1.2-1.1.9.9-.3 2.5-.9 1.9-1.4 2.7-.4 2.1 1.3 1.8-.7 5.6-.3.8-.5 1.6-.8 2.4-.1 1.2-.3 2.4-.4 3.6l.3 1.2c.9-.3 1.8-.9 2.3.6-.1 1.5.4 3-.5 4.5-1.1 2-.8-1.1-.7-3.3l-2.1 5.4c-.1.6-.1 1.2-.2 1.7 1.5-1.3 1.4 3.4 2.4 3.9.4.2.3 1.5.1 3-.1.6-.1 1.2-.2 1.8 1.1-.3 2 .2 1.9 4.3 1.6-.9 1.8 2.7 2.2 5.6.5-.5.8-.6.9.6-.4 2.6 1.7 2.5-.9 7.3-1.2 3.3-1.9 6.7-2.2 10.3.2.7.3 1.5.2 2.5l.6 4.2c.2-.6.4-1.3.6-1.8.5-3.6 1.2-6 2.3-7.3 0-1.7-1.1-1-.2-4.6.5-1.9.8-1 1.1-.7.8 1 .1 3.1-.8 5.2-.6 2.2-1.2 4.4-1.8 6.7-.3 1.5-.6 3-.9 4.4.4 2.8.7 5.5 1.1 8.3-.6 1.5.7 5.1-.6 6.2-.9-2.4-.3-3.4-2-5.9-.2.1-.4.3-.6.4.7 2.2.9 3.9.6 5.2-.5.6-.6 2.1-2.4.4-.7.8-1.9-1.4-2.8-2.6-.3-.3-.5-.5-.8-.7l-1.4 1.4c-.1 1.3-.1 2.8-1.3 2.7 0 .3 0 .4-.2.4.2 1.4.3 2.7.5 4 .1.7.2 1.3.3 2-.2 1-.7 1.3-1.5 1 .1.3.2.8.2 1.3.7.5 1.4 1 2 1.5.4-.1 1.1-.9 1 1.1.2.2.3.5.5.7.2-.1.4-.3.6-.5.2-1 .3-2.3.6-2.9.6-1.6.6-.5.4 1-.2 2.4-.4 4.9-.6 7.3v-.2.2c-.5 2.1-.9 4.2-1.4 6.3l1.2 4.5c.4.8.9 1.5 1.3 2.2 1.3-1.5 1.3 1.1 1.1 4.3.2-.2.4-.3.5-.4 1 5.3-.6 14.9-3.8 23.2-.7 2.8-1.5 4.5-2.3 5.9-.8 1.9-1.5 3.7-2.3 5.6 2.1 4.6 1.9 6.1-2.1 16.4-.3.8-.6 1.8-.8 2.7.1 2 .2 4 .3 6.1-.5 5.4-1.8 7.6-3.1 9.2-.4 1.3-.8 2.4-1.2 3.3v.3c.6.7 1.2 1.4 0 5.9-.5 1.8.2 1.4.1 2.4.2.2.2.9.1 1.8.2.2.2.9.1 1.8.5-.5.9-.1.8 1.3-.2 5.9.1 6.3 2.1 1.7-.2 1.4-.4 2.6-.6 3.8.4.2.4 1.6 1 .8.8-1.9 1.6-3.1 1.8-1.8.2 1.4-.6 3.1-1.2 3.9l-.3.6c-.2.3-.5.6-.7.9-.1-.1-.2-.5-.2-1.2-.3-.7-.4-2-1.2.3-.8 2.4-.6-.1-.9 0-.5 1.6-1.1 3.1-1.2 5 0 .6.1 1.2.1 1.8.1 0 .1-.1.2 0 0 .1-.1.2-.1.3-.9 2.1-1.8 4.5-2.7 7.3v5.3c.1-.4.1-.7 0-1.1 1.1-.5.5 1.7 0 3.7v1.4c.1-.2.2-.5.3-.7.5-.5 1.2-2.7 1.2-.4.1-.1.2-.2.3-.4.1 0 .2.1.3.3 0 .1 0 .2.1.2l.5-.5c0 .9.1 1.4.4 1.4.1.2.1.5.2.7 1-1.5 1 .8 1.6 1.1.2.5.3 1.2.2 2.5v.1c.1-.1.2-.2.3-.2.1-.3.2-.6.3-.8.1-.6.3-1.2.4-1.9.4.5 1 .2 1.2 1.5.5-.5 1-1 .7 1.3-.1.4-.2.9-.3 1.4-.2-.5-.3-1-.5-1.6 0 .3-.1.7-.1 1l-.9 7.5c.7-1.1 1.7-6.2 2.1-3.1.3-.2.7-.6.6.5-.2 1.4-.5 1.1-.8 1.6-.3 1.2.8 1.1-.4 3.3-.2.5-.3.9-.5 1.4-.1.7-.1 1.4-.2 2.1.1.2.1.5.2.7.5-.1 1.1-.5 1.4.4-.1.9.2 1.8-.3 2.6-.6 1.2-.5-.6-.4-1.9-.4 1.1-.8 2.1-1.2 3.2 0 .3-.1.7-.1 1 .9-.7.8 2 1.4 2.3.2.1.2.9.1 1.7 0 .4-.1.7-.1 1.1.7-.2 1.2.1 1.1 2.5.9-.5 1 1.5 1.3 3.2h.1c.1-.1.2-.1.3 0h1564.8c.9-1.3 2.1-2.8 3.7-4.8.4-.5.9-1.3 1.3-2 .3-2 .6-3.9.9-5.9 1.6-4.7 3.2-6 4.8-6.6.7-.9 1.3-1.7 1.8-2.3v-.3c-.4-1.1-.8-2.1 1.2-5.5.8-1.4.1-1.4.3-2.3-.2-.3 0-1 .3-1.7-.2-.3 0-1 .3-1.7-.6.1-.8-.4-.5-1.8 1.4-5.4 1.2-6-1.6-2.9.5-1.1.9-2.1 1.4-3.1-.3-.4-.1-1.7-.8-1.4-1.1 1.3-2.2 1.8-2 .5.1-1.4 1.2-2.5 1.9-2.9.1-.2.3-.3.4-.4.3-.1.5-.2.8-.4.1.2.1.5-.1 1.2.1.8 0 2.2 1.2.5 1.2-1.7.5.4.8.5.8-1.2 1.6-2.3 2.1-3.9.1-.6.2-1.1.3-1.7-.1 0-.1 0-.2-.1l.2-.2c1.3-1.4 2.6-3.1 4-5.1l1.1-5c-.1.3-.2.6-.2 1-1.1-.3-.1-1.9.8-3.5l.3-1.3-.4.4c-.5.2-1.7 1.8-1.2-.4-.1 0-.2.1-.4.1-.1-.1-.2-.2-.2-.5v-.3c-.2.1-.4.1-.6.2.2-.9.2-1.4-.1-1.6v-.8c-1.2.8-.8-1.4-1.2-2-.1-.6-.1-1.3.4-2.5v-.1c-.1 0-.2.1-.3.1-.2.2-.3.4-.5.6-.3.5-.5 1-.8 1.5-.3-.7-.9-.8-.9-2.1-.6.2-1.1.3-.4-1.6.1-.3.4-.7.6-1.1 0 .6.1 1.2.1 1.7l.3-.9c.8-2.1 1.6-4.3 2.4-6.4-.9.6-2.8 4.7-2.6 1.6-.3 0-.8.2-.4-.8.5-1.2.7-.7 1.1-1 .5-1-.5-1.5 1-2.8.2-.3.5-.7.7-1l.6-1.8v-.8c-.5-.2-1.1-.2-1.2-1.2.3-.8.2-1.8.8-2.3.8-.7.3.9 0 2 .6-.7 1.2-1.5 1.8-2.2l.3-.9c-1 .1-.3-2.4-.8-3-.2-.3 0-.9.3-1.7l.3-.9c-.7-.2-1.1-.8-.5-3-1-.1-.7-2.1-.5-3.9-.3.1-.5 0-.4-.7.5-1.3-.6-1.9 1.4-3.7 1-1.4 1.9-3 2.4-4.9-.2-1.4 1.1-3.3 1.9-5-.2-.3-.1-.1-.3-.3-.5.1-1.2 1.5-1.8 2.2-.7 1.8-1.4 2.8-2.1 3.1-.2.9.5 1-.4 2.6-.5.9-.6.2-.7 0-.3-.8.3-1.7 1.1-2.5l1.8-3c.9-1.9 1.8-3.7 2.8-5 2.4-3.5 1.8-1.1 1.2 1.2.6 0-.3 1.8-.3 2.5.6.9.6 2.6-.9 5.9.1 0 .3-.1.4-.1.9-2 1.4-2.6 1.4-1.2-.1 1.1-.3 2.5-.9 4.2.5-.4 1.3-1.7 1.2-.4h.3c.7-1.2 1.1-1.2 1.5-1.3.4-.1.9-.6.7.5 0 .5.1 1 .1 1.6.4-.1.7-.6 1-1.2-.4 0-.6-.3.1-2 .3-.7.4-1.6.7-2.4-.1-.4 0-.9.6-1.8.3-.5.8-1.8 1.1-2.5l.8-3.8c-.8-.8-1.8-1.3-1.6-3.8-.3-.2-.5-.7-.4-1.7-.3-.5-.6-1.1-.9-1.6-.2-.1-.7.1-.4-1-.1-.2-.1-.4-.2-.6h-.4c-.2.5-.5 1.1-.7 1.4-.5.7-.4.1-.1-.7.4-1.3.8-2.5 1.2-3.8v0c.5-1 1-1.9 1.5-2.9 0-1-.1-1.9-.1-2.9-.2-.6-.3-1.1-.5-1.7-.9.3-.6-1.1-.1-2.7-.1 0-.2.1-.3 0 .1-3.3 2.1-8 4.9-11.3.7-1.3 1.4-1.9 2-2.4.6-.7 1.3-1.5 1.9-2.2-.6-3.2-.3-4 3.1-8.2.3-.3.5-.8.8-1.2.2-1.1.4-2.3.5-3.4.5-1.4 1-2.3 1.4-2.9l12.7-57.5c-.1-.1-.2-.5-.3-.6-1.5.4-.2-4.6-.3-7-.3.2-.5.5-.8.7-4.3 4.6-.8-6.2-2.1-7.7 1.9-5.2.8-5.9 1.9-9.9 0-1.9 1-4.8 3.1-8.9.4-1.4.7-2.7 1.1-4.1.3-1.9.6-3.9.8-5.9.4-2 .8-3.9 1.2-5.9.1-.5.1-1.1.2-1.6-1.8 0 1.7-8.8 1.6-11.7-1-.7 1.3-6.2 2.7-10.5-1.5.5-.9-2.5 1-7.7.4-2 .9-3.9 1.3-5.9 0-1.8.1-3.6.1-5.5.6-4 .9-7.7 3.1-14.2-1.1-.3-2.2-.4.3-7.1 0-.6-.1-.9 0-1.6.2-1.2.8-3.2 1.5-3.7.1-1.2.7-2.8 1.8-4.7.2-.9.3-1.9.5-2.8 0-1.4-.1-2.8-.1-4.2l.3-4.2c0-.4-.1-.8-.1-1.2-1.9-.2.3-6.2-.3-8.3-1.2-.7.3-4.4 1-7.3-1.4.2-1.3-1.9-.2-5.5.1-1.4.3-2.8.4-4.1-.3-1.3-.5-2.6-.8-4-.1-2.8-.3-5.5.9-10-1.2-.3-2.4-.6-.9-5.1-.1-.4-.3-.7-.2-1.2 0-.9.3-2.4 1.1-2.6.7-.1-.4 2.2-.9 3.7.7.6.8 2.4 2.6.5.3-1.8.7-3.7 1.7-6 .2-1 .3-2 .5-3-.7-1.8-1.4-3.5 2.1-9.4 1.4-2.3.2-2.4.6-3.9-.3-.5.1-1.6.5-2.9-.3-.5.1-1.6.5-2.9-1 .3-1.4-.7-.8-3 2.4-9.2 2-10.2-2.8-5 .8-1.9 1.6-3.7 2.3-5.4-.5-.7-.2-3-1.4-2.3-1.9 2.2-3.7 3.1-3.5.9.2-2.3 2.1-4.3 3.3-5 .2-.3.4-.5.6-.7.5-.2.9-.4 1.4-.7.1.3.1.9-.1 2.1.2 1.4-.1 3.7 2 .8 2.1-3 .9.7 1.4.9 1.3-2 2.8-3.9 3.6-6.7.2-1 .3-1.9.5-2.9-.1 0-.2 0-.3-.1.1-.1.2-.2.3-.4 3.7-4 7.8-9.6 12-16.9-.2-.4-.3-.7-.4-1.2-.3-.3-.2-1.3.2-2.6-.4.2-.8.3-1.2.5-1 1.5-2.2 2.7-2.3 4.7-2.8-.6 2.1-6.2 2.8-9.1-.6.6-1.2 1.1-1.7 1.7-.9.4-2.9 3.1-2.1-.6-.2.1-.4.1-.6.2-.2-.1-.3-.4-.3-.8v-.4c-.3.1-.6.2-1 .3.3-1.5.3-2.3-.1-2.7v-1.4c-2.1 1.4-1.4-2.3-2.1-3.5-.1-1.1-.1-2.2.6-4.2v-.1c-.2 0-.3.1-.5.1-.3.4-.6.7-.8 1-.4.8-.9 1.7-1.3 2.5-.5-1.2-1.5-1.4-1.5-3.6-.9.3-1.9.6-.6-2.8.2-.6.7-1.2 1-1.8.1 1 .1 2 .2 3l.6-1.5c1.3-3.7 2.7-7.3 4-11-1.5 1-4.9 8.1-4.4 2.8-.5 0-1.3.3-.7-1.4.8-2.1 1.2-1.2 1.9-1.7.8-1.7-.9-2.5 1.8-4.8.4-.6.8-1.2 1.2-1.7.4-1 .7-2.1 1.1-3.1v-1.3c-.9-.3-1.9-.3-2-2 .4-1.4.3-3 1.4-3.9 1.4-1.2.5 1.5 0 3.5 1-1.3 2-2.5 3-3.8.2-.5.4-1 .5-1.5-1.6.2-.6-4.1-1.4-5.2-.3-.4 0-1.6.5-2.9.2-.5.4-1.1.6-1.6-1.1-.4-1.9-1.4-.9-5.2-1.6-.1-1.1-3.6-.9-6.6-.5.2-.9 0-.7-1.1.9-2.2-1-3.3 2.3-6.3 1.8-2.3 3.2-5.1 4.2-8.3-.2-2.2 1.5-5.1 2.9-7.9 0-.4 0-.9-.1-1.3-.9.1-2.1 2.6-3.1 3.8-1.2 3-2.4 4.8-3.7 5.3-.3 1.6.9 1.6-.7 4.4-.8 1.5-1 .4-1.2-.1-.5-1.4.6-3 1.9-4.3l3-5.1c1.5-3.2 3-6.2 4.8-8.5 4.1-6 3-1.9 2 2.1 1.1-.1-.5 3.1-.5 4.3 1.1 1.6 1 4.5-1.5 10.1.2-.1.4-.2.7-.2 1.5-3.5 2.5-4.4 2.3-2-.1 1.9-.5 4.3-1.5 7.2.8-.6 2.2-2.9 2-.8h.5c1.2-2.1 1.9-2 2.6-2.2.6-.1 1.6-1 1.2.9.1.9.1 1.8.2 2.7.6-.2 1.2-1 1.8-2.1-.6 0-.9-.6.1-3.4.5-1.2.8-2.7 1.1-4-.1-.7 0-1.6 1-3 1.1-1.6 2.4-7.2 3.5-5 .1.1.2.3.3.6.4.2.3.1.7.3.1-1 .2-2 .2-3.1.6-.8 0-2 .1-2.9M257.9 125.1c-.4-.2-1-.4-1.7-.4 0-.6-.2-1.3-1.1-1.9 1.3.4 2.7.7 4.3.8h.2c1.4.3 2.8.2 4.1.1l-5.8 1.4zm48-24.1c-.1 0-.2 0-.2-.1 0 .1.1.1.2.1m30.6-9.3l.1-.1.1.1h-.2M402.1 60v-.3c.1.1.3.2.4.3h-.4m1.9 18.4h-.3c.1-.1.2-.1.3 0 .1-.1 0 0 0 0m16.6 2.1h-.3.3c.1 0 0 0 0 0m11.3-29.2h0zm181.6-13.7v-.3c.1.1.2.3.2.4 0 0-.1-.1-.2-.1m41.7-3.3v-.1l.1-.1s0 .1-.1.2m3.7-4.7v-.2-.1.1c0-.1.1-.2.1-.2-.1.1-.1.2-.1.4m97.8 22.6V52c.1.1.1.2.1.2h-.1m11.6-.7c-.1 0 0 0 0 0s-.1 0 0 0zm94.2 7.3c-.1-.1-.3-.2-.4-.3.1-.6 0-1.3-.7-2.4 1.2 1 2.4 1.9 3.8 2.6h-2.7zm51.1 0c-.1-.1-.2-.1-.2-.2l.2.2c0-.1 0-.1 0 0m10.9-14.9c-1.3.2-1.5 1.6-2.7 1.9-1.1-1.6-.1-2.1.1-3.1.8.3 1.9.9 2.6 1.2.1 0 0 0 0 0m30 1.6c-.1-.1-.1-.1-.2-.1.1 0 .2 0 .2.1m20.3-1.7c.1 0 .1 0 0 0 .1 0 .1.1.1.1l-.1-.1m44.1-17c.1.1.2.3.2.4-.1 0-.2-.1-.3-.1.1-.1.1-.2.1-.3m.3 21.4c-.1 0-.2-.1-.2-.1s.1.1.2.1m10.5 7.2c-.1 0-.1-.1-.2-.1.1 0 .2.1.2.1.1 0 .1 0 0 0m9-29.5c-.1 0-.1 0 0 0zm60.4-7.3c0-.1 0-.1.1-.2-.1.1-.1.2-.1.2 0 .1 0 0 0 0m1.4-7v-.3c0 .1 0 .3.1.4 0 0-.1 0-.1-.1m31.8 1.8c-.2 1.6-.1 3.1 0 4.6-.2.3-.5.7-.7 1-.2-.3-.3-.6-.5-.8v.1c-.1-.1-.1-.2-.2-.3.1.1.1.2.2.3 0-.4 0-.7-.1-1 0-.2.1-.4.1-.7.1-1.3.1-2.3-.1-3.3 0-.1 0-.2-.1-.3.3-.8.6-1.6.6-3 .4-.1.7-.4 1.1-1.5-.2 1.5-.4 3-.4 4.6.1.2.1.3.1.3m13.2 44.8v-.3.3M1151 89v-.2s0 .1.1.1c0 0-.1 0-.1.1m78.3 34.9c0-.1 0-.1.1-.2.1.1.1.2.2.3-.1 0-.2 0-.3-.1m17.7 3.2c0 .1 0 0 0 0zm233.6 57.2c-.4-.4-.9-.8-1.5-1.2.1-.6 0-1.3-.7-2.4 1.2 1 2.5 2 4 2.7.1 0 .1 0 .2.1 1.3.9 2.6 1.4 4 2l-6-1.2zm49.9-.9c-.1-.1-.2-.1-.2-.2.1 0 .2.1.2.2.1-.1.1-.1 0 0m31 5.2h.1c0 .1.1.1.1.2 0-.1-.1-.1-.2-.2m67.1 18.5c-.1-.1-.2-.1-.3-.2.1.1.2.1.3.2m.9-18.6c0-.1.1-.2.1-.3.1.1.2.3.3.4-.1 0-.2 0-.4-.1m14.7 28.4c-.1-.1-.2-.1-.3-.2.1 0 .2.1.4.1 0 .1 0 .1-.1.1m15.5-22.9s-.1 0 0 0c-.1 0-.1 0 0 0-.1 0-.1-.1 0 0h.1-.1zm80.8 222.3c0-.1-.1-.1-.1-.2l.3.3c-.1 0-.1-.1-.2-.1m18.6-43.4c0-.2-.1-.4-.1-.5.1.2.3.4.3.5h-.2m12.6 53.5v-.1c.1 0 .2.1.2.1h-.2m.6-64.8c0-.1-.1-.2-.2-.4.2.2.5.3.7.5-.1 0-.3-.1-.5-.1m8.3-36.9h.3l.3.3c-.3-.1-.4-.2-.6-.3m5.4-72.9c0-.1.1-.1.1-.2.1.1.3.2.4.3-.2 0-.3-.1-.5-.1m2.9 53.4h.1c.1.1.2.2.4.2-.1-.1-.3-.2-.5-.2m1.6-16.2c0-.1 0-.2-.1-.3.3.2.6.4.8.6-.2 0-.5-.2-.7-.3m5.7 107.4c0-.1-.1-.3-.1-.4.4.2.8.4 1.2.7-.4-.2-.8-.3-1.1-.3m4.2 52.2v-.2l.6.3c-.2 0-.4 0-.6-.1m1.4-185.5c0-.1-.1-.1-.1-.2.1 0 .2 0 .3.1.1 0 .1.1.2.1h-.4m7.1 12.2s0-.1 0 0l-.4-.3h.1c.1 0 .2.1.3.3 0-.1.1 0 0 0 .1 0 .1 0 0 0m0-8.4c-.5-.7-.9-1.3-2-1.9.6-.1.9-.4 1.1-.8.5.6 1.3 1.3 2.2 2.1-.7-.1-1.2.2-1.3.6m3.7 178.9c-.1 0-.1-.1-.2-.1h.1l.1.1zm2.1 28.9c-.6-.7-1.2-1.2-1.7-1.7.7.3 1.3.5 2 .8l.2.2c-.2.2-.4.4-.5.7m2.5-97.5c.1 0 .1 0 .2.1-.1 0-.1 0-.2-.1m5.1-17.1c0-.1-.1-.2-.1-.3.1.1.3.2.4.3h-.3m3.9-10.9c.2.1.3.1.4.2-.1 0-.2 0-.4-.2 0 .1 0 .1 0 0m1.6 79.7l-.1-.1s-.1 0-.1-.1c-.4-.3-.8-.6-1.2-.8.6.3 1.1.7 1.7 1.1-.1 0-.2-.1-.3-.1"/>
</svg>
