<svg id="Capa_1" xmlns="http://www.w3.org/2000/svg" viewBox="0 0 826.5 304.5">
    <style>
        .st0{fill:none;stroke:#2d6965;stroke-linecap:round;stroke-miterlimit:10;stroke-dasharray:1,5}.st1{fill:#366}.st2{fill:#406863}
    </style>
    <path class="st0" d="M194.1 147.9h192.4"/>
    <path class="st0" d="M435.3 147.9h192.4"/>
    <path class="st0" d="M427.1 155.2l181 104.4"/>
    <path class="st0" d="M221 36.1l172.7 99.7"/>
    <path class="st0" d="M396.1 157.2L218.7 259.6"/>
    <path class="st0" d="M605.8 36.1l-170.5 98.5"/>
    <path class="st1" d="M464.6 104.2c-20.7 0-36.6-5.9-50.1-19-13.4 13.1-29.3 19-50.1 19 0 34-7 82.8 50.1 102.6 57.1-19.8 50.1-68.6 50.1-102.6zm-54.2 59.9l-16.7-16.7 7.5-7.5 9.2 9.2 17.5-17.5 7.5 7.5-25 25z"/>
    <circle class="st2" cx="217" cy="33.8" r="4.9"/>
    <circle class="st2" cx="607.5" cy="35" r="4.9"/>
    <circle class="st2" cx="629.4" cy="148.2" r="4.9"/>
    <circle class="st2" cx="605.7" cy="258.3" r="4.9"/>
    <circle class="st2" cx="191.8" cy="147.7" r="4.9"/>
    <circle class="st2" cx="216.4" cy="261" r="4.9"/>
    <path d="M56.2 25.4L52.3 35h-.8l-3.9-9.5V35h-1.8V23h2.6l3.5 8.6 3.5-8.6H58v12h-1.8v-9.6z"/>
    <path d="M60.6 26.3h1.6v6.2l4.3-6.2h1.6V35h-1.6v-6.4L62.2 35h-1.5v-8.7z"/>
    <path d="M73.6 31.2l-1.3 1.3V35h-1.6v-8.7h1.6v4.4l4.2-4.4h2l-3.7 3.9 3.8 4.8h-2.1l-2.9-3.8z"/>
    <path d="M80.1 38.3v-12h1.6v1.2c.6-.9 1.7-1.5 2.8-1.5 2.3 0 3.9 1.7 3.9 4.6s-1.6 4.6-3.9 4.6c-1.1 0-2.1-.5-2.8-1.5v4.6h-1.6zm4-10.8c-1 0-2 .6-2.4 1.3v3.7c.4.7 1.4 1.3 2.4 1.3 1.6 0 2.6-1.3 2.6-3.1 0-1.9-1-3.2-2.6-3.2z"/>
    <path d="M89.9 30.6c0-2.5 1.7-4.6 4.4-4.6s4.4 2.1 4.4 4.6c0 2.5-1.7 4.6-4.4 4.6s-4.4-2.1-4.4-4.6zm7.1 0c0-1.6-1-3.1-2.7-3.1-1.7 0-2.7 1.5-2.7 3.1 0 1.7 1 3.1 2.7 3.1 1.7 0 2.7-1.4 2.7-3.1z"/>
    <path d="M111 30.6c0 2.7-1.7 4.4-4.6 4.6v3.1h-1.6v-3.1c-2.9-.2-4.6-1.9-4.6-4.6 0-2.7 1.7-4.4 4.6-4.6v-3h1.6v3.1c2.9.1 4.6 1.8 4.6 4.5zm-6.2 3.1v-6.2c-1.7 0-2.9 1.2-2.9 3.1 0 2 1.1 3.1 2.9 3.1zm4.5-3.1c0-1.9-1.2-3.1-2.9-3.1v6.2c1.8 0 2.9-1.1 2.9-3.1z"/>
    <path d="M113 26.3h1.6v6.2l4.3-6.2h1.6V35h-1.6v-6.4l-4.3 6.4H113v-8.7z"/>
    <path d="M124.1 28.4l.1-2.1h6.4V35H129v-7.3h-3.3l-.1.8c-.4 5.5-1.7 6.7-3.5 6.7v-1.6c1 0 1.7-1.1 2-5.2z"/>
    <path d="M134.8 29.3h3c2 0 2.9 1.4 2.9 2.8s-1 2.8-2.9 2.8h-4.7v-8.7h1.6v3.1zm0 4.2h2.9c1 0 1.4-.6 1.4-1.4 0-.8-.4-1.4-1.4-1.4h-2.9v2.8z"/>
    <path d="M143.2 27.7h-2.5v-1.4h6.6v1.4h-2.5V35h-1.6v-7.3z"/>
    <path d="M149 38.3v-12h1.6v1.2c.6-.9 1.7-1.5 2.8-1.5 2.3 0 3.9 1.7 3.9 4.6s-1.6 4.6-3.9 4.6c-1.1 0-2.1-.5-2.8-1.5v4.6H149zm4.1-10.8c-1 0-2 .6-2.4 1.3v3.7c.4.7 1.4 1.3 2.4 1.3 1.6 0 2.6-1.3 2.6-3.1 0-1.9-1-3.2-2.6-3.2z"/>
    <path d="M164.8 34c-.7.8-1.7 1.2-2.8 1.2-1.4 0-3-1-3-2.9 0-2 1.6-2.8 3-2.8 1.2 0 2.2.4 2.8 1.2v-1.4c0-1.1-.9-1.7-2.1-1.7-1 0-1.8.4-2.6 1.2l-.7-1.1c1-1 2.2-1.4 3.6-1.4 1.9 0 3.5.8 3.5 3V35h-1.6v-1zm0-2.4c-.5-.6-1.3-1-2.2-1-1.2 0-2 .7-2 1.7s.8 1.7 2 1.7c.9 0 1.7-.3 2.2-1v-1.4z"/>
    <path d="M169 35v-8.7h1.6v7.3h4.1v-7.3h1.6v7.3h1v3.6h-1.4V35H169z"/>
    <path d="M179 26.3h1.6v6.2l4.3-6.2h1.6V35h-1.6v-6.4l-4.3 6.4H179v-8.7z"/>
    <path d="M191 31.6c-1.2-.2-2.1-1.2-2.1-2.6 0-1.5 1-2.7 2.8-2.7h4.8V35h-1.6v-3.3h-2.2l-2 3.3h-1.9l2.2-3.4zm3.9-3.9h-3c-.8 0-1.3.5-1.3 1.3s.5 1.3 1.3 1.3h3v-2.6z"/>
    <g>
        <path d="M639.1 24.7h-6.6V30h-1.8V18h1.8v5h6.6v-5h1.8v12h-1.8v-5.3z"/>
        <path d="M643.6 21.3h1.6v6.2l4.3-6.2h1.6V30h-1.6v-6.4l-4.3 6.4h-1.5v-8.7z"/>
        <path d="M653.7 27.7c.8.7 1.7 1.2 2.8 1.2 1.3 0 2.1-.6 2.1-1.4 0-.9-.9-1.3-2.3-1.3h-1.5V25h1.5c1.3 0 2.1-.4 2.1-1.3 0-.7-.8-1.2-2-1.2-1.1 0-2 .4-2.7 1.1l-.8-1c.8-.8 1.9-1.4 3.4-1.4 2.3 0 3.8.9 3.8 2.3 0 1.2-1.2 2-2.2 2.1 1 .1 2.4.7 2.4 2.1 0 1.5-1.4 2.6-3.8 2.6-1.6 0-2.9-.5-3.7-1.4l.9-1.2z"/>
        <path d="M665.3 26.3l-1.3 1.3V30h-1.6v-8.7h1.6v4.4l4.2-4.4h2l-3.7 3.9 3.8 4.8h-2.1l-2.9-3.7z"/>
        <path d="M670.8 25.7c0-2.5 1.7-4.6 4.4-4.6s4.4 2.1 4.4 4.6c0 2.5-1.7 4.6-4.4 4.6s-4.4-2.1-4.4-4.6zm7.1 0c0-1.6-1-3.1-2.7-3.1-1.7 0-2.7 1.5-2.7 3.1 0 1.7 1 3.1 2.7 3.1 1.7 0 2.7-1.5 2.7-3.1z"/>
        <path d="M683.1 22.8h-2.5v-1.4h6.6v1.4h-2.5V30h-1.6v-7.2z"/>
        <path d="M692.6 21.1c2.6 0 4.2 2 4.2 4.7v.4h-6.9c.1 1.5 1.2 2.7 3 2.7.9 0 1.9-.4 2.6-1l.8 1.1c-.9.8-2.1 1.3-3.5 1.3-2.6 0-4.5-1.8-4.5-4.6-.1-2.5 1.7-4.6 4.3-4.6zm-2.7 4h5.3c0-1.2-.8-2.6-2.6-2.6s-2.6 1.4-2.7 2.6z"/>
        <path d="M706.9 23.4L704 30h-.6l-2.9-6.6V30h-1.6v-8.7h2.1l2.8 6.2 2.7-6.2h2.1V30H707v-6.6z"/>
        <path d="M717 22.8h-4.2V30h-1.6v-8.7h7.5V30H717v-7.2z"/>
        <path d="M725.1 21.1c2.6 0 4.2 2 4.2 4.7v.4h-6.9c.1 1.5 1.2 2.7 3 2.7.9 0 1.9-.4 2.6-1l.8 1.1c-.9.8-2.1 1.3-3.5 1.3-2.6 0-4.5-1.8-4.5-4.6-.1-2.5 1.7-4.6 4.3-4.6zm-2.7 4h5.3c0-1.2-.8-2.6-2.6-2.6s-2.6 1.4-2.7 2.6z"/>
        <path d="M731.3 33.4v-12h1.6v1.2c.6-.9 1.7-1.5 2.8-1.5 2.3 0 3.9 1.7 3.9 4.6s-1.6 4.6-3.9 4.6c-1.1 0-2.1-.5-2.8-1.5v4.6h-1.6zm4-10.8c-1 0-2 .6-2.4 1.3v3.7c.4.7 1.4 1.3 2.4 1.3 1.6 0 2.6-1.3 2.6-3.1.1-1.9-.9-3.2-2.6-3.2z"/>
        <path d="M747.1 29.1c-.7.8-1.7 1.2-2.8 1.2-1.4 0-3-1-3-2.9 0-2 1.6-2.8 3-2.8 1.2 0 2.2.4 2.8 1.2v-1.4c0-1.1-.9-1.7-2.1-1.7-1 0-1.8.4-2.6 1.2l-.7-1.1c1-1 2.2-1.4 3.6-1.4 1.9 0 3.5.8 3.5 3V30h-1.6v-.9zm0-2.4c-.5-.6-1.3-1-2.2-1-1.2 0-2 .7-2 1.7s.8 1.7 2 1.7c.9 0 1.7-.3 2.2-1v-1.4z"/>
        <path d="M752.9 22.8h-2.5v-1.4h6.6v1.4h-2.5V30h-1.6v-7.2z"/>
        <path d="M759.2 32.1c.6 0 1-.2 1.3-.8l.5-1.2-3.6-8.8h1.7l2.7 6.8 2.7-6.8h1.7L762 31.7c-.6 1.4-1.5 1.9-2.8 1.9-.3 0-.8-.1-1-.1l.3-1.5c.2.1.5.1.7.1z"/>
        <path d="M767.6 33.4v-12h1.6v1.2c.6-.9 1.7-1.5 2.8-1.5 2.3 0 3.9 1.7 3.9 4.6s-1.6 4.6-3.9 4.6c-1.1 0-2.1-.5-2.8-1.5v4.6h-1.6zm4-10.8c-1 0-2 .6-2.4 1.3v3.7c.4.7 1.4 1.3 2.4 1.3 1.6 0 2.6-1.3 2.6-3.1 0-1.9-.9-3.2-2.6-3.2z"/>
        <path d="M778 21.3h1.6v3.5h4.2v-3.5h1.6V30h-1.6v-3.7h-4.2V30H778v-8.7z"/>
        <path d="M787.5 25.7c0-2.5 1.7-4.6 4.4-4.6s4.4 2.1 4.4 4.6c0 2.5-1.7 4.6-4.4 4.6s-4.4-2.1-4.4-4.6zm7.1 0c0-1.6-1-3.1-2.7-3.1-1.7 0-2.7 1.5-2.7 3.1 0 1.7 1 3.1 2.7 3.1 1.8 0 2.7-1.5 2.7-3.1z"/>
        <path d="M802.2 21.1c2.6 0 4.2 2 4.2 4.7v.4h-6.9c.1 1.5 1.2 2.7 3 2.7.9 0 1.9-.4 2.6-1l.8 1.1c-.9.8-2.1 1.3-3.5 1.3-2.6 0-4.5-1.8-4.5-4.6-.1-2.5 1.7-4.6 4.3-4.6zm-2.7 4h5.3c0-1.2-.8-2.6-2.6-2.6s-2.6 1.4-2.7 2.6z"/>
        <path d="M630.7 42.9h4.6c1.9 0 2.9 1 2.9 2.2 0 1-.7 1.7-1.5 2 .9.2 1.6 1.1 1.6 2.1 0 1.4-1 2.4-3 2.4h-4.7v-8.7zm4.6 1.5h-3v2.1h3c.8 0 1.2-.5 1.2-1 0-.7-.4-1.1-1.2-1.1zm.1 3.5h-3.1v2.3h3.1c.8 0 1.3-.4 1.3-1.2 0-.5-.5-1.1-1.3-1.1z"/>
        <path d="M642.1 46h3c2 0 2.9 1.4 2.9 2.8s-1 2.8-2.9 2.8h-4.7v-8.7h1.6V46zm0 4.2h2.9c1 0 1.4-.6 1.4-1.4 0-.8-.4-1.4-1.4-1.4h-2.9v2.8zm7.3-7.3h1.6v8.7h-1.6v-8.7z"/>
        <path d="M659.5 44.4h-4.2v7.3h-1.6V43h7.5v8.7h-1.6v-7.3z"/>
        <path d="M669.1 50.7c-.7.8-1.7 1.2-2.8 1.2-1.4 0-3-1-3-2.9 0-2 1.6-2.8 3-2.8 1.2 0 2.2.4 2.8 1.2V46c0-1.1-.9-1.7-2.1-1.7-1 0-1.8.4-2.6 1.2l-.7-1.1c1-1 2.2-1.4 3.6-1.4 1.9 0 3.5.8 3.5 3v5.9h-1.6v-1.2zm0-2.4c-.5-.6-1.3-1-2.2-1-1.2 0-2 .7-2 1.7s.8 1.7 2 1.7c.9 0 1.7-.3 2.2-1v-1.4z"/>
        <path d="M673.3 55V43h1.6v1.2c.6-.9 1.7-1.5 2.8-1.5 2.3 0 3.9 1.7 3.9 4.6 0 2.8-1.6 4.6-3.9 4.6-1.1 0-2.1-.5-2.8-1.5V55h-1.6zm4-10.8c-1 0-2 .6-2.4 1.3v3.7c.4.7 1.4 1.3 2.4 1.3 1.6 0 2.6-1.3 2.6-3.1 0-1.9-1-3.2-2.6-3.2z"/>
        <path d="M683.7 42.9h1.6v6.2l4.3-6.2h1.6v8.7h-1.6v-6.4l-4.3 6.4h-1.5v-8.7z"/>
        <path d="M693.7 42.9h4.6c1.9 0 2.9 1 2.9 2.2 0 1-.7 1.7-1.5 2 .9.2 1.6 1.1 1.6 2.1 0 1.4-1 2.4-3 2.4h-4.7v-8.7zm4.7 1.5h-3v2.1h3c.8 0 1.2-.5 1.2-1 0-.7-.5-1.1-1.2-1.1zm0 3.5h-3.1v2.3h3.1c.8 0 1.3-.4 1.3-1.2 0-.5-.4-1.1-1.3-1.1z"/>
        <path d="M708.9 50.7c-.7.8-1.7 1.2-2.8 1.2-1.4 0-3-1-3-2.9 0-2 1.6-2.8 3-2.8 1.2 0 2.2.4 2.8 1.2V46c0-1.1-.9-1.7-2.1-1.7-1 0-1.8.4-2.6 1.2l-.7-1.1c1-1 2.2-1.4 3.6-1.4 1.9 0 3.5.8 3.5 3v5.9H709v-1.2zm0-2.4c-.5-.6-1.3-1-2.2-1-1.2 0-2 .7-2 1.7s.8 1.7 2 1.7c.9 0 1.7-.3 2.2-1v-1.4z"/>
        <path d="M713.1 42.9h1.6v3.5h4.2v-3.5h1.6v8.7H719v-3.7h-4.2v3.7h-1.6v-8.7z"/>
        <path d="M723.2 42.9h1.6v6.2l4.3-6.2h1.6v8.7H729v-6.4l-4.3 6.4h-1.5v-8.7z"/>
        <path d="M737.1 42.7c2.6 0 4.2 2 4.2 4.7v.4h-6.9c.1 1.5 1.2 2.7 3 2.7.9 0 1.9-.4 2.6-1l.8 1.1c-.9.8-2.1 1.3-3.5 1.3-2.6 0-4.5-1.8-4.5-4.6-.1-2.5 1.7-4.6 4.3-4.6zm-2.7 4h5.3c0-1.2-.8-2.6-2.6-2.6s-2.6 1.4-2.7 2.6z"/>
    </g>
    <g>
        <path d="M653.4 132.2l.3-3.6h7.8v12h-1.8v-10.4h-4.4l-.2 2.1c-.7 7.7-2.4 8.6-4.6 8.6V139c1.3 0 2.4-.9 2.9-6.8z"/>
        <path d="M664.1 131.8h1.6v6.2l4.3-6.2h1.6v8.7H670v-6.4l-4.3 6.4h-1.5v-8.7z"/>
        <path d="M673.6 136.2c0-2.5 1.7-4.6 4.4-4.6s4.4 2.1 4.4 4.6c0 2.5-1.7 4.6-4.4 4.6s-4.4-2.1-4.4-4.6zm7.1 0c0-1.6-1-3.1-2.7-3.1-1.7 0-2.7 1.5-2.7 3.1 0 1.7 1 3.1 2.7 3.1 1.7 0 2.7-1.5 2.7-3.1z"/>
        <path d="M694.7 136.2c0 2.7-1.7 4.4-4.6 4.6v3.1h-1.6v-3.1c-2.9-.2-4.6-1.9-4.6-4.6 0-2.7 1.7-4.4 4.6-4.6v-3.1h1.6v3.1c2.9.2 4.6 1.9 4.6 4.6zm-6.2 3.1v-6.2c-1.7 0-2.9 1.2-2.9 3.1 0 1.9 1.1 3.1 2.9 3.1zm4.5-3.1c0-1.9-1.2-3.1-2.9-3.1v6.2c1.8 0 2.9-1.2 2.9-3.1z"/>
        <path d="M696.8 131.8h1.6v6.2l4.3-6.2h1.6v8.7h-1.6v-6.4l-4.3 6.4h-1.5v-8.7z"/>
        <path d="M707.8 133.9l.1-2.1h6.4v8.7h-1.6v-7.3h-3.3l-.1.8c-.4 5.5-1.7 6.7-3.5 6.7v-1.6c1 .1 1.7-1 2-5.2z"/>
        <path d="M716.9 131.8h1.6v6.2l4.3-6.2h1.6v8.7h-1.6v-6.4l-4.3 6.4H717v-8.7z"/>
        <path d="M727 138.2c.8.7 1.7 1.2 2.8 1.2 1.3 0 2.1-.6 2.1-1.4 0-.9-.9-1.3-2.3-1.3h-1.5v-1.3h1.5c1.3 0 2.1-.4 2.1-1.3 0-.7-.8-1.2-2-1.2-1.1 0-2 .4-2.7 1.1l-.8-1c.8-.8 1.9-1.4 3.4-1.4 2.3 0 3.8.9 3.8 2.3 0 1.2-1.2 2-2.2 2.1 1 .1 2.4.7 2.4 2.1 0 1.5-1.4 2.6-3.8 2.6-1.6 0-2.9-.5-3.7-1.4l.9-1.1z"/>
        <path d="M741.1 139.6c-.7.8-1.7 1.2-2.8 1.2-1.4 0-3-1-3-2.9 0-2 1.6-2.8 3-2.8 1.2 0 2.2.4 2.8 1.2v-1.4c0-1.1-.9-1.7-2.1-1.7-1 0-1.8.4-2.6 1.2l-.7-1.1c1-1 2.2-1.4 3.6-1.4 1.9 0 3.5.8 3.5 3v5.9h-1.6v-1.2zm0-2.4c-.5-.6-1.3-1-2.2-1-1.2 0-2 .7-2 1.7s.8 1.7 2 1.7c.9 0 1.7-.3 2.2-1v-1.4z"/>
        <path d="M745.3 140.5v-8.7h1.6v7.3h4.1v-7.3h1.6v7.3h1v3.6h-1.4v-2.2h-6.9z"/>
        <path d="M755.3 131.8h1.6v6.2l4.3-6.2h1.6v8.7h-1.6v-6.4l-4.3 6.4h-1.5v-8.7z"/>
        <path d="M764.9 136.2c0-2.5 1.7-4.6 4.4-4.6s4.4 2.1 4.4 4.6c0 2.5-1.7 4.6-4.4 4.6s-4.4-2.1-4.4-4.6zm7.1 0c0-1.6-1-3.1-2.7-3.1-1.7 0-2.7 1.5-2.7 3.1 0 1.7 1 3.1 2.7 3.1 1.7 0 2.7-1.5 2.7-3.1z"/>
        <path d="M775.7 131.8h1.6v3.5h4.2v-3.5h1.6v8.7h-1.6v-3.7h-4.2v3.7h-1.6v-8.7z"/>
        <path d="M785.8 131.8h1.6v3.5h4.2v-3.5h1.6v8.7h-1.6v-3.7h-4.2v3.7h-1.6v-8.7z"/>
        <path d="M801.2 139.6c-.7.8-1.7 1.2-2.8 1.2-1.4 0-3-1-3-2.9 0-2 1.6-2.8 3-2.8 1.2 0 2.2.4 2.8 1.2v-1.4c0-1.1-.9-1.7-2.1-1.7-1 0-1.8.4-2.6 1.2l-.7-1.1c1-1 2.2-1.4 3.6-1.4 1.9 0 3.5.8 3.5 3v5.9h-1.6v-1.2zm0-2.4c-.5-.6-1.3-1-2.2-1-1.2 0-2 .7-2 1.7s.8 1.7 2 1.7c.9 0 1.7-.3 2.2-1v-1.4z"/>
        <path d="M807.4 137.2c-1.2-.2-2.1-1.2-2.1-2.6 0-1.5 1-2.7 2.8-2.7h4.8v8.7h-1.6v-3.3H809l-2 3.3h-1.9l2.3-3.4zm3.8-3.9h-3c-.8 0-1.3.5-1.3 1.3s.5 1.3 1.3 1.3h3v-2.6z"/>
        <path d="M655 153.2c1.6 0 2.6.7 3.3 1.5l-1.1 1c-.5-.7-1.2-1.1-2.1-1.1-1.7 0-2.8 1.3-2.8 3.1s1.1 3.1 2.8 3.1c.9 0 1.6-.4 2.1-1.1l1.1 1c-.6.8-1.6 1.5-3.3 1.5-2.6 0-4.4-2-4.4-4.6 0-2.4 1.8-4.4 4.4-4.4z"/>
        <path d="M660.6 164.2c.6 0 1-.2 1.3-.8l.5-1.2-3.6-8.8h1.7l2.7 6.8 2.7-6.8h1.7l-4.3 10.4c-.6 1.4-1.5 1.9-2.8 1.9-.3 0-.8-.1-1-.1l.3-1.5c.3.1.6.1.8.1z"/>
        <path d="M680.6 162.1H669v-8.7h1.6v7.3h3.3v-7.3h1.6v7.3h3.4v-7.3h1.6v8.7z"/>
        <path d="M686.1 158.4l-1.3 1.3v2.4h-1.6v-8.7h1.6v4.4l4.2-4.4h2l-3.7 3.9 3.8 4.8H689l-2.9-3.7z"/>
        <path d="M697.9 161.2c-.7.8-1.7 1.2-2.8 1.2-1.4 0-3-1-3-2.9 0-2 1.6-2.8 3-2.8 1.2 0 2.2.4 2.8 1.2v-1.4c0-1.1-.9-1.7-2.1-1.7-1 0-1.8.4-2.6 1.2l-.7-1.1c1-1 2.2-1.4 3.6-1.4 1.9 0 3.5.8 3.5 3v5.9H698v-1.2zm0-2.4c-.5-.6-1.3-1-2.2-1-1.2 0-2 .7-2 1.7s.8 1.7 2 1.7c.9 0 1.7-.3 2.2-1v-1.4z"/>
    </g>
    <g>
        <path d="M637.5 242.9h-6.6v10.4h-1.8v-12h10.2v12h-1.8v-10.4z"/>
        <path d="M641.9 256.7v-12h1.6v1.2c.6-.9 1.7-1.5 2.8-1.5 2.3 0 3.9 1.7 3.9 4.6s-1.6 4.6-3.9 4.6c-1.1 0-2.1-.5-2.8-1.5v4.6h-1.6zm4.1-10.8c-1 0-2 .6-2.4 1.3v3.7c.4.7 1.4 1.3 2.4 1.3 1.6 0 2.6-1.3 2.6-3.1 0-1.9-1-3.2-2.6-3.2z"/>
        <path d="M656.2 244.4c2.6 0 4.2 2 4.2 4.7v.4h-6.9c.1 1.5 1.2 2.7 3 2.7.9 0 1.9-.4 2.6-1l.8 1.1c-.9.8-2.1 1.3-3.5 1.3-2.6 0-4.5-1.8-4.5-4.6-.1-2.5 1.7-4.6 4.3-4.6zm-2.7 4h5.3c0-1.2-.8-2.6-2.6-2.6s-2.6 1.4-2.7 2.6z"/>
        <path d="M668.3 246.1H664v7.3h-1.6v-8.7h7.5v8.7h-1.6v-7.3z"/>
        <path d="M677.9 252.4c-.7.8-1.7 1.2-2.8 1.2-1.4 0-3-1-3-2.9 0-2 1.6-2.8 3-2.8 1.2 0 2.2.4 2.8 1.2v-1.4c0-1.1-.9-1.7-2.1-1.7-1 0-1.8.4-2.6 1.2l-.7-1.1c1-1 2.2-1.4 3.6-1.4 1.9 0 3.5.8 3.5 3v5.9H678v-1.2zm0-2.4c-.5-.6-1.3-1-2.2-1-1.2 0-2 .7-2 1.7s.8 1.7 2 1.7c.9 0 1.7-.3 2.2-1V250z"/>
        <path d="M682.1 256.7v-12h1.6v1.2c.6-.9 1.7-1.5 2.8-1.5 2.3 0 3.9 1.7 3.9 4.6s-1.6 4.6-3.9 4.6c-1.1 0-2.1-.5-2.8-1.5v4.6h-1.6zm4-10.8c-1 0-2 .6-2.4 1.3v3.7c.4.7 1.4 1.3 2.4 1.3 1.6 0 2.6-1.3 2.6-3.1 0-1.9-1-3.2-2.6-3.2z"/>
        <path d="M697.8 252.4c-.7.8-1.7 1.2-2.8 1.2-1.4 0-3-1-3-2.9 0-2 1.6-2.8 3-2.8 1.2 0 2.2.4 2.8 1.2v-1.4c0-1.1-.9-1.7-2.1-1.7-1 0-1.8.4-2.6 1.2l-.7-1.1c1-1 2.2-1.4 3.6-1.4 1.9 0 3.5.8 3.5 3v5.9h-1.6v-1.2zm0-2.4c-.5-.6-1.3-1-2.2-1-1.2 0-2 .7-2 1.7s.8 1.7 2 1.7c.9 0 1.7-.3 2.2-1V250z"/>
        <path d="M703.6 246.1h-2.5v-1.4h6.6v1.4h-2.5v7.3h-1.6v-7.3z"/>
        <path d="M709.4 244.6h1.6v6.2l4.3-6.2h1.6v8.7h-1.6V247l-4.3 6.4h-1.5v-8.8z"/>
        <path d="M719.5 244.6h4.6c1.9 0 2.9 1 2.9 2.2 0 1-.7 1.7-1.5 2 .9.2 1.6 1.1 1.6 2.1 0 1.4-1 2.4-3 2.4h-4.7v-8.7zm4.6 1.5h-3v2.1h3c.8 0 1.2-.5 1.2-1 0-.7-.4-1.1-1.2-1.1zm.1 3.5h-3.1v2.3h3.1c.8 0 1.3-.4 1.3-1.2 0-.5-.4-1.1-1.3-1.1z"/>
        <path d="M729.3 244.6h1.6v3.5h4.2v-3.5h1.6v8.7h-1.6v-3.7h-4.2v3.7h-1.6v-8.7z"/>
        <path d="M744.7 252.4c-.7.8-1.7 1.2-2.8 1.2-1.4 0-3-1-3-2.9 0-2 1.6-2.8 3-2.8 1.2 0 2.2.4 2.8 1.2v-1.4c0-1.1-.9-1.7-2.1-1.7-1 0-1.8.4-2.6 1.2l-.7-1.1c1-1 2.2-1.4 3.6-1.4 1.9 0 3.5.8 3.5 3v5.9h-1.6v-1.2zm0-2.4c-.5-.6-1.3-1-2.2-1-1.2 0-2 .7-2 1.7s.8 1.7 2 1.7c.9 0 1.7-.3 2.2-1V250z"/>
        <path d="M750.9 250c-1.2-.2-2.1-1.2-2.1-2.6 0-1.5 1-2.7 2.8-2.7h4.8v8.7h-1.6v-3.3h-2.2l-2 3.3h-1.9l2.2-3.4zm3.8-3.9h-3c-.8 0-1.3.5-1.3 1.3s.5 1.3 1.3 1.3h3v-2.6z"/>
        <path d="M632.2 271.6l-2.4 3.4H628l3.3-4.5-3.1-4.2h1.8l2.2 3.1 2.2-3.1h1.8l-3.1 4.2 3.3 4.5h-1.8l-2.4-3.4z"/>
        <path d="M637.9 278.3v-12h1.6v1.2c.6-.9 1.7-1.5 2.8-1.5 2.3 0 3.9 1.7 3.9 4.6 0 2.8-1.6 4.6-3.9 4.6-1.1 0-2.1-.5-2.8-1.5v4.6h-1.6zm4-10.8c-1 0-2 .6-2.4 1.3v3.7c.4.7 1.4 1.3 2.4 1.3 1.6 0 2.6-1.3 2.6-3.1 0-1.9-1-3.2-2.6-3.2z"/>
        <path d="M647.7 270.6c0-2.5 1.7-4.6 4.4-4.6s4.4 2.1 4.4 4.6c0 2.5-1.7 4.6-4.4 4.6s-4.4-2.1-4.4-4.6zm7.1 0c0-1.6-1-3.1-2.7-3.1-1.7 0-2.7 1.5-2.7 3.1 0 1.7 1 3.1 2.7 3.1 1.8 0 2.7-1.5 2.7-3.1z"/>
        <path d="M666.7 268.4l-2.9 6.6h-.6l-2.9-6.6v6.6h-1.6v-8.7h2.1l2.8 6.2 2.7-6.2h2.1v8.7h-1.6v-6.6z"/>
        <path d="M676.2 274c-.7.8-1.7 1.2-2.8 1.2-1.4 0-3-1-3-2.9 0-2 1.6-2.8 3-2.8 1.2 0 2.2.4 2.8 1.2v-1.4c0-1.1-.9-1.7-2.1-1.7-1 0-1.8.4-2.6 1.2l-.7-1.1c1-1 2.2-1.4 3.6-1.4 1.9 0 3.5.8 3.5 3v5.9h-1.6V274zm0-2.4c-.5-.6-1.3-1-2.2-1-1.2 0-2 .7-2 1.7s.8 1.7 2 1.7c.9 0 1.7-.3 2.2-1v-1.4z"/>
        <path d="M682 267.7h-2.5v-1.4h6.6v1.4h-2.5v7.3H682v-7.3z"/>
        <path d="M687.2 270.6c0-2.5 1.7-4.6 4.4-4.6s4.4 2.1 4.4 4.6c0 2.5-1.7 4.6-4.4 4.6s-4.4-2.1-4.4-4.6zm7.1 0c0-1.6-1-3.1-2.7-3.1-1.7 0-2.7 1.5-2.7 3.1 0 1.7 1 3.1 2.7 3.1 1.7 0 2.7-1.5 2.7-3.1z"/>
        <path d="M699.6 267.7v7.3H698v-8.7h6.3v1.4h-4.7z"/>
        <path d="M706 278.3v-12h1.6v1.2c.6-.9 1.7-1.5 2.8-1.5 2.3 0 3.9 1.7 3.9 4.6 0 2.8-1.6 4.6-3.9 4.6-1.1 0-2.1-.5-2.8-1.5v4.6H706zm4-10.8c-1 0-2 .6-2.4 1.3v3.7c.4.7 1.4 1.3 2.4 1.3 1.6 0 2.6-1.3 2.6-3.1.1-1.9-.9-3.2-2.6-3.2z"/>
        <path d="M721.8 274c-.7.8-1.7 1.2-2.8 1.2-1.4 0-3-1-3-2.9 0-2 1.6-2.8 3-2.8 1.2 0 2.2.4 2.8 1.2v-1.4c0-1.1-.9-1.7-2.1-1.7-1 0-1.8.4-2.6 1.2l-.7-1.1c1-1 2.2-1.4 3.6-1.4 1.9 0 3.5.8 3.5 3v5.9h-1.6V274zm0-2.4c-.5-.6-1.3-1-2.2-1-1.2 0-2 .7-2 1.7s.8 1.7 2 1.7c.9 0 1.7-.3 2.2-1v-1.4z"/>
        <path d="M736.2 270.6c0 2.7-1.7 4.4-4.6 4.6v3.1H730v-3.1c-2.9-.2-4.6-1.9-4.6-4.6 0-2.7 1.7-4.4 4.6-4.6v-3.1h1.6v3.1c2.9.2 4.6 1.9 4.6 4.6zm-6.2 3.1v-6.2c-1.7 0-2.9 1.2-2.9 3.1 0 1.9 1.2 3.1 2.9 3.1zm4.5-3.1c0-1.9-1.2-3.1-2.9-3.1v6.2c1.8 0 2.9-1.2 2.9-3.1z"/>
        <path d="M738.3 266.2h1.6v6.2l4.3-6.2h1.6v8.7h-1.6v-6.4l-4.3 6.4h-1.5v-8.7z"/>
        <path d="M750.3 271.6c-1.2-.2-2.1-1.2-2.1-2.6s1-2.7 2.8-2.7h4.8v8.7h-1.6v-3.3H752l-2 3.3h-1.9l2.2-3.4zm3.8-3.9h-3c-.8 0-1.3.5-1.3 1.3s.5 1.3 1.3 1.3h3v-2.6z"/>
    </g>
    <g>
        <path d="M29.8 139.2l-4.7 9.8c-.7 1.5-1.6 2.4-3.5 2.4-.5 0-1-.1-1.4-.3l.5-1.5c.2.1.6.2.9.2.9 0 1.4-.5 2-1.7l.1-.1-5-8.9h2.1l3.9 7.2 3.2-7.2h1.9z"/>
        <path d="M30 144.6l.1-2.1h6.4v8.7h-1.6v-7.3h-3.3l-.1.8c-.4 5.5-1.7 6.7-3.5 6.7v-1.6c.9 0 1.6-1.1 2-5.2z"/>
        <path d="M40.7 145.6h3c2 0 2.9 1.4 2.9 2.8s-1 2.8-2.9 2.8H39v-8.7h1.6v3.1zm0 4.2h2.9c1 0 1.4-.6 1.4-1.4 0-.8-.4-1.4-1.4-1.4h-2.9v2.8z"/>
        <path d="M49.1 143.9h-2.5v-1.4h6.6v1.4h-2.5v7.3h-1.6v-7.3z"/>
        <path d="M54.9 154.5v-12h1.6v1.2c.6-.9 1.7-1.5 2.8-1.5 2.3 0 3.9 1.7 3.9 4.6s-1.6 4.6-3.9 4.6c-1.1 0-2.1-.5-2.8-1.5v4.6h-1.6zm4-10.8c-1 0-2 .6-2.4 1.3v3.7c.4.7 1.4 1.3 2.4 1.3 1.6 0 2.6-1.3 2.6-3.1s-.9-3.2-2.6-3.2z"/>
        <path d="M70.6 150.3c-.7.8-1.7 1.2-2.8 1.2-1.4 0-3-1-3-2.9 0-2 1.6-2.8 3-2.8 1.2 0 2.2.4 2.8 1.2v-1.4c0-1.1-.9-1.7-2.1-1.7-1 0-1.8.4-2.6 1.2l-.7-1.1c1-1 2.2-1.4 3.6-1.4 1.9 0 3.5.8 3.5 3v5.9h-1.6v-1.2zm0-2.5c-.5-.6-1.3-1-2.2-1-1.2 0-2 .7-2 1.7s.8 1.7 2 1.7c.9 0 1.7-.3 2.2-1v-1.4z"/>
        <path d="M85.1 146.9c0 2.7-1.7 4.4-4.6 4.6v3.1h-1.6v-3.1c-2.9-.2-4.6-1.9-4.6-4.6 0-2.7 1.7-4.4 4.6-4.6v-3.1h1.6v3.1c2.9.2 4.6 1.9 4.6 4.6zm-6.2 3.1v-6.2c-1.7 0-2.9 1.2-2.9 3.1 0 1.9 1.2 3.1 2.9 3.1zm4.5-3.1c0-1.9-1.2-3.1-2.9-3.1v6.2c1.8 0 2.9-1.2 2.9-3.1z"/>
        <path d="M87.2 142.5h1.6v6.2l4.3-6.2h1.6v8.7H93v-6.4l-4.3 6.4h-1.5v-8.7z"/>
        <path d="M98.2 144.6l.1-2.1h6.4v8.7h-1.6v-7.3h-3.3l-.1.8c-.4 5.5-1.7 6.7-3.5 6.7v-1.6c1 0 1.7-1.1 2-5.2z"/>
        <path d="M109 145.6h3c2 0 2.9 1.4 2.9 2.8s-1 2.8-2.9 2.8h-4.7v-8.7h1.6v3.1zm0 4.2h2.9c1 0 1.4-.6 1.4-1.4 0-.8-.4-1.4-1.4-1.4H109v2.8z"/>
        <path d="M117.4 143.9h-2.5v-1.4h6.6v1.4H119v7.3h-1.6v-7.3z"/>
        <path d="M123.2 154.5v-12h1.6v1.2c.6-.9 1.7-1.5 2.8-1.5 2.3 0 3.9 1.7 3.9 4.6s-1.6 4.6-3.9 4.6c-1.1 0-2.1-.5-2.8-1.5v4.6h-1.6zm4-10.8c-1 0-2 .6-2.4 1.3v3.7c.4.7 1.4 1.3 2.4 1.3 1.6 0 2.6-1.3 2.6-3.1s-1-3.2-2.6-3.2z"/>
        <path d="M138.9 150.3c-.7.8-1.7 1.2-2.8 1.2-1.4 0-3-1-3-2.9 0-2 1.6-2.8 3-2.8 1.2 0 2.2.4 2.8 1.2v-1.4c0-1.1-.9-1.7-2.1-1.7-1 0-1.8.4-2.6 1.2l-.7-1.1c1-1 2.2-1.4 3.6-1.4 1.9 0 3.5.8 3.5 3v5.9H139v-1.2zm0-2.5c-.5-.6-1.3-1-2.2-1-1.2 0-2 .7-2 1.7s.8 1.7 2 1.7c.9 0 1.7-.3 2.2-1v-1.4z"/>
        <path d="M143.1 151.2v-8.7h1.6v7.3h4.1v-7.3h1.6v7.3h1v3.6H150v-2.2h-6.9z"/>
        <path d="M153.1 142.5h1.6v6.2l4.3-6.2h1.6v8.7H159v-6.4l-4.3 6.4h-1.5v-8.7z"/>
        <path d="M165.1 147.9c-1.2-.2-2.1-1.2-2.1-2.6 0-1.5 1-2.7 2.8-2.7h4.8v8.7H169V148h-2.2l-2 3.3h-1.9l2.2-3.4zm3.9-4h-3c-.8 0-1.3.5-1.3 1.3s.5 1.3 1.3 1.3h3v-2.6z"/>
    </g>
    <g>
        <path d="M63 261.5h-6.6v5.4h-1.8v-12h1.8v5H63v-5h1.8v12H63v-5.4z"/>
        <path d="M72.8 265.9c-.7.8-1.7 1.2-2.8 1.2-1.4 0-3-1-3-2.9 0-2 1.6-2.8 3-2.8 1.2 0 2.2.4 2.8 1.2v-1.4c0-1.1-.9-1.7-2.1-1.7-1 0-1.8.4-2.6 1.2l-.7-1.1c1-1 2.2-1.4 3.6-1.4 1.9 0 3.5.8 3.5 3v5.9h-1.6v-1.2zm0-2.4c-.5-.6-1.3-1-2.2-1-1.2 0-2 .7-2 1.7s.8 1.7 2 1.7c.9 0 1.7-.3 2.2-1v-1.4z"/>
        <path d="M77 258.2h1.6v3.5h4.2v-3.5h1.6v8.7h-1.6v-3.7h-4.2v3.7H77v-8.7z"/>
        <path d="M86.5 262.5c0-2.5 1.7-4.6 4.4-4.6s4.4 2.1 4.4 4.6c0 2.5-1.7 4.6-4.4 4.6s-4.4-2.1-4.4-4.6zm7.1 0c0-1.6-1-3.1-2.7-3.1-1.7 0-2.7 1.5-2.7 3.1 0 1.7 1 3.1 2.7 3.1 1.7.1 2.7-1.4 2.7-3.1z"/>
        <path d="M107.6 262.5c0 2.7-1.7 4.4-4.6 4.6v3.1h-1.6v-3.1c-2.9-.2-4.6-1.9-4.6-4.6 0-2.7 1.7-4.4 4.6-4.6v-3.1h1.6v3.1c2.9.2 4.6 1.9 4.6 4.6zm-6.2 3.2v-6.2c-1.7 0-2.9 1.2-2.9 3.1 0 1.9 1.1 3 2.9 3.1zm4.5-3.2c0-1.9-1.2-3.1-2.9-3.1v6.2c1.8 0 2.9-1.1 2.9-3.1z"/>
        <path d="M109.7 258.2h1.6v6.2l4.3-6.2h1.6v8.7h-1.6v-6.4l-4.3 6.4h-1.5v-8.7z"/>
        <path d="M120.7 260.3l.1-2.1h6.4v8.7h-1.6v-7.3h-3.3l-.1.8c-.4 5.5-1.7 6.7-3.5 6.7v-1.6c1 0 1.7-1.1 2-5.2z"/>
        <path d="M131.4 261.2h3c2 0 2.9 1.4 2.9 2.8s-1 2.8-2.9 2.8h-4.7v-8.7h1.6v3.1zm0 4.3h2.9c1 0 1.4-.6 1.4-1.4 0-.8-.4-1.4-1.4-1.4h-2.9v2.8z"/>
        <path d="M139.8 259.6h-2.5v-1.4h6.6v1.4h-2.5v7.3h-1.6v-7.3z"/>
        <path d="M145.6 270.2v-12h1.6v1.2c.6-.9 1.7-1.5 2.8-1.5 2.3 0 3.9 1.7 3.9 4.6s-1.6 4.6-3.9 4.6c-1.1 0-2.1-.5-2.8-1.5v4.6h-1.6zm4.1-10.8c-1 0-2 .6-2.4 1.3v3.7c.4.7 1.4 1.3 2.4 1.3 1.6 0 2.6-1.3 2.6-3.1 0-1.9-1-3.2-2.6-3.2z"/>
        <path d="M161.4 265.9c-.7.8-1.7 1.2-2.8 1.2-1.4 0-3-1-3-2.9 0-2 1.6-2.8 3-2.8 1.2 0 2.2.4 2.8 1.2v-1.4c0-1.1-.9-1.7-2.1-1.7-1 0-1.8.4-2.6 1.2l-.7-1.1c1-1 2.2-1.4 3.6-1.4 1.9 0 3.5.8 3.5 3v5.9h-1.6v-1.2zm0-2.4c-.5-.6-1.3-1-2.2-1-1.2 0-2 .7-2 1.7s.8 1.7 2 1.7c.9 0 1.7-.3 2.2-1v-1.4z"/>
        <path d="M165.6 266.9v-8.7h1.6v7.3h4.1v-7.3h1.6v7.3h1v3.6h-1.4v-2.2h-6.9z"/>
        <path d="M175.6 258.2h1.6v6.2l4.3-6.2h1.6v8.7h-1.6v-6.4l-4.3 6.4h-1.5v-8.7z"/>
        <path d="M187.6 263.5c-1.2-.2-2.1-1.2-2.1-2.6s1-2.7 2.8-2.7h4.8v8.7h-1.6v-3.3h-2.2l-2 3.3h-1.9l2.2-3.4zm3.9-3.9h-3c-.8 0-1.3.5-1.3 1.3s.5 1.3 1.3 1.3h3v-2.6z"/>
    </g>
</svg>
