<svg id="Capa_1" xmlns="http://www.w3.org/2000/svg" viewBox="0 0 261.4 177.9">
    <style>
        .st0{opacity:.8}.st1{fill:none;stroke:#ffc;stroke-linecap:round;stroke-miterlimit:10}.st2{stroke-dasharray:.9852,4.9259}.st2,.st3,.st4{fill:none;stroke:#ffc;stroke-linecap:round;stroke-miterlimit:10}.st3{stroke-linejoin:round}.st4{opacity:.8;stroke-dasharray:1,5}.st5{fill:#fcf8c0}
    </style>
    <g class="st0">
        <path class="st1" d="M176.7 48.5c-.1-.1-.2-.3-.3-.4"/>
        <path class="st2" d="M173.2 44.3C134.8 1.8 61.3.7 9.1 44.2"/>
        <path class="st1" d="M7.2 45.8c-.1.1-.3.2-.4.3"/>
    </g>
    <path class="st3" d="M7.4 40.5l-5 9 9.7-2.8"/>
    <ellipse class="st4" cx="187" cy="111.5" rx="64" ry="59.3"/>
    <path class="st5" d="M150.6 91.8h4.1c1.6 0 2.6 1 2.6 2.3 0 1.2-.8 1.9-1.6 2.1 1 .2 1.8 1.2 1.8 2.3 0 1.5-1 2.5-2.7 2.5h-4.2v-9.2zm3.9 4c1 0 1.6-.6 1.6-1.5 0-.8-.6-1.5-1.6-1.5h-2.8v3h2.8zm0 4.2c1.1 0 1.7-.6 1.7-1.6 0-.8-.6-1.6-1.7-1.6h-2.8v3.2h2.8z"/>
    <path class="st5" d="M160.3 96.8h2.4c1.5 0 2.2 1.1 2.2 2.1 0 1.1-.7 2.1-2.2 2.1h-3.4v-6.7h1v2.5zm0 3.3h2.3c.8 0 1.2-.6 1.2-1.2 0-.7-.4-1.2-1.2-1.2h-2.3v2.4zm5.7-5.7h1v6.7h-1v-6.7z"/>
    <path class="st5" d="M172.9 92l1.7-.3v.9l-1.7.3c-2.3.4-3.1 1.5-3.4 3 .5-.9 1.4-1.5 2.6-1.5 1.9 0 3.1 1.5 3.1 3.3 0 1.9-1.2 3.5-3.3 3.5-2 0-3.3-1.6-3.3-4 .1-3.1 1.2-4.8 4.3-5.2zm-.9 3.1c-1.4 0-2.2 1.2-2.2 2.6 0 1.4.8 2.6 2.2 2.6s2.2-1.2 2.2-2.6c0-1.4-.8-2.6-2.2-2.6z"/>
    <path class="st5" d="M179.9 94.2c2 0 3.2 1.6 3.2 3.6v.2h-5.4c.1 1.3 1 2.3 2.4 2.3.8 0 1.5-.3 2.1-.8l.5.7c-.7.7-1.6 1-2.7 1-2 0-3.4-1.4-3.4-3.5 0-1.9 1.4-3.5 3.3-3.5zm-2.2 3.1h4.4c0-1-.7-2.2-2.2-2.2-1.4 0-2.1 1.2-2.2 2.2z"/>
    <path class="st5" d="M184.8 103.6v-9.2h1v1c.5-.7 1.3-1.2 2.3-1.2 1.8 0 3 1.3 3 3.5s-1.2 3.5-3 3.5c-.9 0-1.7-.4-2.3-1.2v3.5h-1zm3-8.5c-.8 0-1.6.5-2 1.1v3c.4.6 1.2 1.1 2 1.1 1.3 0 2.1-1.1 2.1-2.6s-.8-2.6-2.1-2.6z"/>
    <path class="st5" d="M192.7 94.4h1v5.1l3.5-5.1h1v6.7h-1v-5.2l-3.5 5.2h-1v-6.7z"/>
    <path class="st5" d="M201.5 95.3h-1.9v-.9h4.9v.9h-1.9v5.8h-1v-5.8z"/>
    <path class="st5" d="M208.6 94.2c2 0 3.2 1.6 3.2 3.6v.2h-5.4c.1 1.3 1 2.3 2.4 2.3.8 0 1.5-.3 2.1-.8l.5.7c-.7.7-1.6 1-2.7 1-2 0-3.4-1.4-3.4-3.5 0-1.9 1.4-3.5 3.3-3.5zm-2.2 3.1h4.4c0-1-.7-2.2-2.2-2.2-1.4 0-2.1 1.2-2.2 2.2z"/>
    <path class="st5" d="M150.5 110.9h1v5.1l3.5-5.1h1v6.7h-1v-5.2l-3.5 5.2h-1v-6.7z"/>
    <path class="st5" d="M161.1 110.8c1.2 0 1.9.5 2.4 1.2l-.7.6c-.4-.6-1-.9-1.7-.9-1.4 0-2.3 1.1-2.3 2.6s.9 2.6 2.3 2.6c.7 0 1.3-.3 1.7-.9l.7.6c-.5.7-1.2 1.2-2.4 1.2-2 0-3.3-1.5-3.3-3.5s1.3-3.5 3.3-3.5z"/>
    <path class="st5" d="M167.9 110.8c1.2 0 1.9.5 2.4 1.2l-.7.6c-.4-.6-1-.9-1.7-.9-1.4 0-2.3 1.1-2.3 2.6s.9 2.6 2.3 2.6c.7 0 1.3-.3 1.7-.9l.7.6c-.5.7-1.2 1.2-2.4 1.2-2 0-3.3-1.5-3.3-3.5s1.4-3.5 3.3-3.5z"/>
    <path class="st5" d="M172.6 112.5l.1-1.6h4.6v6.7h-1v-5.8h-2.7l-.1.7c-.3 4.3-1.3 5.2-2.5 5.2v-1c.8.1 1.3-.8 1.6-4.2z"/>
    <path class="st5" d="M182.4 110.8c2 0 3.2 1.6 3.2 3.6v.3h-5.4c.1 1.3 1 2.3 2.4 2.3.8 0 1.5-.3 2.1-.8l.5.7c-.7.7-1.6 1-2.7 1-2 0-3.4-1.4-3.4-3.5s1.4-3.6 3.3-3.6zm-2.2 3.1h4.4c0-1-.7-2.2-2.2-2.2-1.5-.1-2.2 1.1-2.2 2.2z"/>
    <path class="st5" d="M186.9 116.7c.3-.5.8-1.5 1-4.2l.1-1.5h4.6v5.8h.8v2.6h-.9v-1.7h-5.3v1.7h-.9v-2.6h.6zm1 0h3.7v-4.8h-2.7l-.1.9c-.2 2.6-.6 3.5-.9 3.9z"/>
    <path class="st5" d="M195.2 119.4c.5 0 .8-.2 1-.7l.4-1-2.8-6.7h1.1l2.2 5.5 2.2-5.5h1.1l-3.3 8c-.4 1-1.1 1.3-2 1.4-.2 0-.6 0-.8-.1l.2-.9h.7z"/>
    <path class="st5" d="M204.5 110.8c2 0 3.2 1.6 3.2 3.6v.3h-5.4c.1 1.3 1 2.3 2.4 2.3.8 0 1.5-.3 2.1-.8l.5.7c-.7.7-1.6 1-2.7 1-2 0-3.4-1.4-3.4-3.5s1.4-3.6 3.3-3.6zm-2.2 3.1h4.4c0-1-.7-2.2-2.2-2.2-1.5-.1-2.2 1.1-2.2 2.2z"/>
    <path class="st5" d="M215.5 112.3l-2.4 5.3h-.4l-2.4-5.3v5.3h-1v-6.7h1.4l2.2 5 2.2-5h1.4v6.7h-1v-5.3z"/>
    <path class="st5" d="M219.7 113.3h2.4c1.5 0 2.2 1.1 2.2 2.1 0 1.1-.7 2.1-2.2 2.1h-3.4v-6.7h1v2.5zm0 3.4h2.3c.8 0 1.2-.6 1.2-1.2 0-.7-.4-1.2-1.2-1.2h-2.3v2.4zm5.6-5.8h1v6.7h-1v-6.7z"/>
    <path class="st5" d="M228.5 110.9h1v5.1l3.5-5.1h1v6.7h-1v-5.2l-3.5 5.2h-1v-6.7zm.5-2l.6-.5c.4.5 1 .9 1.7.9s1.3-.3 1.6-.9l.6.5c-.5.7-1.3 1.1-2.2 1.1-1 0-1.8-.4-2.3-1.1z"/>
    <path class="st5" d="M150.5 136.7v-9.2h1v1c.5-.7 1.3-1.2 2.3-1.2 1.8 0 3 1.3 3 3.5s-1.2 3.5-3 3.5c-.9 0-1.7-.4-2.3-1.2v3.5h-1zm3.1-8.4c-.8 0-1.6.5-2 1.1v3c.4.6 1.2 1.1 2 1.1 1.3 0 2.1-1.1 2.1-2.6s-.8-2.6-2.1-2.6z"/>
    <path class="st5" d="M162.6 133.4c-.6.6-1.3.9-2.2.9-1.1 0-2.3-.8-2.3-2.2 0-1.5 1.2-2.2 2.3-2.2.9 0 1.7.3 2.2.9v-1.2c0-.9-.7-1.4-1.7-1.4-.8 0-1.5.3-2 .9l-.5-.7c.7-.7 1.6-1.1 2.7-1.1 1.4 0 2.6.6 2.6 2.3v4.6h-1v-.8zm0-1.9c-.4-.6-1.1-.8-1.8-.8-1 0-1.6.6-1.6 1.5 0 .8.7 1.4 1.6 1.4.7 0 1.4-.3 1.8-.8v-1.3z"/>
    <path class="st5" d="M165.7 132.6c.6.6 1.3.9 2.2.9 1.1 0 1.8-.5 1.8-1.2 0-.8-.8-1.1-1.9-1.1h-1.1v-.8h1.1c1 0 1.7-.4 1.7-1.1 0-.6-.7-1.1-1.7-1.1-.9 0-1.6.3-2.1.9l-.6-.6c.6-.6 1.4-1.1 2.6-1.1 1.7 0 2.8.6 2.8 1.8 0 1-.9 1.5-1.6 1.6.7.1 1.8.5 1.8 1.6s-1 1.9-2.8 1.9c-1.2 0-2.2-.4-2.8-1.1l.6-.6z"/>
    <path class="st5" d="M172.3 133.3c.3-.5.8-1.5 1-4.2l.1-1.5h4.6v5.8h.8v2.6h-.9v-1.7h-5.3v1.7h-.9v-2.6h.6zm1 0h3.7v-4.8h-2.7l-.1.9c-.2 2.5-.6 3.5-.9 3.9z"/>
    <path class="st5" d="M183.1 127.4c2 0 3.2 1.6 3.2 3.6v.3h-5.4c.1 1.3 1 2.3 2.4 2.3.8 0 1.5-.3 2.1-.8l.5.7c-.7.7-1.6 1-2.7 1-2 0-3.4-1.4-3.4-3.5s1.4-3.6 3.3-3.6zm-2.2 3h4.4c0-1-.7-2.2-2.2-2.2-1.4 0-2.1 1.2-2.2 2.2z"/>
    <path class="st5" d="M188.6 129.1l.1-1.6h4.6v6.7h-1v-5.8h-2.7l-.1.7c-.3 4.3-1.3 5.2-2.5 5.2v-1c.7.1 1.3-.8 1.6-4.2z"/>
</svg>
