<svg id="Слой_1" xmlns="http://www.w3.org/2000/svg" xmlns:xlink="http://www.w3.org/1999/xlink" viewBox="0 0 38.6 45.1">
    <style>
        .st0{clip-path:url(#SVGID_2_);fill:#6f2a2c}
    </style>
    <defs>
        <path id="SVGID_1_" d="M0 0h38.6v45.2H0z"/>
    </defs>
    <clipPath id="SVGID_2_">
        <use xlink:href="#SVGID_1_" overflow="visible"/>
    </clipPath>
    <path class="st0" d="M15.8 29.5c0 1.1-.9 2.1-2.1 2.1-1.1 0-2.1-.9-2.1-2.1 0-1.1.9-2.1 2.1-2.1 1.1 0 2.1 1 2.1 2.1m22.8-2.2c0 6-4.9 10.9-10.9 10.9h-.3c-1.9 4.1-6.1 7-10.9 7-6.6 0-12-5.4-12-12 0-5.3 3.4-9.8 8.2-11.4.2-8.1-2.8-13.5-6.3-13.2-3.7.3-6.7.3-6.4-1.5.3-1.8 3.3.2 3.6-2.2C4 2.6 2.3 1.6 4.8.3 7.1-.9 7.7 2.1 7.5 5 16 2.9 23 13.1 25.2 16.6c.8-.2 1.6-.3 2.5-.3 6 0 10.9 4.9 10.9 11m-23.2-6.1c.4 0 .7-.1 1.1-.1.7 0 1.4.1 2 .2 1.2-1.8 2.9-3.3 5-4.1C17.4 7.7 12.1 6.4 9.1 6.8c5.4 4.1 6.2 12.4 6.3 14.4m10.5 11.9c0-4.2-2.7-7.7-6.4-8.9-.7-.2-1.4-.4-2.1-.4h-.8c-5.2 0-9.4 4.2-9.4 9.4s4.2 9.4 9.4 9.4c3.5 0 6.6-1.9 8.2-4.8.4-.6.6-1.3.8-2 .2-.9.3-1.8.3-2.7m10.6-5.8c0-4.8-3.9-8.8-8.8-8.8-2.8 0-5.3 1.3-6.9 3.4 4.5 1.7 7.8 6.1 7.8 11.2 0 1-.1 2-.4 2.9 4.6-.2 8.3-4.1 8.3-8.7"/>
</svg>
