<svg id="Слой_1" xmlns="http://www.w3.org/2000/svg" xmlns:xlink="http://www.w3.org/1999/xlink" viewBox="0 0 37.1 42.9">
    <style>
        .st0,.st1{clip-path:url(#SVGID_2_);fill:#543f3f}.st1{fill:none;stroke:#543f3f;stroke-width:.75;stroke-miterlimit:10}
    </style>
    <defs>
        <path id="SVGID_1_" d="M0 0h37.1v42.9H0z"/>
    </defs>
    <clipPath id="SVGID_2_">
        <use xlink:href="#SVGID_1_" overflow="visible"/>
    </clipPath>
    <path class="st0" d="M30.5 29.4v-.6l6.1-6.1c.2-.2.2-.7 0-.9-1.9-1.9-2.7-4.4-2.4-6.9.2-1.8 1-3.5 2.4-4.9.2-.2.2-.7 0-.9L28.5 1c-.7-.7-2-.7-2.7 0L14.2 12.5h-.6c-.2 0-.3.1-.5.2L.9 24.9c-.7.7-.7 2 0 2.7L15.4 42c.7.7 2 .7 2.7 0l12.2-12.2c.1-.1.2-.3.2-.4m2.4-13c.1 2.1.9 4.1 2.4 5.8L33.5 24l-4.1-4.1 3.5-3.5zm-4.4 4.4l4.1 4.1-2.1 2.1v-.3c0-.4-.3-.6-.6-.6h-2.1V24c0-.4-.3-.6-.6-.6H26l2.5-2.6zm3.6-14.4l3.2 3.2c-.9 1-1.6 2.2-1.9 3.5l-3.9-3.9 2.6-2.8zM28.5 10l4.5 4.5-4.5 4.5-4.5-4.5 4.5-4.5zm-.9 9.9L25 22.4v-1.2c0-.4-.3-.6-.6-.6h-2.1v-2.1c0-.4-.3-.6-.6-.6h-1.2l2.5-2.5 4.6 4.5zm-.9-18.1c.2-.2.7-.2.9 0l3.6 3.6-2.7 2.7L24.4 4l2.3-2.2zM23.5 5l4.1 4.1-4.6 4.5-4-4.1L23.5 5zm-5.4 5.4l4.1 4.1-2.6 2.5v-1.2c0-.4-.3-.6-.6-.6h-2.1v-2.1c0-.4-.3-.6-.6-.6H16l2.1-2.1zm-.9 30.7c-.2.2-.7.2-.9 0L1.8 26.7c-.2-.2-.2-.7 0-.9l12-12H15.6v2.1c0 .4.3.6.6.6h2.1v2.2l.1.1h2.2v2.1c0 .4.3.6.6.6h2.1V24.1c0 .1.1.1.2.2h2.6v2.1c0 .4.3.6.6.6h2.1V28.8L17.2 41.1z"/>
    <path class="st1" d="M30.5 29.4v-.6l6.1-6.1c.2-.2.2-.7 0-.9-1.9-1.9-2.7-4.4-2.4-6.9.2-1.8 1-3.5 2.4-4.9.2-.2.2-.7 0-.9L28.5 1c-.7-.7-2-.7-2.7 0L14.2 12.5h-.6c-.2 0-.3.1-.5.2L.9 24.9c-.7.7-.7 2 0 2.7L15.4 42c.7.7 2 .7 2.7 0l12.2-12.2c.1-.1.2-.3.2-.4zm2.4-13c.1 2.1.9 4.1 2.4 5.8L33.5 24l-4.1-4.1 3.5-3.5zm-4.4 4.4l4.1 4.1-2.1 2.1v-.3c0-.4-.3-.6-.6-.6h-2.1V24c0-.4-.3-.6-.6-.6H26l2.5-2.6zm3.6-14.4l3.2 3.2c-.9 1-1.6 2.2-1.9 3.5l-3.9-3.9 2.6-2.8zM28.5 10l4.5 4.5-4.5 4.5-4.5-4.5 4.5-4.5zm-.9 9.9L25 22.4v-1.2c0-.4-.3-.6-.6-.6h-2.1v-2.1c0-.4-.3-.6-.6-.6h-1.2l2.5-2.5 4.6 4.5zm-.9-18.1c.2-.2.7-.2.9 0l3.6 3.6-2.7 2.7L24.4 4l2.3-2.2zM23.5 5l4.1 4.1-4.6 4.5-4-4.1L23.5 5zm-5.4 5.4l4.1 4.1-2.6 2.5v-1.2c0-.4-.3-.6-.6-.6h-2.1v-2.1c0-.4-.3-.6-.6-.6H16l2.1-2.1zm-.9 30.7c-.2.2-.7.2-.9 0L1.8 26.7c-.2-.2-.2-.7 0-.9l12-12H15.6v2.1c0 .4.3.6.6.6h2.1v2.2l.1.1h2.2v2.1c0 .4.3.6.6.6h2.1V24.1c0 .1.1.1.2.2h2.6v2.1c0 .4.3.6.6.6h2.1V28.8L17.2 41.1z"/>
</svg>
