<svg id="Слой_1" xmlns="http://www.w3.org/2000/svg" xmlns:xlink="http://www.w3.org/1999/xlink" viewBox="0 0 32.8 37.7">
    <style>
        .st0{clip-path:url(#SVGID_2_);fill:#7bc2b0}
    </style>
    <defs>
        <path id="SVGID_1_" d="M0 0h32.8v37.7H0z"/>
    </defs>
    <clipPath id="SVGID_2_">
        <use xlink:href="#SVGID_1_" overflow="visible"/>
    </clipPath>
    <path class="st0" d="M3.9.7C3.6.6 3.2.8 3 1 .1 4.5-.8 9.3.8 13.6c.6 1.7 1.6 3.3 2.9 4.6.9.9 2 1.7 3.2 2.3l.2.1-.1.2c-.3.5-.6 1.1-.9 1.7-2.1 4.6-2.2 10-.2 14.6.2.5.8.8 1.3.5.2-.1.4-.3.5-.6.1-.3.1-.5 0-.8-.5-1.2-.8-2.4-1.1-3.6l-.1-.4.5.2c1.3.3 2.7.1 3.9-.5 1.8-.9 3.1-2.8 3.2-4.9 0-.4-.2-.7-.5-.9-1.7-1.1-4-1.3-5.8-.3-.2.1-.3.2-.5.3l-.5.3.2-.6c.3-.8.6-1.7 1-2.5l.6-1.2.1-.2.2.1c5.8 1.9 12.2.8 17-3 5.1-4 7.7-10.5 6.7-16.9-.1-.4-.3-.7-.6-.8-6-2.4-12.9-1.4-18 2.6-.6.5-1.2 1-1.8 1.6l-.2.2-.2-.2C9.9 2.9 7.1 1.2 3.9.7m4.9 27c.9-.5 2-.5 3-.2l.2.1v.2c-.3 1-1 1.9-1.9 2.3-.9.5-2 .5-3 .2l-.2-.1V30c.3-1 1-1.9 1.9-2.3m6.4-22.2c4.3-3.4 10.1-4.4 15.3-2.6l.2.1v.2c.5 5.4-1.8 10.9-6.1 14.3-3.8 3-9 4.2-13.8 3l-.5-.1.4-.3c1.4-1.1 2.9-2.3 4.3-3.4h.1c3.4-2.7 7-5.5 10.4-8.3.2-.2.3-.4.4-.7 0-.3 0-.5-.2-.7-.4-.4-1-.5-1.4-.1-3.4 2.8-7 5.6-10.4 8.2l-.2-.2.2.2-.2-.1-4.2 3.3-.4.3v-.5c0-4.8 2.3-9.6 6.1-12.6m-4.7 1.7l.1.1-.1.1c-.8 1.1-1.5 2.3-2 3.5l-.2.6-.2-.5c-.4-1.2-.9-2.4-1.2-3.5-.2-.5-.8-.8-1.3-.6-.3 0-.5.2-.6.5-.1.2-.1.5-.1.7.4 1.1.8 2.4 1.2 3.5.4 1.1.8 2.2 1.1 3.2v.1c-.2.9-.3 1.9-.3 2.8v.5l-.2-.2c-.5-.4-1.1-.8-1.5-1.3-1.1-1.1-1.9-2.4-2.5-3.9C1.5 9.5 2 5.8 4 2.9l.1-.1h.2c2.5.7 4.8 2.2 6.2 4.4"/>
</svg>
