<svg id="Слой_1" xmlns="http://www.w3.org/2000/svg" xmlns:xlink="http://www.w3.org/1999/xlink" viewBox="0 0 382.5 157.7">
    <style>
        .st0{clip-path:url(#SVGID_2_);fill-rule:evenodd;clip-rule:evenodd;fill:#fff}
    </style>
    <defs>
        <path id="SVGID_1_" d="M0 0h382.5v157.7H0z"/>
    </defs>
    <clipPath id="SVGID_2_">
        <use xlink:href="#SVGID_1_" overflow="visible"/>
    </clipPath>
    <path class="st0" d="M381.8 138.3h.6V7.5H133c1-.3-1.3-.6-6-1-.3-.1-.6-.3-.8-.4 9.8.8 14.1.5 15.5-.4 1.6-.2 7.3.4 6.4-.3 6.5.1 13 .2 1.5-1.5-4.5-.9-10-1.4-15.6-1.9-3.2-.4-6.3-.8-9.5-1.2-2.9-.6-5.9-1.1-7.5-.6-.5.2-2 .4.8.7 5.1.6 4.3-.2 6.8-.2 1.7.7 5.1 1.2 10.3 1.6 2.4.5 6.9.9 7.6 1.4-.6.1-1.2.1-1.8.2-5-.5-10.3-1.2-13.3-.8-5.4-.1-10.3-.6-15-1.4-6.6-1.7-6.9-.3-10.6-.6-1.8 0-1.7.3-1.1.6-4.4.3-9.8.5-8.7 1.5-6.1-.1-7 .5-6.7 1.2-.9 0-1.8-.1-2.7-.1-2.2-.1-4-.2-4.4.1-1 .7-8 .6-6.4 1.6-.8 0-1.6-.1-2.5-.1-2.5-.5-5.1-.9-7.6-1.4 3.2.1 7.7.3 5-.4-2.1-.5-4.3-.2-6.6-.3-2.4.3-1.6 1-1.4 1.5-.6.1-1.3.1-1.9.2-1.7-.1-3.5-.2-5.2-.3-1.1-.2-2.2-.3-3.3-.5-5.1-1.3-5.1-.2-8.1-.5-1.2-.3-.2-.7-3.8-.9-2.9-.2-1.9.3-1.5.6-7.9.4 4.7 1.6 7.2 2.4h.2-.2c-6.2-.3-12.4-.7-18.6-1-.9 0-1.7-.1-2.6-.2 1.4-.2 2.7-.4 4.1-.5-1.1-.1-2.3-.3-3.3-.4-5.7-.4-4.6.2-3.5.8-3.2.3-2.8.9-4.1 1.4 1.5.2 3 .3 4.5.5.5.1 1.2.3 2 .4.2.1.4.2.5.3h-.2c-3.4-.2-5 0-6.4.2-1.1.6-7 .7-3.4 1.8-.7.1-1.3.1-1.9.2-.2.3-1.4.5-3.7.5.4.2.8.4 1.1.6-.2 0-.4 0-.6.1-.6-.2-.9-.1-1 0 .3.1.5.2.8.4-5.9 0-.6.8.6 1.4 1.3.3 2.5.6 3.7.8h.3s.1 0 .1.1c-.1 0-.3-.1-.4-.1-2.4 0-6.7-.7-10.1-1v.7l3.6.6c.5.2 1 .4 1.5.7-2.6-.1-4.3 0-3.8.4-.4.1-.9.1-1.3.2v135.7c1-.1 1.9-.2 2.9-.4 2.8.3 5.5.6 8.2.9h.2-.2c3.2.1 6.4.2 9.6.4 1.9.1 3.4.1 1.3-.3-.8-.1-2.5-.2-3.8-.4-.3-.1-.5-.2-.6-.3.3-.1.7-.2 1-.3 2.6.1 1.6-.3 1.4-.6.6-.4 1.3-.8 2-1.2 2.3-.1 3.1-.3 3-.7 6-.4 5.2-1.6 6-2.6l1.5-.9c1.8-.1 3.7-.2 5.5-.3.4.1.9.1 1.3.2-.7.1-1.6.2-1.6.4-1.7.9 6.2 1 9 1.4 2.6.4 3.8.3 4.6.2 2 0 4 0 5.9.1 4.3.3 4.8 0 4.3-.3 1.9.2 3.2.4 4 .7-1 .2-2.1.3-3.1.5-2.6 0-.7.5-.1.8.9.4 1.3.8 4.9 1.2.2.1.3.2.4.3-2.7.2 1.2.7 2.6 1-4.4-.2-7.6-.1-10.1.1-3.1.2-1.1.7 4.3 1.1.3.1.6.2.8.4-8.9-.7-12.7-.4-13.7.4-1.4.2-6.6-.3-5.6.3-5.8-.1-11.6-.1-.9 1.4 4.3.8 9.3 1.2 14.4 1.7 2.9.4 5.8.7 8.8 1.1 2.8.5 5.5 1 6.9.5.4-.2 1.6-.4-.9-.7-4.7-.5-3.7.1-6 .2-1.7-.7-4.9-1.1-9.5-1.4-2.3-.4-6.3-.8-7.1-1.3.5-.1 1.1-.1 1.6-.2 4.6.5 9.5 1.1 12 .7 4.7.2 9.2.6 13.6 1.3 6.3 1.5 6.2.3 9.6.5 1.6 0 1.4-.3.8-.5 3.9-.3 8.6-.4 7.4-1.4 5.4.1 6-.5 5.7-1.2.8 0 1.6.1 2.4.1 2 .1 3.6.1 3.9-.1.7-.6 6.8-.5 5.2-1.4.7 0 1.5.1 2.3.1 2.4.4 4.7.8 7.1 1.3-2.9-.1-7-.2-4.3.4 2 .5 3.9.2 5.9.3 2.1-.3 1.2-.9.8-1.4.5-.1 1.1-.1 1.6-.2 1.6.1 3.2.2 4.7.2 1 .2 2.1.3 3.1.5 4.9 1.2 4.6.1 7.3.4 1.1.3.4.6 3.6.8 2.6.1 1.6-.3 1.2-.6 6.9-.4-4.6-1.4-7-2.1h-.2.2l16.8.9c.8 0 1.5.1 2.3.1-1.2.2-2.3.3-3.5.5 1 .1 2.2.3 3.1.3 5.2.3 4-.2 2.9-.7 2.7-.2 2.2-.9 3.3-1.3-1.4-.1-2.8-.3-4.2-.4-.5-.1-1.1-.2-1.9-.3l-.6-.3h.2c3 .2 4.4 0 5.7-.2.9-.5 6-.6 2.6-1.6.6-.1 1.1-.1 1.6-.2.1-.3 1.2-.4 3.2-.4-.4-.2-.8-.3-1.2-.5.2 0 .4 0 .5-.1.4-.1.7-.2.7-.3-.3-.1-.5-.2-.8-.3 5.2 0 .3-.8-.9-1.2-1.2-.3-2.3-.5-3.5-.8h-.2s-.1 0-.1-.1c.1 0 .2 0 .4.1 4 0 14.9 2.1 13.4.5-2.7.2-5.1-.4-7.7-.7l-1.5-.6c2.4.1 3.8 0 3.2-.4.4-.1.9-.1 1.3-.2 12.4 1.5 22.6 3.1 30.5 4.7.2 0 .5.1.7.1 0 0 0-.1-.1-.2 1.3 0 2.6-.1 3.9-.1 4.1.1 7.6.7 11.2 1.2.2.3-5.3.1 0 .9 5.2.8 2.2 1 .6 1.2-1.6 0-2.4.1-2.6.2.7.2 1.4.5 2 .7.4.1.9.2 1.4.3 1.8.6 5.8 1.4 8.8 1.3 2.9-.2.2-1.1-4-1.9-1.7-.6 1.4-.7 1.8-1.1 2.7.2 5.4.4 8.5.7-10.3-2.1-9.4-2.4 3.9-2.2 3.3.1 4.2-.3 3-.8 2 .1 3.6.1 4-.1 1.9.1 3.6.1 4-.1 2.1 0 1.3-.6 5.3-.2 10 1.2 11.5.6 13.2 0 1.4 0 2.7-.1 4.1-.1 3.7.3 6.3.2 8.8.2 3.7.8 1.7 1.1 1.5 1.5-2.2-.1-5.9-.4-5.2 0 .8.4 3 .4 4.1.3.6-.1.8-.2 1.2-.3 6.8.3 6.1-.4 5.6-1.1 6.5.1 9.5-.3 12.9-.8l4.2-.9 5.4-.3c5.3.2 7.9 0 6.5-.8 4.2.1 10 .4 9.8-.3 2.1-.6 11.3-.1 10-1.2.5-.1.9-.1 1.4-.2 1.8-.1 3.6-.2 5.3-.4 1.7-.2 3.4-.4 5-.6 1.3 0 2.6-.1 3.9-.1 4.6.5 7.4.5 8.9.2 3.8-.1 3.6-.8 8.8-.7.3-1 10.9-.9 4.3-2.7-.4-.1-.7-.2-1.1-.4 1.7-.4 6.4-.5 5.1-1.4M11.7 36.4c-.6-.1-1-.2-.9-.3.2-.2 1.2-.2 2.5-.1-.5.1-1 .2-1.6.4m92 113.4h.2-.1.1c0 .1-.1 0-.2 0m20.4-10.3H124.7h-.6m24.3 2.5h.5c-.1.1-.3 0-.5 0m.6 7.5c-.2 0-.4-.1-.5-.1h.6l-.1.1m100.5-5.9s-.1 0-.1-.1h.3c-.1.1-.2.1-.2.1m46.5-.6h.4-.4m71.4-4.2h-.2c-2-.3-4-.3-6.1-.5h8.8c.6.1 1.4.3 2.4.3 0 .3.1.5 1.4.9-1.9-.3-3.9-.5-6.3-.7"/>
</svg>
