<svg id="Слой_1" xmlns="http://www.w3.org/2000/svg" xmlns:xlink="http://www.w3.org/1999/xlink" viewBox="0 0 44.8 38.2">
    <style>
        .st0{clip-path:url(#SVGID_2_);fill:#d22937}
    </style>
    <defs>
        <path id="SVGID_1_" d="M0 0h44.8v38.2H0z"/>
    </defs>
    <clipPath id="SVGID_2_">
        <use xlink:href="#SVGID_1_" overflow="visible"/>
    </clipPath>
    <path class="st0" d="M30.2 20.7c-.4-.4-.9-.4-1.3 0l-.9.9c-.4.4-.4.9 0 1.3.2.2.4.3.6.3.2 0 .5-.1.6-.3l.9-.9c.5-.4.5-1 .1-1.3"/>
    <path class="st0" d="M35.9 26.2c-.4-.4-.9-.4-1.3 0l-.9.9c-.4.4-.4.9 0 1.3.2.2.4.3.6.3s.5-.1.6-.3l.9-.9c.5-.4.5-.9.1-1.3"/>
    <path class="st0" d="M30.9 25.9c-.4-.4-.9-.4-1.3 0l-.9.9c-.4.4-.4.9 0 1.3.2.2.4.3.6.3.2 0 .5-.1.6-.3l.9-.9c.4-.4.4-.9.1-1.3"/>
    <path class="st0" d="M12.3 32.6c-1.3-.7-2.6-2-3.7-3.6-.3-.4-.9-.5-1.3-.2s-.5.9-.2 1.3c1.3 1.8 2.8 3.2 4.3 4.1.1.1.3.1.4.1.3 0 .6-.2.8-.5.3-.4.1-1-.3-1.2"/>
    <path class="st0" d="M7.3 27c-.2-.5-.8-.6-1.2-.4-.4.2-.6.8-.4 1.2.2.3.5.5.8.5.1 0 .3 0 .4-.1.4-.2.6-.8.4-1.2"/>
    <path class="st0" d="M6 20.6c-.5 0-.9.4-.9.9v1.3c0 .5.4.9.9.9s.9-.4.9-.9v-1.3c0-.5-.4-.9-.9-.9"/>
    <path class="st0" d="M14 20.7c-.5 0-.9.4-.9.9v1.3c0 .5.4.9.9.9s.9-.4.9-.9v-1.3c0-.5-.4-.9-.9-.9"/>
    <path class="st0" d="M21.9 20.6c-.5 0-.9.4-.9.9v1.3c0 .5.4.9.9.9s.9-.4.9-.9v-1.3c0-.5-.4-.9-.9-.9"/>
    <path class="st0" d="M10.2 23.8c-.5 0-.9.4-.9.9V26c0 .5.4.9.9.9s.9-.4.9-.9v-1.3c0-.5-.4-.9-.9-.9"/>
    <path class="st0" d="M18.1 23.9c-.5 0-.9.4-.9.9v1.3c0 .5.4.9.9.9s.9-.4.9-.9v-1.3c0-.5-.4-.9-.9-.9"/>
    <path class="st0" d="M14 27.5c-.5 0-.9.4-.9.9v1.3c0 .5.4.9.9.9s.9-.4.9-.9v-1.3c0-.5-.4-.9-.9-.9"/>
    <path class="st0" d="M43.3 12.1c.4.4.9.4 1.3 0s.4-.9 0-1.3c-.8-.8-1.9-1.2-3.1-1.1-.8.1-1.7.4-2.4.9-1-1-2.2-1.9-3.4-2.5-.3-.1-.5-.3-.8-.4-4.6-2.1-9.2-1.6-12.8 1.5-.7-.4-1.5-.8-2.3-1-1.3-.5-3-.8-4.9-.8.4-3.1 2.6-5.5 5.3-5.5.5 0 .9-.4.9-.9s-.4-.9-.9-.9c-3.7 0-6.7 3.2-7.1 7.3-1.4.1-2.9.2-4.2.6-.3 0-.6.1-.9.2-2.4.8-4.4 2.3-5.8 4.1-1.5 2-2.2 4.4-2.2 7.1 0 1 .1 2.1.3 3.3v.1C1.1 26.4 2.8 30.1 5 33c2.6 3.3 5.8 5.2 8.9 5.2 2.4 0 4.8-1.1 7-3.1 1.4.5 3 .8 4.6.8 4.4 0 9.2-1.7 12.7-4 1-.7 2-1.4 2.7-2.2 1.9-1.9 3.1-4.2 3.4-6.6.3-2.3-.1-4.7-1.2-7-.6-1.2-1.5-2.6-2.8-4 .4-.2.8-.4 1.2-.4.8-.2 1.4 0 1.8.4M9.4 9.7c1.4-.4 3-.6 4.5-.6h.2c1.7 0 3.4.2 4.6.6 1.7.6 2.8 1.7 3.3 3.1-1.7-1-3.6-1.6-4.9-1.6-.4 0-.7.2-.9.6-.1.4 0 .8.3 1 .2.2 1.1 1 1.7 2.5-1.1-1-2.2-1.7-3.9-2.4-.2-.1-.3-.1-.5-.1-1.4.2-2.7 1.3-3.9 2.5.7-1.8 1.5-2.7 1.5-2.7.3-.3.3-.7.2-1-.2-.3-.5-.6-.9-.5-.1 0-2.4.1-4.5.8 1.2-1.4 3-2.2 3.2-2.2M14 36.4c-5.4 0-10.5-7.2-11.8-14v-.1c-.2-1.1-.3-2.1-.3-3 0-2.2.6-4.2 1.8-5.9v.1c-.1.4.1.7.4.9.3.2.7.2 1-.1.9-.7 2.5-1.1 3.8-1.3-.6 1.1-1.2 2.6-1.4 4.7 0 .4.1.7.4.9.3.2.7.2 1 0 .5-.3 1-.8 1.7-1.4 1-.9 2.3-2.2 3.4-2.5 2 .8 3 1.8 5 3.7l.1.1c.2.2.4.3.6.3.1 0 .3 0 .4-.1.3-.2.6-.5.5-.9-.1-1.9-.6-3.4-1.2-4.4 1.2.4 2.5 1.2 3.3 2.1.3.3.7.4 1 .2s.6-.5.6-.9c0-.6-.1-1.3-.3-1.8 1.3 1.7 2 3.8 2 6.2 0 1-.1 2-.3 3.2-.7 3.3-2.3 6.8-4.4 9.4-2.2 3-4.8 4.6-7.3 4.6m25.7-8.1c-.7.7-1.5 1.4-2.5 2-2.4 1.6-5.3 2.8-8.2 3.3-2.5.5-4.8.5-6.7 0 .1-.2.3-.3.4-.5 2.3-2.8 4-6.6 4.7-10.2.2-1.2.4-2.4.4-3.5 0-2.7-.8-5.1-2.3-7.1-.6-.7-1.2-1.4-2-2 1.3-1 2.8-1.7 4.4-1.9l-.1.1c-.3.2-.4.6-.3 1 .2.2.5.5.8.5 1.1.2 2.5 1 3.6 1.8-1.2.4-2.7 1-4.3 2.3-.3.2-.4.6-.3.9.1.3.4.6.7.7.6.1 1.3.1 2.2.1 1.4 0 3.2.1 4.2.6.8 2 .8 3.4.9 6.1v.2c0 .4.2.7.6.8.4.1.7 0 1-.2 1.3-1.4 1.9-2.8 2.3-4 .5 1.2.9 2.6.9 3.9 0 .4.2.7.6.9.1 0 .2.1.4.1.3 0 .5-.1.7-.3.4-.5.8-1 1.1-1.5-.5 2.3-1.5 4.2-3.2 5.9m1.6-12.1c.7 1.6.8 3.1.2 4.6-.5-1.9-1.4-3.6-2.4-4.6-.3-.3-.7-.3-1-.2-.3.2-.6.5-.5.9 0 .3.1 1.5-.6 3-.1-1.5-.4-2.8-1-4.4-.1-.1-.2-.3-.3-.4-1.1-.8-2.8-1-4.5-1 1.7-.8 3-.8 3-.8.4 0 .7-.2.9-.6.1-.4 0-.8-.2-1-.1-.1-1.8-1.6-3.7-2.6 1.8-.3 3.6.5 3.8.6 1.3.7 3.6 2.8 3.6 2.8s2.1 2.6 2.7 3.7"/>
</svg>
