<svg id="Слой_1" xmlns="http://www.w3.org/2000/svg" xmlns:xlink="http://www.w3.org/1999/xlink" viewBox="0 0 109.5 144">
    <style>
        .st0{clip-path:url(#SVGID_2_);fill-rule:evenodd;clip-rule:evenodd;fill:#fff}
    </style>
    <defs>
        <path id="SVGID_1_" d="M0 0h6385.6v144H0z"/>
    </defs>
    <clipPath id="SVGID_2_">
        <use xlink:href="#SVGID_1_" overflow="visible"/>
    </clipPath>
    <path class="st0" d="M109.5 72c0 39.8-24.5 72-54.8 72S0 111.8 0 72 24.5 0 54.8 0s54.7 32.2 54.7 72"/>
    <path class="st0" d="M243 72c0 39.8-24.5 72-54.8 72s-54.8-32.2-54.8-72S158 0 188.3 0 243 32.2 243 72"/>
    <path class="st0" d="M376.5 72c0 39.8-24.5 72-54.8 72S267 111.8 267 72s24.5-72 54.8-72 54.7 32.2 54.7 72"/>
    <path class="st0" d="M510 72c0 39.8-24.5 72-54.8 72s-54.8-32.2-54.8-72S425 0 455.3 0 510 32.2 510 72"/>
    <path class="st0" d="M643.5 72c0 39.8-24.5 72-54.8 72-30.3 0-54.8-32.2-54.8-72s24.5-72 54.8-72c30.3 0 54.8 32.2 54.8 72"/>
    <path class="st0" d="M777 72c0 39.8-24.5 72-54.8 72-30.3 0-54.8-32.2-54.8-72S692 0 722.2 0C752.5 0 777 32.2 777 72"/>
    <path class="st0" d="M910.5 72c0 39.8-24.5 72-54.8 72-30.3 0-54.8-32.2-54.8-72s24.5-72 54.8-72c30.3 0 54.8 32.2 54.8 72"/>
    <path class="st0" d="M1044 72c0 39.8-24.5 72-54.8 72-30.3 0-54.8-32.2-54.8-72S959 0 989.2 0c30.3 0 54.8 32.2 54.8 72"/>
    <path class="st0" d="M1177.5 72c0 39.8-24.5 72-54.8 72s-54.8-32.2-54.8-72 24.5-72 54.8-72 54.8 32.2 54.8 72"/>
    <path class="st0" d="M1311 72c0 39.8-24.5 72-54.8 72s-54.8-32.2-54.8-72 24.5-72 54.8-72 54.8 32.2 54.8 72"/>
    <path class="st0" d="M1444.5 72c0 39.8-24.5 72-54.8 72s-54.8-32.2-54.8-72 24.5-72 54.8-72 54.8 32.2 54.8 72"/>
    <path class="st0" d="M1578 72c0 39.8-24.5 72-54.8 72-30.2 0-54.8-32.2-54.8-72s24.5-72 54.8-72c30.3 0 54.8 32.2 54.8 72"/>
    <path class="st0" d="M1711.5 72c0 39.8-24.5 72-54.8 72s-54.8-32.2-54.8-72 24.5-72 54.8-72 54.8 32.2 54.8 72"/>
    <path class="st0" d="M1845 72c0 39.8-24.5 72-54.8 72s-54.8-32.2-54.8-72 24.5-72 54.8-72 54.8 32.2 54.8 72"/>
    <path class="st0" d="M1978.5 72c0 39.8-24.5 72-54.8 72s-54.8-32.2-54.8-72 24.5-72 54.8-72 54.8 32.2 54.8 72"/>
    <path class="st0" d="M2111.9 72c0 39.8-24.5 72-54.8 72s-54.8-32.2-54.8-72 24.5-72 54.8-72 54.8 32.2 54.8 72"/>
    <path class="st0" d="M2245.4 72c0 39.8-24.5 72-54.8 72s-54.8-32.2-54.8-72 24.5-72 54.8-72 54.8 32.2 54.8 72"/>
    <path class="st0" d="M2378.9 72c0 39.8-24.5 72-54.8 72-30.2 0-54.8-32.2-54.8-72s24.5-72 54.8-72c30.3 0 54.8 32.2 54.8 72"/>
    <path class="st0" d="M2512.4 72c0 39.8-24.5 72-54.8 72s-54.8-32.2-54.8-72 24.5-72 54.8-72 54.8 32.2 54.8 72"/>
    <path class="st0" d="M2645.9 72c0 39.8-24.5 72-54.8 72s-54.8-32.2-54.8-72 24.5-72 54.8-72 54.8 32.2 54.8 72"/>
    <path class="st0" d="M2779.4 72c0 39.8-24.5 72-54.8 72s-54.8-32.2-54.8-72 24.5-72 54.8-72 54.8 32.2 54.8 72"/>
    <path class="st0" d="M2912.9 72c0 39.8-24.5 72-54.8 72s-54.8-32.2-54.8-72 24.5-72 54.8-72 54.8 32.2 54.8 72"/>
    <path class="st0" d="M3046.4 72c0 39.8-24.5 72-54.8 72s-54.8-32.2-54.8-72 24.5-72 54.8-72 54.8 32.2 54.8 72"/>
    <path class="st0" d="M3179.9 72c0 39.8-24.5 72-54.8 72-30.2 0-54.8-32.2-54.8-72s24.5-72 54.8-72c30.3 0 54.8 32.2 54.8 72"/>
    <path class="st0" d="M3315.3 72c0 39.8-24.5 72-54.8 72s-54.8-32.2-54.8-72 24.5-72 54.8-72 54.8 32.2 54.8 72"/>
    <path class="st0" d="M3448.8 72c0 39.8-24.5 72-54.8 72s-54.8-32.2-54.8-72 24.5-72 54.8-72 54.8 32.2 54.8 72"/>
    <path class="st0" d="M3582.3 72c0 39.8-24.5 72-54.8 72s-54.8-32.2-54.8-72 24.5-72 54.8-72 54.8 32.2 54.8 72"/>
    <path class="st0" d="M3715.8 72c0 39.8-24.5 72-54.8 72s-54.8-32.2-54.8-72 24.5-72 54.8-72 54.8 32.2 54.8 72"/>
    <path class="st0" d="M3849.3 72c0 39.8-24.5 72-54.8 72-30.2 0-54.8-32.2-54.8-72s24.5-72 54.8-72c30.2 0 54.8 32.2 54.8 72"/>
    <path class="st0" d="M3982.7 72c0 39.8-24.5 72-54.8 72s-54.8-32.2-54.8-72 24.5-72 54.8-72 54.8 32.2 54.8 72"/>
    <path class="st0" d="M4116.2 72c0 39.8-24.5 72-54.8 72s-54.8-32.2-54.8-72 24.5-72 54.8-72 54.8 32.2 54.8 72"/>
    <path class="st0" d="M4249.7 72c0 39.8-24.5 72-54.8 72s-54.8-32.2-54.8-72 24.5-72 54.8-72 54.8 32.2 54.8 72"/>
    <path class="st0" d="M4383.2 72c0 39.8-24.5 72-54.8 72s-54.8-32.2-54.8-72 24.5-72 54.8-72 54.8 32.2 54.8 72"/>
    <path class="st0" d="M4516.7 72c0 39.8-24.5 72-54.8 72s-54.8-32.2-54.8-72 24.5-72 54.8-72 54.8 32.2 54.8 72"/>
    <path class="st0" d="M4650.2 72c0 39.8-24.5 72-54.8 72-30.2 0-54.8-32.2-54.8-72s24.5-72 54.8-72c30.3 0 54.8 32.2 54.8 72"/>
    <path class="st0" d="M4783.7 72c0 39.8-24.5 72-54.8 72s-54.8-32.2-54.8-72 24.5-72 54.8-72 54.8 32.2 54.8 72"/>
    <path class="st0" d="M4917.2 72c0 39.8-24.5 72-54.8 72s-54.8-32.2-54.8-72 24.5-72 54.8-72 54.8 32.2 54.8 72"/>
    <path class="st0" d="M5050.7 72c0 39.8-24.5 72-54.8 72s-54.8-32.2-54.8-72 24.5-72 54.8-72 54.8 32.2 54.8 72"/>
    <path class="st0" d="M5184.2 72c0 39.8-24.5 72-54.8 72s-54.8-32.2-54.8-72 24.5-72 54.8-72 54.8 32.2 54.8 72"/>
    <path class="st0" d="M5317.7 72c0 39.8-24.5 72-54.8 72s-54.8-32.2-54.8-72 24.5-72 54.8-72 54.8 32.2 54.8 72"/>
    <path class="st0" d="M5451.2 72c0 39.8-24.5 72-54.8 72-30.2 0-54.8-32.2-54.8-72s24.5-72 54.8-72c30.2 0 54.8 32.2 54.8 72"/>
    <path class="st0" d="M5584.7 72c0 39.8-24.5 72-54.8 72s-54.8-32.2-54.8-72 24.5-72 54.8-72 54.8 32.2 54.8 72"/>
    <path class="st0" d="M5718.2 72c0 39.8-24.5 72-54.8 72s-54.8-32.2-54.8-72 24.5-72 54.8-72 54.8 32.2 54.8 72"/>
    <path class="st0" d="M5851.7 72c0 39.8-24.5 72-54.8 72s-54.8-32.2-54.8-72 24.5-72 54.8-72 54.8 32.2 54.8 72"/>
    <path class="st0" d="M5985.1 72c0 39.8-24.5 72-54.8 72s-54.8-32.2-54.8-72 24.5-72 54.8-72 54.8 32.2 54.8 72"/>
    <path class="st0" d="M6118.6 72c0 39.8-24.5 72-54.8 72s-54.8-32.2-54.8-72 24.5-72 54.8-72 54.8 32.2 54.8 72"/>
    <path class="st0" d="M6252.1 72c0 39.8-24.5 72-54.8 72-30.2 0-54.8-32.2-54.8-72s24.5-72 54.8-72c30.3 0 54.8 32.2 54.8 72"/>
    <path class="st0" d="M6385.6 72c0 39.8-24.5 72-54.8 72s-54.8-32.2-54.8-72 24.5-72 54.8-72 54.8 32.2 54.8 72"/>
</svg>
