<?xml version="1.0" encoding="utf-8"?>
<!-- Generator: Adobe Illustrator 21.1.0, SVG Export Plug-In . SVG Version: 6.00 Build 0)  -->
<svg version="1.1" id="Слой_1" xmlns="http://www.w3.org/2000/svg" xmlns:xlink="http://www.w3.org/1999/xlink" x="0px" y="0px"
	 viewBox="0 0 210.2 158.8" style="enable-background:new 0 0 210.2 158.8;" xml:space="preserve">
<style type="text/css">
	.st0{clip-path:url(#SVGID_2_);fill:#426C66;}
	.st1{clip-path:url(#SVGID_2_);fill:#D65970;}
</style>
<g>
	<defs>
		<rect id="SVGID_1_" width="210.2" height="158.8"/>
	</defs>
	<clipPath id="SVGID_2_">
		<use xlink:href="#SVGID_1_"  style="overflow:visible;"/>
	</clipPath>
	<path class="st0" d="M128.6,26.7H2c-1.1,0-2-0.9-2-2V2c0-1.1,0.9-2,2-2h126.6c1.1,0,2,0.9,2,2v22.6
		C130.6,25.7,129.7,26.7,128.6,26.7 M2,1C1.5,1,1,1.5,1,2v22.6c0,0.6,0.5,1,1,1h126.6c0.6,0,1-0.5,1-1V2c0-0.6-0.5-1-1-1H2z"/>
	<path class="st0" d="M20.4,9.1c0.2,0,0.3,0.1,0.3,0.3v7.9c0,0.2-0.1,0.3-0.3,0.3h-0.5c-0.2,0-0.3-0.1-0.3-0.3v-6.8l-2.2,1.2
		c-0.2,0.1-0.4,0.1-0.5-0.1l-0.2-0.4c-0.1-0.2,0-0.3,0.1-0.4l2.7-1.5c0.1-0.1,0.3-0.1,0.4-0.1H20.4z"/>
	<path class="st0" d="M23.4,11.8c0-1.8,1.2-2.9,3.1-2.9c2,0,3.1,1.1,3.1,2.9V15c0,1.8-1.2,2.9-3.1,2.9c-2,0-3.1-1.1-3.1-2.9V11.8z
		 M28.5,11.8c0-1.1-0.7-1.8-2-1.8c-1.3,0-2,0.7-2,1.8V15c0,1.1,0.7,1.8,2,1.8c1.2,0,2-0.7,2-1.8V11.8z"/>
	<path class="st0" d="M32.2,11.8c0-1.8,1.2-2.9,3.1-2.9c2,0,3.1,1.1,3.1,2.9V15c0,1.8-1.2,2.9-3.1,2.9c-2,0-3.1-1.1-3.1-2.9V11.8z
		 M37.3,11.8c0-1.1-0.7-1.8-2-1.8c-1.3,0-2,0.7-2,1.8V15c0,1.1,0.7,1.8,2,1.8c1.2,0,2-0.7,2-1.8V11.8z"/>
	<path class="st0" d="M40.8,10.7c0-1.1,0.7-1.8,2-1.8c1.3,0,2,0.7,2,1.8v0.9c0,1.1-0.7,1.8-2,1.8c-1.3,0-2-0.7-2-1.8V10.7z
		 M43.8,10.8c0-0.6-0.4-1-1-1c-0.7,0-1,0.3-1,1v0.8c0,0.6,0.4,1,1,1c0.7,0,1-0.3,1-1V10.8z M48.7,9.1c0.2,0,0.3,0.1,0.1,0.3l-5.9,8
		c-0.2,0.3-0.2,0.3-0.6,0.3h-0.4c-0.2,0-0.3-0.1-0.2-0.3l5.9-8c0.2-0.2,0.2-0.3,0.6-0.3H48.7z M45.9,15.2c0-1.1,0.7-1.8,2-1.8
		c1.3,0,2,0.7,2,1.8v0.9c0,1.1-0.7,1.8-2,1.8c-1.3,0-2-0.7-2-1.8V15.2z M48.9,15.3c0-0.6-0.4-1-1.1-1c-0.7,0-1,0.4-1,1v0.8
		c0,0.6,0.4,1,1,1c0.7,0,1.1-0.3,1.1-1V15.3z"/>
	<path class="st0" d="M56,12c0-1.9,1.2-3.1,3.4-3.1s3.4,1.2,3.4,3.1v2.7c0,1.9-1.2,3.1-3.4,3.1S56,16.7,56,14.8V12z M61.6,12
		c0-1.3-0.8-2-2.2-2c-1.4,0-2.2,0.7-2.2,2v2.7c0,1.3,0.8,2,2.2,2c1.4,0,2.2-0.7,2.2-2V12z"/>
	<path class="st0" d="M69.2,9.1c1.6,0,2.6,0.9,2.6,2.6c0,1.3-0.7,2.1-1.8,2.4c0.2,0.1,0.4,0.3,0.6,0.7l1.3,2.6
		c0.1,0.2,0.1,0.3-0.2,0.3h-0.5c-0.4,0-0.5-0.1-0.6-0.3l-1.1-2.2c-0.3-0.7-0.7-1-1.6-1h-1.3v3.1c0,0.2-0.1,0.3-0.3,0.3h-0.5
		c-0.2,0-0.3-0.1-0.3-0.3V9.5c0-0.2,0.1-0.3,0.3-0.3H69.2z M69.1,10.2h-2.4v3h2.4c1,0,1.5-0.5,1.5-1.5
		C70.6,10.8,70.1,10.2,69.1,10.2"/>
	<path class="st0" d="M80.7,13.1c0.2,0,0.3,0.1,0.3,0.3V15c0,1.7-1.2,2.9-3.4,2.9c-2.2,0-3.4-1.2-3.4-3.1V12c0-1.9,1.2-3.1,3.4-3.1
		c1.7,0,2.8,0.7,3.2,2.1c0.1,0.2,0,0.3-0.2,0.4l-0.5,0.2c-0.2,0.1-0.3,0-0.4-0.2c-0.3-0.9-0.9-1.4-2.1-1.4c-1.4,0-2.2,0.7-2.2,2v2.8
		c0,1.3,0.8,2,2.2,2c1.4,0,2.2-0.7,2.2-1.8v-0.8h-2.1c-0.2,0-0.3-0.1-0.3-0.3v-0.5c0-0.2,0.1-0.3,0.3-0.3H80.7z"/>
	<path class="st0" d="M90.4,17.4c0.1,0.2,0,0.3-0.2,0.3h-0.5c-0.4,0-0.5-0.1-0.6-0.3l-0.7-2h-3.6l-0.7,2c-0.1,0.2-0.2,0.3-0.6,0.3
		H83c-0.2,0-0.3-0.1-0.2-0.3l3.1-8c0.1-0.2,0.2-0.3,0.4-0.3h0.5c0.2,0,0.3,0.1,0.4,0.3L90.4,17.4z M86.8,11.3
		c-0.1-0.4-0.2-0.8-0.2-1.1h-0.1l0,0.2c0,0.2-0.1,0.6-0.2,1l-1.2,3.2H88L86.8,11.3z"/>
	<path class="st0" d="M98.8,9.1c0.2,0,0.3,0.1,0.3,0.3v7.9c0,0.2-0.1,0.3-0.3,0.3h-0.5c-0.1,0-0.3-0.1-0.3-0.2l-3.4-5
		c-0.2-0.3-0.4-0.7-0.6-1.1l-0.4-0.7h-0.1c0,0,0,0.3,0.1,0.8c0.1,0.5,0.1,1,0.1,1.4v4.5c0,0.2-0.1,0.3-0.3,0.3h-0.5
		c-0.2,0-0.3-0.1-0.3-0.3V9.4c0-0.2,0.1-0.3,0.3-0.3h0.5c0.1,0,0.3,0,0.3,0.2l3.4,4.9c0.2,0.3,0.4,0.7,0.7,1.2
		c0.2,0.5,0.3,0.7,0.4,0.7h0.1c0,0,0-0.3-0.1-0.9c-0.1-0.5-0.1-1-0.1-1.5V9.4c0-0.2,0.1-0.3,0.3-0.3H98.8z"/>
	<path class="st0" d="M102.1,9.5c0-0.2,0.1-0.3,0.3-0.3h0.5c0.2,0,0.3,0.1,0.3,0.3v7.9c0,0.2-0.1,0.3-0.3,0.3h-0.5
		c-0.2,0-0.3-0.1-0.3-0.3V9.5z"/>
	<path class="st0" d="M106,12c0-1.9,1.2-3.1,3.4-3.1c1.7,0,2.8,0.7,3.2,2.1c0.1,0.2,0,0.3-0.2,0.4l-0.5,0.2c-0.2,0.1-0.3,0-0.4-0.2
		c-0.3-0.9-0.9-1.4-2.1-1.4c-1.4,0-2.2,0.7-2.2,2v2.8c0,1.3,0.8,2,2.2,2c1.2,0,1.8-0.4,2.1-1.4c0.1-0.2,0.2-0.3,0.4-0.2l0.5,0.2
		c0.2,0.1,0.3,0.2,0.2,0.4c-0.4,1.4-1.5,2.1-3.3,2.1c-2.2,0-3.4-1.2-3.4-3.1V12z"/>
	<path class="st0" d="M208.6,26.7h-71.2c-0.9,0-1.6-0.7-1.6-1.6V1.6c0-0.9,0.7-1.6,1.6-1.6h71.2c0.9,0,1.6,0.7,1.6,1.6V25
		C210.2,25.9,209.5,26.7,208.6,26.7 M137.4,1c-0.4,0-0.6,0.3-0.6,0.6V25c0,0.4,0.3,0.6,0.6,0.6h71.2c0.4,0,0.6-0.3,0.6-0.6V1.6
		c0-0.4-0.3-0.6-0.6-0.6H137.4z"/>
	<path class="st0" d="M159.3,9.7c0.2,0,0.3,0.1,0.2,0.3l-3,8c-0.1,0.2-0.2,0.3-0.4,0.3h-0.5c-0.2,0-0.3-0.1-0.4-0.3l-3-8
		c-0.1-0.2,0-0.3,0.2-0.3h0.5c0.4,0,0.5,0,0.6,0.3l2.1,5.8c0.1,0.4,0.3,1.1,0.3,1.1h0.1c0,0,0.2-0.7,0.3-1.1l2.1-5.8
		c0.1-0.2,0.2-0.3,0.6-0.3H159.3z"/>
	<path class="st0" d="M166.5,9.7c0.2,0,0.3,0.1,0.3,0.3v0.5c0,0.2-0.1,0.3-0.3,0.3h-4v2.6h3.4c0.2,0,0.3,0.1,0.3,0.3v0.4
		c0,0.2-0.1,0.3-0.3,0.3h-3.4v2.7h4.1c0.2,0,0.3,0.1,0.3,0.3V18c0,0.2-0.1,0.3-0.3,0.3h-5c-0.2,0-0.3-0.1-0.3-0.3V10
		c0-0.2,0.1-0.3,0.3-0.3H166.5z"/>
	<path class="st0" d="M175.3,13.7c0.2,0,0.3,0.1,0.3,0.3v1.5c0,1.7-1.2,2.9-3.4,2.9c-2.2,0-3.4-1.2-3.4-3.1v-2.7
		c0-1.9,1.2-3.1,3.4-3.1c1.7,0,2.8,0.7,3.2,2.1c0.1,0.2,0,0.3-0.2,0.4l-0.5,0.2c-0.2,0.1-0.3,0-0.4-0.2c-0.3-0.9-0.9-1.4-2.1-1.4
		c-1.4,0-2.2,0.7-2.2,2v2.8c0,1.3,0.8,2,2.2,2c1.4,0,2.2-0.7,2.2-1.8v-0.8h-2.1c-0.2,0-0.3-0.1-0.3-0.3V14c0-0.2,0.1-0.3,0.3-0.3
		H175.3z"/>
	<path class="st0" d="M184.7,18c0.1,0.2,0,0.3-0.2,0.3H184c-0.4,0-0.5,0-0.6-0.3l-0.7-2h-3.6l-0.7,2c-0.1,0.2-0.2,0.3-0.6,0.3h-0.4
		c-0.2,0-0.3-0.1-0.2-0.3l3.1-8c0.1-0.2,0.2-0.3,0.4-0.3h0.5c0.2,0,0.3,0.1,0.4,0.3L184.7,18z M181.2,11.9c-0.1-0.4-0.2-0.8-0.2-1.1
		h-0.1l0,0.2c0,0.2-0.1,0.6-0.2,1l-1.2,3.2h2.9L181.2,11.9z"/>
	<path class="st0" d="M192.8,9.7c0.2,0,0.3,0.1,0.3,0.3V18c0,0.2-0.1,0.3-0.3,0.3h-0.5c-0.1,0-0.3,0-0.3-0.2l-3.4-5
		c-0.2-0.3-0.4-0.7-0.6-1.1l-0.4-0.7h-0.1c0,0,0,0.3,0.1,0.8c0.1,0.5,0.1,1,0.1,1.4V18c0,0.2-0.1,0.3-0.3,0.3h-0.5
		c-0.2,0-0.3-0.1-0.3-0.3V10c0-0.2,0.1-0.3,0.3-0.3h0.5c0.1,0,0.3,0,0.3,0.2l3.4,4.9c0.2,0.3,0.4,0.7,0.7,1.2
		c0.2,0.5,0.3,0.7,0.4,0.7h0.1c0,0,0-0.3-0.1-0.9c-0.1-0.5-0.1-1-0.1-1.5V10c0-0.2,0.1-0.3,0.3-0.3H192.8z"/>
	<path class="st1" d="M12.5,146.1c0.2,0,0.3,0.1,0.3,0.3v1.4c0,1.5-1.1,2.5-3,2.5c-1.9,0-3-1-3-2.7v-2.4c0-1.7,1.1-2.7,3-2.7
		c1.5,0,2.5,0.6,2.8,1.8c0.1,0.2,0,0.3-0.2,0.4l-0.4,0.1c-0.2,0.1-0.3,0-0.4-0.2c-0.3-0.8-0.8-1.2-1.9-1.2c-1.3,0-1.9,0.6-1.9,1.7
		v2.4c0,1.1,0.7,1.8,1.9,1.8c1.2,0,1.9-0.6,1.9-1.6v-0.7H9.9c-0.2,0-0.3-0.1-0.3-0.3v-0.4c0-0.2,0.1-0.3,0.3-0.3H12.5z"/>
	<path class="st1" d="M21.5,142.6c0.2,0,0.3,0.1,0.3,0.3v7c0,0.2-0.1,0.3-0.3,0.3h-0.4c-0.2,0-0.3-0.1-0.3-0.3V146
		c0-0.6,0.1-1.2,0.2-2H21c-0.2,0.5-0.5,1.1-0.8,1.8l-1.3,2.4c-0.1,0.1-0.2,0.2-0.3,0.2h-0.3c-0.1,0-0.3-0.1-0.3-0.2l-1.4-2.4
		c-0.3-0.5-0.6-1.1-0.8-1.8h-0.1c0.1,0.7,0.2,1.3,0.2,2v3.8c0,0.2-0.1,0.3-0.3,0.3h-0.4c-0.2,0-0.3-0.1-0.3-0.3v-7
		c0-0.2,0.1-0.3,0.3-0.3h0.4c0.2,0,0.3,0,0.4,0.2l2.4,4.3l2.4-4.3c0.1-0.2,0.2-0.2,0.4-0.2H21.5z"/>
	<path class="st1" d="M23.9,145.1c0-1.7,1.1-2.7,3-2.7s3,1,3,2.7v2.4c0,1.7-1.1,2.7-3,2.7s-3-1-3-2.7V145.1z M28.8,145.1
		c0-1.1-0.7-1.8-1.9-1.8S25,144,25,145.1v2.4c0,1.1,0.7,1.8,1.9,1.8s1.9-0.6,1.9-1.8V145.1z"/>
	<line class="st1" x1="35.7" y1="133.4" x2="1" y2="158.5"/>
	<polygon class="st1" points="1.2,158.7 0.9,158.3 35.5,133.2 35.8,133.6 	"/>
	<path class="st1" d="M34.9,158.8H1c-0.6,0-1-0.5-1-1v-24.3c0-0.6,0.5-1.1,1-1.1h33.8c0.6,0,1,0.5,1,1.1v24.3
		C35.9,158.3,35.4,158.8,34.9,158.8 M1,132.9c-0.3,0-0.5,0.2-0.5,0.5v24.3c0,0.3,0.2,0.5,0.5,0.5h33.8c0.3,0,0.5-0.2,0.5-0.5v-24.3
		c0-0.3-0.2-0.5-0.5-0.5H1z"/>
	<line class="st1" x1="35.9" y1="67.7" x2="1.1" y2="93.1"/>
	<polygon class="st1" points="1.2,93.3 0.9,92.9 35.8,67.5 36.1,67.9 	"/>
	<path class="st1" d="M35.1,93.3H1.1c-0.6,0-1.1-0.5-1.1-1.1V67.7c0-0.6,0.5-1.1,1.1-1.1h34.1c0.6,0,1.1,0.5,1.1,1.1v24.5
		C36.2,92.8,35.7,93.3,35.1,93.3 M1.1,67.2c-0.3,0-0.5,0.2-0.5,0.5v24.5c0,0.3,0.2,0.5,0.5,0.5h34.1c0.3,0,0.5-0.2,0.5-0.5V67.7
		c0-0.3-0.2-0.5-0.5-0.5H1.1z"/>
	<line class="st1" x1="55" y1="100.7" x2="1.5" y2="125.8"/>
	<polygon class="st1" points="1.6,126 1.4,125.6 54.9,100.4 55.1,100.9 	"/>
	<path class="st1" d="M54,126.1H1.2c-0.7,0-1.2-0.6-1.2-1.2v-23.9c0-0.7,0.6-1.2,1.2-1.2H54c0.7,0,1.2,0.6,1.2,1.2v23.9
		C55.3,125.5,54.7,126.1,54,126.1 M1.2,100.1c-0.4,0-0.7,0.3-0.7,0.7v23.9c0,0.4,0.3,0.7,0.7,0.7H54c0.4,0,0.7-0.3,0.7-0.7v-23.9
		c0-0.4-0.3-0.7-0.7-0.7H1.2z"/>
	<path class="st1" d="M11.1,77c2,0,3.1,1.1,3.1,2.8v1.9c0,1.7-1.1,2.8-3.1,2.8H8.8c-0.2,0-0.3-0.1-0.3-0.3v-7c0-0.2,0.1-0.3,0.3-0.3
		H11.1z M13.2,79.8c0-1.2-0.7-1.8-2.1-1.8H9.5v5.6h1.6c1.3,0,2.1-0.7,2.1-1.8V79.8z"/>
	<path class="st1" d="M21.6,77c0.2,0,0.3,0.1,0.1,0.3l-2.7,4.3v2.8c0,0.2-0.1,0.3-0.3,0.3h-0.5c-0.2,0-0.3-0.1-0.3-0.3v-2.8
		l-2.7-4.2c-0.1-0.1-0.1-0.3,0.1-0.3h0.6c0.3,0,0.4,0,0.5,0.2l2,3.2l2-3.2c0.1-0.2,0.2-0.2,0.5-0.2H21.6z"/>
	<path class="st1" d="M28.1,77c0.2,0,0.3,0.1,0.3,0.3v0.4c0,0.2-0.1,0.3-0.3,0.3h-3.5v2.3h3c0.2,0,0.3,0.1,0.3,0.3v0.4
		c0,0.2-0.1,0.3-0.3,0.3h-3v2.4h3.7c0.2,0,0.3,0.1,0.3,0.3v0.4c0,0.2-0.1,0.3-0.3,0.3h-4.4c-0.2,0-0.3-0.1-0.3-0.3v-7
		c0-0.2,0.1-0.3,0.3-0.3H28.1z"/>
	<path class="st1" d="M12.5,113.4c0.2,0,0.3,0.1,0.3,0.3v1.4c0,1.5-1.1,2.5-3,2.5c-1.9,0-3-1-3-2.7v-2.4c0-1.7,1.1-2.7,3-2.7
		c1.5,0,2.5,0.6,2.8,1.8c0.1,0.2,0,0.3-0.2,0.4l-0.4,0.2c-0.2,0.1-0.3,0-0.4-0.2c-0.3-0.8-0.8-1.2-1.9-1.2c-1.3,0-1.9,0.6-1.9,1.7
		v2.4c0,1.1,0.7,1.8,1.9,1.8c1.2,0,1.9-0.6,1.9-1.6v-0.7H9.9c-0.2,0-0.3-0.1-0.3-0.3v-0.4c0-0.2,0.1-0.3,0.3-0.3H12.5z"/>
	<path class="st1" d="M15.6,109.9c0.2,0,0.3,0.1,0.3,0.3v6.3h3.3c0.2,0,0.3,0.1,0.3,0.3v0.4c0,0.2-0.1,0.3-0.3,0.3h-4.1
		c-0.2,0-0.3-0.1-0.3-0.3v-7c0-0.2,0.1-0.3,0.3-0.3H15.6z"/>
	<path class="st1" d="M22,114.8c0,1.1,0.6,1.8,1.9,1.8c1.2,0,1.9-0.7,1.9-1.8v-4.7c0-0.2,0.1-0.3,0.3-0.3h0.5c0.2,0,0.3,0.1,0.3,0.3
		v4.7c0,1.7-1,2.7-2.9,2.7c-1.9,0-2.9-1-2.9-2.7v-4.7c0-0.2,0.1-0.3,0.3-0.3h0.5c0.2,0,0.3,0.1,0.3,0.3V114.8z"/>
	<path class="st1" d="M33.7,109.9c0.2,0,0.3,0.1,0.3,0.3v0.4c0,0.2-0.1,0.3-0.3,0.3h-2v6.3c0,0.2-0.1,0.3-0.3,0.3H31
		c-0.2,0-0.3-0.1-0.3-0.3v-6.3h-2c-0.2,0-0.3-0.1-0.3-0.3v-0.4c0-0.2,0.1-0.3,0.3-0.3H33.7z"/>
	<path class="st1" d="M40.3,109.9c0.2,0,0.3,0.1,0.3,0.3v0.4c0,0.2-0.1,0.3-0.3,0.3h-3.5v2.3h3c0.2,0,0.3,0.1,0.3,0.3v0.4
		c0,0.2-0.1,0.3-0.3,0.3h-3v2.4h3.6c0.2,0,0.3,0.1,0.3,0.3v0.4c0,0.2-0.1,0.3-0.3,0.3H36c-0.2,0-0.3-0.1-0.3-0.3v-7
		c0-0.2,0.1-0.3,0.3-0.3H40.3z"/>
	<path class="st1" d="M48.1,109.9c0.2,0,0.3,0.1,0.3,0.3v7c0,0.2-0.1,0.3-0.3,0.3h-0.5c-0.1,0-0.2,0-0.3-0.1l-3-4.4
		c-0.2-0.3-0.3-0.6-0.5-1l-0.3-0.6h-0.1c0,0,0,0.3,0.1,0.7c0.1,0.5,0.1,0.9,0.1,1.2v3.9c0,0.2-0.1,0.3-0.3,0.3h-0.4
		c-0.2,0-0.3-0.1-0.3-0.3v-7c0-0.2,0.1-0.3,0.3-0.3h0.5c0.1,0,0.2,0,0.3,0.1l3,4.3c0.2,0.3,0.4,0.6,0.6,1c0.2,0.4,0.3,0.6,0.3,0.7
		h0.1c0,0,0-0.3-0.1-0.8c-0.1-0.5-0.1-0.9-0.1-1.3v-3.8c0-0.2,0.1-0.3,0.3-0.3H48.1z"/>
	<path class="st1" d="M9.8,42.8c1.4,0,2.2,0.5,2.8,1.6c0.1,0.2,0,0.3-0.1,0.4L12,45c-0.2,0.1-0.3,0.1-0.4-0.1
		c-0.4-0.7-0.9-1.1-1.8-1.1C8.6,43.8,8,44.2,8,45c0,0.6,0.3,0.8,0.9,1c0.4,0.1,0.7,0.2,1.2,0.2c0.6,0.1,1,0.1,1.5,0.3
		c0.3,0.1,0.5,0.2,0.6,0.4c0.3,0.3,0.6,0.8,0.6,1.4c0,1.4-1.1,2.3-2.9,2.3c-1.6,0-2.4-0.6-2.9-1.8c-0.1-0.2,0-0.3,0.2-0.4l0.4-0.2
		c0.2-0.1,0.3,0,0.4,0.2c0.3,0.8,1,1.2,1.9,1.2c1.3,0,1.9-0.4,1.9-1.3c0-0.4-0.2-0.7-0.6-0.9c-0.4-0.2-0.7-0.2-1.3-0.3
		C9.2,47.1,9,47,8.5,46.9c-0.3-0.1-0.5-0.1-0.6-0.2c-0.5-0.3-1-0.8-0.9-1.7C7,43.7,8,42.8,9.8,42.8"/>
	<path class="st1" d="M15.6,47.9c0,1.1,0.6,1.8,1.9,1.8c1.2,0,1.9-0.7,1.9-1.8v-4.7c0-0.2,0.1-0.3,0.3-0.3h0.5
		c0.2,0,0.3,0.1,0.3,0.3v4.7c0,1.7-1,2.7-2.9,2.7c-1.9,0-2.9-1-2.9-2.7v-4.7c0-0.2,0.1-0.3,0.3-0.3h0.5c0.2,0,0.3,0.1,0.3,0.3V47.9z
		"/>
	<path class="st1" d="M28.1,46.4c0.2,0,0.3,0.1,0.3,0.3v1.4c0,1.5-1.1,2.5-3,2.5c-1.9,0-3-1-3-2.7v-2.4c0-1.7,1.1-2.7,3-2.7
		c1.5,0,2.5,0.6,2.8,1.8c0.1,0.2,0,0.3-0.2,0.4l-0.4,0.1c-0.2,0.1-0.3,0-0.4-0.2c-0.3-0.8-0.8-1.2-1.9-1.2c-1.3,0-1.9,0.6-1.9,1.7
		v2.4c0,1.1,0.7,1.8,1.9,1.8c1.2,0,1.9-0.6,1.9-1.6v-0.7h-1.8c-0.2,0-0.3-0.1-0.3-0.3v-0.4c0-0.2,0.1-0.3,0.3-0.3H28.1z"/>
	<path class="st1" d="M36.3,50.2c0.1,0.2,0,0.3-0.2,0.3h-0.4c-0.3,0-0.4,0-0.5-0.2l-0.7-1.7h-3.1l-0.7,1.7c-0.1,0.2-0.2,0.2-0.5,0.2
		h-0.4c-0.2,0-0.3-0.1-0.2-0.3l2.8-7c0.1-0.2,0.2-0.2,0.3-0.2h0.4c0.2,0,0.3,0.1,0.3,0.2L36.3,50.2z M33.2,44.9
		c-0.1-0.4-0.2-0.7-0.2-1H33l0,0.1c0,0.2-0.1,0.6-0.2,0.8l-1.1,2.8h2.6L33.2,44.9z"/>
	<path class="st1" d="M41.2,42.9c1.4,0,2.3,0.8,2.3,2.3c0,1.1-0.6,1.9-1.6,2.1c0.2,0.1,0.4,0.3,0.5,0.6l1.2,2.3
		c0.1,0.2,0.1,0.3-0.1,0.3H43c-0.3,0-0.5,0-0.5-0.2l-1-1.9c-0.3-0.6-0.6-0.8-1.4-0.8H39v2.7c0,0.2-0.1,0.3-0.3,0.3h-0.5
		c-0.2,0-0.3-0.1-0.3-0.3v-7c0-0.2,0.1-0.3,0.3-0.3H41.2z M41.1,43.9H39v2.6h2.1c0.8,0,1.3-0.5,1.3-1.3
		C42.4,44.4,41.9,43.9,41.1,43.9"/>
	<line class="st1" x1="50.4" y1="35" x2="0.5" y2="59.9"/>
	
		<rect x="-2.4" y="47.2" transform="matrix(0.8952 -0.4456 0.4456 0.8952 -18.474 16.3018)" class="st1" width="55.7" height="0.5"/>
	<path class="st1" d="M49.4,60.4H1.2c-0.7,0-1.2-0.5-1.2-1.2V35c0-0.7,0.5-1.2,1.2-1.2h48.2c0.7,0,1.2,0.5,1.2,1.2v24.2
		C50.6,59.8,50.1,60.4,49.4,60.4 M1.2,34.3c-0.4,0-0.7,0.3-0.7,0.7v24.2c0,0.4,0.3,0.7,0.7,0.7h48.2c0.4,0,0.7-0.3,0.7-0.7V35
		c0-0.4-0.3-0.7-0.7-0.7H1.2z"/>
</g>
</svg>
